<svg id="Calque_1" data-name="Calque 1" xmlns="http://www.w3.org/2000/svg" viewBox="0 0 1314.04 226.46"><defs><style>.cls-1,.cls-2{fill:none;stroke:#1c99d5;stroke-miterlimit:10;stroke-width:1.14px;}.cls-2,.cls-6{opacity:0.5;}.cls-3{fill:#1c99d5;}.cls-4{opacity:0.7;}.cls-5{fill:#fff;}</style></defs><line class="cls-1" x1="571.65" y1="162.94" x2="1249.65" y2="162.94"/><path class="cls-2" d="M757.36,88.93H991.28c78,0,138.85,1.23,138.43,84.2a31.44,31.44,0,0,1-.26,3.18" transform="translate(-9.85 -13.37)"/><path class="cls-2" d="M715.53,88.93h-226c-74.85,0-129.52,1.23-132.91,84.2a23,23,0,0,0,.26,3.18" transform="translate(-9.85 -13.37)"/><line class="cls-1" x1="200.33" y1="162.94" x2="587.01" y2="162.94"/><path class="cls-3" d="M14.86,238.42a9.32,9.32,0,0,1-3.71-4,15.08,15.08,0,0,1,0-12.25,9.22,9.22,0,0,1,3.71-4,11.15,11.15,0,0,1,5.68-1.39,12.44,12.44,0,0,1,4.28.72,9.2,9.2,0,0,1,3.36,2.06L27,222a10.59,10.59,0,0,0-3.12-1.88,9.38,9.38,0,0,0-3.34-.58,6.68,6.68,0,0,0-5.42,2.27c-1.27,1.52-1.9,3.68-1.9,6.5a9.93,9.93,0,0,0,1.9,6.51,6.66,6.66,0,0,0,5.42,2.28,9.6,9.6,0,0,0,3.34-.57A10.85,10.85,0,0,0,27,234.61L28.18,237a9.07,9.07,0,0,1-3.36,2.06,12.44,12.44,0,0,1-4.28.72A11.15,11.15,0,0,1,14.86,238.42Z" transform="translate(-9.85 -13.37)"/><path class="cls-3" d="M32.92,239.57V217h3.29v19.8H47.15v2.75Z" transform="translate(-9.85 -13.37)"/><path class="cls-3" d="M51.05,239.57V217H65.7v2.65H54.28v7.1H65.06v2.69H54.28v7.45H65.7v2.66Z" transform="translate(-9.85 -13.37)"/><path class="cls-3" d="M88.7,239.57H85.05l-3.83-7.23a3.93,3.93,0,0,0-1.52-1.62,5,5,0,0,0-2.32-.46H73.67v9.31H70.4V217H80a8.61,8.61,0,0,1,5.71,1.66,6,6,0,0,1,2,4.86,6.24,6.24,0,0,1-1.46,4.26,6.81,6.81,0,0,1-4.14,2.11,4.83,4.83,0,0,1,2.75,2.49Zm-9.08-12a5.79,5.79,0,0,0,3.69-1,3.67,3.67,0,0,0,1.2-3,3.61,3.61,0,0,0-1.18-3,6,6,0,0,0-3.71-.94h-6v7.93Z" transform="translate(-9.85 -13.37)"/><path class="cls-3" d="M112.11,217h2.63v22.55h-3l0-16.32L105.08,236h-2.24l-6.75-12.54,0,16.16h-3V217H95.8L104,232.63Z" transform="translate(-9.85 -13.37)"/><path class="cls-3" d="M124.8,238.42a9.39,9.39,0,0,1-3.63-4,13.58,13.58,0,0,1-1.28-6.11,14,14,0,0,1,1.26-6.16,9.11,9.11,0,0,1,3.63-4,11.9,11.9,0,0,1,11.16,0,9.11,9.11,0,0,1,3.63,4,15.4,15.4,0,0,1,0,12.25,9.21,9.21,0,0,1-3.63,4,10.79,10.79,0,0,1-5.59,1.4A10.64,10.64,0,0,1,124.8,238.42Zm10.82-3.59a10.06,10.06,0,0,0,1.89-6.55q0-4.26-1.87-6.55a6.46,6.46,0,0,0-5.29-2.28,6.38,6.38,0,0,0-5.23,2.28q-1.87,2.29-1.87,6.55a10.12,10.12,0,0,0,1.87,6.55,6.34,6.34,0,0,0,5.23,2.31A6.41,6.41,0,0,0,135.62,234.83Z" transform="translate(-9.85 -13.37)"/><path class="cls-3" d="M161.37,217h3.11v22.55H162l-12.89-17v17H146V217h2.49l12.92,17Z" transform="translate(-9.85 -13.37)"/><path class="cls-3" d="M175.73,239.57v-19.8h-7.61V217h18.59v2.75h-7.65v19.8Z" transform="translate(-9.85 -13.37)"/><path class="cls-3" d="M188.46,232.34v-2.59h9.25v2.59Z" transform="translate(-9.85 -13.37)"/><path class="cls-3" d="M203.21,239.57V217h3.29v19.8h10.94v2.75Z" transform="translate(-9.85 -13.37)"/><path class="cls-3" d="M222.34,217v2.59a7.16,7.16,0,0,1-.5,2.72,7.73,7.73,0,0,1-1.68,2.43l-1.4-1.12a5.37,5.37,0,0,0,1.53-2.82h-1.76V217Z" transform="translate(-9.85 -13.37)"/><path class="cls-3" d="M243.39,217h3.26v22.55h-3.26V229.46H230.78v10.11h-3.26V217h3.26v9.75h12.61Z" transform="translate(-9.85 -13.37)"/><path class="cls-3" d="M252.53,239.57V217h14.65v2.65H255.76v7.1h10.78v2.69H255.76v7.45h11.42v2.66Zm8.86-24.47h-2.11l3.23-4.9h3.3Z" transform="translate(-9.85 -13.37)"/><path class="cls-3" d="M290.18,239.57h-3.65l-3.83-7.23a3.93,3.93,0,0,0-1.52-1.62,5,5,0,0,0-2.32-.46h-3.71v9.31h-3.27V217h9.6a8.61,8.61,0,0,1,5.71,1.66,6,6,0,0,1,2,4.86,6.24,6.24,0,0,1-1.46,4.26,6.81,6.81,0,0,1-4.14,2.11,4.8,4.8,0,0,1,2.75,2.49Zm-9.08-12a5.79,5.79,0,0,0,3.69-1,3.67,3.67,0,0,0,1.2-3,3.61,3.61,0,0,0-1.18-3,6,6,0,0,0-3.71-.94h-6v7.93Z" transform="translate(-9.85 -13.37)"/><path class="cls-3" d="M311.61,239.57l-2.4-5.57H297.79l-2.4,5.57h-3.32l10-22.55h2.75l10.05,22.55Zm-12.7-8.19h9.18l-4.57-10.69Z" transform="translate(-9.85 -13.37)"/><path class="cls-3" d="M320.5,237.49q-2.33-2.34-2.33-6.88V217h3.26v13.81a6.7,6.7,0,0,0,1.49,4.71,6.91,6.91,0,0,0,8.84,0,6.62,6.62,0,0,0,1.51-4.71V217h3.26v13.59c0,3-.78,5.29-2.35,6.86s-3.85,2.35-6.83,2.35S322.06,239,320.5,237.49Z" transform="translate(-9.85 -13.37)"/><path class="cls-3" d="M342.25,239.57V217h3.3v19.8h10.94v2.75Z" transform="translate(-9.85 -13.37)"/><path class="cls-3" d="M361.77,239.57v-19.8h-7.62V217h18.59v2.75h-7.65v19.8Z" transform="translate(-9.85 -13.37)"/><g class="cls-4"><path class="cls-3" d="M582.42,42.28a10.5,10.5,0,0,1-3.76-2.08l1.18-2.43a11.14,11.14,0,0,0,3.44,1.94,12.72,12.72,0,0,0,4,.59,6.85,6.85,0,0,0,3.9-.94,3.06,3.06,0,0,0,1.37-2.67,2.36,2.36,0,0,0-1.28-2.2,16,16,0,0,0-4.09-1.35,25.52,25.52,0,0,1-4.42-1.32,6.51,6.51,0,0,1-2.7-2,5.09,5.09,0,0,1-1-3.21,6,6,0,0,1,1-3.49,6.92,6.92,0,0,1,3-2.35,11,11,0,0,1,4.45-.85,13.58,13.58,0,0,1,4.46.72,8.73,8.73,0,0,1,3.44,2.07l-1.15,2.43a11.54,11.54,0,0,0-3.21-1.9,9.76,9.76,0,0,0-3.51-.63,6.42,6.42,0,0,0-3.82,1,3.25,3.25,0,0,0-1.39,2.8,2.59,2.59,0,0,0,1.21,2.32,13.49,13.49,0,0,0,3.91,1.42A33.13,33.13,0,0,1,592,31.49a7.07,7.07,0,0,1,2.78,1.89,4.57,4.57,0,0,1,1,3.11,5.82,5.82,0,0,1-1,3.43,6.73,6.73,0,0,1-3,2.27,12,12,0,0,1-4.59.8A15.61,15.61,0,0,1,582.42,42.28Z" transform="translate(-9.85 -13.37)"/><path class="cls-3" d="M605.43,42.73V22.93h-7.61V20.18H616.4v2.75h-7.64v19.8Z" transform="translate(-9.85 -13.37)"/><path class="cls-3" d="M618.16,35.5V32.91h9.25V35.5Z" transform="translate(-9.85 -13.37)"/><path class="cls-3" d="M632.91,42.73V20.18h14.33v2.69H636.17v7.07H646.6v2.68H636.17V42.73Z" transform="translate(-9.85 -13.37)"/><path class="cls-3" d="M651.49,42.73V20.18h14.65v2.66H654.72v7.1H665.5v2.68H654.72v7.46h11.42v2.65Zm8.86-24.47h-2.11l3.23-4.89h3.3Z" transform="translate(-9.85 -13.37)"/><path class="cls-3" d="M670.84,42.73V20.18h3.3V40h10.94v2.75Z" transform="translate(-9.85 -13.37)"/><path class="cls-3" d="M689,42.73V20.18h3.3V42.73Z" transform="translate(-9.85 -13.37)"/><path class="cls-3" d="M707.88,31.25l8.58,11.48h-3.87l-6.59-9-6.59,9h-3.87l8.6-11.51-8.25-11h3.87l6.27,8.6,6.24-8.6h3.83Z" transform="translate(-9.85 -13.37)"/><path class="cls-3" d="M718.54,35.5V32.91h9.24V35.5Z" transform="translate(-9.85 -13.37)"/><path class="cls-3" d="M733.28,20.18h7.9c3.65,0,6.47,1,8.48,2.94s3,4.74,3,8.32-1,6.36-3,8.33-4.83,3-8.48,3h-7.9ZM741,40q8.31,0,8.32-8.54T741,22.93h-4.41V40Z" transform="translate(-9.85 -13.37)"/><path class="cls-3" d="M757.78,42.73V20.18h14.65v2.66H761v7.1h10.78v2.68H761v7.46h11.42v2.65Z" transform="translate(-9.85 -13.37)"/><path class="cls-3" d="M776.69,35.5V32.91h9.24V35.5Z" transform="translate(-9.85 -13.37)"/><path class="cls-3" d="M791.43,42.73V20.18h3.3V40h10.94v2.75Z" transform="translate(-9.85 -13.37)"/><path class="cls-3" d="M812.53,41.58a9.34,9.34,0,0,1-3.63-4,13.55,13.55,0,0,1-1.28-6.11,14,14,0,0,1,1.26-6.16,9.08,9.08,0,0,1,3.63-4,11.82,11.82,0,0,1,11.16,0,9.08,9.08,0,0,1,3.63,4,13.81,13.81,0,0,1,1.27,6.13,13.73,13.73,0,0,1-1.27,6.12,9.21,9.21,0,0,1-3.63,4A10.7,10.7,0,0,1,818.08,43,10.55,10.55,0,0,1,812.53,41.58ZM823.35,38a10.09,10.09,0,0,0,1.89-6.56q0-4.26-1.87-6.54a6.44,6.44,0,0,0-5.29-2.29,6.36,6.36,0,0,0-5.23,2.29Q811,27.18,811,31.44A10.15,10.15,0,0,0,812.85,38a6.36,6.36,0,0,0,5.23,2.3A6.43,6.43,0,0,0,823.35,38Z" transform="translate(-9.85 -13.37)"/><path class="cls-3" d="M833.69,20.18h7.9c3.64,0,6.47,1,8.47,2.94s3,4.74,3,8.32-1,6.36-3,8.33-4.83,3-8.47,3h-7.9Zm7.7,19.8q8.33,0,8.32-8.54t-8.32-8.51H837V40Z" transform="translate(-9.85 -13.37)"/><path class="cls-3" d="M858.19,42.73V20.18h14.65v2.66H861.42v7.1H872.2v2.68H861.42v7.46h11.42v2.65Z" transform="translate(-9.85 -13.37)"/><path class="cls-3" d="M880.13,40H892.8v2.69H876.39V40.3L888.7,22.87H876.39V20.18h16.09v2.4Z" transform="translate(-9.85 -13.37)"/></g><path class="cls-3" d="M1219.81,227.6v10.62a14.12,14.12,0,0,1-3.62,1.17,22.43,22.43,0,0,1-4.41.43,12.16,12.16,0,0,1-5.92-1.37,9.19,9.19,0,0,1-3.81-4,15.23,15.23,0,0,1,0-12.36,9.17,9.17,0,0,1,3.76-4,11.57,11.57,0,0,1,5.77-1.38,13.57,13.57,0,0,1,4.42.7,9.47,9.47,0,0,1,3.42,2l-1.18,2.43a11.05,11.05,0,0,0-3.17-1.88,9.76,9.76,0,0,0-3.45-.58,7,7,0,0,0-5.58,2.25q-1.93,2.27-1.94,6.55t2,6.63a7.29,7.29,0,0,0,5.79,2.26,16.93,16.93,0,0,0,4.93-.74V230.1h-5.25v-2.5Z" transform="translate(-9.85 -13.37)"/><path class="cls-3" d="M1225.44,239.57V217h3.29v22.55Z" transform="translate(-9.85 -13.37)"/><path class="cls-3" d="M1252.91,227.6v10.62a14,14,0,0,1-3.61,1.17,22.45,22.45,0,0,1-4.42.43,12.18,12.18,0,0,1-5.92-1.37,9.11,9.11,0,0,1-3.8-4,15.23,15.23,0,0,1,0-12.36,9.11,9.11,0,0,1,3.76-4,11.54,11.54,0,0,1,5.77-1.38,13.5,13.5,0,0,1,4.41.7,9.42,9.42,0,0,1,3.43,2l-1.19,2.43a11,11,0,0,0-3.16-1.88,9.85,9.85,0,0,0-3.46-.58,7,7,0,0,0-5.58,2.25q-1.94,2.27-1.93,6.55t2,6.63a7.28,7.28,0,0,0,5.79,2.26,16.91,16.91,0,0,0,4.92-.74V230.1h-5.24v-2.5Z" transform="translate(-9.85 -13.37)"/><path class="cls-3" d="M1274,217h3.1v22.55h-2.53l-12.89-17v17h-3.1V217h2.5l12.92,17Z" transform="translate(-9.85 -13.37)"/><path class="cls-3" d="M1300.19,239.57l-2.4-5.57h-11.42l-2.4,5.57h-3.33l10-22.55h2.75l10,22.55Zm-12.7-8.19h9.18l-4.58-10.69Z" transform="translate(-9.85 -13.37)"/><path class="cls-3" d="M1310.57,238.42a9.32,9.32,0,0,1-3.71-4,15.08,15.08,0,0,1,0-12.25,9.22,9.22,0,0,1,3.71-4,11.15,11.15,0,0,1,5.68-1.39,12.44,12.44,0,0,1,4.28.72,9.37,9.37,0,0,1,3.36,2.06l-1.15,2.43a10.85,10.85,0,0,0-3.12-1.88,9.42,9.42,0,0,0-3.34-.58,6.67,6.67,0,0,0-5.42,2.27,12,12,0,0,0,0,13,6.65,6.65,0,0,0,5.42,2.28,9.64,9.64,0,0,0,3.34-.57,11.13,11.13,0,0,0,3.12-1.89l1.15,2.43a9.23,9.23,0,0,1-3.36,2.06,12.44,12.44,0,0,1-4.28.72A11.15,11.15,0,0,1,1310.57,238.42Z" transform="translate(-9.85 -13.37)"/><path class="cls-3" d="M731.92,239.12a10.41,10.41,0,0,1-3.76-2.08l1.18-2.43a11.1,11.1,0,0,0,3.44,1.93,12.37,12.37,0,0,0,4,.6,6.81,6.81,0,0,0,3.9-.95,3,3,0,0,0,1.38-2.67,2.36,2.36,0,0,0-1.28-2.19,16.38,16.38,0,0,0-4.09-1.36,24.24,24.24,0,0,1-4.42-1.31,6.6,6.6,0,0,1-2.7-2,5.09,5.09,0,0,1-1-3.21,6,6,0,0,1,1-3.49,6.88,6.88,0,0,1,3-2.35,10.84,10.84,0,0,1,4.45-.85,13.63,13.63,0,0,1,4.46.72,8.9,8.9,0,0,1,3.44,2.06L743.77,222a11.83,11.83,0,0,0-3.22-1.9,9.92,9.92,0,0,0-3.5-.62,6.33,6.33,0,0,0-3.82,1,3.24,3.24,0,0,0-1.39,2.79,2.57,2.57,0,0,0,1.21,2.32A13.08,13.08,0,0,0,737,227a32.46,32.46,0,0,1,4.56,1.32,7,7,0,0,1,2.78,1.89,4.56,4.56,0,0,1,1,3.12,5.72,5.72,0,0,1-1,3.42,6.58,6.58,0,0,1-3,2.27,11.85,11.85,0,0,1-4.59.8A15.61,15.61,0,0,1,731.92,239.12Z" transform="translate(-9.85 -13.37)"/><path class="cls-3" d="M754.93,239.57v-19.8h-7.61V217H765.9v2.75h-7.64v19.8Z" transform="translate(-9.85 -13.37)"/><path class="cls-3" d="M767.66,232.34v-2.59h9.24v2.59Z" transform="translate(-9.85 -13.37)"/><path class="cls-3" d="M799.17,239.57l-2.4-5.57H785.35l-2.4,5.57h-3.33l10-22.55h2.75l10,22.55Zm-12.7-8.19h9.18l-4.58-10.69Z" transform="translate(-9.85 -13.37)"/><path class="cls-3" d="M821.46,217h3.1v22.55H822l-12.89-17v17H806V217h2.5l12.92,17Z" transform="translate(-9.85 -13.37)"/><path class="cls-3" d="M830.45,217h7.9c3.65,0,6.47,1,8.48,2.94s3,4.73,3,8.32-1,6.36-3,8.33-4.83,3-8.48,3h-7.9Zm7.71,19.8q8.31,0,8.31-8.54t-8.31-8.51h-4.42v17Z" transform="translate(-9.85 -13.37)"/><path class="cls-3" d="M873.25,239.57H869.6l-3.84-7.23a3.87,3.87,0,0,0-1.52-1.62,5,5,0,0,0-2.32-.46h-3.71v9.31H855V217h9.6a8.64,8.64,0,0,1,5.71,1.66,6,6,0,0,1,2,4.86,6.24,6.24,0,0,1-1.45,4.26,6.81,6.81,0,0,1-4.15,2.11,4.85,4.85,0,0,1,2.76,2.49Zm-9.09-12a5.81,5.81,0,0,0,3.7-1,3.67,3.67,0,0,0,1.2-3,3.61,3.61,0,0,0-1.19-3,6,6,0,0,0-3.71-.94h-6v7.93Z" transform="translate(-9.85 -13.37)"/><path class="cls-3" d="M877.66,239.57V217h14.65v2.65H880.89v7.1h10.78v2.69H880.89v7.45h11.42v2.66Zm8.86-24.47h-2.11l3.23-4.9h3.29Z" transform="translate(-9.85 -13.37)"/><path class="cls-3" d="M896.56,232.34v-2.59h9.25v2.59Z" transform="translate(-9.85 -13.37)"/><path class="cls-3" d="M911.31,217h7.9c3.65,0,6.47,1,8.48,2.94s3,4.73,3,8.32-1,6.36-3,8.33-4.83,3-8.48,3h-7.9Zm7.71,19.8q8.31,0,8.31-8.54T919,219.77H914.6v17Z" transform="translate(-9.85 -13.37)"/><path class="cls-3" d="M935.81,239.57V217h14.65v2.65H939v7.1h10.78v2.69H939v7.45h11.42v2.66Z" transform="translate(-9.85 -13.37)"/><path class="cls-3" d="M954.71,232.34v-2.59H964v2.59Z" transform="translate(-9.85 -13.37)"/><path class="cls-3" d="M971.39,239.12a10.37,10.37,0,0,1-3.75-2.08l1.18-2.43a11,11,0,0,0,3.44,1.93,12.37,12.37,0,0,0,4,.6,6.83,6.83,0,0,0,3.9-.95,3,3,0,0,0,1.38-2.67,2.36,2.36,0,0,0-1.28-2.19,16.49,16.49,0,0,0-4.1-1.36,24.36,24.36,0,0,1-4.41-1.31,6.6,6.6,0,0,1-2.7-2,5.09,5.09,0,0,1-1-3.21,6,6,0,0,1,1-3.49,6.82,6.82,0,0,1,3-2.35,10.84,10.84,0,0,1,4.45-.85,13.67,13.67,0,0,1,4.46.72,9,9,0,0,1,3.44,2.06L983.25,222a11.83,11.83,0,0,0-3.22-1.9,10,10,0,0,0-3.5-.62,6.33,6.33,0,0,0-3.82,1,3.25,3.25,0,0,0-1.4,2.79,2.58,2.58,0,0,0,1.22,2.32,13.08,13.08,0,0,0,3.9,1.43,32.46,32.46,0,0,1,4.56,1.32,7,7,0,0,1,2.78,1.89,4.56,4.56,0,0,1,1,3.12,5.72,5.72,0,0,1-1,3.42,6.58,6.58,0,0,1-3,2.27,11.85,11.85,0,0,1-4.59.8A15.68,15.68,0,0,1,971.39,239.12Z" transform="translate(-9.85 -13.37)"/><path class="cls-3" d="M1006.6,239.57l-2.4-5.57H992.78l-2.4,5.57h-3.33L997.1,217h2.75l10,22.55Zm-12.7-8.19h9.18l-4.58-10.69Z" transform="translate(-9.85 -13.37)"/><path class="cls-3" d="M1028.89,217h3.1v22.55h-2.52l-12.89-17v17h-3.11V217h2.5l12.92,17Z" transform="translate(-9.85 -13.37)"/><path class="cls-3" d="M1056.17,227.6v10.62a14,14,0,0,1-3.61,1.17,22.43,22.43,0,0,1-4.41.43,12.13,12.13,0,0,1-5.92-1.37,9.14,9.14,0,0,1-3.81-4,15.23,15.23,0,0,1,0-12.36,9.17,9.17,0,0,1,3.76-4,11.57,11.57,0,0,1,5.77-1.38,13.61,13.61,0,0,1,4.42.7,9.47,9.47,0,0,1,3.42,2l-1.18,2.43a11.19,11.19,0,0,0-3.17-1.88,9.84,9.84,0,0,0-3.45-.58,7,7,0,0,0-5.59,2.25q-1.94,2.27-1.93,6.55t2,6.63a7.28,7.28,0,0,0,5.79,2.26,17,17,0,0,0,4.93-.74V230.1h-5.25v-2.5Z" transform="translate(-9.85 -13.37)"/><path class="cls-3" d="M1066,238.42a9.39,9.39,0,0,1-3.63-4,13.58,13.58,0,0,1-1.28-6.11,14,14,0,0,1,1.26-6.16,9.11,9.11,0,0,1,3.63-4,11.9,11.9,0,0,1,11.16,0,9.11,9.11,0,0,1,3.63,4,15.4,15.4,0,0,1,0,12.25,9.21,9.21,0,0,1-3.63,4,10.81,10.81,0,0,1-5.59,1.4A10.64,10.64,0,0,1,1066,238.42Zm10.82-3.59a10.06,10.06,0,0,0,1.89-6.55q0-4.26-1.87-6.55a6.46,6.46,0,0,0-5.29-2.28,6.38,6.38,0,0,0-5.23,2.28,12.35,12.35,0,0,0,0,13.1,6.34,6.34,0,0,0,5.23,2.31A6.42,6.42,0,0,0,1076.77,234.83Z" transform="translate(-9.85 -13.37)"/><path class="cls-3" d="M1102.52,217h3.1v22.55h-2.52l-12.89-17v17h-3.1V217h2.49l12.92,17Z" transform="translate(-9.85 -13.37)"/><path class="cls-3" d="M1111.51,239.57V217h3.3v22.55Z" transform="translate(-9.85 -13.37)"/><path class="cls-3" d="M1123.27,239.12a10.33,10.33,0,0,1-3.76-2.08l1.18-2.43a11.1,11.1,0,0,0,3.44,1.93,12.37,12.37,0,0,0,4,.6,6.83,6.83,0,0,0,3.9-.95,3,3,0,0,0,1.38-2.67,2.36,2.36,0,0,0-1.28-2.19A16.38,16.38,0,0,0,1128,230a24.24,24.24,0,0,1-4.42-1.31,6.6,6.6,0,0,1-2.7-2,5.09,5.09,0,0,1-1-3.21,6,6,0,0,1,1-3.49,6.88,6.88,0,0,1,3-2.35,10.84,10.84,0,0,1,4.45-.85,13.63,13.63,0,0,1,4.46.72,8.9,8.9,0,0,1,3.44,2.06l-1.15,2.43a11.83,11.83,0,0,0-3.22-1.9,9.92,9.92,0,0,0-3.5-.62,6.33,6.33,0,0,0-3.82,1,3.24,3.24,0,0,0-1.39,2.79,2.57,2.57,0,0,0,1.21,2.32,13.08,13.08,0,0,0,3.9,1.43,32.46,32.46,0,0,1,4.56,1.32,7,7,0,0,1,2.78,1.89,4.56,4.56,0,0,1,1,3.12,5.72,5.72,0,0,1-1,3.42,6.58,6.58,0,0,1-3,2.27,11.85,11.85,0,0,1-4.59.8A15.61,15.61,0,0,1,1123.27,239.12Z" transform="translate(-9.85 -13.37)"/><path class="cls-3" d="M503.69,238.42a9.38,9.38,0,0,1-3.71-4,15.19,15.19,0,0,1,0-12.25,9.28,9.28,0,0,1,3.71-4,11.17,11.17,0,0,1,5.68-1.39,12.46,12.46,0,0,1,4.29.72,9.37,9.37,0,0,1,3.36,2.06L515.86,222a10.68,10.68,0,0,0-3.11-1.88,9.43,9.43,0,0,0-3.35-.58,6.7,6.7,0,0,0-5.42,2.27c-1.27,1.52-1.9,3.68-1.9,6.5a9.93,9.93,0,0,0,1.9,6.51,6.67,6.67,0,0,0,5.42,2.28,9.66,9.66,0,0,0,3.35-.57,11,11,0,0,0,3.11-1.89L517,237a9.23,9.23,0,0,1-3.36,2.06,12.46,12.46,0,0,1-4.29.72A11.18,11.18,0,0,1,503.69,238.42Z" transform="translate(-9.85 -13.37)"/><path class="cls-3" d="M521.75,239.57V217H536.4v2.65H525v7.1h10.78v2.69H525v7.45H536.4v2.66Z" transform="translate(-9.85 -13.37)"/><path class="cls-3" d="M558.73,217l-9,12v10.53h-3.3V229l-9-12h3.77l6.88,9.3L555,217Z" transform="translate(-9.85 -13.37)"/><path class="cls-3" d="M579.42,239.57h-3.65l-3.83-7.23a3.93,3.93,0,0,0-1.52-1.62,5,5,0,0,0-2.32-.46h-3.71v9.31h-3.27V217h9.6a8.61,8.61,0,0,1,5.71,1.66,6,6,0,0,1,2,4.86,6.24,6.24,0,0,1-1.46,4.26,6.81,6.81,0,0,1-4.14,2.11,4.8,4.8,0,0,1,2.75,2.49Zm-9.08-12a5.79,5.79,0,0,0,3.69-1,3.67,3.67,0,0,0,1.2-3,3.61,3.61,0,0,0-1.18-3,6,6,0,0,0-3.71-.94h-6v7.93Z" transform="translate(-9.85 -13.37)"/><path class="cls-3" d="M600.85,239.57l-2.4-5.57H587l-2.39,5.57h-3.33l10-22.55h2.75l10,22.55Zm-12.7-8.19h9.18l-4.57-10.69Z" transform="translate(-9.85 -13.37)"/><path class="cls-3" d="M610.08,239.12a10.5,10.5,0,0,1-3.76-2.08l1.19-2.43a11,11,0,0,0,3.43,1.93,12.43,12.43,0,0,0,4,.6,6.85,6.85,0,0,0,3.9-.95,3,3,0,0,0,1.37-2.67,2.34,2.34,0,0,0-1.28-2.19,16.24,16.24,0,0,0-4.09-1.36,24.36,24.36,0,0,1-4.41-1.31,6.57,6.57,0,0,1-2.71-2,5.09,5.09,0,0,1-1-3.21,5.92,5.92,0,0,1,1-3.49,6.82,6.82,0,0,1,3-2.35,10.82,10.82,0,0,1,4.44-.85,13.58,13.58,0,0,1,4.46.72,8.83,8.83,0,0,1,3.44,2.06L621.93,222a11.79,11.79,0,0,0-3.21-1.9,10,10,0,0,0-3.51-.62,6.35,6.35,0,0,0-3.82,1,3.24,3.24,0,0,0-1.39,2.79,2.56,2.56,0,0,0,1.22,2.32,13.08,13.08,0,0,0,3.9,1.43,33.29,33.29,0,0,1,4.56,1.32,7,7,0,0,1,2.78,1.89,4.61,4.61,0,0,1,1,3.12,5.79,5.79,0,0,1-1,3.42,6.61,6.61,0,0,1-3,2.27,11.85,11.85,0,0,1-4.59.8A15.66,15.66,0,0,1,610.08,239.12Z" transform="translate(-9.85 -13.37)"/><circle class="cls-3" cx="1250.37" cy="162.94" r="21.47"/><circle class="cls-5" cx="1250.37" cy="162.94" r="12.49"/><circle class="cls-3" cx="923.12" cy="162.94" r="21.47"/><circle class="cls-5" cx="923.12" cy="162.94" r="12.49"/><g class="cls-6"><circle class="cls-3" cx="726.28" cy="76.82" r="21.47"/><circle class="cls-3" cx="726.28" cy="76.82" r="12.49"/></g><circle class="cls-5" cx="726.28" cy="76.82" r="12.49"/><circle class="cls-3" cx="554.05" cy="162.94" r="21.47"/><circle class="cls-5" cx="554.05" cy="162.94" r="12.49"/><circle class="cls-3" cx="183.79" cy="162.94" r="21.47"/><circle class="cls-5" cx="183.79" cy="162.94" r="12.49"/></svg>