<?xml version="1.0" encoding="utf-8"?>
<!-- Generator: Adobe Illustrator 25.0.1, SVG Export Plug-In . SVG Version: 6.00 Build 0)  -->
<svg version="1.1" id="Calque_1" xmlns="http://www.w3.org/2000/svg" xmlns:xlink="http://www.w3.org/1999/xlink" x="0px" y="0px"
	 width="610px" height="102px" viewBox="0 0 610 102" style="enable-background:new 0 0 610 102;" xml:space="preserve">
<style type="text/css">
	.st0{fill:#FFFFFF;}
</style>
<g>
	<path class="st0" d="M568.4,31.5c10.6,0,19.6,7.6,19.6,19.9c0,11.3-9,18.9-19.6,18.9c-10.7,0-20.2-7.3-20.2-19.6
		C548.2,39,557.2,31.5,568.4,31.5 M568.9,19.7c-11.2,0-24.2,6.6-28.2,18.6c-0.1,0.4-0.5,0.5-1.1,0.5c-0.6,0-0.8-0.2-0.8-0.7V20.9
		h-13.5v78.2H539l-0.2-34.7c0-0.5,0.2-0.7,0.8-0.7c0.6,0,1,0.1,1.1,0.5c2.6,6.6,11.4,17.8,28.2,17.8c17.3,0,32.1-11.6,32.1-30.7
		C601,29,584,19.7,568.9,19.7 M483.9,70.2c-14.1,0-19.7-9-19.7-18.9c0-11.2,6.9-19.9,19.7-19.9c12.4,0,20.1,8.7,20.1,19.9
		C504,61.2,498.1,70.2,483.9,70.2 M483.9,82c19.4,0,33.6-13,33.6-30.8c0-18.4-14.7-31.5-33.6-31.5c-19.4,0-33.2,13.1-33.2,31.5
		C450.7,69,463.3,82,483.9,82 M411.8,70.2c-14.1,0-19.7-9-19.7-18.9c0-11.2,6.9-19.9,19.7-19.9c12.4,0,20.1,8.7,20.1,19.9
		C431.9,61.2,426,70.2,411.8,70.2 M411.8,82c19.4,0,33.6-13,33.6-30.8c0-18.4-14.7-31.5-33.6-31.5c-19.4,0-33.2,13.1-33.2,31.5
		C378.6,69,391.3,82,411.8,82 M339.9,82c19.4,0,30.4-10.3,32.4-25.5h-13.5c-1.2,8.2-7.9,13.7-18.2,13.7c-13.2,0-19.1-9-19.1-18.9
		c0-11.2,6.9-19.9,19.4-19.9c10,0,16,5.8,17.9,14.2h13.5c-1.6-16.7-14.6-26-31.6-26c-18.4,0-32.4,13.1-32.4,31.5
		C308.3,69,320.9,82,339.9,82 M284.3,81.1h13.7V20.9h-13.7V81.1z M242.1,70.2c-11.2,0-20.2-7.2-20.2-18.9c0-12.3,9.5-19.9,20.2-19.9
		c10.6,0,19.6,7.8,19.6,19.1C261.7,62.9,252.6,70.2,242.1,70.2 M242.5,82c15.2,0,32.1-9,32.1-31.4c0-19.1-14.8-30.9-32.1-30.9
		c-16.7,0-25.5,11.4-28.2,18c-0.1,0.4-0.5,0.5-1.1,0.5c-0.6,0-0.8-0.2-0.8-0.7l0.2-34.7H199v78.2h13.5V63.9c0-0.5,0.2-0.7,0.8-0.7
		c0.6,0,1,0.1,1.1,0.5C218.4,75.7,231.4,82,242.5,82 M158.7,70.2c-14.1,0-19.7-9-19.7-18.9c0-11.2,6.9-19.9,19.7-19.9
		c12.4,0,20.1,8.7,20.1,19.9C178.8,61.2,172.9,70.2,158.7,70.2 M158.7,82c19.4,0,33.6-13,33.6-30.8c0-18.4-14.7-31.5-33.6-31.5
		c-19.4,0-33.2,13.1-33.2,31.5C125.5,69,138.2,82,158.7,82 M1,81.1h13.8V58c0-13.7,7.9-26.5,20.9-26.5c10.5,0,15.6,7.5,15.6,20.2
		v29.4h15.4V55.9c0-13.1,9-24.4,21.3-24.4c10.8,0,15.3,7.5,15.3,19.1v30.4h15.4V48.4c0-17.4-12.3-28.6-28.6-28.6
		c-13.2,0-21.8,6.6-24.4,14.7c-0.1,0.4-0.4,0.5-1,0.5c-0.6,0-0.7-0.2-1-0.7C59.2,25,50.7,19.7,40.1,19.7c-13.2,0-21.1,6.6-23.7,14.7
		c-0.1,0.4-0.4,0.5-1,0.5c-0.6,0-1-0.2-1-0.7V20.9H1V81.1z"/>
</g>
</svg>
