<?xml version="1.0" encoding="utf-8"?>
<!-- Generator: Adobe Illustrator 25.0.1, SVG Export Plug-In . SVG Version: 6.00 Build 0)  -->
<svg version="1.1" id="Calque_1" xmlns="http://www.w3.org/2000/svg" xmlns:xlink="http://www.w3.org/1999/xlink" x="0px" y="0px"
	 width="232px" height="228px" viewBox="0 0 232 228" style="enable-background:new 0 0 232 228;" xml:space="preserve">
<style type="text/css">
	.st0{fill:none;stroke:#FFFFFF;stroke-width:7.2083;stroke-linecap:round;stroke-linejoin:round;stroke-miterlimit:10;}
	.st1{fill:#FFFFFF;stroke:#F045AB;stroke-width:2.5425;stroke-miterlimit:10;}
	.st2{fill:#FFFFFF;}
	.st3{fill:#F045AB;}
	.st4{fill:#F045AB;stroke:#F045AB;stroke-width:2.5425;stroke-miterlimit:10;}
	.st5{fill:none;stroke:#F045AB;stroke-width:1.3012;stroke-linecap:round;stroke-linejoin:round;stroke-miterlimit:10;}
	.st6{fill:none;stroke:#F045AB;stroke-width:0.239;stroke-miterlimit:10;}
	.st7{fill:#FFFFFF;stroke:#F045AB;stroke-width:0.4248;stroke-linecap:round;stroke-linejoin:round;stroke-miterlimit:10;}
	.st8{fill:#FFFFFF;stroke:#F045AB;stroke-width:0.3607;stroke-linecap:round;stroke-linejoin:round;stroke-miterlimit:10;}
	.st9{fill:none;stroke:#F045AB;stroke-width:1.9765;stroke-linecap:round;stroke-linejoin:round;stroke-miterlimit:10;}
</style>
<g>
	<g>
		<path class="st0" d="M176,169.3c-9.5,1.3-16.1,10.1-14.8,19.5c1.3,9.5,10.1,16.1,19.5,14.8c9.5-1.3,16.1-10.1,14.8-19.5
			C194.2,174.6,185.5,168,176,169.3z"/>
		<path class="st0" d="M224.9,172.9c-0.1-1.1-0.2-2.8-0.4-4.9c0-0.4-0.1-0.7-0.1-1.1c-1-11.5-4.1-32.5-11.7-43.3
			c-0.4-0.5-0.9-1.3-1.6-2.1l0,0c-1.9-2.5-14.7-16.8-15.5-17.5l-0.1,0c-1-1.1-1.7-1.9-2.1-2.4l2.5-0.3c-1.3-3.8-12.5-6.3-22.1-5.6
			c-35.4,2.8-110.4,13.7-148.5,19.9c-11.4,1.8-16.7,6.2-18.7,11.7l-0.1,0c-1.1,3.3-1.1,7.3-0.5,11.6l0.9,6.7
			c-2.6,1.8-2.3,4.6-2.1,6.3c0.1,0.8,0.2,1.8,0.4,2.8c0,0,0,0,0.1,0c1,7.2,2.7,19.3,4.2,29.8c0,0,0,0.1,0,0.1
			c0.1,0.6,0.2,1.2,0.2,1.7c-1,0.1-1.8,0.5-1.8,1.1c0.1,1,1.2,8.6,1.8,9c0.2,0.1,0.8,0.1,1.4,0c0.4,2.7,0.7,4.8,0.8,6.1
			c-1.5,0.6-2.5,2.2-2.3,3.9l0.1,0.8c0.3,2,2.1,3.4,4.1,3.1l11-1.5c2-0.3,3.4-2.1,3.1-4.1l-0.1-0.8c-0.1-1-0.7-1.9-1.5-2.5
			c1.5-3.6,3.5-7.5,5.6-7.6l5.2-0.8c-3.1,3.6-4.7,8.5-4,13.6c1.3,9.5,10.1,16.1,19.5,14.8c9.5-1.3,16.1-10.1,14.8-19.5
			c-0.7-5.1-3.6-9.4-7.5-12l6.2-0.8c2.1-0.5,5.9,4.6,8.4,7.7l83.4-11.6c2.8-10.8,6.9-15.4,12.8-16.2l4.4-0.6l4.4-0.6
			c6-0.8,10.2,1,15.8,10.7l1.2-0.2c-0.4,0.6-0.5,1.4-0.4,2.2c0.3,2.2,2.5,4.1,4.8,3.8l26.6-3.7l-0.6-4.4l-0.5-3.7L224.9,172.9z"/>
	</g>
	<path class="st1" d="M25.3,115.6c38.2-6.2,113.1-17.1,148.5-19.9c9.6-0.8,20.7,1.8,22.1,5.6l-189.2,26
		C8.6,121.8,14,117.4,25.3,115.6z"/>
	<path class="st1" d="M33.4,206.6c1.3,9.5,10.1,16.1,19.5,14.8c9.5-1.3,16.1-10.1,14.8-19.5c-1.3-9.5-10.1-16.1-19.5-14.8
		C38.7,188.4,32.1,197.1,33.4,206.6z"/>
	<path class="st1" d="M161.2,188.9c1.3,9.5,10.1,16.1,19.5,14.8c9.5-1.3,16.1-10.1,14.8-19.5c-1.3-9.5-10.1-16.1-19.5-14.8
		C166.5,170.6,159.9,179.4,161.2,188.9z"/>
	<path class="st1" d="M186.6,131.1c-47.7,2.5-181.2,23.6-181.3,23.6c1,7.2,2.7,19.3,4.2,29.8c0,0,0,0.1,0,0.1
		c1.5,10.6,2.7,19.3,2.7,19.3l14.1-1.9c1.5-3.7,3.6-8,5.8-8.2l17-2.6l17.3-2.1c2.1-0.5,5.9,4.6,8.4,7.7l83.4-11.6
		c2.8-10.8,6.9-15.4,12.8-16.2l4.4-0.6l4.4-0.6c6-0.8,10.2,1,15.8,10.7l28.4-3.9l1-0.1c0,0-0.1-2.5-0.5-6.4
		C223,155.5,216.1,129.6,186.6,131.1z"/>
	<path class="st1" d="M186.6,131.1c29.5-1.5,36.3,24.4,37.9,36.8c-0.9-11.2-4-33.3-11.8-44.4c-3.2-4.5-17-19.3-19.3-21.9L6.6,127.3
		c-1.1,3.3-1.1,7.3-0.5,11.6l0.9,6.7c-2.6,1.8-2.3,4.6-2.1,6.3c0.1,0.8,0.2,1.8,0.4,2.8C5.3,154.7,138.8,133.6,186.6,131.1z"/>
	<g>
		<g>
			<g>
				<path class="st2" d="M213.3,155.7c-1.9,0-2.6-3.9-2.9-5.6c-0.2-1.4-0.2-2.7-0.1-3.8c0.1-0.6,0.2-2.3,1.5-2.5c0.2,0,0.3,0,0.5,0
					c2.4,0,4.5,2.3,4.9,5.3c0.5,3.3-1.3,6.2-3.8,6.6l-0.1,0L213.3,155.7z"/>
				<path class="st3" d="M212.4,144.8c1.9,0,3.6,1.9,3.9,4.4c0.4,2.7-0.9,5.1-2.9,5.4c0,0,0,0,0,0c-0.7,0-1.5-2.1-1.8-4.8
					c-0.4-2.7-0.1-5,0.5-5.1C212.1,144.8,212.3,144.8,212.4,144.8 M212.4,142.7c-0.2,0-0.4,0-0.7,0c-1,0.1-2.1,0.8-2.4,3.4
					c-0.1,1.1-0.1,2.5,0.1,4c0.6,4.3,1.9,6.5,3.9,6.5h0.1l0.2,0c3.2-0.4,5.2-3.8,4.7-7.7C217.8,145.4,215.3,142.7,212.4,142.7
					L212.4,142.7z"/>
			</g>
		</g>
		<g>
			<g>
				<path class="st2" d="M206.7,144.1c-1,0-1.7-1.1-2-3.4c-0.1-0.8-0.1-1.5-0.1-2.1c0.1-1.3,0.7-1.7,1.2-1.7c0.1,0,0.2,0,0.3,0
					c1.5,0,2.8,1.4,3.1,3.2c0.3,2-0.8,3.8-2.4,4L206.7,144.1L206.7,144.1z"/>
				<path class="st3" d="M206.2,137.9c1,0,1.9,1,2.1,2.3c0.2,1.4-0.5,2.7-1.5,2.8c0,0,0,0,0,0c-0.3,0-0.8-1.1-1-2.5
					c-0.2-1.4-0.1-2.6,0.3-2.7C206.1,138,206.1,137.9,206.2,137.9 M206.2,135.9c-0.2,0-0.3,0-0.5,0c-1,0.1-2.6,1-2,5
					c0.4,2.8,1.4,4.2,3,4.2h0.1l0.2,0c1.1-0.2,2.2-0.9,2.7-2c0.5-0.9,0.7-2,0.5-3.1C210,137.6,208.2,135.9,206.2,135.9L206.2,135.9z
					"/>
			</g>
		</g>
	</g>
	<g>
		<g>
			<g>
				<path class="st4" d="M28.1,204.6c0.3,2-1.1,3.8-3.1,4.1l-11,1.5c-2,0.3-3.8-1.1-4.1-3.1l-0.1-0.8c-0.3-2,1.1-3.8,3.1-4.1l11-1.5
					c2-0.3,3.8,1.1,4.1,3.1L28.1,204.6z"/>
			</g>
			<path class="st4" d="M200.1,176.3c-2.3,0.3-4,2-3.7,4.2c0.3,2.2,2.5,4.1,4.8,3.8l26.6-3.7l-0.6-4.4l-0.5-3.7L200.1,176.3z"/>
		</g>
	</g>
	<g>
		<g>
			<path class="st5" d="M110.9,112.9l-2.3,0.3l-29,4l10.1,72.6l29-4l2.3-0.3l29-4l-10.1-72.6L110.9,112.9z"/>
		</g>
	</g>
	<g>
		<g>
			<path class="st1" d="M8,187.4c-0.1-1.1,3.4-1.6,4.1-0.6c0.7,1,1.7,6.6,1.4,8c-0.2,1.4-3.2,1.9-3.7,1.5
				C9.2,196.1,8.1,188.5,8,187.4z"/>
		</g>
	</g>
	<path class="st3" d="M38,206c1,7,7.4,11.8,14.3,10.8c7-1,11.8-7.4,10.8-14.3c-1-7-7.4-11.8-14.3-10.8C41.9,192.6,37,199,38,206z"/>
	<path class="st3" d="M165.8,188.2c1,7,7.4,11.8,14.3,10.8c7-1,11.8-7.4,10.8-14.3c-1-7-7.4-11.8-14.3-10.8
		C169.7,174.9,164.8,181.3,165.8,188.2z"/>
	<g>
		<g>
			<path class="st2" d="M176.4,124.1c-3.5,0-6.4-1.6-7.8-4.3c-2.2-4.2,0.1-9.8,5-12.3c1.6-0.8,3.4-1.3,5.2-1.3
				c3.5,0,6.4,1.6,7.8,4.3c2.2,4.2-0.1,9.8-5,12.3C179.9,123.7,178.1,124.1,176.4,124.1z"/>
			<path class="st3" d="M178.8,106.5c3.3,0,6.1,1.6,7.5,4.2c1,2,1.1,4.3,0.2,6.5c-0.9,2.3-2.7,4.2-5.1,5.4c-1.6,0.8-3.3,1.3-5,1.3
				c-3.3,0-6.1-1.6-7.5-4.2c-1-2-1.1-4.3-0.2-6.5c0.9-2.3,2.7-4.2,5.1-5.4C175.4,106.9,177.1,106.5,178.8,106.5 M178.8,105.8
				c-1.8,0-3.6,0.4-5.3,1.3c-5.1,2.6-7.4,8.3-5.2,12.7c1.5,2.9,4.6,4.5,8,4.5c1.8,0,3.6-0.4,5.3-1.3c5.1-2.6,7.4-8.3,5.2-12.7
				C185.4,107.4,182.3,105.8,178.8,105.8L178.8,105.8z"/>
		</g>
		<g>
			<path class="st2" d="M172.7,122c-1.6,0-3.1-0.9-3.9-2.4c-1.1-2.1-0.3-4.8,1.9-5.9c0.6-0.3,1.3-0.5,2-0.5c1.6,0,3.1,0.9,3.9,2.4
				c0.5,1,0.6,2.2,0.3,3.3c-0.4,1.1-1.1,2-2.1,2.5C174,121.8,173.4,122,172.7,122z"/>
			<path class="st3" d="M172.7,113.5L172.7,113.5c1.6,0,3,0.9,3.7,2.3c0.5,1,0.6,2.1,0.3,3.2c-0.3,1.1-1.1,1.9-2.1,2.4
				c-0.6,0.3-1.2,0.5-1.9,0.5c-1.6,0-3-0.9-3.7-2.3c-1.1-2-0.2-4.6,1.8-5.6C171.3,113.6,172,113.5,172.7,113.5 M172.7,113.1
				c-0.7,0-1.4,0.2-2.1,0.5c-2.2,1.1-3.1,3.9-1.9,6.1c0.8,1.6,2.4,2.4,4,2.4c0.7,0,1.4-0.2,2.1-0.5c2.2-1.1,3.1-3.9,1.9-6.1
				C175.9,114,174.3,113.1,172.7,113.1L172.7,113.1z"/>
		</g>
		<g>
			<path class="st2" d="M182.5,116.9c-1.6,0-3.1-0.9-3.9-2.4c-0.5-1-0.6-2.2-0.3-3.3s1.1-2,2.1-2.5c0.6-0.3,1.3-0.5,2-0.5
				c1.6,0,3.1,0.9,3.9,2.4c0.5,1,0.6,2.2,0.3,3.3s-1.1,2-2.1,2.5C183.9,116.8,183.2,116.9,182.5,116.9z"/>
			<path class="st3" d="M182.5,108.4L182.5,108.4c1.6,0,3,0.9,3.7,2.3c1.1,2,0.2,4.6-1.8,5.6c-0.6,0.3-1.2,0.5-1.9,0.5
				c-1.6,0-3-0.9-3.7-2.3c-1.1-2-0.2-4.6,1.8-5.6C181.2,108.6,181.9,108.4,182.5,108.4 M182.5,108.1c-0.7,0-1.4,0.2-2.1,0.5
				c-2.2,1.1-3.1,3.9-1.9,6.1c0.8,1.6,2.4,2.4,4,2.4c0.7,0,1.4-0.2,2.1-0.5c2.2-1.1,3.1-3.9,1.9-6.1
				C185.8,108.9,184.2,108.1,182.5,108.1L182.5,108.1z"/>
		</g>
		<g>
			<path class="st2" d="M178.9,119.2c-0.6,0-1.1-0.3-1.4-0.8l2.9-1.5c0.2,0.4,0.2,0.8,0.1,1.2c-0.1,0.4-0.4,0.8-0.8,1
				C179.4,119.2,179.1,119.2,178.9,119.2z"/>
			<path class="st3" d="M180.3,117.1c0.1,0.3,0.1,0.7,0,1c-0.1,0.4-0.4,0.7-0.8,0.9c-0.2,0.1-0.5,0.2-0.7,0.2c-0.5,0-1-0.2-1.3-0.7
				L180.3,117.1 M180.4,116.8l-3.1,1.6c0.3,0.6,0.9,0.9,1.5,0.9c0.3,0,0.5-0.1,0.8-0.2C180.5,118.7,180.9,117.6,180.4,116.8
				L180.4,116.8z"/>
		</g>
		<g>
			<circle class="st3" cx="172.7" cy="117.7" r="0.7"/>
		</g>
		<g>
			<circle class="st3" cx="182.5" cy="112.6" r="0.7"/>
		</g>
	</g>
	<g>
		<g>
			<path class="st2" d="M151.5,130.2c-3.1-1.6-5.1-4.3-5.5-7.5c-0.7-5.7,4.1-11,10.8-11.9c0.6-0.1,1.2-0.1,1.8-0.1
				c6,0,11,3.8,11.6,8.9c0.4,3-0.8,6-3.1,8.3L151.5,130.2z"/>
			<path class="st3" d="M158.6,110.4v0.8c5.8,0,10.6,3.7,11.2,8.6c0.4,2.8-0.7,5.7-2.9,7.9l-15.3,2.2c-2.9-1.6-4.8-4.2-5.2-7.1
				c-0.3-2.6,0.6-5.3,2.5-7.4c2-2.2,4.8-3.6,8-4c0.6-0.1,1.2-0.1,1.7-0.1L158.6,110.4 M158.6,110.4c-0.6,0-1.2,0-1.8,0.1
				c-6.9,0.9-11.9,6.4-11.1,12.3c0.4,3.4,2.7,6.2,5.8,7.8l15.8-2.3c2.4-2.3,3.7-5.4,3.3-8.7C169.9,114.3,164.7,110.4,158.6,110.4
				L158.6,110.4z"/>
		</g>
		<g>
			<path class="st2" d="M151.2,127.5c-2.5,0-4.6-1.9-4.9-4.4c-0.3-2.7,1.6-5.2,4.3-5.6c0.2,0,0.4,0,0.6,0c2.5,0,4.6,1.9,4.9,4.4
				c0.3,2.7-1.6,5.2-4.3,5.6C151.6,127.5,151.4,127.5,151.2,127.5z"/>
			<path class="st3" d="M151.2,117.7L151.2,117.7c2.4,0,4.4,1.8,4.7,4.2c0.2,1.3-0.2,2.5-1,3.5c-0.8,1-1.9,1.7-3.2,1.8
				c-0.2,0-0.4,0-0.6,0c-2.4,0-4.4-1.8-4.7-4.2c-0.3-2.6,1.5-5,4.1-5.3C150.8,117.8,151,117.7,151.2,117.7 M151.2,117.3
				c-0.2,0-0.4,0-0.7,0c-2.8,0.4-4.8,2.9-4.5,5.8c0.3,2.6,2.6,4.5,5.1,4.5c0.2,0,0.4,0,0.7,0c2.8-0.4,4.8-2.9,4.5-5.8
				C156,119.3,153.7,117.3,151.2,117.3L151.2,117.3z"/>
		</g>
		<g>
			<path class="st2" d="M163.8,125.9c-2.5,0-4.6-1.9-4.9-4.4c-0.2-1.3,0.2-2.6,1-3.7c0.8-1.1,2-1.7,3.3-1.9c0.2,0,0.4,0,0.6,0
				c2.5,0,4.6,1.9,4.9,4.4c0.3,2.7-1.6,5.2-4.3,5.6C164.2,125.9,164,125.9,163.8,125.9z"/>
			<path class="st3" d="M163.8,116.1L163.8,116.1c2.4,0,4.4,1.8,4.7,4.2c0.2,1.3-0.2,2.5-1,3.5c-0.8,1-1.9,1.7-3.2,1.8
				c-0.2,0-0.4,0-0.6,0c-2.4,0-4.4-1.8-4.7-4.2c-0.2-1.3,0.2-2.5,1-3.5c0.8-1,1.9-1.7,3.2-1.8C163.4,116.2,163.6,116.1,163.8,116.1
				 M163.8,115.8c-0.2,0-0.4,0-0.7,0c-2.8,0.4-4.8,2.9-4.5,5.8c0.3,2.6,2.6,4.5,5.1,4.5c0.2,0,0.4,0,0.7,0c2.8-0.4,4.8-2.9,4.5-5.8
				C168.6,117.7,166.4,115.8,163.8,115.8L163.8,115.8z"/>
		</g>
		<g>
			<path class="st2" d="M157.9,126.8c-0.9,0-1.7-0.6-1.8-1.5l3.7-0.5c0,0.5-0.1,0.9-0.4,1.3c-0.3,0.4-0.7,0.6-1.2,0.7
				C158,126.8,158,126.8,157.9,126.8z"/>
			<path class="st3" d="M159.6,124.9c0,0.4-0.1,0.7-0.4,1.1c-0.3,0.4-0.7,0.6-1.2,0.7c-0.1,0-0.1,0-0.2,0c-0.8,0-1.5-0.5-1.7-1.3
				L159.6,124.9 M159.9,124.6l-4,0.5c0.1,1,1,1.7,2,1.7c0.1,0,0.2,0,0.3,0C159.2,126.7,160,125.7,159.9,124.6L159.9,124.6z"/>
		</g>
		<g>
			<circle class="st3" cx="151.2" cy="122.5" r="0.8"/>
		</g>
		<g>
			<circle class="st3" cx="163.8" cy="120.9" r="0.8"/>
		</g>
		<path class="st6" d="M146.2,121.1c0,0,1.8-1.7,4.5-2.1c2.8-0.3,4.8,0.9,4.8,0.9"/>
		<path class="st6" d="M158.9,119.5c0,0,1.8-1.7,4.5-2.1c2.8-0.3,4.8,0.9,4.8,0.9"/>
	</g>
	<g>
		<g>
			<path class="st2" d="M121.4,131.6c-5-0.2-8.9-3.8-8.7-8.1c0.2-4.1,4.1-7.4,8.9-7.4c0.1,0,0.3,0,0.4,0c2.4,0.1,4.7,1,6.3,2.5
				c1.6,1.5,2.5,3.5,2.4,5.6c-0.2,4.1-4.1,7.4-8.9,7.4C121.7,131.6,121.5,131.6,121.4,131.6z"/>
			<path class="st3" d="M121.6,116.4L121.6,116.4c0.1,0,0.3,0,0.4,0c2.4,0.1,4.5,1,6.1,2.5c1.6,1.5,2.4,3.4,2.3,5.3
				c-0.2,4-4,7.1-8.6,7.1c-0.1,0-0.3,0-0.4,0c-4.8-0.2-8.6-3.7-8.4-7.8C113.1,119.5,116.9,116.4,121.6,116.4 M121.6,115.8
				c-4.9,0-9,3.3-9.2,7.6c-0.2,4.4,3.8,8.2,9,8.4c0.2,0,0.3,0,0.5,0c4.9,0,9-3.3,9.2-7.6c0.2-4.4-3.8-8.2-9-8.4
				C121.9,115.8,121.7,115.8,121.6,115.8L121.6,115.8z"/>
		</g>
		<g>
			<path class="st2" d="M116.6,127.5c-2.1-0.1-3.8-1.9-3.7-4c0.1-2.1,1.8-3.7,3.9-3.7l0.2,0c1,0,2,0.5,2.7,1.2
				c0.7,0.8,1.1,1.8,1,2.8c-0.1,2.1-1.8,3.7-3.9,3.7L116.6,127.5z"/>
			<path class="st3" d="M116.7,119.9L116.7,119.9c0.1,0,0.1,0,0.2,0c2.1,0.1,3.7,1.8,3.6,3.9c-0.1,2-1.7,3.6-3.7,3.6
				c-0.1,0-0.1,0-0.2,0c-1,0-1.9-0.5-2.6-1.2c-0.7-0.7-1-1.7-1-2.7C113.1,121.5,114.7,119.9,116.7,119.9 M116.7,119.6
				c-2.2,0-3.9,1.7-4,3.9c-0.1,2.2,1.6,4.1,3.9,4.2c0.1,0,0.1,0,0.2,0c2.2,0,3.9-1.7,4-3.9c0.1-2.2-1.6-4.1-3.9-4.2
				C116.9,119.6,116.8,119.6,116.7,119.6L116.7,119.6z"/>
		</g>
		<g>
			<path class="st2" d="M126.5,127.9c-1,0-2-0.5-2.7-1.2c-0.7-0.8-1.1-1.8-1-2.8c0.1-2.1,1.8-3.7,3.9-3.7l0.2,0
				c2.1,0.1,3.8,1.9,3.7,4c-0.1,2.1-1.8,3.7-3.9,3.7L126.5,127.9z"/>
			<path class="st3" d="M126.7,120.3L126.7,120.3c0.1,0,0.1,0,0.2,0c1,0,1.9,0.5,2.6,1.2c0.7,0.7,1,1.7,1,2.7
				c-0.1,2-1.7,3.6-3.7,3.6c-0.1,0-0.1,0-0.2,0c-2.1-0.1-3.7-1.8-3.6-3.9C123,121.9,124.7,120.3,126.7,120.3 M126.7,120
				c-2.2,0-3.9,1.7-4,3.9c-0.1,2.2,1.6,4.1,3.9,4.2c0.1,0,0.1,0,0.2,0c2.2,0,3.9-1.7,4-3.9c0.1-2.2-1.6-4.1-3.9-4.2
				C126.8,120,126.7,120,126.7,120L126.7,120z"/>
		</g>
		<path class="st7" d="M122.8,126.8c0,0.7-0.6,1.2-1.2,1.1c-0.7,0-1.2-0.6-1.1-1.2"/>
		<g>
			<circle class="st3" cx="116.7" cy="123.6" r="0.7"/>
		</g>
		<g>
			<circle class="st3" cx="126.7" cy="124.1" r="0.7"/>
		</g>
	</g>
	<g>
		<g>
			<path class="st2" d="M100.2,137.5c-4.6,0-8.5-2.7-9.4-6.6c-1.2-4.8,2.4-9.8,8.1-11.2c1-0.2,1.9-0.4,2.9-0.4
				c4.6,0,8.5,2.7,9.4,6.6c1.2,4.8-2.4,9.8-8.1,11.2C102.1,137.4,101.2,137.5,100.2,137.5z"/>
			<path class="st3" d="M101.7,119.7L101.7,119.7c4.5,0,8.2,2.6,9.1,6.3c0.5,2.2,0,4.6-1.4,6.6c-1.5,2.1-3.8,3.6-6.4,4.2
				c-0.9,0.2-1.9,0.3-2.8,0.3c-4.5,0-8.2-2.6-9.1-6.3c-0.5-2.2,0-4.6,1.4-6.6c1.5-2.1,3.8-3.6,6.4-4.2
				C99.8,119.8,100.8,119.7,101.7,119.7 M101.7,119.1c-1,0-2,0.1-3,0.4c-5.8,1.4-9.5,6.6-8.3,11.6c1,4.1,5.1,6.8,9.8,6.8
				c1,0,2-0.1,3-0.4c5.8-1.4,9.5-6.6,8.3-11.6C110.4,121.8,106.4,119.1,101.7,119.1L101.7,119.1z"/>
		</g>
		<path class="st8" d="M91.4,125.7c0.7-0.7,1.6-1.2,2.6-1.4c0.9-0.2,1.9-0.2,2.7,0"/>
		<g>
			<path class="st2" d="M95.3,134.4c-2.1,0-3.9-1.4-4.4-3.4c-0.6-2.4,0.9-4.9,3.3-5.5c0.4-0.1,0.7-0.1,1.1-0.1
				c2.1,0,3.9,1.4,4.4,3.4c0.3,1.2,0.1,2.4-0.5,3.4c-0.6,1-1.6,1.8-2.8,2C96.1,134.3,95.7,134.4,95.3,134.4z"/>
			<path class="st3" d="M95.3,125.5c2,0,3.7,1.4,4.2,3.3c0.6,2.3-0.9,4.7-3.2,5.2c-0.3,0.1-0.7,0.1-1,0.1c-2,0-3.7-1.4-4.2-3.3
				c-0.3-1.1-0.1-2.3,0.5-3.3c0.6-1,1.5-1.7,2.7-2C94.7,125.6,95,125.5,95.3,125.5 M95.3,125.2c-0.4,0-0.7,0-1.1,0.1
				c-2.5,0.6-4.1,3.2-3.4,5.7c0.5,2.1,2.4,3.6,4.5,3.6c0.4,0,0.7,0,1.1-0.1c2.5-0.6,4.1-3.2,3.4-5.7
				C99.4,126.6,97.5,125.2,95.3,125.2L95.3,125.2z"/>
		</g>
		<g>
			<circle class="st3" cx="95" cy="128.5" r="0.7"/>
		</g>
		<path class="st8" d="M108.1,121.5c-0.9-0.3-1.9-0.3-2.9-0.1c-0.9,0.2-1.8,0.7-2.4,1.3"/>
		<g>
			<path class="st2" d="M106.5,131.6c-2.1,0-3.9-1.4-4.4-3.4c-0.3-1.2-0.1-2.4,0.5-3.4c0.6-1,1.6-1.8,2.8-2c0.4-0.1,0.7-0.1,1.1-0.1
				c2.1,0,3.9,1.4,4.4,3.4c0.6,2.4-0.9,4.9-3.3,5.5C107.3,131.6,106.9,131.6,106.5,131.6L106.5,131.6z"/>
			<path class="st3" d="M106.6,122.8c2,0,3.7,1.4,4.2,3.3c0.6,2.3-0.9,4.7-3.2,5.2c-0.3,0.1-0.7,0.1-1,0.1c-2,0-3.7-1.4-4.2-3.3
				c-0.6-2.3,0.9-4.7,3.2-5.2C105.9,122.8,106.2,122.8,106.6,122.8 M106.6,122.4c-0.4,0-0.7,0-1.1,0.1c-2.5,0.6-4.1,3.2-3.4,5.7
				c0.5,2.1,2.4,3.6,4.5,3.6c0.4,0,0.7,0,1.1-0.1c2.5-0.6,4.1-3.2,3.4-5.7C110.6,123.8,108.7,122.4,106.6,122.4L106.6,122.4z"/>
		</g>
		<g>
			<circle class="st3" cx="106.2" cy="125.7" r="0.7"/>
		</g>
		<g>
			<path class="st2" d="M102.1,133.8c-0.5,0-0.9-0.5-1.1-1.2c-0.2-0.8,0.1-1.5,0.6-1.6c0,0,0.1,0,0.1,0c0.5,0,0.9,0.5,1.1,1.2
				c0.2,0.8-0.1,1.5-0.6,1.6C102.2,133.8,102.2,133.8,102.1,133.8z"/>
			<path class="st3" d="M101.7,131c0.4,0,0.8,0.5,1,1.1c0.1,0.4,0.1,0.7,0,1c-0.1,0.3-0.3,0.4-0.4,0.5c0,0-0.1,0-0.1,0
				c-0.4,0-0.8-0.5-1-1.1c-0.2-0.7,0-1.4,0.5-1.5C101.6,131.1,101.7,131,101.7,131 M101.7,130.8c-0.1,0-0.1,0-0.2,0
				c-0.6,0.1-0.8,0.9-0.6,1.8c0.2,0.7,0.7,1.3,1.2,1.3c0.1,0,0.1,0,0.2,0c0.6-0.1,0.8-0.9,0.6-1.8
				C102.7,131.4,102.2,130.8,101.7,130.8L101.7,130.8z"/>
		</g>
	</g>
	<g>
		<path class="st9" d="M200.7,121.2c0.5,0.8,1.3,1.4,2.7,1.2l7.7-1c-1.9-2.5-14.7-16.8-15.5-17.5l-6,0.8c-0.6,0.1-1.4,0.5-0.7,1.6
			L200.7,121.2z"/>
		<g>
			<path class="st9" d="M146.2,129.8c0.2,1.1,1.6,0.9,2.3,0.8l49.1-6.8c0.7-0.1,1.5-0.9,0.4-2.2l-11.4-14.4
				c-0.8-1.2-2.2-1.7-2.9-1.6l-37.9,5.2c-0.7,0.1-2.1,0.6-2,1.3L146.2,129.8z"/>
		</g>
	</g>
	
		<rect x="84.7" y="116.5" transform="matrix(0.9905 -0.1373 0.1373 0.9905 -16.2545 16.4719)" class="st9" width="53.1" height="19.1"/>
	<g>
		<g>
			<path class="st2" d="M59.5,143c-5.7,0-10.3-3.5-11-8.4c-0.8-5.4,3.8-10.6,10.1-11.4c0.6-0.1,1.3-0.1,1.9-0.1
				c5.7,0,10.3,3.5,11,8.4c0.8,5.4-3.8,10.6-10.1,11.4C60.8,143,60.1,143,59.5,143z"/>
			<path class="st3" d="M60.5,123.4L60.5,123.4c5.5,0,10,3.4,10.6,8.1c0.7,5.2-3.7,10.2-9.8,11c-0.6,0.1-1.2,0.1-1.8,0.1
				c-5.5,0-10-3.4-10.6-8.1c-0.3-2.5,0.5-5,2.3-7.1c1.9-2.1,4.5-3.5,7.5-3.9C59.3,123.5,59.9,123.4,60.5,123.4 M60.5,122.7
				c-0.6,0-1.3,0-1.9,0.1c-6.5,0.9-11.2,6.2-10.4,11.8c0.7,5.1,5.6,8.7,11.4,8.7c0.6,0,1.3,0,1.9-0.1c6.5-0.9,11.2-6.2,10.4-11.8
				C71.2,126.3,66.3,122.7,60.5,122.7L60.5,122.7z"/>
		</g>
		<g>
			<path class="st2" d="M53.5,138.7c-2.4,0-4.4-1.8-4.8-4.2c-0.4-2.6,1.5-5.1,4.1-5.4c0.2,0,0.4,0,0.7,0c2.4,0,4.4,1.8,4.8,4.2
				c0.4,2.6-1.5,5.1-4.1,5.4C53.9,138.7,53.7,138.7,53.5,138.7z"/>
			<path class="st3" d="M53.5,129.3L53.5,129.3c2.3,0,4.3,1.7,4.6,4c0.2,1.2-0.1,2.4-0.9,3.4c-0.7,1-1.8,1.6-3.1,1.8
				c-0.2,0-0.4,0-0.6,0c-2.3,0-4.3-1.7-4.6-4c-0.2-1.2,0.1-2.4,0.9-3.4c0.7-1,1.8-1.6,3.1-1.8C53.1,129.3,53.3,129.3,53.5,129.3
				 M53.5,128.9c-0.2,0-0.5,0-0.7,0c-2.7,0.4-4.7,2.9-4.3,5.6c0.3,2.5,2.5,4.3,5,4.3c0.2,0,0.5,0,0.7,0c2.7-0.4,4.7-2.9,4.3-5.6
				C58.1,130.7,56,128.9,53.5,128.9L53.5,128.9z"/>
		</g>
		<g>
			<path class="st2" d="M65.7,137.1c-2.4,0-4.4-1.8-4.8-4.2c-0.4-2.6,1.5-5.1,4.1-5.4c0.2,0,0.4,0,0.7,0c2.4,0,4.4,1.8,4.8,4.2
				c0.4,2.6-1.5,5.1-4.1,5.4C66.2,137,65.9,137.1,65.7,137.1z"/>
			<path class="st3" d="M65.7,127.6L65.7,127.6c2.3,0,4.3,1.7,4.6,4c0.2,1.2-0.1,2.4-0.9,3.4c-0.7,1-1.8,1.6-3.1,1.8
				c-0.2,0-0.4,0-0.6,0c-2.3,0-4.3-1.7-4.6-4c-0.4-2.5,1.4-4.9,3.9-5.2C65.3,127.6,65.5,127.6,65.7,127.6 M65.7,127.2
				c-0.2,0-0.5,0-0.7,0c-2.7,0.4-4.7,2.9-4.3,5.6c0.3,2.5,2.5,4.3,5,4.3c0.2,0,0.5,0,0.7,0c2.7-0.4,4.7-2.9,4.3-5.6
				C70.3,129,68.2,127.2,65.7,127.2L65.7,127.2z"/>
		</g>
		<g>
			<path class="st2" d="M60,137.9c-0.9,0-1.6-0.6-1.8-1.4l3.6-0.5c0,0.4-0.1,0.9-0.4,1.2c-0.3,0.4-0.7,0.6-1.2,0.7
				C60.2,137.9,60.1,137.9,60,137.9z"/>
			<path class="st3" d="M61.7,136.1c0,0.4-0.1,0.7-0.3,1c-0.3,0.4-0.7,0.6-1.1,0.7c-0.1,0-0.2,0-0.2,0c-0.8,0-1.4-0.5-1.6-1.2
				L61.7,136.1 M61.9,135.9l-3.8,0.5c0.1,1,1,1.7,1.9,1.7c0.1,0,0.2,0,0.3,0C61.4,137.9,62.1,136.9,61.9,135.9L61.9,135.9z"/>
		</g>
		<g>
			<circle class="st3" cx="51.6" cy="134.2" r="0.8"/>
		</g>
		<g>
			<circle class="st3" cx="63.8" cy="132.5" r="0.8"/>
		</g>
	</g>
	
		<rect x="24.9" y="124.8" transform="matrix(0.9905 -0.1373 0.1373 0.9905 -17.9595 8.3377)" class="st9" width="53.1" height="19.1"/>
	
		<ellipse transform="matrix(0.9915 -0.1302 0.1302 0.9915 -17.4812 18.8643)" class="st3" cx="135.5" cy="143.1" rx="4.4" ry="1.4"/>
	
		<ellipse transform="matrix(0.9915 -0.1302 0.1302 0.9915 -17.0177 21.1994)" class="st3" cx="153.6" cy="140.7" rx="4.4" ry="1.4"/>
</g>
<g>
	<path class="st3" d="M116,59.4c-4.8,0-8.8-3.3-8.8-7.4c0-4.1,3.9-7.5,8.8-7.5c1.8,0,3.6,0.5,5,1.4L120.9,16c0-0.2,0.1-0.5,0.3-0.6
		s0.4-0.3,0.6-0.3h2c0.5,0,0.9,0.4,0.9,0.9c0,0,0.2,35.9,0.2,35.9c0,0.1,0,0.3-0.1,0.4C124.5,56.4,120.8,59.4,116,59.4z"/>
	<path class="st2" d="M123.8,16l0.2,35.9h-0.1c-0.1,3.9-3.6,6.6-7.9,6.6c-4.4,0-7.9-2.9-7.9-6.5c0-3.6,3.5-6.6,7.9-6.6
		c2.4,0,4.5,0.9,5.9,2.2L121.8,16H123.8 M124,51.9L124,51.9L124,51.9L124,51.9 M124,52C124,52,124,52,124,52C124,52,124,52,124,52
		L124,52 M123.8,14.2h-2c-0.5,0-0.9,0.2-1.2,0.5c-0.3,0.3-0.5,0.8-0.5,1.3l0.1,28.4c-1.3-0.5-2.7-0.8-4.2-0.8
		c-5.3,0-9.6,3.7-9.6,8.3c0,4.6,4.2,8.3,9.6,8.3c5.2,0,9.2-3.2,9.6-7.7c0.1-0.2,0.1-0.4,0.1-0.6c0,0,0,0,0,0c0,0,0,0,0,0
		c0,0,0,0,0,0c0,0,0,0,0,0L125.5,16C125.5,15,124.7,14.2,123.8,14.2L123.8,14.2z"/>
</g>
<g>
	<path class="st3" d="M97.4,109c-0.7,0-1.4-0.1-2.1-0.2c-4.7-0.9-8-5-7.2-8.9c0.7-3.4,4-5.8,8.1-5.8c0.7,0,1.3,0.1,2,0.2
		c1.8,0.4,3.4,1.2,4.7,2.3l5.6-29.3c0-0.2,0.2-0.4,0.4-0.6c0.1-0.1,0.3-0.2,0.5-0.2c0.1,0,0.1,0,0.2,0l1.8,0.4
		c0.2,0,0.4,0.2,0.6,0.4c0.1,0.2,0.2,0.4,0.1,0.7c0,0-0.3,5.8,4.7,10.8c2.7,2.7,3.8,5.8,3,8.5c-0.6,2.3-2.4,4-4.8,4.6
		c-0.1,0-0.1,0-0.2,0c-0.3,0-0.6-0.2-0.8-0.5c-0.2-0.4-0.1-0.8,0.3-1.1c0,0,1.9-1.4,2.1-3.6c0.2-1.6-0.5-3.3-2.1-5
		c-1.6-1.8-2.8-3.4-3.7-4.8c0,0-5.1,26.5-5.1,26.5c0,0,0,0.1,0,0.1c0,0.1-0.1,0.3-0.2,0.3C104.3,106.9,101.2,109,97.4,109z"/>
	<path class="st2" d="M109.4,67.4l1.8,0.4l0,0.1c0,0-0.4,6.2,4.9,11.5c5.1,5.1,3,10.6-1.4,11.7c0,0,5.5-4,0.2-10
		c-2.7-3-4.1-5.2-4.8-7l-5.6,29l-0.1,0c-0.7,3.2-3.6,5.1-7.1,5.1c-0.6,0-1.3-0.1-1.9-0.2c-4.3-0.8-7.2-4.3-6.5-7.9
		c0.6-3,3.6-5.1,7.2-5.1c0.6,0,1.2,0.1,1.8,0.2c2.3,0.5,4.2,1.7,5.4,3.4L109.4,67.4 M104.6,103.1L104.6,103.1L104.6,103.1
		C104.6,103.1,104.6,103.1,104.6,103.1C104.6,103.1,104.6,103.1,104.6,103.1L104.6,103.1 M109.4,65.6c-0.3,0-0.7,0.1-1,0.3
		c-0.4,0.3-0.7,0.7-0.7,1.1L102.3,95c-1.2-0.8-2.5-1.3-3.9-1.6c-0.7-0.1-1.4-0.2-2.2-0.2c-4.5,0-8.2,2.7-8.9,6.5
		c-0.4,2.2,0.2,4.5,1.7,6.4c1.5,1.8,3.7,3.1,6.1,3.5c0.8,0.1,1.5,0.2,2.3,0.2c4.1,0,7.5-2.3,8.6-5.7c0.2-0.2,0.3-0.4,0.3-0.7l0-0.1
		l0,0c0,0,0,0,0,0l4.7-24.3c0.7,1,1.6,2,2.6,3.2c1.4,1.5,2,3,1.9,4.3c-0.2,1.8-1.8,3-1.8,3c-0.7,0.5-0.9,1.4-0.5,2.2
		c0.3,0.6,0.9,1,1.6,1c0.1,0,0.3,0,0.4-0.1c2.7-0.7,4.7-2.7,5.4-5.3c0.8-3.1-0.3-6.5-3.2-9.4c-4.4-4.3-4.4-9.4-4.4-10.1
		c0.1-0.9-0.5-1.8-1.4-2l-1.8-0.4C109.6,65.6,109.5,65.6,109.4,65.6L109.4,65.6z"/>
</g>
<g>
	<path class="st3" d="M188.2,37.6c-2.9,0-5.3-1.6-6-4.1c-0.8-3.1,1.5-6.3,5.1-7.3c0.7-0.2,1.3-0.3,2-0.3c0.7,0,1.4,0.1,2.1,0.3
		l-5.9-22.3c0-0.2,0-0.4,0.1-0.5s0.2-0.3,0.4-0.3l1.4-0.4c0.1,0,0.1,0,0.2,0c0.1,0,0.2,0,0.3,0.1c0.2,0.1,0.3,0.2,0.3,0.4
		c0,0,1.7,4.1,6.9,5.9c2.7,1,4.6,2.8,5,4.9c0.3,1.8-0.3,3.6-1.8,4.9c-0.1,0.1-0.3,0.2-0.4,0.2c-0.2,0-0.3-0.1-0.4-0.2
		c-0.3-0.2-0.3-0.6-0.2-0.9c0,0,0.8-1.6,0.2-3.3c-0.4-1.2-1.5-2.1-3.1-2.8c-1.7-0.7-3.1-1.4-4.2-2.1c0,0,5.4,20.2,5.4,20.2
		c0,0.1,0,0.1,0,0.2c0,0.1,0,0.2,0,0.3c0.5,3-1.7,5.9-5.2,6.8C189.5,37.5,188.9,37.6,188.2,37.6z"/>
	<path class="st2" d="M187.5,3.4L187.5,3.4c0,0.1,1.9,4.5,7.3,6.4c5.3,1.8,5.6,6.4,3,8.6c0,0,2.5-4.6-3.2-7
		c-2.9-1.2-4.6-2.3-5.7-3.3l5.9,22l-0.1,0c0.7,2.9-1.4,5.6-4.6,6.4c-0.6,0.2-1.2,0.2-1.9,0.2c-2.5,0-4.8-1.4-5.3-3.6
		c-0.7-2.7,1.4-5.6,4.6-6.5c0.6-0.2,1.2-0.2,1.8-0.2c1.1,0,2.2,0.3,3.1,0.8l-6.3-23.7L187.5,3.4 M194.8,30.2L194.8,30.2
		C194.8,30.3,194.8,30.3,194.8,30.2C194.8,30.3,194.8,30.2,194.8,30.2L194.8,30.2L194.8,30.2 M194.8,30.3
		C194.8,30.3,194.8,30.3,194.8,30.3L194.8,30.3 M187.5,2c-0.1,0-0.2,0-0.3,0l-1.4,0.4c-0.4,0.1-0.7,0.3-0.8,0.6s-0.2,0.7-0.1,1
		l5.6,21.3c-0.4-0.1-0.7-0.1-1.1-0.1c-0.7,0-1.4,0.1-2.2,0.3c-4,1-6.5,4.7-5.6,8.1c0.7,2.8,3.4,4.6,6.6,4.6c0.7,0,1.5-0.1,2.2-0.3
		c3.8-1,6.2-4.1,5.7-7.5c0-0.2,0-0.4,0-0.6c0,0,0,0,0,0l0,0c0,0,0,0,0,0c0,0,0,0,0,0l-4.9-18.5c0.8,0.4,1.8,0.9,2.9,1.3
		c1.5,0.6,2.4,1.4,2.8,2.4c0.5,1.3-0.2,2.7-0.2,2.7c-0.3,0.6-0.2,1.3,0.4,1.7c0.3,0.2,0.6,0.3,0.9,0.3c0.3,0,0.6-0.1,0.9-0.3
		c1.6-1.4,2.4-3.4,2-5.5c-0.5-2.4-2.4-4.4-5.4-5.5c-4.5-1.6-6.2-5-6.5-5.5C188.6,2.4,188.1,2,187.5,2L187.5,2z"/>
</g>
<g>
	<path class="st3" d="M142.5,84.8c-4.2,0-7.6-2.5-8.2-6.1c-0.6-4.1,2.7-8,7.5-8.7c0.5-0.1,1.1-0.1,1.6-0.1c1.3,0,2.5,0.2,3.6,0.7
		L143,45l-0.7-4.2c-0.1-0.4,0.2-0.9,0.6-1l26.8-7.7c0.1,0,0.2,0,0.2,0c0.2,0,0.3,0,0.5,0.1c0.2,0.1,0.4,0.4,0.4,0.6l5.8,36.4
		c0,0.1,0,0.1,0,0.2c0.4,3.9-2.9,7.6-7.6,8.3c-0.5,0.1-1,0.1-1.6,0.1l0,0c-4.2,0-7.7-2.6-8.3-6.2c-0.6-4.1,2.7-8,7.5-8.7
		c0.5-0.1,1.1-0.1,1.6-0.1c1.3,0,2.5,0.2,3.6,0.7l-3.4-20.9L147.4,49l4.3,26.9c0,0,0,0.1,0,0.1c0,0.1,0,0.1,0,0.2
		c0.5,4.1-2.7,7.8-7.5,8.5C143.6,84.8,143.1,84.8,142.5,84.8z M146.8,45.2l18.7-5.6L146.7,45L146.8,45.2z"/>
	<path class="st2" d="M170,33l0.1,0.6l0,0l5.7,35.5c0,0,0,0,0,0c0,0,0,0,0,0l0,0.3l0,0c0.5,3.5-2.6,6.8-6.8,7.5
		c-0.5,0.1-1,0.1-1.4,0.1c-3.7,0-6.9-2.3-7.4-5.5c-0.6-3.6,2.5-7,6.8-7.7c0.5-0.1,1-0.1,1.5-0.1c1.8,0,3.5,0.5,4.8,1.4l-3.8-23.6
		l-23,6.9l4.4,27.8l0,0c0.5,3.8-2.5,7-6.8,7.7c-0.5,0.1-1,0.1-1.5,0.1c-3.7,0-6.8-2.1-7.3-5.3c-0.6-3.6,2.5-7,6.8-7.7
		c0.5-0.1,1-0.1,1.5-0.1c1.8,0,3.5,0.5,4.7,1.4l-4.4-27.3l-0.7-4.2L170,33 M146.1,46.3l23-6.9l-0.3-1.7l-23,6.7L146.1,46.3
		 M150.8,76.2L150.8,76.2C150.8,76.2,150.8,76.2,150.8,76.2C150.8,76.2,150.8,76.2,150.8,76.2L150.8,76.2L150.8,76.2 M170,31.2
		c-0.2,0-0.3,0-0.5,0.1L142.6,39c-0.9,0.2-1.4,1.1-1.3,2l0.7,4.2l3.9,24.2c-0.8-0.2-1.7-0.3-2.5-0.3c-0.6,0-1.2,0-1.7,0.1
		c-2.5,0.4-4.7,1.6-6.3,3.3c-1.6,1.9-2.3,4.1-2,6.4c0.6,3.9,4.4,6.8,9,6.8c0.6,0,1.2,0,1.8-0.1c5.3-0.8,8.8-4.9,8.3-9.5
		c0,0,0-0.1,0-0.1l0,0l0-0.1c0,0,0-0.1,0-0.1l-4.2-26.1l19.6-5.9l3,18.5c-0.8-0.2-1.7-0.3-2.5-0.3c-0.6,0-1.2,0-1.7,0.1
		c-5.3,0.8-9,5.2-8.2,9.7c0.6,4,4.5,7,9.1,7c0.6,0,1.1,0,1.7-0.1c5.2-0.8,8.8-4.9,8.3-9.3c0-0.1,0-0.2,0-0.2l0-0.3l-5.7-35.5
		c0,0,0,0,0-0.1l-0.1-0.5c-0.1-0.5-0.4-0.9-0.8-1.2C170.6,31.3,170.3,31.2,170,31.2L170,31.2z"/>
</g>
</svg>
