<svg id="Fond_blanc" data-name="Fond blanc" xmlns="http://www.w3.org/2000/svg" viewBox="0 0 586.12 326.5"><defs><style>.cls-1,.cls-7{fill:#94b322;}.cls-2,.cls-4{fill:#1f9ad7;}.cls-3,.cls-5{fill:#fff;}.cls-4,.cls-5,.cls-7{fill-rule:evenodd;}.cls-6{fill:#3d3d3b;}</style></defs><path class="cls-1" d="M44.55,167.86a29.2,29.2,0,0,1,11.84,2.5,34.07,34.07,0,0,1,10.09,6.75,31.69,31.69,0,0,1,7,10A29.82,29.82,0,0,1,76,199.43a31.23,31.23,0,0,1-2.44,12.31A32.41,32.41,0,0,1,67,221.82a31,31,0,0,1-22.42,9.32,21.09,21.09,0,0,1-6.48-1,20.63,20.63,0,0,1-6.33-3.41v20.59A9,9,0,0,1,29,254a9.23,9.23,0,0,1-6.68,2.72A9,9,0,0,1,15.65,254a9.14,9.14,0,0,1-2.71-6.74V199.43a30.8,30.8,0,0,1,2.64-11.82,33.68,33.68,0,0,1,6.83-10.09,34.11,34.11,0,0,1,10-7A28.38,28.38,0,0,1,44.55,167.86Zm0,44.51a12.88,12.88,0,0,0,11.77-18,13.53,13.53,0,0,0-2.79-4.1,12.65,12.65,0,0,0-4-2.71,12.52,12.52,0,0,0-4.94-1,13,13,0,0,0-5,1,12.32,12.32,0,0,0-6.83,6.81,13,13,0,0,0-1,5,13.38,13.38,0,0,0,1,5.15,12.32,12.32,0,0,0,6.83,6.81A13,13,0,0,0,44.55,212.37Z" transform="translate(-12.94 -55.79)"/><path class="cls-1" d="M90.92,168a8.76,8.76,0,0,1,6.48,2.78,9,9,0,0,1,2.71,6.54v70.1A9,9,0,0,1,97.4,254a8.85,8.85,0,0,1-6.48,2.72A9.17,9.17,0,0,1,84.17,254a9,9,0,0,1-2.72-6.6v-70.1A9.39,9.39,0,0,1,90.92,168Z" transform="translate(-12.94 -55.79)"/><path class="cls-1" d="M159,226.41a9.41,9.41,0,0,1,9.33,9.46,7.28,7.28,0,0,1-.49,2.64c-.33.84-.72,1.72-1.18,2.65a30.09,30.09,0,0,1-11.42,11.33,31.34,31.34,0,0,1-15.88,4.25,29.91,29.91,0,0,1-11.83-2.44,32.86,32.86,0,0,1-10.1-6.68,31.46,31.46,0,0,1-7-10,30.17,30.17,0,0,1-2.58-12.45V199.57a30,30,0,0,1,2.44-12,32.37,32.37,0,0,1,6.75-10.09,33,33,0,0,1,10-7A29.53,29.53,0,0,1,139.38,168a31.72,31.72,0,0,1,27.44,16,14.93,14.93,0,0,1,1,2.37,8.1,8.1,0,0,1,.49,2.64,9.51,9.51,0,0,1-9.47,9.46,7.69,7.69,0,0,1-5-1.6,17.08,17.08,0,0,1-3.48-4,12.55,12.55,0,0,0-11-6.12,12.52,12.52,0,0,0-4.94,1,12.65,12.65,0,0,0-4,2.71,13.33,13.33,0,0,0-2.78,4.1,12.23,12.23,0,0,0-1.05,5v25.59a12.23,12.23,0,0,0,1.05,5,13.21,13.21,0,0,0,2.78,4.1,12.61,12.61,0,0,0,9,3.69,12.25,12.25,0,0,0,6.41-1.67,14,14,0,0,0,4.59-4.45,20,20,0,0,1,3.21-3.9Q155.26,226.41,159,226.41Z" transform="translate(-12.94 -55.79)"/><path class="cls-1" d="M227.81,168a9.76,9.76,0,0,1,6.61,2.64,8.52,8.52,0,0,1,3,6.68v70.1a8.24,8.24,0,0,1-.77,3.47,9.52,9.52,0,0,1-2.16,3,10.72,10.72,0,0,1-3.13,2.09,8.77,8.77,0,0,1-3.55.77,9.39,9.39,0,0,1-9.19-9.32v-25.6H194.39v25.6a9,9,0,0,1-2.72,6.6,9.17,9.17,0,0,1-6.75,2.72,8.94,8.94,0,0,1-6.48-2.65,9.37,9.37,0,0,1-2.85-6.67v-70.1a8.4,8.4,0,0,1,3-6.82,9.74,9.74,0,0,1,6.34-2.5,9.39,9.39,0,0,1,9.47,9.32v25.59h24.23V177.32a9.5,9.5,0,0,1,9.19-9.32Z" transform="translate(-12.94 -55.79)"/><path class="cls-1" d="M276.83,167.86a29.58,29.58,0,0,1,12,2.43,31.25,31.25,0,0,1,9.82,6.75,34.21,34.21,0,0,1,6.82,10,33.22,33.22,0,0,1,2.86,12.38V225a34.55,34.55,0,0,1-2.72,12A33.38,33.38,0,0,1,299,247.21a31.45,31.45,0,0,1-9.82,6.95,29.27,29.27,0,0,1-12.32,2.58,30.14,30.14,0,0,1-12.05-2.44,31.83,31.83,0,0,1-10-6.74A33.6,33.6,0,0,1,245.08,225V199.43a31.67,31.67,0,0,1,2.64-12,32.36,32.36,0,0,1,16.78-17A30,30,0,0,1,276.83,167.86Zm0,70.1a12.52,12.52,0,0,0,4.94-1,11.93,11.93,0,0,0,4-2.78,14.35,14.35,0,0,0,2.78-4.1,12.06,12.06,0,0,0,1.05-5.08V199.43a12.23,12.23,0,0,0-1.05-5,13.33,13.33,0,0,0-2.78-4.1,12.65,12.65,0,0,0-4-2.71,12.52,12.52,0,0,0-4.94-1,12.94,12.94,0,0,0-5.09,1,13.37,13.37,0,0,0-4.1,2.71,12,12,0,0,0-2.79,4.1,13,13,0,0,0-1,5V225A12.84,12.84,0,0,0,276.83,238Z" transform="translate(-12.94 -55.79)"/><path class="cls-2" d="M367,240a8.93,8.93,0,0,1,2.72,6.6,9.13,9.13,0,0,1-2.72,6.75,8.82,8.82,0,0,1-6.47,2.71H325.57a8.93,8.93,0,0,1-6.69-2.71,10.35,10.35,0,0,1-2.92-6.75v-70a8.88,8.88,0,0,1,2.78-6.61,9.45,9.45,0,0,1,6.83-2.71A9.17,9.17,0,0,1,332,170a8.8,8.8,0,0,1,2.86,6.61v60.64h25.62A8.83,8.83,0,0,1,367,240Z" transform="translate(-12.94 -55.79)"/><path class="cls-2" d="M384.05,168a8.76,8.76,0,0,1,6.48,2.78,9,9,0,0,1,2.71,6.54v70.1a9,9,0,0,1-2.71,6.6,8.85,8.85,0,0,1-6.48,2.72A9.17,9.17,0,0,1,377.3,254a9,9,0,0,1-2.72-6.6v-70.1a9.39,9.39,0,0,1,9.47-9.32Z" transform="translate(-12.94 -55.79)"/><path class="cls-2" d="M433.07,167.86a29.66,29.66,0,0,1,12,2.43,32,32,0,0,1,9.88,6.75,33.15,33.15,0,0,1,9.75,22.39v47.85A9.14,9.14,0,0,1,462,254a9,9,0,0,1-6.62,2.72,9.29,9.29,0,0,1-9.47-9.46V199.43a12.39,12.39,0,0,0-1-5,13.53,13.53,0,0,0-2.79-4.1,12.61,12.61,0,0,0-9-3.69,13,13,0,0,0-5,1,12.42,12.42,0,0,0-4.11,2.71,13.53,13.53,0,0,0-2.79,4.1,12.39,12.39,0,0,0-1,5v47.85A9.11,9.11,0,0,1,417.4,254a8.83,8.83,0,0,1-6.47,2.72,9.29,9.29,0,0,1-9.47-9.46V199.43a32.15,32.15,0,0,1,2.58-12.1,30.51,30.51,0,0,1,6.75-9.94,33.16,33.16,0,0,1,10-6.75A33.64,33.64,0,0,1,433.07,167.86Z" transform="translate(-12.94 -55.79)"/><path class="cls-2" d="M525.88,240.74a9.36,9.36,0,0,1-6.61,16h-37a9.15,9.15,0,0,1-6.48-2.72,8.92,8.92,0,0,1-2.85-6.74v-70a9.52,9.52,0,0,1,2.64-6.54,8.63,8.63,0,0,1,6.69-2.92h37a8.9,8.9,0,0,1,6.61,2.78,9.23,9.23,0,0,1,2.72,6.68,8.91,8.91,0,0,1-2.72,6.67,9.12,9.12,0,0,1-6.61,2.64H491.42v13.5h18.52a8.91,8.91,0,0,1,6.54,2.78,9.08,9.08,0,0,1,2.79,6.67,8.87,8.87,0,0,1-2.79,6.61,9,9,0,0,1-6.54,2.71H491.42V238h27.85A8.9,8.9,0,0,1,525.88,240.74Z" transform="translate(-12.94 -55.79)"/><path class="cls-2" d="M557.22,189.07a9,9,0,0,0-2.44,6.05,8,8,0,0,0,2.44,5.49,7.67,7.67,0,0,0,5.64,2.3h9.46a24.74,24.74,0,0,1,10,2.08,28.4,28.4,0,0,1,8.57,5.78,28.11,28.11,0,0,1,6,8.62,25.15,25.15,0,0,1,2.23,10.5A25.66,25.66,0,0,1,597,240.18a26.61,26.61,0,0,1-5.71,8.49,27.8,27.8,0,0,1-8.49,5.77,27.33,27.33,0,0,1-10.45,2.3H547.54a9.13,9.13,0,0,1-6.83-2.72,9.28,9.28,0,0,1-2.64-6.74,9.37,9.37,0,0,1,9.47-9.32h24.78a8.08,8.08,0,0,0,5.71-2.37,7.88,7.88,0,0,0,.07-11.47,8.51,8.51,0,0,0-5.64-2.43h-9.6a27.62,27.62,0,0,1-10.17-2.23,28.22,28.22,0,0,1-8.56-5.63,27.08,27.08,0,0,1-5.92-8.42,25.59,25.59,0,0,1-.14-20.58,27.89,27.89,0,0,1,5.78-8.63,29.58,29.58,0,0,1,8.56-6,24.21,24.21,0,0,1,10.45-2.29h24.78a8.62,8.62,0,0,1,6.41,2.71,10.35,10.35,0,0,1,2.92,6.75,9,9,0,0,1-9.33,9.31H562.86A7.46,7.46,0,0,0,557.22,189.07Z" transform="translate(-12.94 -55.79)"/><polygon class="cls-3" points="372.37 194.84 370.05 194.84 370.05 185.39 372.19 185.39 372.19 192.7 372.37 192.7 372.37 194.84"/><rect class="cls-3" x="370.14" y="165.06" width="2.14" height="9.63"/><rect class="cls-3" x="370.14" y="144.73" width="2.14" height="9.63"/><rect class="cls-3" x="370.14" y="143.67" width="2.14" height="9.63"/><rect class="cls-3" x="370.14" y="123.35" width="2.14" height="9.63"/><polygon class="cls-3" points="313.12 192.42 310.8 192.42 310.8 182.96 312.94 182.96 312.94 190.28 313.12 190.28 313.12 192.42"/><rect class="cls-3" x="310.89" y="162.64" width="2.14" height="9.63"/><rect class="cls-3" x="310.89" y="142.31" width="2.14" height="9.63"/><rect class="cls-3" x="310.89" y="141.25" width="2.14" height="9.63"/><rect class="cls-3" x="310.89" y="120.92" width="2.14" height="9.63"/><rect class="cls-3" x="323.9" y="190.28" width="9.64" height="2.14"/><rect class="cls-3" x="343.2" y="190.27" width="9.64" height="2.14"/><rect class="cls-3" x="478.75" y="192.94" width="9.64" height="2.14"/><rect class="cls-3" x="498.06" y="192.92" width="9.64" height="2.14"/><polygon class="cls-3" points="470.88 193.63 468.56 193.63 468.56 184.18 470.7 184.18 470.7 191.49 470.88 191.49 470.88 193.63"/><rect class="cls-3" x="468.64" y="163.85" width="2.14" height="9.63"/><rect class="cls-3" x="468.64" y="143.52" width="2.14" height="9.63"/><rect class="cls-3" x="468.64" y="142.46" width="2.14" height="9.63"/><rect class="cls-3" x="468.64" y="122.13" width="2.14" height="9.63"/><rect class="cls-3" x="478.69" y="120.73" width="9.64" height="2.14"/><rect class="cls-3" x="498" y="120.72" width="9.64" height="2.14"/><rect class="cls-3" x="478.69" y="153.44" width="9.64" height="2.14"/><polygon class="cls-3" points="400.41 193.02 398.09 193.02 398.09 183.57 400.23 183.57 400.23 190.88 400.41 190.88 400.41 193.02"/><rect class="cls-3" x="398.18" y="163.24" width="2.14" height="9.63"/><rect class="cls-3" x="398.18" y="142.91" width="2.14" height="9.63"/><rect class="cls-3" x="398.17" y="141.85" width="2.14" height="9.63"/><polygon class="cls-3" points="444.26 194.24 441.94 194.24 441.94 184.78 444.08 184.78 444.08 192.1 444.26 192.1 444.26 194.24"/><rect class="cls-3" x="442.03" y="164.46" width="2.14" height="9.63"/><rect class="cls-3" x="442.03" y="144.13" width="2.14" height="9.63"/><rect class="cls-3" x="442.03" y="143.07" width="2.14" height="9.63"/><path class="cls-3" d="M452.71,190.74a31.29,31.29,0,0,0-2.82-4.16,28.84,28.84,0,0,0-2.33-2.56l1.06-1.69a32.69,32.69,0,0,1,2.49,2.73,34.58,34.58,0,0,1,3,4.44Z" transform="translate(-12.94 -55.79)"/><path class="cls-3" d="M416.11,186.31l-1.17-1.57a28.61,28.61,0,0,1,6.57-5.61l.76,1.92A26.68,26.68,0,0,0,416.11,186.31Z" transform="translate(-12.94 -55.79)"/><path class="cls-3" d="M440.27,179.14a19.26,19.26,0,0,0-7.36-1.43,22.55,22.55,0,0,0-2.7.31L430,175.9a23.18,23.18,0,0,1,2.9-.33h0a20.71,20.71,0,0,1,7.93,1.54Z" transform="translate(-12.94 -55.79)"/><rect class="cls-3" x="533.29" y="193.28" width="9.49" height="1.49"/><path class="cls-3" d="M566.34,250.52,566.2,249a34.59,34.59,0,0,0,8.75-1.5l.93,1.34-.06,0A37.24,37.24,0,0,1,566.34,250.52Z" transform="translate(-12.94 -55.79)"/><path class="cls-3" d="M584.81,244.48l-1.51-1a19.07,19.07,0,0,0,5-5.34l1.93.6A20.37,20.37,0,0,1,584.81,244.48Z" transform="translate(-12.94 -55.79)"/><path class="cls-3" d="M591.43,231.15h-1.06a12.82,12.82,0,0,0-1.63-6.29l2-.55a13.9,13.9,0,0,1,1.78,6.78Z" transform="translate(-12.94 -55.79)"/><path class="cls-3" d="M583.35,218.83l-.75-.55a28.91,28.91,0,0,0-6.51-3.33l1-1.32a30.66,30.66,0,0,1,7,3.59c.28.19.55.39.81.59Z" transform="translate(-12.94 -55.79)"/><path class="cls-3" d="M571.71,214.47H569a29.2,29.2,0,0,1-5.66-.66l.47-1.46A27.18,27.18,0,0,0,569,213h2.72Z" transform="translate(-12.94 -55.79)"/><path class="cls-3" d="M554.8,210.44a22.77,22.77,0,0,1-2.48-1.72,21.19,21.19,0,0,1-3.39-3.37l1.53-.83a19.25,19.25,0,0,0,3.13,3.12,23.29,23.29,0,0,0,2.29,1.59Z" transform="translate(-12.94 -55.79)"/><path class="cls-3" d="M545.41,198.11a16.44,16.44,0,0,1-.33-3.31,15.45,15.45,0,0,1,.46-3.71l1.8.3a14,14,0,0,0-.43,3.41,15.42,15.42,0,0,0,.31,3.06Z" transform="translate(-12.94 -55.79)"/><path class="cls-3" d="M550.79,184.78l-1.52-.85a23.14,23.14,0,0,1,2.8-2.8,25.91,25.91,0,0,1,3.12-2.23l1.09,1.21a23.25,23.25,0,0,0-2.91,2.08A20.35,20.35,0,0,0,550.79,184.78Z" transform="translate(-12.94 -55.79)"/><path class="cls-3" d="M564.15,177l-.43-1.46A26.46,26.46,0,0,1,569,175h3.17v1.51H569A25.23,25.23,0,0,0,564.15,177Z" transform="translate(-12.94 -55.79)"/><path class="cls-4" d="M187.6,86.84c11.85-.89,23.7-1.8,35.55-2.66A5.22,5.22,0,0,0,228,80.91c1.61-3.83-1.24-7.62-5.52-7.3q-21,1.55-42.07,3.16c-9.83.74-19.67,1.5-29.51,2.22a5.28,5.28,0,0,0-4.39,8,5,5,0,0,0,5.06,2.61Z" transform="translate(-12.94 -55.79)"/><path class="cls-4" d="M212.68,126.22l24.13-1.81a6.27,6.27,0,0,0,3.53-1.1,5.39,5.39,0,0,0-3.84-9.7q-24.37,1.81-48.74,3.67c-3.56.27-5.75,2.55-5.54,5.74s2.72,5.29,6.34,5Z" transform="translate(-12.94 -55.79)"/><path class="cls-4" d="M223.11,94.28Q212,95.12,200.78,96c-3.28.26-5.45,2.61-5.29,5.66a5.42,5.42,0,0,0,6.09,5q22.48-1.65,45-3.39a5.12,5.12,0,0,0,4.5-3.07,5.29,5.29,0,0,0-5.29-7.61C238.21,93.1,230.67,93.71,223.11,94.28Z" transform="translate(-12.94 -55.79)"/><path class="cls-4" d="M173.92,108.15h0c2.71-.2,5.43-.37,8.15-.62a5.38,5.38,0,1,0-.81-10.73q-8.07.55-16.14,1.21a5.36,5.36,0,0,0-5.25,5.87,5.44,5.44,0,0,0,6.06,4.88C168.59,108.57,171.25,108.35,173.92,108.15Z" transform="translate(-12.94 -55.79)"/><path class="cls-4" d="M248.32,71.65c-2.12.16-4.23.31-6.35.49a5.28,5.28,0,1,0,.73,10.54q6.36-.44,12.69-1a5.28,5.28,0,1,0-.72-10.53C252.55,71.3,250.43,71.5,248.32,71.65Z" transform="translate(-12.94 -55.79)"/><polygon class="cls-5" points="263.7 56.34 275.74 67.04 273.87 71.05 269.05 73.72 263.17 71.85 260.5 66.5 260.5 60.08 263.7 56.34"/><path class="cls-6" d="M287.79,109.71a11,11,0,0,1-3.32,3.72,7.27,7.27,0,0,1,2.69,5.79c0,3.83-2.67,6.93-6,6.93s-6-3.1-6-6.93a7.22,7.22,0,0,1,2.79-5.86,11.64,11.64,0,0,1-3.6-4.33,13.29,13.29,0,0,0-4.51,10.19c0,6.94,4.85,12.57,10.84,12.57s10.83-5.63,10.83-12.57A13.43,13.43,0,0,0,287.79,109.71Z" transform="translate(-12.94 -55.79)"/><path class="cls-7" d="M283.86,121.84a11.56,11.56,0,0,0-1.85-1.5,1.68,1.68,0,0,0-.69-.63l-1.75-1.65-.51-.56-1.51-1.65-.51-.6-1.31-1.63a1.46,1.46,0,0,0-.44-.68l-1.2-1.79-.3-.55L272.9,109a2.55,2.55,0,0,0-.47-1l-.6-1.31a1.82,1.82,0,0,0-.35-.89c-.2-.57-.41-1.15-.61-1.73-.09-.29-.18-.58-.28-.87a5.63,5.63,0,0,0-.42-1.61c-.05-.26-.11-.52-.16-.78-.1-.59-.21-1.18-.31-1.77l-.06-.49c-.07-.7-.13-1.4-.2-2.1,0-.17,0-.33,0-.49l0-2.32c.06-.11.12-.22,0-.33.06-.69.12-1.38.19-2.07a.91.91,0,0,0,0-.63c.13-.73.25-1.46.38-2.18a.74.74,0,0,0,.12-.58c.18-.69.37-1.37.55-2.06a1.18,1.18,0,0,0,.24-.72,37,37,0,0,1,6.59-11.61,53.78,53.78,0,0,1,6-5.94,3.24,3.24,0,0,0,1-.84L288.69,64a6.28,6.28,0,0,0,1.56-.92c2.35-1.19,4.72-2.34,7.17-3.34l4.3-1.47A75.64,75.64,0,0,1,313.64,56l4.54-.22c2.73,0,5.45.17,8.17.38l2,.27,5.09,1,1.51.39L339,59a3.78,3.78,0,0,0,1.2.48l3.13,1.29,1.14.54,2.66,1.36a2.6,2.6,0,0,0,1,.53l2.31,1.46.91.64,2.08,1.49.57.45L356,69l.67.66,1.59,1.56a1.21,1.21,0,0,0,.51.56l1.47,1.73c0,.23.2.33.36.45l1.26,1.73a1.62,1.62,0,0,0,.43.68c.35.56.7,1.13,1.06,1.69,0,.18.1.27.2.39l1,2a.89.89,0,0,0,.28.59c.21.52.43,1,.64,1.57l.33.89c.18.57.37,1.14.55,1.7a1.55,1.55,0,0,0,.2.79c.14.64.29,1.28.43,1.92l.09.44c.09.65.18,1.3.28,2,0,.16,0,.32.05.49,0,.68.07,1.35.11,2,0,.29,0,.59,0,.88l-.06,1.75a1,1,0,0,0,0,.65c-.08.68-.16,1.36-.25,2,0,.21-.05.42-.08.63l-.45,2.11c-.07.26-.14.52-.2.78-.21.66-.41,1.33-.61,2a1.36,1.36,0,0,0-.25.72,39.28,39.28,0,0,1-5.3,9.35,58,58,0,0,1-4.53,5,3.48,3.48,0,0,0-1,.88l-3.21,2.51-1.38,1-4.69,2.8-2,1a61.41,61.41,0,0,1-15.67,4.8,64.4,64.4,0,0,1-12.56.77c-.33,0-.66,0-1,0l-2.46-.22-5.91-.82a8.7,8.7,0,0,0-1.95-.42L300,130l-1.41-.48-3.4-1.25-1.2-.5-2.85-1.36a2.33,2.33,0,0,0-1-.5l-2.53-1.48-.77-.51-2.27-1.54Zm56-49.12,4.81,1.12a62.32,62.32,0,0,1,8,3.09,30.77,30.77,0,0,0-4.38-4.24,8,8,0,0,0-1.87-1.5,1.88,1.88,0,0,0-.88-.67,8.52,8.52,0,0,0-2.3-1.5,1.85,1.85,0,0,0-.77-.49,11.65,11.65,0,0,0-2.77-1.46,1.84,1.84,0,0,0-1-.48,15.8,15.8,0,0,0-3.31-1.33,5,5,0,0,0-1.36-.46,22.89,22.89,0,0,0-4.47-1.06,6.81,6.81,0,0,0-2-.32c-.51-.07-1-.17-1.52-.22a45.83,45.83,0,0,0-15.3,1.13,39,39,0,0,0-11,4.31,5.62,5.62,0,0,0-1.44,1,5.9,5.9,0,0,0-1.93,2.22A1.91,1.91,0,0,0,296,73a2.3,2.3,0,0,0,0,1.69,1.25,1.25,0,0,0,.3.89,3.65,3.65,0,0,0,1.44,1.8l.75.52A8.39,8.39,0,0,0,307,78c1.45-.74,2.81-1.65,4.22-2.49L314,74.37l2.35-.7A55.11,55.11,0,0,1,327,71.91l3.8-.07c2.38.12,4.77.29,7.14.57Zm-54.1,36.71a1.94,1.94,0,0,0,.41-.84,6.12,6.12,0,0,0,.83-2.11,1.08,1.08,0,0,0,.22-.72,8,8,0,0,0,.5-2.09,1,1,0,0,0,.08-.63,8.17,8.17,0,0,0,.29-2.36l0-.31a8.16,8.16,0,0,0,.07-2.15,1.78,1.78,0,0,0,0-1,5.64,5.64,0,0,0-.09-1.83.75.75,0,0,0,0-.62,5.23,5.23,0,0,0-.18-1.67,1.22,1.22,0,0,0-.11-.75,7.48,7.48,0,0,0-.38-2.1,1.21,1.21,0,0,0-.17-.74,4.69,4.69,0,0,0-.43-1.6.83.83,0,0,0-.18-.59A5.87,5.87,0,0,0,286,85.6a1,1,0,0,0-.29-.68,6.17,6.17,0,0,0-1.06-2,1.25,1.25,0,0,0-.42-.68,6,6,0,0,0-1.51-1.69,4.32,4.32,0,0,0-1.52-1c-1.78-.63-3.49.1-4.92,2.08a7.45,7.45,0,0,0-1.32,2.2,2.05,2.05,0,0,0-.36.86,6.54,6.54,0,0,0-.69,2,1.78,1.78,0,0,0-.25,1,7.35,7.35,0,0,0-.47,2.26c-.07.16-.16.3-.07.48a7.33,7.33,0,0,0-.23,2.24,1.08,1.08,0,0,0,0,.75,4.74,4.74,0,0,0,0,1.68,1.67,1.67,0,0,0,0,.94,4.88,4.88,0,0,0,.1,1.57,2.09,2.09,0,0,0,.13,1,6.17,6.17,0,0,0,.29,1.81c0,.15.07.3.1.45A7.29,7.29,0,0,0,274,103a.57.57,0,0,0,.14.47,6.64,6.64,0,0,0,.69,1.88.92.92,0,0,0,.26.59,5.1,5.1,0,0,0,.86,1.65,1.21,1.21,0,0,0,.44.72,5.62,5.62,0,0,0,1.41,1.84,1.13,1.13,0,0,0,.51.55c.26.21.5.44.77.63,1.82,1.31,3.64,1.31,5.17,0A5.62,5.62,0,0,0,285.8,109.43Z" transform="translate(-12.94 -55.79)"/><path class="cls-6" d="M313.33,127.53c0,6.94-4.85,12.56-10.84,12.56s-10.83-5.62-10.83-12.56S296.51,115,302.49,115,313.33,120.59,313.33,127.53Z" transform="translate(-12.94 -55.79)"/><path class="cls-3" d="M308.93,127.53c0,3.82-2.67,6.93-6,6.93s-6-3.11-6-6.93,2.67-6.94,6-6.94S308.93,123.7,308.93,127.53Z" transform="translate(-12.94 -55.79)"/><path class="cls-6" d="M357.06,124.15c0,5.76-4,10.42-9,10.42s-9-4.66-9-10.42,4-10.41,9-10.41S357.06,118.4,357.06,124.15Z" transform="translate(-12.94 -55.79)"/><path class="cls-3" d="M353.41,124.15c0,3.18-2.21,5.75-5,5.75s-4.95-2.57-4.95-5.75,2.22-5.74,4.95-5.74S353.41,121,353.41,124.15Z" transform="translate(-12.94 -55.79)"/><path class="cls-2" d="M16,329.18v-31h6.85V323.6H36.7v5.58Z" transform="translate(-12.94 -55.79)"/><path class="cls-2" d="M45.14,329.18v-31H52v31Z" transform="translate(-12.94 -55.79)"/><path class="cls-2" d="M89.15,312.09v15.16A21.89,21.89,0,0,1,83.88,329a31.29,31.29,0,0,1-6.24.61,17.86,17.86,0,0,1-8.52-1.91,13.08,13.08,0,0,1-5.53-5.49,19.53,19.53,0,0,1,0-16.91A13.27,13.27,0,0,1,69,299.75a17.1,17.1,0,0,1,8.3-1.93,20.12,20.12,0,0,1,6.22.92,13.38,13.38,0,0,1,4.77,2.55l-2.15,4.87a16.48,16.48,0,0,0-4.2-2.22,14,14,0,0,0-4.41-.68q-9,0-9,10.41c0,3.58.78,6.24,2.33,8s3.9,2.63,7,2.63a19.72,19.72,0,0,0,5-.66v-6.8H76.94v-4.75Z" transform="translate(-12.94 -55.79)"/><path class="cls-2" d="M119.81,298.21h6.42v31h-5.1l-15.42-19.72v19.72H99.34v-31h5l15.42,19.64Z" transform="translate(-12.94 -55.79)"/><path class="cls-2" d="M136.77,329.18v-31h21.35v5.32H143.45v7.24h13.79v5.32H143.45v7.77h14.67v5.32Z" transform="translate(-12.94 -55.79)"/><path class="cls-2" d="M170.86,328.63a16.14,16.14,0,0,1-5.41-2.61l2.2-4.88a17.2,17.2,0,0,0,10.06,3.12,8.68,8.68,0,0,0,4.46-.94,2.92,2.92,0,0,0,1.56-2.62,2.6,2.6,0,0,0-1.43-2.33,19.42,19.42,0,0,0-5.07-1.62,28.36,28.36,0,0,1-6.53-2,8.63,8.63,0,0,1-3.56-2.92,7.82,7.82,0,0,1-1.12-4.29,8.41,8.41,0,0,1,1.56-5,10.34,10.34,0,0,1,4.37-3.45,15.82,15.82,0,0,1,6.51-1.25,21,21,0,0,1,6.34,1,13.13,13.13,0,0,1,4.86,2.59l-2.2,4.88a14.94,14.94,0,0,0-9-3.12,7.57,7.57,0,0,0-4.22,1,3.26,3.26,0,0,0-1.53,2.84,2.51,2.51,0,0,0,.59,1.73,4.79,4.79,0,0,0,2,1.21,30.75,30.75,0,0,0,3.94,1.1c4,.88,6.84,2,8.58,3.38a6.86,6.86,0,0,1,2.62,5.71,8.18,8.18,0,0,1-3.38,6.92q-3.39,2.52-9.45,2.52A24.05,24.05,0,0,1,170.86,328.63Z" transform="translate(-12.94 -55.79)"/><path class="cls-2" d="M240,328.87a9,9,0,0,1,1.56,1.85l3.29,5.36L239,338.8l-4.57-7.47a4,4,0,0,0-3.78-1.76,15.88,15.88,0,0,1-8-1.95,13.2,13.2,0,0,1-5.24-5.53,20.06,20.06,0,0,1,0-16.83,13,13,0,0,1,5.24-5.51,17.63,17.63,0,0,1,16,0,13.05,13.05,0,0,1,5.25,5.51,18.13,18.13,0,0,1,1.84,8.41,17.86,17.86,0,0,1-2,8.72,12.62,12.62,0,0,1-5.68,5.47A5,5,0,0,1,240,328.87Zm-3.25-7.33q2.21-2.73,2.21-7.87c0-3.42-.73-6-2.19-7.84a7.45,7.45,0,0,0-6.11-2.7,7.36,7.36,0,0,0-6.08,2.7c-1.45,1.8-2.18,4.42-2.18,7.84s.74,6.05,2.2,7.87a7.36,7.36,0,0,0,6.06,2.72A7.45,7.45,0,0,0,236.73,321.54Z" transform="translate(-12.94 -55.79)"/><path class="cls-2" d="M258.6,326.22q-3.41-3.37-3.4-9.82V298.21h6.72V316.7a8.31,8.31,0,0,0,1.69,5.63,7.17,7.17,0,0,0,9.82,0,8.24,8.24,0,0,0,1.71-5.6V298.21h6.72V316.4q0,6.41-3.42,9.79t-9.93,3.38Q262,329.57,258.6,326.22Z" transform="translate(-12.94 -55.79)"/><path class="cls-2" d="M298.44,327.62a13.14,13.14,0,0,1-5.24-5.53,20.06,20.06,0,0,1,0-16.83,13,13,0,0,1,5.24-5.51,17.63,17.63,0,0,1,16,0,13.05,13.05,0,0,1,5.25,5.51,20.16,20.16,0,0,1,0,16.83,13.22,13.22,0,0,1-5.25,5.53,17.47,17.47,0,0,1-16,0Zm14.11-6.08q2.2-2.73,2.21-7.87c0-3.42-.73-6-2.19-7.84a7.45,7.45,0,0,0-6.11-2.7,7.36,7.36,0,0,0-6.08,2.7c-1.45,1.8-2.18,4.42-2.18,7.84s.73,6.05,2.2,7.87a7.36,7.36,0,0,0,6.06,2.72A7.45,7.45,0,0,0,312.55,321.54Z" transform="translate(-12.94 -55.79)"/><path class="cls-2" d="M336.59,329.18V303.79h-9.7v-5.58h26.27v5.58h-9.71v25.39Z" transform="translate(-12.94 -55.79)"/><path class="cls-2" d="M361.15,329.18v-31H368v31Z" transform="translate(-12.94 -55.79)"/><path class="cls-2" d="M378.55,298.21h12a19.06,19.06,0,0,1,8.7,1.85,12.9,12.9,0,0,1,5.58,5.31,16.78,16.78,0,0,1,1.93,8.3,17,17,0,0,1-1.91,8.33,12.68,12.68,0,0,1-5.56,5.33,19.15,19.15,0,0,1-8.74,1.85h-12Zm11.55,25.43q9.88,0,9.88-10t-9.88-9.92h-4.7v19.89Z" transform="translate(-12.94 -55.79)"/><path class="cls-2" d="M416.45,329.18v-31h6.86v31Z" transform="translate(-12.94 -55.79)"/><path class="cls-2" d="M433.85,329.18v-31H455.2v5.32H440.53v7.24h13.79v5.32H440.53v7.77H455.2v5.32Z" transform="translate(-12.94 -55.79)"/><path class="cls-2" d="M484.76,298.21h6.42v31h-5.1l-15.42-19.72v19.72h-6.37v-31h5l15.42,19.64Z" transform="translate(-12.94 -55.79)"/><path class="cls-2" d="M522.19,298.21h6.41v31h-5.09l-15.42-19.72v19.72h-6.37v-31h5l15.42,19.64Z" transform="translate(-12.94 -55.79)"/><path class="cls-2" d="M539.15,329.18v-31h21.34v5.32H545.82v7.24h13.79v5.32H545.82v7.77h14.67v5.32Z" transform="translate(-12.94 -55.79)"/><path class="cls-2" d="M573.23,328.63a16,16,0,0,1-5.4-2.61l2.2-4.88a17.17,17.17,0,0,0,10.05,3.12,8.66,8.66,0,0,0,4.46-.94,2.92,2.92,0,0,0,1.56-2.62,2.59,2.59,0,0,0-1.42-2.33,19.66,19.66,0,0,0-5.08-1.62,28.26,28.26,0,0,1-6.52-2,8.56,8.56,0,0,1-3.56-2.92,7.74,7.74,0,0,1-1.12-4.29,8.41,8.41,0,0,1,1.56-5,10.34,10.34,0,0,1,4.37-3.45,15.74,15.74,0,0,1,6.5-1.25,21.06,21.06,0,0,1,6.35,1,13.16,13.16,0,0,1,4.85,2.59l-2.19,4.88a14.94,14.94,0,0,0-9-3.12,7.54,7.54,0,0,0-4.22,1,3.24,3.24,0,0,0-1.54,2.84,2.56,2.56,0,0,0,.59,1.73,4.91,4.91,0,0,0,2,1.21,30.05,30.05,0,0,0,3.93,1.1c4,.88,6.85,2,8.59,3.38a6.88,6.88,0,0,1,2.61,5.71,8.16,8.16,0,0,1-3.38,6.92q-3.37,2.52-9.44,2.52A24.12,24.12,0,0,1,573.23,328.63Z" transform="translate(-12.94 -55.79)"/><path class="cls-2" d="M81.31,350.92h12a19,19,0,0,1,8.69,1.85,12.9,12.9,0,0,1,5.58,5.31,16.85,16.85,0,0,1,1.93,8.31,17,17,0,0,1-1.91,8.32,12.68,12.68,0,0,1-5.55,5.34,19.18,19.18,0,0,1-8.74,1.84h-12Zm11.55,25.44q9.89,0,9.89-10t-9.89-9.93h-4.7v19.9Z" transform="translate(-12.94 -55.79)"/><path class="cls-2" d="M119.22,381.89v-31h21.35v5.32H125.9v7.25h13.79v5.31H125.9v7.78h14.67v5.31Z" transform="translate(-12.94 -55.79)"/><path class="cls-2" d="M172.66,380.31a13.29,13.29,0,0,1-5.36-5.58,19.56,19.56,0,0,1,0-16.69,13.19,13.19,0,0,1,5.36-5.56,16.48,16.48,0,0,1,8.19-2,18.29,18.29,0,0,1,5.88.94,12.6,12.6,0,0,1,4.62,2.62l-2.2,4.87a15.05,15.05,0,0,0-4-2.24A12.39,12.39,0,0,0,181,356a7.84,7.84,0,0,0-6.35,2.64q-2.22,2.63-2.22,7.73c0,3.39.74,6,2.22,7.75A7.82,7.82,0,0,0,181,376.8a12.64,12.64,0,0,0,4.15-.7,15.05,15.05,0,0,0,4-2.24l2.2,4.87a12.58,12.58,0,0,1-4.62,2.61,18.3,18.3,0,0,1-5.88,1A16.28,16.28,0,0,1,172.66,380.31Z" transform="translate(-12.94 -55.79)"/><path class="cls-2" d="M206,380.33a13.16,13.16,0,0,1-5.25-5.53,20.14,20.14,0,0,1,0-16.82,13.08,13.08,0,0,1,5.25-5.52,17.61,17.61,0,0,1,16,0,13.1,13.1,0,0,1,5.26,5.52,20.14,20.14,0,0,1,0,16.82,13.18,13.18,0,0,1-5.26,5.53,17.37,17.37,0,0,1-16,0Zm14.1-6.08c1.48-1.81,2.22-4.44,2.22-7.86s-.73-6-2.2-7.84a8.21,8.21,0,0,0-12.19,0q-2.17,2.7-2.17,7.84c0,3.42.73,6.05,2.2,7.86a8.13,8.13,0,0,0,12.14,0Z" transform="translate(-12.94 -55.79)"/><path class="cls-2" d="M260.58,350.92h6.94l-13.93,31H248.1l-14-31h7.12l9.66,22.45Z" transform="translate(-12.94 -55.79)"/><path class="cls-2" d="M279.62,380.33a13.16,13.16,0,0,1-5.25-5.53,20.14,20.14,0,0,1,0-16.82,13.08,13.08,0,0,1,5.25-5.52,17.61,17.61,0,0,1,16,0,13.1,13.1,0,0,1,5.26,5.52,20.14,20.14,0,0,1,0,16.82,13.18,13.18,0,0,1-5.26,5.53,17.37,17.37,0,0,1-16,0Zm14.1-6.08c1.48-1.81,2.22-4.44,2.22-7.86s-.73-6-2.2-7.84a8.21,8.21,0,0,0-12.19,0q-2.18,2.7-2.17,7.84c0,3.42.73,6.05,2.2,7.86a8.13,8.13,0,0,0,12.14,0Z" transform="translate(-12.94 -55.79)"/><path class="cls-2" d="M312.37,381.89v-31h6.85v31Z" transform="translate(-12.94 -55.79)"/><path class="cls-2" d="M336.92,381.89V356.5h-9.7v-5.58h26.27v5.58h-9.71v25.39Z" transform="translate(-12.94 -55.79)"/><path class="cls-2" d="M364.71,378.93q-3.4-3.36-3.41-9.82V350.92H368v18.5a8.28,8.28,0,0,0,1.69,5.62,7.17,7.17,0,0,0,9.81,0,8.19,8.19,0,0,0,1.72-5.6v-18.5H388v18.19q0,6.42-3.43,9.8t-9.93,3.38Q368.11,382.29,364.71,378.93Z" transform="translate(-12.94 -55.79)"/><path class="cls-2" d="M425.22,381.89h-7.47L412.39,372a4.2,4.2,0,0,0-1.58-1.65,4.87,4.87,0,0,0-2.33-.5H405.1v12h-6.76v-31h14.23q5.44,0,8.23,2.4a8.61,8.61,0,0,1,2.79,6.92,9,9,0,0,1-1.95,5.88,9.26,9.26,0,0,1-5.51,3.12,6.79,6.79,0,0,1,4.08,3.47Zm-9.4-18.25a4.64,4.64,0,0,0,0-6.48,7.1,7.1,0,0,0-4.26-1H405v8.52h6.55A7,7,0,0,0,415.82,363.64Z" transform="translate(-12.94 -55.79)"/><path class="cls-2" d="M456.72,381.89l-3-6.85H439.36l-2.94,6.85h-6.9l14.24-31h5.49l14.23,31Zm-15.11-12h9.92l-5-11.6Z" transform="translate(-12.94 -55.79)"/><path class="cls-2" d="M496.21,364.81V380a22,22,0,0,1-5.28,1.71,31.27,31.27,0,0,1-6.23.62,18,18,0,0,1-8.52-1.91,13.21,13.21,0,0,1-5.54-5.49,19.58,19.58,0,0,1,0-16.91,13.23,13.23,0,0,1,5.47-5.52,17.1,17.1,0,0,1,8.3-1.93,20.42,20.42,0,0,1,6.22.92,13.74,13.74,0,0,1,4.76,2.55l-2.15,4.87a16,16,0,0,0-4.2-2.21,13.68,13.68,0,0,0-4.41-.68q-9,0-9,10.41c0,3.57.77,6.24,2.33,8s3.89,2.64,7,2.64a19.78,19.78,0,0,0,5.05-.66v-6.81H484v-4.74Z" transform="translate(-12.94 -55.79)"/><path class="cls-2" d="M506.4,381.89v-31h21.35v5.32H513.07v7.25h13.8v5.31h-13.8v7.78h14.68v5.31Z" transform="translate(-12.94 -55.79)"/></svg>