<?xml version="1.0" encoding="utf-8"?>
<!-- Generator: Adobe Illustrator 24.0.1, SVG Export Plug-In . SVG Version: 6.00 Build 0)  -->
<svg version="1.1" id="Calque_1" xmlns="http://www.w3.org/2000/svg" xmlns:xlink="http://www.w3.org/1999/xlink" x="0px" y="0px"
	 width="700px" height="260px" viewBox="0 0 700 260" style="enable-background:new 0 0 700 260;" xml:space="preserve">
<g>
	<path d="M616.6,111.4c10.3,0,19.1,7.4,19.1,19.3c0,11-8.8,18.4-19.1,18.4c-10.4,0-19.7-7.1-19.7-19.1
		C596.9,118.6,605.7,111.4,616.6,111.4 M617,99.9c-10.9,0-23.5,6.4-27.4,18.1c-0.1,0.4-0.5,0.5-1.1,0.5c-0.6,0-0.8-0.2-0.8-0.7
		v-16.7h-13.1v76.1H588l-0.2-33.7c0-0.5,0.2-0.7,0.8-0.7c0.6,0,0.9,0.1,1.1,0.5c2.6,6.4,11.1,17.3,27.4,17.3
		c16.9,0,31.2-11.2,31.2-29.8C648.3,108.9,631.8,99.9,617,99.9 M534.4,149.1c-13.7,0-19.2-8.8-19.2-18.4c0-10.9,6.7-19.3,19.2-19.3
		c12.1,0,19.5,8.4,19.5,19.3C553.9,140.3,548.2,149.1,534.4,149.1 M534.4,160.5c18.8,0,32.7-12.6,32.7-30
		c0-17.9-14.3-30.7-32.7-30.7c-18.8,0-32.3,12.8-32.3,30.7C502.1,147.9,514.3,160.5,534.4,160.5 M464.3,149.1
		c-13.7,0-19.2-8.8-19.2-18.4c0-10.9,6.7-19.3,19.2-19.3c12.1,0,19.5,8.4,19.5,19.3C483.8,140.3,478.1,149.1,464.3,149.1
		 M464.3,160.5c18.8,0,32.7-12.6,32.7-30c0-17.9-14.3-30.7-32.7-30.7c-18.8,0-32.3,12.8-32.3,30.7
		C432,147.9,444.3,160.5,464.3,160.5 M394.3,160.5c18.8,0,29.6-10.1,31.5-24.8h-13.1c-1.2,8-7.7,13.3-17.7,13.3
		c-12.9,0-18.6-8.8-18.6-18.4c0-10.9,6.7-19.3,18.8-19.3c9.7,0,15.6,5.6,17.4,13.8h13.1c-1.5-16.3-14.2-25.3-30.8-25.3
		c-17.9,0-31.5,12.8-31.5,30.7C363.5,147.9,375.8,160.5,394.3,160.5 M340.3,159.6h13.3v-58.5h-13.3V159.6z M299.2,149.1
		c-10.9,0-19.7-7-19.7-18.4c0-11.9,9.2-19.3,19.7-19.3c10.3,0,19.1,7.6,19.1,18.6C318.2,141.9,309.4,149.1,299.2,149.1 M299.6,160.5
		c14.7,0,31.2-8.8,31.2-30.5c0-18.6-14.4-30.1-31.2-30.1c-16.3,0-24.8,11.1-27.4,17.6c-0.1,0.4-0.5,0.5-1.1,0.5
		c-0.6,0-0.8-0.2-0.8-0.7l0.2-33.7h-13.3v76.1h13.1v-16.7c0-0.5,0.2-0.7,0.8-0.7c0.6,0,0.9,0.1,1.1,0.5
		C276.1,154.3,288.7,160.5,299.6,160.5 M218.1,149.1c-13.7,0-19.2-8.8-19.2-18.4c0-10.9,6.7-19.3,19.2-19.3
		c12.1,0,19.5,8.4,19.5,19.3C237.7,140.3,231.9,149.1,218.1,149.1 M218.1,160.5c18.8,0,32.6-12.6,32.6-30
		c0-17.9-14.3-30.7-32.6-30.7c-18.8,0-32.3,12.8-32.3,30.7C185.8,147.9,198.1,160.5,218.1,160.5 M64.7,159.6h13.5v-22.5
		c0-13.3,7.7-25.7,20.4-25.7c10.2,0,15.2,7.3,15.2,19.7v28.6h15v-24.5c0-12.8,8.8-23.8,20.7-23.8c10.5,0,14.9,7.3,14.9,18.6v29.6h15
		v-31.8c0-17-11.9-27.9-27.9-27.9c-12.9,0-21.2,6.4-23.8,14.3c-0.1,0.4-0.4,0.5-0.9,0.5c-0.6,0-0.7-0.2-0.9-0.7
		c-4.4-8.9-12.8-14-23.1-14c-12.9,0-20.5,6.4-23.1,14.3c-0.1,0.4-0.4,0.5-0.9,0.5c-0.6,0-0.9-0.2-0.9-0.7v-12.9H64.7V159.6z"/>
</g>
</svg>
