<?xml version="1.0" encoding="UTF-8"?>
<svg xmlns="http://www.w3.org/2000/svg" xmlns:xlink="http://www.w3.org/1999/xlink" version="1.1" id="Calque_1" x="0px" y="0px" viewBox="0 0 441.89 423.38" style="enable-background:new 0 0 441.89 423.38;" width="250" xml:space="preserve"><script xmlns=""/>
<style type="text/css">
	.st0{fill:#EE283B;}
	.st1{fill:#FFFFFF;}
</style>
<g>
	<polygon class="st0" points="220.41,148.95 217.83,156.88 208.56,182.02 232.26,182.02 222.88,156.88  "/>
	<path class="st0" d="M247.01,309.51c-3.41,0-4.96,2.06-5.24,6.23h10.16C251.93,310.9,249.95,309.51,247.01,309.51z"/>
	<path class="st0" d="M283.5,321.22c0,3.18,0.87,4.33,4.29,4.33c2.26,0,3.73-0.67,4.84-1.31v-6.67   C284.85,318.09,283.5,318.28,283.5,321.22z"/>
	<path class="st0" d="M185.67,309.67c-4.76,0-5.88,2.94-5.88,7.86s1.11,7.86,5.88,7.86s5.87-2.94,5.87-7.86   S190.43,309.67,185.67,309.67z"/>
	<path class="st0" d="M148.15,309.35c-3.26,0-4.61,0.99-4.61,4.25c0,3.26,1.35,4.25,4.61,4.25c3.26,0,4.61-0.99,4.61-4.25   C152.75,310.34,151.4,309.35,148.15,309.35z"/>
	<polygon class="st0" points="162.25,248.44 160.76,253.24 157.04,264.34 167.41,264.34 163.69,253.24  "/>
	<path class="st0" d="M124.21,309.35c-3.26,0-4.61,0.99-4.61,4.25c0,3.26,1.35,4.25,4.61,4.25c3.26,0,4.61-0.99,4.61-4.25   C128.81,310.34,127.46,309.35,124.21,309.35z"/>
	<path class="st0" d="M95.5,321.22c0,3.18,0.87,4.33,4.29,4.33c2.26,0,3.73-0.67,4.84-1.31v-6.67   C96.85,318.09,95.5,318.28,95.5,321.22z"/>
	<path class="st0" d="M169.4,157.71c0-10.1-2.99-14.12-14.42-14.12c-3.71,0-6.59,0.1-12.26,0.41v28.85h13.81   C164.36,172.85,169.4,168.94,169.4,157.71z"/>
	<path class="st0" d="M375.78,172.03c0-19.16-6.9-28.02-27.09-28.02c-2.58,0-4.94,0-7.31,0.1v55.84c2.37,0.1,4.74,0.1,7.31,0.1   C368.88,200.05,375.78,191.19,375.78,172.03z"/>
	<path class="st0" d="M390.65,39.41l-2.61,6.21l-18.94-7.37l-30.74-0.33l-6.69-2.68h-13.69l-17.67,11.97L240.77,28.3v6.95   L177.06,70.6l-90.27,0L19.57,58.49v329.5c0,7.05,5.71,12.76,12.76,12.76h380.82c7.05,0,12.76-5.71,12.76-12.76V47.53L390.65,39.41z    M355.22,87.27l3.96-11.4l3.96,11.4l12.07,0.25l-9.62,7.29l3.5,11.55l-9.91-6.89l-9.91,6.89l3.5-11.55l-9.62-7.29L355.22,87.27z    M332.31,135.97c5.77-0.21,12.57-0.41,18.34-0.41c23.18,0,35.23,15.35,35.23,36.47c0,21.12-12.67,36.47-35.85,36.47   c-5.77,0-11.95-0.21-17.72-0.41V135.97z M262.86,135.97h7.11l34.72,50.48l1.44,2.68h0.21v-53.16h9.07v72.11h-6.8l-34.82-49.86   l-1.65-3.19h-0.21v53.06h-9.07V135.97z M299.35,224.58l-6.24,8.93h-5.52l3.18-8.93H299.35z M269.3,248.33c0,4.5-1.5,6.84-4.14,8.39   v0.12c2.76,1.38,6.48,3.6,6.48,11.09c0,6.3-2.64,12.77-17.63,12.77c-4.38,0-11.99-0.54-14.27-0.66v-42.34   c3.42-0.18,9.89-0.42,13.37-0.42C265.71,237.29,269.3,241.37,269.3,248.33z M250.15,298.39l-4.05,5.8h-2.54l3.18-5.8H250.15z    M133.66,135.97c5.77-0.11,16.07-0.41,21.84-0.41c18.85,0,23.8,12.16,23.8,22.46c0,9.48-5.36,16.9-12.16,20.5l14.94,29.57h-10.71   l-13.19-27.2h-0.31c-4.64,0-10.2-0.1-15.14-0.21v27.4h-9.07V135.97z M90.58,134.11c12.05,0,18.75,4.84,24,11.85l-6.39,5.87   c-3.4-4.12-8.24-9.27-18.44-9.27c-15.56,0-19.37,12.36-19.37,29.46c0,16.48,3.81,29.47,20.91,29.47c8.04,0,13.5-2.88,16.59-7.52   v-14.84H93.16l-0.31-8.24h23.9v26.06c-5.56,8.55-13.39,12.98-24.83,12.98c-21.74,0-31.63-16.79-31.63-37.91   C60.29,150.91,70.18,134.11,90.58,134.11z M60,258.76c0-13.61,7.08-22.19,19.19-22.19c8.04,0,13.19,3.84,16.19,9.18l-7.62,4.44   c-1.62-3-4.62-4.86-8.64-4.86c-5.76,0-8.58,4.08-8.58,13.61c0,9.6,2.82,13.55,8.46,13.55c4.26,0,7.44-2.16,9.06-5.1l7.62,4.26   c-3,5.4-8.28,9.53-16.49,9.53C67.08,281.19,60,272.43,60,258.76z M71.28,327.69h-3.41v-28.98l3.41-0.16V327.69z M85.38,301.97   c0,4.25-1.71,6.27-6.03,6.95l-0.24-1.55c2.9-0.71,3.77-2.06,3.77-4.61h-1.95v-4.21h4.45V301.97z M105.23,327.69l-0.28-1.31h-0.08   c-1.19,0.99-2.94,2.03-5.36,2.03c-4.56,0-7.58-2.34-7.58-7.03c0-5.2,4.33-6.08,12.7-6.43v-1.23c0-3.06-0.75-4.13-3.77-4.13   c-3.02,0-5.6,1.51-6.35,1.99l-1.31-2.42c1.71-1.19,4.25-2.5,7.78-2.5c4.37,0,7.07,2.1,7.07,6.27v12.03l0.52,2.74H105.23z    M134.61,307.37c-0.32-0.12-1.19-0.48-1.9-0.48c-1.15,0-1.79,1.03-2.1,2.14c1.11,1.23,1.63,2.82,1.63,4.56   c0,3.81-2.54,6.95-8.02,6.95h-1.99c-1.31,0-2.06,0.36-2.06,1.15c0,0.91,1.11,1.43,5.24,2.06c4.21,0.64,7.86,1.67,7.86,5.64   c0,3.45-3.06,5.99-8.93,5.99c-6.15,0-8.89-2.22-8.89-5.16c0-1.63,0.83-2.38,1.15-2.7l2.82,0.16c-0.16,0.28-0.63,1.23-0.63,2.22   c0,1.63,1.71,2.86,5.48,2.86c4.33,0,5.36-1.55,5.36-3.22c0-2.22-2.02-2.5-6.19-3.22c-3.65-0.63-6.63-1.19-6.63-4.01   c0-2.06,1.91-2.98,2.42-3.29h0.48c-2.58-0.72-3.49-3.18-3.49-5.44c0-3.81,2.54-6.95,8.02-6.95c1.91,0,3.49,0.4,4.68,1.07   c0.2-2.3,0.95-3.53,3.49-3.53c0.99,0,2.06,0.24,2.42,0.32L134.61,307.37z M136.23,280.05h-9.59v-17.27h-14.75v17.27h-9.59v-42.34   h9.59v16.43h14.75v-16.43h9.59V280.05z M158.55,307.37c-0.32-0.12-1.19-0.48-1.91-0.48c-1.15,0-1.79,1.03-2.1,2.14   c1.11,1.23,1.63,2.82,1.63,4.56c0,3.81-2.54,6.95-8.02,6.95h-1.99c-1.31,0-2.06,0.36-2.06,1.15c0,0.91,1.11,1.43,5.24,2.06   c4.21,0.64,7.86,1.67,7.86,5.64c0,3.45-3.06,5.99-8.93,5.99c-6.15,0-8.89-2.22-8.89-5.16c0-1.63,0.83-2.38,1.15-2.7l2.82,0.16   c-0.16,0.28-0.63,1.23-0.63,2.22c0,1.63,1.71,2.86,5.48,2.86c4.33,0,5.36-1.55,5.36-3.22c0-2.22-2.02-2.5-6.19-3.22   c-3.65-0.63-6.63-1.19-6.63-4.01c0-2.06,1.91-2.98,2.42-3.29h0.48c-2.58-0.72-3.49-3.18-3.49-5.44c0-3.81,2.54-6.95,8.02-6.95   c1.91,0,3.49,0.4,4.68,1.07c0.2-2.3,0.95-3.53,3.49-3.53c0.99,0,2.06,0.24,2.42,0.32L158.55,307.37z M168.72,327.69h-3.41v-28.98   l3.41-0.16V327.69z M170.05,272.13H154.4l-2.7,7.92h-10.07l15.59-42.34h10.01l15.65,42.34h-10.14L170.05,272.13z M185.67,328.41   c-5.64,0-9.53-3.73-9.53-10.88s3.89-10.88,9.53-10.88c5.64,0,9.53,3.73,9.53,10.88S191.31,328.41,185.67,328.41z M230.81,327.69   h-3.41v-12.78c-0.08-4.09-1.47-5.48-4.41-5.48c-2.7,0-4.56,1.15-4.56,5v13.26h-3.41v-13.22c-0.08-4.09-1.55-5.04-4.17-5.04   c-3.02,0-4.8,1.27-4.8,5.44v12.82h-3.41v-20.33l2.46-0.16l0.6,1.51h0.08c1.31-1.31,3.14-2.06,5.28-2.06c2.74,0,4.88,1.19,6.07,3.14   c1.31-1.95,3.61-3.14,6.43-3.14c4.96,0,7.26,3.61,7.26,7.54V327.69z M230.92,280.05h-9.65v-27.58h-0.12l-1.62,3.3l-7.92,10.8h-4.14   l-7.92-10.8l-1.62-3.3h-0.12v27.58h-9.6v-42.34h9.6l11.81,17.87l11.81-17.87h9.47V280.05z M205.47,190.26l-6.59,17.82h-9.58   l27.71-72.11h6.8l27.71,72.11h-9.58l-6.59-17.82H205.47z M255.27,318.6h-13.54c0.24,4.29,1.99,6.79,6.07,6.79   c1.59,0,3.37-0.36,5.48-1.55l1.27,2.34c-2.26,1.51-4.45,2.22-6.75,2.22c-5.48,0-9.57-3.73-9.57-10.88s3.49-10.88,8.69-10.88   c3.97,0,8.34,2.22,8.34,10.12V318.6z M273.81,310.94c-0.32-0.24-1.55-1.11-3.29-1.11c-2.78,0-4.33,2.3-4.33,6.63v11.23h-3.41   v-20.33l2.86-0.16l0.4,3.06h0.08c0.84-2.18,2.34-3.61,4.92-3.61c1.55,0,3.02,0.52,3.93,1.03L273.81,310.94z M278.6,237.71h28.24   l-0.18,8.63h-18.47v7.79h15.05v8.64h-15.05v8.69h18.47l0.18,8.58H278.6V237.71z M293.22,327.69l-0.28-1.31h-0.08   c-1.19,0.99-2.94,2.03-5.36,2.03c-4.56,0-7.58-2.34-7.58-7.03c0-5.2,4.33-6.08,12.7-6.43v-1.23c0-3.06-0.75-4.13-3.77-4.13   c-3.02,0-5.6,1.51-6.35,1.99l-1.31-2.42c1.71-1.19,4.25-2.5,7.78-2.5c4.37,0,7.07,2.1,7.07,6.27v12.03l0.52,2.74H293.22z    M310.45,328.13c-2.54,0-4.53-1.23-4.53-4.68v-13.22h-2.42v-2.86h2.42V303l3.22-0.71l0.12,5.08h4.72l-0.12,2.86h-4.6v13.02   c0,1.39,0.71,1.91,1.86,1.91c0.76,0,1.51-0.04,2.86-0.59l0.12,2.78C313.27,327.77,312.08,328.13,310.45,328.13z M325.58,327.69   h-3.42v-20.33l3.42-0.16V327.69z M325.66,303.24l-3.57,0.16v-3.49l3.57-0.16V303.24z M330.23,266.01c-1.32,0-3.72-0.06-6.24-0.18   v14.21h-9.59v-42.34c3.36-0.12,10.79-0.36,13.67-0.36c13.67,0,17.93,5.76,17.93,13.91c0,5.58-2.1,10.08-6.36,12.59l8.28,16.19   h-10.8l-6.84-14.03H330.23z M342.69,328.41c-5.64,0-9.53-3.73-9.53-10.88s3.89-10.88,9.53-10.88c5.64,0,9.53,3.73,9.53,10.88   S348.33,328.41,342.69,328.41z M376.16,327.69h-3.41v-12.78c-0.08-4.09-1.63-5.48-4.76-5.48c-2.74,0-4.92,1.11-4.92,5.44v12.82   h-3.41v-20.33l2.46-0.16l0.75,1.59h0.08c1.43-1.39,3.46-2.14,5.76-2.14c5,0,7.46,3.61,7.46,7.54V327.69z M373.77,264.7v15.35h-9.66   V264.7L349,237.71h10.8l7.62,14.39l1.56,3.96l1.5-3.96l7.62-14.39h10.73L373.77,264.7z"/>
	<path class="st0" d="M329.03,245.87c-1.2,0-3.06,0.06-5.04,0.18v11.75c1.98,0.06,3.78,0.12,4.8,0.12c4.92,0,6.89-1.08,6.89-6.06   C335.69,247.07,333.89,245.87,329.03,245.87z"/>
	<ellipse class="st0" cx="342.69" cy="317.53" rx="5.87" ry="7.86"/>
	<path class="st0" d="M261.51,267.16c0-3.18-0.96-4.74-4.32-4.74h-8.16v9.47c2.4,0.12,4.62,0.24,6.12,0.24   C260.31,272.13,261.51,270.75,261.51,267.16z"/>
	<path class="st0" d="M260.07,249.52c0-2.52-0.48-3.78-5.1-3.78c-1.32,0-3.48,0.06-5.94,0.24v8.21h7.25   C259.47,254.2,260.07,252.28,260.07,249.52z"/>
</g>
</svg>