<?xml version="1.0" encoding="utf-8"?>
<!-- Generator: Adobe Illustrator 27.2.0, SVG Export Plug-In . SVG Version: 6.00 Build 0)  -->
<svg version="1.1" id="Calque_1" xmlns="http://www.w3.org/2000/svg" xmlns:xlink="http://www.w3.org/1999/xlink" x="0px" y="0px"
	 viewBox="0 0 1161.7 412" style="enable-background:new 0 0 1161.7 412;" xml:space="preserve">
<style type="text/css">
	.st0{fill:none;}
	.st1{fill:#FFFFFF;}
</style>
<g>
	<path class="st0" d="M5.1,293.5c0-96,0-192,0-288c306.9,0,613.8,0,920.6,0c0,1.3-0.1,2.6-0.1,3.8c0,130.1,0,260.3,0,390.4
		c0,0.7,0,1.4,0,2.2c0,0.6,0.1,1.2,0.2,2c1.2,0,2.2,0,3.2,0c27.5,0,55,0.1,82.5,0c11.4,0,22.8,0.5,34.2-1.1c6-0.8,11.9-2.1,17.8-3.4
		c1.3-0.3,2.7-0.6,3.9-1c3.8-1.5,7.6-3.1,11.4-4.5c5.5-2.1,10.6-4.8,15.6-7.9c3.9-2.4,7.6-5.1,11.3-7.7c4.7-3.4,8.9-7.4,12.8-11.7
		c2.6-2.8,5.1-5.7,7.5-8.8c2.3-2.9,4.5-5.9,6.4-9.1c1.9-3.1,3.4-6.6,5.2-9.8c3-5.3,4.9-11.1,6.7-16.9c1.3-4.4,2.2-8.9,2.9-13.5
		c0.6-3.5,0.9-7.1,1-10.7c0.3-6.7,0.2-13.4-0.8-20.1c-0.4-3-0.6-6-1.3-8.9c-1-4.1-2-8.3-3.4-12.3c-1.3-3.8-2.6-7.5-4.4-11
		c-2.4-4.7-5.1-9.2-7.8-13.7c-3.1-5.1-6.9-9.8-11-14.2c-3.7-3.9-7.6-7.6-11.7-10.9c-1.7-1.4-2.2-1.9,0.1-3.6
		c4.9-3.6,9.1-8,13.2-12.5c6.3-6.9,11.6-14.5,15.7-22.9c1.7-3.3,3.3-6.7,4.6-10.2c1.3-3.5,2.3-7,3.2-10.6c1-3.9,1.9-7.9,2.6-11.8
		c0.5-2.8,0.7-5.7,0.9-8.6c0.5-8.3,0-16.6-0.9-24.9c0-0.2,0-0.3-0.1-0.5c-0.6-2.6-1.1-5.3-1.7-7.9c-1-4.1-1.9-8.2-3.3-12.1
		c-1.3-3.7-3.2-7.2-4.8-10.8c-3.5-8-8.6-15-14.1-21.7c-3.6-4.4-7.7-8.5-12-12.3c-7.9-7-16.7-12.9-26.2-17.5c-4.4-2.1-8.9-4-13.5-5.8
		c-2-0.8-4.2-1.4-6.3-2c-2-0.6-4-1-6-1.5c-2.2-0.5-4.5-1.1-6.7-1.5c-4.4-0.6-8.9-1-13.3-1.6c-1.3-0.2-2.5-0.5-3.7-0.8
		c39.8,0,79.7,0,119.5,0c0,133.4,0,266.9,0,400.3c-383.4,0-766.7,0-1150.1,0c0-0.6,0-1.3,0-1.9c13.8,0,27.7,0,41.5,0
		c2.6,0,5.1,0,7.7,0c3,0,3,0,3-2.9c0-0.3,0-0.6,0-1c0-15.7,0-31.4,0-47c0-17.8,0.1-35.7,0-53.5c0-4.7,0.6-9.4,1.7-14
		c1.2-5,3.1-9.8,5.6-14.3c4.2-7.6,9.8-13.9,17-18.6c3.4-2.2,7.1-4.1,10.8-5.8c3.1-1.4,6.4-2.4,9.8-3.1c3.7-0.8,7.4-1.1,11.2-1.3
		c7.7-0.3,15.4-0.1,23,2c7.4,2.1,14.1,5.2,20.3,9.8c6.9,5.1,12,11.6,15.9,19.1c1.8,3.6,3.4,7.3,4.1,11.3c0.6,3.3,1.5,6.5,1.8,9.8
		c0.4,3.4,0.3,6.9,0.3,10.3c0,31.8,0,63.7,0,95.5c0,1.1,0.1,2.2,0.2,3.2c2.7,0.6,49.6,0.5,51.6-0.1c0-1,0-2,0-3
		c0-33.1,0-66.2,0-99.3c0-5.2,0.5-10.3,1.8-15.4c0.8-3.4,1.8-6.7,3.2-9.9c3.1-7,7.4-13.2,13.1-18.4c4.2-3.8,8.9-6.8,14-9.2
		c5.9-2.8,12.1-4.6,18.5-5.4c6.8-0.8,13.6-0.7,20.4,0c2.1,0.2,4.2,0.4,6.1,1c3.6,1.1,7.2,2.5,10.7,3.9c5.7,2.1,10.6,5.4,15.1,9.4
		c5.5,4.9,9.7,10.7,13,17.2c2.6,5.1,4.1,10.7,4.9,16.4c0.6,4.6,1,9.2,1,13.8c0.1,31.9,0,63.8,0,95.7c0,1.1,0,2.2,0,3.2
		c2.6,0.6,49.2,0.5,51.2,0c0-1,0-2,0-3c0-30.8,0-61.6,0-92.4c0-7.7,0.3-15.3-0.9-23c-0.9-5.6-1.5-11.2-3-16.6c-1-3.5-1.8-7-3.1-10.5
		c-2.5-6.9-5.5-13.6-9.1-20c-3.3-6-7.2-11.6-11.4-16.8c-4.8-5.9-10.1-11.3-16.2-16c-4.3-3.3-8.5-6.7-13.1-9.3
		c-6.8-3.9-13.9-7.4-21.5-9.6c-4.2-1.3-8.4-2.5-12.7-3.4c-3.4-0.7-6.9-0.8-10.4-1.2c-1.2-0.1-2.4-0.3-3.6-0.4
		c-4.5-0.1-9.1-0.4-13.6-0.2c-4.3,0.2-8.5,1-12.8,1.5c-2.4,0.3-4.8,0.5-7,1.2c-4.8,1.5-9.7,2.8-14.5,4.7c-5.5,2.3-10.9,4.9-16,7.9
		c-4.7,2.8-9,6.1-13.2,9.5c-4.6,3.8-8.8,7.9-12.5,12.5c-1.3,1.6-2.6,3.1-4.1,4.8c-0.7-0.6-1.3-1.1-1.8-1.6
		c-3.4-3.7-6.7-7.5-10.2-11.1c-4.5-4.7-9.9-8.3-15.1-12.1c-5-3.5-10.5-6.1-16-8.6c-5.7-2.7-11.8-4.6-18-6.1
		c-4.9-1.1-10-2.2-15.1-2.2c-0.9,0-1.8-0.1-2.6-0.2c-3.2-0.2-6.4-0.7-9.5-0.5c-5.5,0.3-11,0.8-16.4,1.5c-4.4,0.6-8.6,1.6-12.8,2.8
		c-5.1,1.4-10.1,3.2-14.8,5.6c-3.5,1.7-7.2,3.3-10.5,5.4c-8,5-15.4,10.7-22,17.5c-3.7,3.8-7.3,7.7-10.3,12
		c-2.7,3.9-5.4,7.8-7.7,11.9c-2.4,4.2-4.4,8.7-6.4,13.1c-1,2.1-1.9,4.3-2.7,6.6c-1.2,3.6-2.3,7.3-3.4,10.9c-0.6,2.1-0.8,4.2-1.2,6.3
		c-0.9,4.4-1.7,8.7-2,13.2C6.3,289.6,5.6,291.6,5.1,293.5z M659.9,403.8C659.9,403.9,659.9,403.9,659.9,403.8
		c33.2,0.1,66.4,0,99.6,0.1c7.9,0,15.7-0.4,23.4-1.5c7.8-1.1,15.4-2.9,22.9-5.6c5-1.8,9.8-3.8,14.6-6.1c8.4-4.2,16.1-9.2,23.3-15.2
		c7.3-6.1,13.6-13.1,19.3-20.7c4.7-6.4,8.4-13.3,11.6-20.5c2.6-5.9,4.5-12.2,6-18.5c1-4.2,1.7-8.5,1.9-12.7
		c0.6-12.6,0.7-25.2-2.5-37.6c-1-3.9-2-7.9-3.4-11.6c-1.3-3.5-2.9-7-4.5-10.4c-2.8-6.1-6.5-11.7-10.5-17.1
		c-5.2-7.2-11.4-13.6-18.2-19.2c-5.7-4.7-11.9-8.8-18.3-12.5c-5.6-3.2-11.4-5.6-17.4-7.9c-3.5-1.3-7-2.6-10.7-3.3
		c-3.5-0.7-6.9-1.8-10.4-2.5c-2.5-0.5-5-0.8-7.6-0.9c-6.5-0.4-13.1-1-19.6-1c-63-0.1-126.1,0-189.1-0.1c-10.9,0-21.9,0.2-32.8,1.6
		c-4.4,0.6-8.7,1.8-13.1,2.4c-1.5,0.2-3,0.6-4.4,1.1c-3.7,1.3-7.4,2.5-11,4c-3.8,1.5-7.7,3-11.2,5.1c-5.8,3.4-11.4,7-16.9,10.8
		c-5.6,3.9-10.7,8.4-15.2,13.4c-5.2,5.7-9.9,11.9-13.7,18.7c-2.5,4.6-5.2,9.2-7.2,14.1c-1.9,4.4-3.6,9-4.5,13.8
		c-0.7,4-1.9,8-2.6,12.1c-0.6,3.9-0.9,7.8-0.9,11.7c0,5,0.4,10,0.6,15.1c0.2,4.3,0.9,8.5,1.9,12.7c0.9,3.9,1.7,7.9,3.2,11.7
		c1.2,3.1,2.3,6.3,3.6,9.3c2.4,5.5,5.4,10.6,8.7,15.6c3.2,4.9,6.8,9.5,10.9,13.7c4.4,4.6,9,9.1,14.1,13c6.8,5.3,14.2,9.6,22,13.3
		c3.3,1.6,6.9,2.7,10.2,4.3c4.7,2.2,9.8,3.1,14.7,4.5c2.8,0.8,5.8,1.3,8.7,1.6c5.6,0.5,11.2,1.7,16.9,1.6
		C588.2,403.8,624,403.8,659.9,403.8z"/>
	<path class="st1" d="M1035.7,5.5c1.2,0.3,2.5,0.7,3.7,0.8c4.4,0.6,8.9,1,13.3,1.6c2.3,0.3,4.5,0.9,6.7,1.5c2,0.5,4,0.9,6,1.5
		c2.1,0.6,4.3,1.2,6.3,2c4.5,1.8,9.1,3.7,13.5,5.8c9.5,4.6,18.3,10.5,26.2,17.5c4.3,3.8,8.4,7.9,12,12.3
		c5.5,6.7,10.6,13.7,14.1,21.7c1.6,3.6,3.5,7.1,4.8,10.8c1.4,3.9,2.3,8,3.3,12.1c0.7,2.6,1.2,5.3,1.7,7.9c0,0.2,0.1,0.3,0.1,0.5
		c0.9,8.3,1.4,16.6,0.9,24.9c-0.2,2.9-0.4,5.7-0.9,8.6c-0.7,4-1.6,7.9-2.6,11.8c-0.9,3.6-1.9,7.2-3.2,10.6c-1.3,3.5-3,6.8-4.6,10.2
		c-4.2,8.4-9.5,16-15.7,22.9c-4.1,4.5-8.3,8.8-13.2,12.5c-2.3,1.7-1.8,2.2-0.1,3.6c4.2,3.4,8.1,7,11.7,10.9c4.1,4.4,7.9,9.1,11,14.2
		c2.8,4.5,5.4,9,7.8,13.7c1.8,3.5,3.1,7.3,4.4,11c1.4,4.1,2.4,8.2,3.4,12.3c0.7,2.9,0.9,6,1.3,8.9c1,6.7,1.1,13.4,0.8,20.1
		c-0.1,3.6-0.4,7.2-1,10.7c-0.8,4.5-1.6,9.1-2.9,13.5c-1.7,5.8-3.7,11.6-6.7,16.9c-1.8,3.2-3.3,6.6-5.2,9.8
		c-1.9,3.2-4.1,6.2-6.4,9.1c-2.4,3-4.9,5.9-7.5,8.8c-3.9,4.3-8.1,8.2-12.8,11.7c-3.7,2.7-7.4,5.3-11.3,7.7c-5,3.1-10.1,5.9-15.6,7.9
		c-3.8,1.4-7.6,3-11.4,4.5c-1.3,0.5-2.6,0.7-3.9,1c-5.9,1.4-11.8,2.6-17.8,3.4c-11.4,1.6-22.8,1.1-34.2,1.1c-27.5,0.1-55,0-82.5,0
		c-1,0-2.1,0-3.2,0c-0.1-0.8-0.2-1.4-0.2-2c0-0.7,0-1.4,0-2.2c0-130.1,0-260.3,0-390.4c0-1.3,0.1-2.6,0.1-3.8
		C962.4,5.5,999,5.5,1035.7,5.5z M977.4,352.6c1.4,0,2.3,0,3.3,0c14.6,0,29.1,0.1,43.7,0c7.5,0,15-0.7,22.2-2.8c1-0.3,1.9-0.7,2.9-1
		c3.7-1,7-2.7,10.2-4.7c6-3.8,11.4-8.4,15.6-14.2c2.5-3.5,4.8-7.2,6.4-11.3c1.2-3,2.4-6,3.1-9.2c0.8-3.3,1.6-6.5,1.7-9.8
		c0-1,0.2-1.9,0.2-2.9c0.1-2.8,0.3-5.6,0.3-8.3c0-2-0.4-4-0.6-5.9c-0.3-2.5-0.5-5.1-1.2-7.5c-1.3-4.5-2.7-9.1-4.8-13.3
		c-2.1-4.2-4.5-8.1-7.6-11.7c-6-7.1-13.4-12.1-22.1-15.2c-2.6-0.9-5.4-1.5-8-2.2c-4.5-1.2-9.1-1.8-13.7-1.8c-16.6,0-33.3,0-49.9,0
		c-0.5,0-1.1,0.1-1.8,0.2c-0.1,1.1-0.2,2.1-0.2,3.1c0,6.2,0,12.5,0,18.7c0,32,0,64,0,96C977.1,349.9,977.3,351.1,977.4,352.6z
		 M977.3,178.9c1.3,0,2.3,0,3.2,0c16.2,0,32.5-0.1,48.7,0c5.5,0,10.8-0.6,16-2c5.1-1.3,9.9-3.3,14.4-6.1c5.8-3.8,11.1-7.9,15.2-13.7
		c2.7-3.9,5.2-7.8,7.1-12.2c1.7-4.1,3.1-8.2,3.9-12.6c0.8-4.4,1.2-8.8,1.5-13.3c0.2-2.3-0.5-4.6-0.6-6.9c-0.2-5.4-1.3-10.6-3-15.8
		c-2.3-7.3-5.9-13.7-10.8-19.5c-5.5-6.6-12.3-11.4-20.1-14.8c-4.4-1.9-9-3-13.6-3.9c-3.3-0.7-6.7-0.8-10-0.8
		c-16.1-0.1-32.1,0-48.2,0c-0.6,0-1.1,0-1.7,0c-1.7,0.1-2.1,0.5-2.2,2.2c-0.1,1.4,0,2.7,0,4.1c0,37.3,0,74.5,0,111.8
		C977.1,176.3,977.2,177.4,977.3,178.9z"/>
	<path class="st1" d="M5.1,293.5c0.4-1.9,1.1-3.8,1.3-5.8c0.3-4.5,1-8.8,2-13.2c0.5-2.1,0.7-4.3,1.2-6.3c1-3.7,2.1-7.3,3.4-10.9
		c0.8-2.2,1.7-4.4,2.7-6.6c2.1-4.4,4-8.9,6.4-13.1c2.3-4.1,5-8.1,7.7-11.9c3-4.3,6.6-8.2,10.3-12c6.6-6.8,14-12.5,22-17.5
		c3.3-2.1,6.9-3.7,10.5-5.4c4.8-2.3,9.7-4.2,14.8-5.6c4.2-1.1,8.4-2.2,12.8-2.8c5.5-0.7,10.9-1.3,16.4-1.5c3.2-0.2,6.4,0.3,9.5,0.5
		c0.9,0.1,1.8,0.2,2.6,0.2c5.1,0,10.2,1,15.1,2.2c6.2,1.4,12.3,3.4,18,6.1c5.5,2.6,11,5.1,16,8.6c5.3,3.7,10.6,7.4,15.1,12.1
		c3.5,3.6,6.8,7.4,10.2,11.1c0.5,0.6,1.1,1,1.8,1.6c1.5-1.7,2.8-3.2,4.1-4.8c3.8-4.6,7.9-8.8,12.5-12.5c4.2-3.5,8.6-6.7,13.2-9.5
		c5.1-3.1,10.5-5.7,16-7.9c4.7-1.9,9.6-3.2,14.5-4.7c2.3-0.7,4.7-0.9,7-1.2c4.3-0.6,8.5-1.3,12.8-1.5c4.5-0.2,9.1,0.1,13.6,0.2
		c1.2,0,2.4,0.2,3.6,0.4c3.5,0.4,7,0.5,10.4,1.2c4.3,0.9,8.5,2.1,12.7,3.4c7.6,2.3,14.7,5.8,21.5,9.6c4.6,2.6,8.9,6,13.1,9.3
		c6,4.7,11.4,10.1,16.2,16c4.3,5.2,8.1,10.9,11.4,16.8c3.6,6.4,6.6,13.1,9.1,20c1.2,3.5,2.1,7,3.1,10.5c1.5,5.5,2.1,11.1,3,16.6
		c1.2,7.7,0.9,15.3,0.9,23c0.1,30.8,0,61.6,0,92.4c0,1,0,2.1,0,3c-2,0.6-48.6,0.6-51.2,0c0-1,0-2.1,0-3.2c0-31.9,0-63.8,0-95.7
		c0-4.6-0.4-9.3-1-13.8c-0.8-5.7-2.3-11.2-4.9-16.4c-3.3-6.5-7.5-12.4-13-17.2c-4.5-4-9.5-7.3-15.1-9.4c-3.6-1.3-7.1-2.7-10.7-3.9
		c-2-0.6-4.1-0.8-6.1-1c-6.8-0.6-13.6-0.8-20.4,0c-6.4,0.8-12.6,2.6-18.5,5.4c-5.1,2.4-9.8,5.4-14,9.2c-5.7,5.1-10,11.3-13.1,18.4
		c-1.4,3.2-2.4,6.5-3.2,9.9c-1.3,5.1-1.8,10.2-1.8,15.4c0,33.1,0,66.2,0,99.3c0,1,0,2.1,0,3c-1.9,0.6-48.9,0.7-51.6,0.1
		c-0.1-1-0.2-2.1-0.2-3.2c0-31.8,0-63.7,0-95.5c0-3.4,0-6.9-0.3-10.3c-0.4-3.3-1.3-6.5-1.8-9.8c-0.7-4-2.2-7.7-4.1-11.3
		c-3.9-7.5-9-14-15.9-19.1c-6.2-4.6-13-7.7-20.3-9.8c-7.6-2.2-15.3-2.4-23-2c-3.7,0.2-7.5,0.5-11.2,1.3c-3.3,0.7-6.7,1.7-9.8,3.1
		c-3.7,1.6-7.4,3.5-10.8,5.8c-7.3,4.7-12.9,11-17,18.6c-2.5,4.5-4.4,9.3-5.6,14.3c-1.1,4.6-1.7,9.2-1.7,14c0.1,17.8,0,35.7,0,53.5
		c0,15.7,0,31.4,0,47c0,0.3,0,0.6,0,1c0,2.9,0,2.9-3,2.9c-2.6,0-5.1,0-7.7,0c-13.8,0-27.7,0-41.5,0C5.1,367.1,5.1,330.3,5.1,293.5z"
		/>
	<path class="st1" d="M659.9,403.8c-35.8,0-71.7,0-107.5,0c-5.7,0-11.3-1.1-16.9-1.6c-2.9-0.3-5.9-0.8-8.7-1.6
		c-4.9-1.4-10-2.3-14.7-4.5c-3.4-1.5-6.9-2.7-10.2-4.3c-7.7-3.7-15.1-8-22-13.3c-5.1-3.9-9.7-8.4-14.1-13c-4-4.2-7.6-8.8-10.9-13.7
		c-3.3-5-6.3-10.2-8.7-15.6c-1.3-3-2.4-6.2-3.6-9.3c-1.5-3.8-2.3-7.7-3.2-11.7c-1-4.2-1.7-8.4-1.9-12.7c-0.2-5-0.6-10.1-0.6-15.1
		c0-3.9,0.3-7.8,0.9-11.7c0.6-4.1,1.8-8,2.6-12.1c0.9-4.8,2.6-9.3,4.5-13.8c2-4.8,4.6-9.4,7.2-14.1c3.8-6.8,8.5-13,13.7-18.7
		c4.6-5,9.6-9.5,15.2-13.4c5.5-3.8,11.1-7.5,16.9-10.8c3.5-2.1,7.4-3.5,11.2-5.1c3.6-1.5,7.3-2.7,11-4c1.4-0.5,2.9-0.9,4.4-1.1
		c4.4-0.6,8.7-1.8,13.1-2.4c10.9-1.4,21.8-1.6,32.8-1.6c63,0,126.1,0,189.1,0.1c6.5,0,13.1,0.6,19.6,1c2.5,0.2,5.1,0.4,7.6,0.9
		c3.5,0.7,6.9,1.8,10.4,2.5c3.7,0.7,7.2,2,10.7,3.3c6,2.3,11.8,4.7,17.4,7.9c6.5,3.7,12.6,7.8,18.3,12.5c6.9,5.6,13,12,18.2,19.2
		c3.9,5.4,7.6,11,10.5,17.1c1.6,3.4,3.2,6.9,4.5,10.4c1.4,3.8,2.4,7.7,3.4,11.6c3.3,12.4,3.2,25,2.5,37.6c-0.2,4.3-1,8.6-1.9,12.7
		c-1.4,6.3-3.3,12.6-6,18.5c-3.2,7.2-6.9,14.2-11.6,20.5c-5.7,7.6-12,14.6-19.3,20.7c-7.2,6-15,11-23.3,15.2
		c-4.7,2.4-9.6,4.3-14.6,6.1c-7.4,2.8-15.1,4.5-22.9,5.6c-7.8,1.1-15.6,1.5-23.4,1.5C726.2,403.9,693,403.9,659.9,403.8
		C659.9,403.9,659.9,403.9,659.9,403.8z M660.1,230.7c-34.7,0-69.4,0-104.1,0c-3.9,0-7.8,0.7-11.7,1c-0.2,0-0.3,0-0.5,0.1
		c-3.8,1.5-7.9,2.1-11.7,3.9c-3.4,1.6-6.9,3.1-10,5.3c-7.7,5.6-13.8,12.7-17.6,21.5c-1.6,3.8-3.3,7.6-4.1,11.6
		c-0.7,3.4-1.7,6.8-1.8,10.3c-0.1,6.9-0.7,13.7,1,20.5c0.8,3.1,1.1,6.5,2.3,9.4c1.8,4.5,4.1,8.9,6.7,13c4.5,7.2,10.6,12.6,17.6,16.9
		c6.1,3.8,12.8,6.1,19.9,7.1c4.8,0.7,9.7,1.1,14.6,1.1c63.2,0.1,126.4,0,189.6,0.1c8.9,0,17.7-0.1,26.5-1.8c3.1-0.6,6.1-1.6,9.1-2.6
		c4.8-1.7,9.2-4.3,13.1-7.5c2.9-2.3,5.9-4.5,8.1-7.6c1.4-2,3.2-3.7,4.5-5.7c2.6-4,4.9-8.3,6.4-12.9c0.8-2.6,1.5-5.2,2.1-7.8
		c0.6-2.9,1.4-5.7,1.6-8.6c0.5-7.4,0.3-14.8-1.6-22.1c-0.9-3.5-1.8-6.8-3.1-10.2c-3-7.8-7.5-14.5-13.6-20.2c-2.5-2.3-5.1-4.4-8-6.2
		c-2.6-1.6-5.4-2.5-8.1-3.9c-3.7-1.9-7.7-2.7-11.6-3.7c-3.9-0.9-8.1-1.1-12.1-1.1C728.9,230.7,694.5,230.7,660.1,230.7z"/>
	<path class="st0" d="M977.4,352.6c-0.1-1.5-0.3-2.7-0.3-3.9c0-32,0-64,0-96c0-6.2,0-12.5,0-18.7c0-1,0.1-2,0.2-3.1
		c0.7-0.1,1.3-0.2,1.8-0.2c16.6,0,33.3,0,49.9,0c4.6,0,9.2,0.5,13.7,1.8c2.7,0.7,5.4,1.3,8,2.2c8.7,3.1,16.1,8.2,22.1,15.2
		c3,3.6,5.5,7.5,7.6,11.7c2.1,4.3,3.6,8.8,4.8,13.3c0.7,2.4,0.8,5,1.2,7.5c0.3,2,0.6,4,0.6,5.9c0,2.8-0.2,5.6-0.3,8.3
		c0,1-0.2,1.9-0.2,2.9c-0.1,3.4-1,6.6-1.7,9.8c-0.7,3.2-1.9,6.2-3.1,9.2c-1.7,4-3.9,7.8-6.4,11.3c-4.2,5.8-9.6,10.4-15.6,14.2
		c-3.2,2-6.5,3.8-10.2,4.7c-1,0.3-1.9,0.7-2.9,1c-7.3,2.1-14.7,2.8-22.2,2.8c-14.6,0.1-29.1,0-43.7,0
		C979.7,352.6,978.8,352.6,977.4,352.6z"/>
	<path class="st0" d="M977.3,178.9c-0.1-1.5-0.2-2.6-0.2-3.6c0-37.3,0-74.5,0-111.8c0-1.4,0-2.7,0-4.1c0.1-1.7,0.5-2.1,2.2-2.2
		c0.6,0,1.1,0,1.7,0c16.1,0,32.1,0,48.2,0c3.3,0,6.8,0.1,10,0.8c4.6,1,9.3,2,13.6,3.9c7.8,3.4,14.6,8.3,20.1,14.8
		c4.9,5.8,8.5,12.2,10.8,19.5c1.6,5.2,2.8,10.4,3,15.8c0.1,2.3,0.7,4.6,0.6,6.9c-0.3,4.4-0.7,8.9-1.5,13.3
		c-0.8,4.4-2.2,8.5-3.9,12.6c-1.8,4.4-4.3,8.3-7.1,12.2c-4.1,5.7-9.4,9.9-15.2,13.7c-4.4,2.9-9.2,4.8-14.4,6.1c-5.3,1.4-10.6,2-16,2
		c-16.2-0.1-32.5,0-48.7,0C979.6,178.9,978.6,178.9,977.3,178.9z"/>
	<path class="st0" d="M660.1,230.7c34.4,0,68.8,0,103.2,0c4.1,0,8.2,0.2,12.1,1.1c3.9,0.9,7.9,1.7,11.6,3.7c2.6,1.4,5.5,2.3,8.1,3.9
		c2.9,1.8,5.6,3.8,8,6.2c6.1,5.7,10.6,12.4,13.6,20.2c1.3,3.3,2.2,6.7,3.1,10.2c1.9,7.3,2.1,14.7,1.6,22.1c-0.2,2.9-0.9,5.8-1.6,8.6
		c-0.6,2.6-1.2,5.3-2.1,7.8c-1.5,4.6-3.7,8.9-6.4,12.9c-1.3,2-3.1,3.8-4.5,5.7c-2.2,3.1-5.3,5.2-8.1,7.6c-3.9,3.2-8.3,5.8-13.1,7.5
		c-3,1-5.9,2-9.1,2.6c-8.8,1.7-17.6,1.8-26.5,1.8c-63.2,0-126.4,0-189.6-0.1c-4.9,0-9.7-0.5-14.6-1.1c-7.1-1-13.9-3.3-19.9-7.1
		c-7-4.4-13.1-9.8-17.6-16.9c-2.6-4.2-4.9-8.5-6.7-13c-1.2-3-1.5-6.3-2.3-9.4c-1.7-6.8-1.1-13.6-1-20.5c0.1-3.5,1.1-6.9,1.8-10.3
		c0.9-4.1,2.5-7.9,4.1-11.6c3.8-8.9,10-15.9,17.6-21.5c3-2.2,6.5-3.7,10-5.3c3.8-1.8,7.9-2.3,11.7-3.9c0.1-0.1,0.3-0.1,0.5-0.1
		c3.9-0.4,7.8-1,11.7-1C590.7,230.7,625.4,230.7,660.1,230.7z"/>
</g>
</svg>
