<?xml version="1.0" encoding="UTF-8" standalone="no"?>
<!-- Generator: Adobe Illustrator 22.1.0, SVG Export Plug-In . SVG Version: 6.00 Build 0)  -->

<svg
   xmlns:dc="http://purl.org/dc/elements/1.1/"
   xmlns:cc="http://creativecommons.org/ns#"
   xmlns:rdf="http://www.w3.org/1999/02/22-rdf-syntax-ns#"
   xmlns:svg="http://www.w3.org/2000/svg"
   xmlns="http://www.w3.org/2000/svg"
   xmlns:sodipodi="http://sodipodi.sourceforge.net/DTD/sodipodi-0.dtd"
   xmlns:inkscape="http://www.inkscape.org/namespaces/inkscape"
   version="1.1"
   id="Calque_1"
   x="0px"
   y="0px"
   viewBox="0 0 227 270"
   style="enable-background:new 0 0 227 270;"
   xml:space="preserve"
   sodipodi:docname="Communauté.svg"
   inkscape:version="0.92.4 5da689c313, 2019-01-14"
   enable-background="new"
   inkscape:export-filename="/home/osarrat/image.png"
   inkscape:export-xdpi="96.599998"
   inkscape:export-ydpi="96.599998"><metadata
   id="metadata5000"><rdf:RDF><cc:Work
       rdf:about=""><dc:format>image/svg+xml</dc:format><dc:type
         rdf:resource="http://purl.org/dc/dcmitype/StillImage" /><dc:title /></cc:Work></rdf:RDF></metadata><defs
   id="defs4998">
	
	

		
	
			
			
		
				
			<filter
   inkscape:collect="always"
   style="color-interpolation-filters:sRGB"
   id="filter895"><feBlend
     inkscape:collect="always"
     mode="color-dodge"
     in2="BackgroundImage"
     id="feBlend897" /></filter></defs><sodipodi:namedview
   pagecolor="#ffffff"
   bordercolor="#666666"
   borderopacity="1"
   objecttolerance="10"
   gridtolerance="10"
   guidetolerance="10"
   inkscape:pageopacity="0"
   inkscape:pageshadow="2"
   inkscape:window-width="1600"
   inkscape:window-height="834"
   id="namedview4996"
   showgrid="false"
   inkscape:zoom="0.41837153"
   inkscape:cx="-817.18216"
   inkscape:cy="83.04333"
   inkscape:window-x="0"
   inkscape:window-y="0"
   inkscape:window-maximized="1"
   inkscape:current-layer="Calque_1"
   inkscape:snap-to-guides="false" />
<style
   type="text/css"
   id="style4981">
	.st0{fill:#255799;}
	.st1{fill:#FFFFFF;}
</style>


<path
   style="display:inline;opacity:1;fill:none;fill-opacity:1;stroke:#000000;stroke-width:8.08100033;stroke-miterlimit:4;stroke-dasharray:none;stroke-opacity:1;filter:url(#filter895)"
   d="M 109.13867,6.494141 C 60.493256,7.763935 16.460348,49.416164 13.51566,98.09379 c -2.811206,31.71201 10.642932,63.83664 33.972621,85.09371 20.892298,22.35767 43.581767,43.03175 65.998049,63.86133 30.16752,-29.15128 63.49853,-55.87208 87.38281,-90.76172 23.0679,-39.71288 14.3777,-95.05619 -21.01953,-124.701172 C 160.52562,14.56293 134.7554,5.298831 109.13867,6.494141 Z"
   id="path867"
   inkscape:connector-curvature="0" /><style
   id="style4981-3"
   type="text/css">
	.st0{fill:#255799;}
	.st1{fill:#FFFFFF;}
</style><path
   id="path1013"
   d="m 113.28872,63.093309 c 13.05048,0 23.66665,10.616181 23.66665,23.666651 0,13.050463 -10.61617,23.66664 -23.66665,23.66664 -13.05045,0 -23.666638,-10.616177 -23.666638,-23.66664 0,-13.05047 10.616188,-23.666651 23.666638,-23.666651 M 65.95544,79.998056 c 3.786664,0 7.30285,1.014286 10.345707,2.839996 -1.014288,9.669516 1.825713,19.271418 7.640941,26.777118 -3.380942,6.49142 -10.142846,10.95428 -17.986648,10.95428 -11.224752,0 -20.285698,-9.06094 -20.285698,-20.28569 0,-11.224754 9.060946,-20.285704 20.285698,-20.285704 m 94.66658,0 c 11.22475,0 20.2857,9.06095 20.2857,20.285704 0,11.22475 -9.06095,20.28569 -20.2857,20.28569 -7.8438,0 -14.60571,-4.46286 -17.98664,-10.95428 5.81522,-7.5057 8.65523,-17.107602 7.64093,-26.777118 3.04286,-1.82571 6.55905,-2.839996 10.34571,-2.839996 M 69.336389,149.30752 c 0,-13.99713 19.677122,-25.35713 43.952331,-25.35713 24.27523,0 43.95235,11.36 43.95235,25.35713 v 11.83332 H 69.336389 V 149.30752 M 32.145945,161.14084 V 150.998 c 0,-9.39904 12.779989,-17.31046 30.09045,-19.60951 -3.98952,4.59809 -6.423804,10.95428 -6.423804,17.91903 v 11.83332 H 32.145945 m 162.285575,0 h -23.66665 v -11.83332 c 0,-6.96475 -2.43429,-13.32094 -6.42381,-17.91903 17.31047,2.29905 30.09046,10.21047 30.09046,19.60951 z"
   inkscape:connector-curvature="0"
   style="display:none;stroke-width:6.76189899" /><g
   id="g1066"
   transform="matrix(0.40691586,0,0,0.40691586,5.3293364,14.681666)"
   style="display:inline"><g
     id="C_-_188_x2C__focus_group__x2C__Business_x2C__focus_x2C__group_x2C__modern"><g
       id="g1042"><path
         id="path1024"
         d="m 394.955,276.831 -26.734,21.664 c -1.791,1.452 -4.375,1.384 -6.087,-0.16 -17.794,-16.044 -40.834,-24.88 -64.874,-24.88 -13.899,0 -27.281,2.861 -39.809,8.51 -0.874,3.43 -1.93,6.8 -3.146,10.106 -0.03,0.079 -0.057,0.16 -0.087,0.239 -0.19,0.515 -0.389,1.025 -0.587,1.537 -0.153,0.394 -0.305,0.789 -0.463,1.182 -0.122,0.302 -0.247,0.604 -0.372,0.904 -0.256,0.622 -0.518,1.243 -0.786,1.859 -0.052,0.118 -0.104,0.236 -0.157,0.355 -6.405,14.583 -16.021,27.461 -27.962,37.734 -0.551,0.476 -1.11,0.942 -1.671,1.407 -0.063,0.054 -0.126,0.107 -0.19,0.159 -5.968,4.922 -12.484,9.214 -19.456,12.741 -1.316,6.374 -1.983,12.907 -1.983,19.455 0,53.038 43.365,96.187 96.667,96.187 53.301,0 96.666,-43.148 96.666,-96.187 0,-13.945 -2.93,-27.387 -8.707,-39.952 -0.414,-0.901 -0.531,-1.91 -0.336,-2.882 z m -97.148,20.648 c 19.002,0 34.461,14.623 34.461,32.596 0,16.206 -11.516,45.154 -34.461,45.154 -22.938,0 -34.451,-28.948 -34.451,-45.154 -10e-4,-17.972 15.455,-32.596 34.451,-32.596 z m 64.317,128.869 c -0.042,3.155 -0.089,6.725 -0.097,10.783 -0.004,2.585 -2.101,4.678 -4.686,4.678 H 237.2 c -2.584,0 -4.681,-2.092 -4.686,-4.677 -0.008,-4.181 -0.06,-7.848 -0.105,-11.083 -0.359,-25.652 0.696,-27.446 22.587,-38.391 4.215,-2.106 9.461,-4.729 15.72,-8.085 1.54,-0.826 3.412,-0.727 4.855,0.259 l 21.696,14.805 21.702,-14.806 c 1.442,-0.985 3.315,-1.085 4.854,-0.258 6.101,3.271 11.253,5.857 15.393,7.936 11.132,5.588 16.719,8.394 19.961,13.91 3.203,5.451 3.118,11.96 2.947,24.929 z"
         inkscape:connector-curvature="0" /><path
         id="path1026"
         d="m 155.192,252.218 c 15.563,0 25.088,-23.168 25.088,-35.784 0,-12.806 -11.254,-23.225 -25.088,-23.225 -13.83,0 -25.082,10.419 -25.082,23.225 10e-4,12.615 9.524,35.784 25.082,35.784 z"
         inkscape:connector-curvature="0" /><path
         id="path1028"
         d="m 335.014,395.885 c -3.613,-1.814 -7.986,-4.01 -13.104,-6.715 l -22.001,15.01 c -1.594,1.086 -3.689,1.087 -5.282,0 l -21.996,-15.01 c -5.271,2.785 -9.749,5.023 -13.443,6.871 -9.03,4.515 -14.005,7.002 -15.801,10.067 -1.839,3.14 -1.756,9.061 -1.606,19.81 0.028,2.002 0.059,4.166 0.08,6.52 h 110.823 c 0.02,-2.232 0.047,-4.299 0.072,-6.214 0.143,-10.872 0.223,-16.862 -1.656,-20.058 -1.841,-3.131 -6.602,-5.52 -16.086,-10.281 z"
         inkscape:connector-curvature="0" /><path
         id="path1030"
         d="m 192.397,282.243 c -3.612,-1.813 -7.985,-4.009 -13.103,-6.714 l -22.003,15.01 c -1.594,1.085 -3.689,1.086 -5.282,-10e-4 l -21.996,-15.009 c -5.271,2.784 -9.749,5.022 -13.443,6.87 -9.03,4.515 -14.005,7.002 -15.801,10.067 -1.839,3.141 -1.756,9.061 -1.606,19.811 0.028,2.001 0.059,4.165 0.08,6.52 h 110.823 c 0.019,-2.234 0.046,-4.3 0.071,-6.214 0.144,-10.873 0.223,-16.862 -1.655,-20.059 -1.839,-3.129 -6.601,-5.519 -16.085,-10.281 z"
         inkscape:connector-curvature="0" /><path
         id="path1032"
         d="m 216.197,330.117 c 0.45,-0.369 0.894,-0.746 1.336,-1.124 0.296,-0.254 0.591,-0.509 0.884,-0.768 0.266,-0.233 0.532,-0.467 0.796,-0.702 10.578,-9.502 19.027,-21.263 24.579,-34.332 0.143,-0.339 0.28,-0.681 0.419,-1.021 0.158,-0.384 0.315,-0.768 0.468,-1.153 0.218,-0.553 0.43,-1.108 0.638,-1.666 0.059,-0.157 0.118,-0.313 0.176,-0.47 0.25,-0.682 0.494,-1.366 0.729,-2.056 0.001,-0.003 0.002,-0.005 0.003,-0.007 3.298,-9.679 5.086,-20.043 5.086,-30.815 0,-53.041 -43.365,-96.193 -96.667,-96.193 -53.302,0 -96.667,43.152 -96.667,96.193 0,53.04 43.365,96.19 96.667,96.19 23.265,0 44.635,-8.222 61.333,-21.896 0.073,-0.059 0.147,-0.119 0.22,-0.18 z M 155.192,183.838 c 19.001,0 34.458,14.623 34.458,32.596 0,16.206 -11.515,45.155 -34.458,45.155 -22.94,0 -34.453,-28.949 -34.453,-45.155 10e-4,-17.973 15.456,-32.596 34.453,-32.596 z M 94.583,328.167 c -2.584,0 -4.681,-2.092 -4.686,-4.676 -0.008,-4.182 -0.06,-7.849 -0.105,-11.083 -0.359,-25.653 0.696,-27.447 22.587,-38.391 4.215,-2.107 9.461,-4.729 15.72,-8.086 1.541,-0.826 3.412,-0.726 4.855,0.26 l 21.696,14.805 21.703,-14.806 c 1.444,-0.984 3.315,-1.085 4.855,-0.259 6.1,3.271 11.252,5.858 15.392,7.937 11.131,5.588 16.718,8.393 19.959,13.91 3.203,5.45 3.117,11.96 2.946,24.928 -0.042,3.155 -0.089,6.725 -0.096,10.784 -0.004,2.584 -2.101,4.677 -4.686,4.677 z"
         inkscape:connector-curvature="0" /><path
         id="path1034"
         d="m 297.807,365.859 c 15.564,0 25.09,-23.169 25.09,-35.784 0,-12.806 -11.255,-23.225 -25.09,-23.225 -13.828,0 -25.08,10.419 -25.08,23.225 0,12.615 9.521,35.784 25.08,35.784 z"
         inkscape:connector-curvature="0" /><path
         id="path1036"
         d="m 357.348,46.169 c -40.738,0 -77.327,25.641 -91.045,63.805 -0.486,1.354 -1.545,2.365 -2.825,2.825 l -37.43,16.197 32.254,15.892 c 1.501,0.739 2.493,2.224 2.604,3.894 3.33,50.338 45.691,89.771 96.441,89.771 53.308,0 96.677,-43.152 96.677,-96.193 0,-53.04 -43.369,-96.191 -96.676,-96.191 z m 0.548,24.027 c 19.002,0 34.461,14.623 34.461,32.597 0,16.206 -11.516,45.154 -34.461,45.154 -22.939,0 -34.453,-28.948 -34.453,-45.154 0,-17.974 15.456,-32.597 34.453,-32.597 z m 64.317,128.868 c -0.041,3.155 -0.09,6.726 -0.098,10.785 -0.004,2.584 -2.102,4.676 -4.686,4.676 h -120.14 c -2.584,0 -4.681,-2.092 -4.686,-4.676 -0.008,-4.182 -0.06,-7.848 -0.105,-11.083 -0.358,-25.652 0.697,-27.446 22.586,-38.39 4.217,-2.107 9.463,-4.73 15.721,-8.086 1.541,-0.826 3.412,-0.728 4.856,0.259 l 21.694,14.805 21.703,-14.806 c 1.443,-0.985 3.314,-1.084 4.855,-0.258 6.1,3.271 11.254,5.857 15.395,7.936 11.133,5.588 16.721,8.394 19.961,13.91 3.204,5.451 3.118,11.961 2.944,24.928 z"
         inkscape:connector-curvature="0" /><path
         id="path1038"
         d="m 395.104,168.601 c -3.613,-1.813 -7.987,-4.009 -13.106,-6.714 l -22.003,15.01 c -1.593,1.086 -3.688,1.085 -5.281,-0.001 L 332.72,161.887 c -5.272,2.786 -9.75,5.024 -13.445,6.872 -9.323,4.661 -14.003,7 -15.8,10.067 -1.84,3.139 -1.756,9.06 -1.605,19.809 0.027,2.001 0.059,4.167 0.079,6.52 H 412.77 c 0.021,-2.234 0.048,-4.3 0.074,-6.216 0.145,-10.872 0.225,-16.86 -1.652,-20.056 -1.84,-3.13 -6.601,-5.52 -16.088,-10.282 z"
         inkscape:connector-curvature="0" /><path
         id="path1040"
         d="m 357.896,138.577 c 15.564,0 25.09,-23.168 25.09,-35.784 0,-12.807 -11.256,-23.226 -25.09,-23.226 -13.83,0 -25.082,10.419 -25.082,23.226 0,12.615 9.524,35.784 25.082,35.784 z"
         inkscape:connector-curvature="0" /></g></g><g
     id="Layer_1" /></g><path
   id="path1655"
   d="m 151.52693,249.53543 c 0,10.50494 -17.01705,19.01347 -38.02693,19.01347 -21.009879,0 -38.02693,-8.50853 -38.02693,-19.01347 0,-6.13183 5.799108,-11.59821 14.782968,-15.06815 l 3.042155,4.32554 c -5.133636,2.13903 -8.31839,5.08611 -8.31839,8.36593 0,6.55965 12.786554,11.88341 28.520197,11.88341 15.73364,0 28.5202,-5.32376 28.5202,-11.88341 0,-3.27982 -3.18476,-6.2269 -8.31839,-8.36593 l 3.04214,-4.32554 c 8.98388,3.46994 14.78298,8.93632 14.78298,15.06815 z"
   inkscape:connector-curvature="0"
   sodipodi:nodetypes="sssccsssccs"
   style="stroke-width:4.75336599" /></svg>