<?xml version="1.0" encoding="UTF-8" standalone="no"?>
<!-- Generator: Adobe Illustrator 22.1.0, SVG Export Plug-In . SVG Version: 6.00 Build 0)  -->

<svg
   xmlns:dc="http://purl.org/dc/elements/1.1/"
   xmlns:cc="http://creativecommons.org/ns#"
   xmlns:rdf="http://www.w3.org/1999/02/22-rdf-syntax-ns#"
   xmlns:svg="http://www.w3.org/2000/svg"
   xmlns="http://www.w3.org/2000/svg"
   xmlns:sodipodi="http://sodipodi.sourceforge.net/DTD/sodipodi-0.dtd"
   xmlns:inkscape="http://www.inkscape.org/namespaces/inkscape"
   version="1.1"
   id="Calque_1"
   x="0px"
   y="0px"
   viewBox="0 0 227 270"
   style="enable-background:new 0 0 227 270;"
   xml:space="preserve"
   sodipodi:docname="Événement.svg"
   inkscape:version="0.92.4 5da689c313, 2019-01-14"
   enable-background="new"
   inkscape:export-filename="/home/osarrat/image.png"
   inkscape:export-xdpi="96.599998"
   inkscape:export-ydpi="96.599998"><metadata
   id="metadata5000"><rdf:RDF><cc:Work
       rdf:about=""><dc:format>image/svg+xml</dc:format><dc:type
         rdf:resource="http://purl.org/dc/dcmitype/StillImage" /><dc:title /></cc:Work></rdf:RDF></metadata><defs
   id="defs4998">
	
	

		
	
			
			
		
				
			<filter
   inkscape:collect="always"
   style="color-interpolation-filters:sRGB"
   id="filter895"><feBlend
     inkscape:collect="always"
     mode="color-dodge"
     in2="BackgroundImage"
     id="feBlend897" /></filter><filter
   inkscape:collect="always"
   style="color-interpolation-filters:sRGB"
   id="filter920"><feBlend
     inkscape:collect="always"
     mode="lighten"
     in2="BackgroundImage"
     id="feBlend922" /></filter></defs><sodipodi:namedview
   pagecolor="#ffffff"
   bordercolor="#666666"
   borderopacity="1"
   objecttolerance="10"
   gridtolerance="10"
   guidetolerance="10"
   inkscape:pageopacity="0"
   inkscape:pageshadow="2"
   inkscape:window-width="1600"
   inkscape:window-height="834"
   id="namedview4996"
   showgrid="false"
   inkscape:zoom="2.3666667"
   inkscape:cx="111.38733"
   inkscape:cy="135"
   inkscape:window-x="0"
   inkscape:window-y="0"
   inkscape:window-maximized="1"
   inkscape:current-layer="Calque_1"
   inkscape:snap-to-guides="false" />
<style
   type="text/css"
   id="style4981">
	.st0{fill:#255799;}
	.st1{fill:#FFFFFF;}
</style>


<path
   style="display:inline;opacity:1;fill:none;fill-opacity:1;stroke:#000000;stroke-width:8.08100033;stroke-miterlimit:4;stroke-dasharray:none;stroke-opacity:1;filter:url(#filter895)"
   d="m 109.13867,18.494141 c -48.645414,1.269794 -92.678322,42.922023 -95.62301,91.599649 -2.811206,31.71201 10.642932,63.83664 33.972621,85.09371 20.892298,22.35767 43.581767,43.03175 65.998049,63.86133 30.16752,-29.15128 63.49853,-55.87208 87.38281,-90.76172 23.0679,-39.71288 14.3777,-95.05619 -21.01953,-124.701172 C 160.52562,26.56293 134.7554,17.298831 109.13867,18.494141 Z"
   id="path867"
   inkscape:connector-curvature="0" /><path
   id="path897"
   d="m 123.27465,110.28169 h 7.33099 v 13.78225 l 11.92507,6.89113 -3.66549,6.35352 -15.59057,-8.99267 V 110.28169 M 74.401408,61.408453 h 68.422542 a 9.7746478,9.7746478 0 0 1 9.77465,9.774648 v 29.812679 c 6.06028,6.15802 9.77464,14.61309 9.77464,23.94788 a 34.211267,34.211267 0 0 1 -34.21126,34.21127 c -9.33479,0 -17.78986,-3.71437 -23.94789,-9.77465 H 74.401408 A 9.7746478,9.7746478 0 0 1 64.62676,139.60563 V 71.183101 a 9.7746478,9.7746478 0 0 1 9.774648,-9.774648 m 0,63.535207 v 14.66197 h 22.82381 c -2.101554,-4.44746 -3.274514,-9.43253 -3.274514,-14.66197 H 74.401408 m 0,-34.211264 H 103.72536 V 76.070425 H 74.401408 v 14.661971 m 68.422542,0 V 76.070425 H 113.5 v 14.661971 h 29.32395 M 74.401408,115.16901 h 20.966616 c 1.661694,-5.62042 4.740716,-10.65436 8.846066,-14.66197 H 74.401408 v 14.66197 m 53.760572,-13.92887 a 23.703521,23.703521 0 0 0 -23.70352,23.70352 c 0,13.09803 10.60549,23.70352 23.70352,23.70352 a 23.703521,23.703521 0 0 0 23.70352,-23.70352 c 0,-13.09803 -10.6055,-23.70352 -23.70352,-23.70352 z"
   inkscape:connector-curvature="0"
   style="display:none;stroke-width:4.88732386;filter:url(#filter920)"
   transform="matrix(1.2292303,0,0,1.2462848,-26.017644,-27.160706)" /><style
   id="style4981-3"
   type="text/css">
	.st0{fill:#255799;}
	.st1{fill:#FFFFFF;}
</style><g
   id="g964"
   transform="translate(0,-0.48591404)"
   style="display:none"><path
     class="st0"
     d="m 217.8,118.8 c 0,24.5 -8.5,47 -22.6,64.8 -19.1,24 -81.7,80.9 -81.7,80.9 0,0 -62.6,-56.8 -81.7,-80.9 C 17.7,165.8 9.2,143.3 9.2,118.8 9.2,61.2 55.9,14.5 113.5,14.5 c 57.6,0 104.3,46.7 104.3,104.3 z"
     id="path4983"
     inkscape:connector-curvature="0"
     style="fill:#000000;fill-opacity:1" /></g><path
   id="path983"
   d="m 126.02113,111.72217 h 9.39085 v 17.65479 l 15.27577,8.8274 -4.69542,8.13872 -19.9712,-11.51943 V 111.72217 M 63.415491,49.116539 h 87.647889 c 6.88662,0 12.52113,5.634507 12.52113,12.521127 v 38.189432 c 7.7631,7.888312 12.52113,18.719082 12.52113,30.676762 0,24.22838 -19.59557,43.82394 -43.82395,43.82394 -11.95768,0 -22.78844,-4.75802 -30.67675,-12.52112 H 63.415491 c -6.88662,0 -12.521127,-5.63451 -12.521127,-12.52113 V 61.637666 c 0,-6.88662 5.634507,-12.521127 12.521127,-12.521127 m 0,81.387321 v 18.78169 h 29.236834 c -2.692048,-5.69711 -4.19458,-12.08289 -4.19458,-18.78169 H 63.415491 m 0,-43.823941 H 100.97888 V 67.898229 H 63.415491 v 18.78169 m 87.647889,0 V 67.898229 H 113.5 v 18.78169 h 37.56338 M 63.415491,117.98274 h 26.857811 c 2.128593,-7.19966 6.072752,-13.64804 11.331638,-18.781693 H 63.415491 v 18.781693 m 68.866199,-17.84261 c -16.77831,0 -30.36373,13.58542 -30.36373,30.36373 0,16.77831 13.58542,30.36373 30.36373,30.36373 16.77831,0 30.36374,-13.58542 30.36374,-30.36373 0,-16.77831 -13.58543,-30.36373 -30.36374,-30.36373 z"
   inkscape:connector-curvature="0"
   style="display:inline;stroke-width:6.26056337"
   inkscape:label="path983 for Webfont" /></svg>