<?xml version="1.0" encoding="UTF-8" standalone="no"?>
<!-- Generator: Adobe Illustrator 26.0.2, SVG Export Plug-In . SVG Version: 6.00 Build 0)  -->

<svg
   xmlns:dc="http://purl.org/dc/elements/1.1/"
   xmlns:cc="http://creativecommons.org/ns#"
   xmlns:rdf="http://www.w3.org/1999/02/22-rdf-syntax-ns#"
   xmlns:svg="http://www.w3.org/2000/svg"
   xmlns="http://www.w3.org/2000/svg"
   xmlns:sodipodi="http://sodipodi.sourceforge.net/DTD/sodipodi-0.dtd"
   xmlns:inkscape="http://www.inkscape.org/namespaces/inkscape"
   version="1.1"
   id="Calque_1"
   x="0px"
   y="0px"
   viewBox="0 0 227 270"
   xml:space="preserve"
   sodipodi:docname="relaypoint-rezopouce.svg"
   width="227"
   height="270"
   inkscape:version="0.92.5 (2060ec1f9f, 2020-04-08)"><metadata
   id="metadata21"><rdf:RDF><cc:Work
       rdf:about=""><dc:format>image/svg+xml</dc:format><dc:type
         rdf:resource="http://purl.org/dc/dcmitype/StillImage" /><dc:title></dc:title></cc:Work></rdf:RDF></metadata><defs
   id="defs19" /><sodipodi:namedview
   pagecolor="#ffffff"
   bordercolor="#666666"
   borderopacity="1"
   objecttolerance="10"
   gridtolerance="10"
   guidetolerance="10"
   inkscape:pageopacity="0"
   inkscape:pageshadow="2"
   inkscape:window-width="1920"
   inkscape:window-height="1016"
   id="namedview17"
   showgrid="false"
   inkscape:zoom="0.5"
   inkscape:cx="540"
   inkscape:cy="-490.35178"
   inkscape:window-x="0"
   inkscape:window-y="1107"
   inkscape:window-maximized="1"
   inkscape:current-layer="Calque_1" />
<style
   type="text/css"
   id="style2">
	.st0{fill:#FFFFFF;}
</style>
<path
   class="st0"
   d="m 540,-526 c -102.2,0 -185.4,83.2 -185.4,185.4 0,126.9 165.9,313.2 173,321 6.6,7.4 18.2,7.4 24.8,0 7.1,-7.9 173,-194.2 173,-321 C 725.4,-442.8 642.2,-526 540,-526 Z"
   id="path4"
   inkscape:connector-curvature="0"
   style="fill:#ffffff" />
<g
   id="g14"
   transform="matrix(0.56256742,0,0,0.48832894,-188.28641,-125.76042)">
	<g
   id="g8">
		<path
   d="m 540,284 c -102.2,0 -185.4,83.2 -185.4,185.4 0,126.9 165.9,313.2 173,321 6.6,7.4 18.2,7.4 24.8,0 7.1,-7.9 173,-194.2 173,-321 C 725.4,367.2 642.2,284 540,284 Z"
   id="path6"
   inkscape:connector-curvature="0" />
	</g>
	<circle
   class="st0"
   cx="541.20001"
   cy="465.5"
   r="130.8"
   id="circle10"
   style="fill:#ffffff" />
	<path
   d="m 636.5,490.4 c 0,-13.5 -11.6,-23.8 -24.9,-31.8 -11,-6.3 -16.9,-5.3 -22.6,-10.2 -1,-8.6 4.9,-34.5 -15.2,-54.8 -30.1,-29.5 -73.7,-11.6 -82.9,4.6 -4.7,7.2 -7.9,11 -10.7,26.3 -1.3,7.3 -4.4,16.3 -18.3,18 -9.6,1.1 -14.2,9.2 -15.9,19.6 0.1,0 35.1,-2.7 39.7,-6.7 4.6,-4 5.2,-4.6 7.6,-9 2.1,-3.9 5.6,-7.9 9.4,-11.5 3.9,-3.6 10.6,-10.3 15.9,-15 6.4,-4.7 11.6,-12.9 12.6,-13.6 1.1,-0.7 7.3,-9.6 6.2,-13.5 0,0 3.1,-2.6 6.4,-1.9 0,0 5.9,3.7 5.3,12.5 -0.6,8.7 -3,11.9 -5.4,15.7 -2.4,3.9 -6.3,6.7 -7.6,12 0,0 6.9,3 9.2,3.3 2.1,0.3 9,-2 14.7,-1 5.7,0.9 10.9,2.9 10,10.2 -1.4,3.9 -3.4,5.7 -3.4,5.7 0,0 4,4.2 4,8.4 0,4.3 -3.6,7.6 -5.4,8.6 0,0 3,2.3 1.6,6.6 -1.4,4.3 -3.9,7 -7,8.6 -3.3,1.4 3.7,2 -0.9,7.7 -5.7,7 -20.3,11.3 -28.9,10.7 -8.7,-0.4 -13.9,-1.1 -17.5,-2.3 -8.2,-2.7 -20.3,0.7 -20.3,0.7 0,0 -27.5,5.2 -42.8,11.6 v 0.1 c 1.1,5.3 2,8.7 2,8.7 2.4,8 8,8.6 8,8.6 -0.1,0 1.3,-0.4 3.7,-1.1 2.1,6 7.4,10.7 14.2,11.9 10.2,1.9 20,-4.9 21.9,-15 0.3,-1.4 0.3,-2.7 0.3,-4.2 18,-2.4 40.9,-4.2 66.4,-2.6 -0.4,10.7 7,20.3 17.9,22.3 11.6,2.1 22.8,-5.3 25.3,-16.6 1.6,0.3 3.1,0.7 4.7,1 3.3,1 4.9,1.1 7.3,1.9 1.1,0.1 1.9,-0.7 2.3,-1.6 9.7,-18.5 13,-25.3 13.1,-32.9"
   id="path12"
   inkscape:connector-curvature="0" />
</g>
</svg>