<?xml version="1.0" encoding="UTF-8" standalone="no"?>
<!-- Generator: Adobe Illustrator 22.1.0, SVG Export Plug-In . SVG Version: 6.00 Build 0)  -->

<svg
   xmlns:dc="http://purl.org/dc/elements/1.1/"
   xmlns:cc="http://creativecommons.org/ns#"
   xmlns:rdf="http://www.w3.org/1999/02/22-rdf-syntax-ns#"
   xmlns:svg="http://www.w3.org/2000/svg"
   xmlns="http://www.w3.org/2000/svg"
   xmlns:sodipodi="http://sodipodi.sourceforge.net/DTD/sodipodi-0.dtd"
   xmlns:inkscape="http://www.inkscape.org/namespaces/inkscape"
   version="1.1"
   id="Calque_1"
   x="0px"
   y="0px"
   viewBox="0 0 227 270"
   style="enable-background:new 0 0 227 270;"
   xml:space="preserve"
   sodipodi:docname="PointRelaisPrivé Bus --noir.svg"
   inkscape:version="0.92.4 5da689c313, 2019-01-14"
   enable-background="new"><metadata
   id="metadata2971"><rdf:RDF><cc:Work
       rdf:about=""><dc:format>image/svg+xml</dc:format><dc:type
         rdf:resource="http://purl.org/dc/dcmitype/StillImage" /><dc:title></dc:title></cc:Work></rdf:RDF></metadata><defs
   id="defs2969">
	
	

		
		
	
			
			
			
			
			
		
				
			
				
			
				
			
				
			
					
					
					
					
				
						
					<filter
   inkscape:collect="always"
   style="color-interpolation-filters:sRGB"
   id="filter3900"><feBlend
     inkscape:collect="always"
     mode="soft-light"
     in2="BackgroundImage"
     id="feBlend3902" /></filter><filter
   inkscape:collect="always"
   style="color-interpolation-filters:sRGB"
   id="filter3904"><feBlend
     inkscape:collect="always"
     mode="soft-light"
     in2="BackgroundImage"
     id="feBlend3906" /></filter><filter
   inkscape:collect="always"
   style="color-interpolation-filters:sRGB"
   id="filter3908"><feBlend
     inkscape:collect="always"
     mode="soft-light"
     in2="BackgroundImage"
     id="feBlend3910" /></filter><filter
   inkscape:collect="always"
   style="color-interpolation-filters:sRGB"
   id="filter3912"><feBlend
     inkscape:collect="always"
     mode="soft-light"
     in2="BackgroundImage"
     id="feBlend3914" /></filter><filter
   inkscape:collect="always"
   style="color-interpolation-filters:sRGB"
   id="filter3916"><feBlend
     inkscape:collect="always"
     mode="soft-light"
     in2="BackgroundImage"
     id="feBlend3918" /></filter><filter
   inkscape:collect="always"
   style="color-interpolation-filters:sRGB"
   id="filter3920"><feBlend
     inkscape:collect="always"
     mode="soft-light"
     in2="BackgroundImage"
     id="feBlend3922" /></filter><filter
   inkscape:collect="always"
   style="color-interpolation-filters:sRGB"
   id="filter3924"><feBlend
     inkscape:collect="always"
     mode="soft-light"
     in2="BackgroundImage"
     id="feBlend3926" /></filter><filter
   inkscape:collect="always"
   style="color-interpolation-filters:sRGB"
   id="filter3928"><feBlend
     inkscape:collect="always"
     mode="soft-light"
     in2="BackgroundImage"
     id="feBlend3930" /></filter><filter
   inkscape:collect="always"
   style="color-interpolation-filters:sRGB"
   id="filter3932"><feBlend
     inkscape:collect="always"
     mode="soft-light"
     in2="BackgroundImage"
     id="feBlend3934" /></filter></defs><sodipodi:namedview
   pagecolor="#ffffff"
   bordercolor="#666666"
   borderopacity="1"
   objecttolerance="10"
   gridtolerance="10"
   guidetolerance="10"
   inkscape:pageopacity="0"
   inkscape:pageshadow="2"
   inkscape:window-width="1600"
   inkscape:window-height="834"
   id="namedview2967"
   showgrid="false"
   inkscape:zoom="1.7481481"
   inkscape:cx="-33.108647"
   inkscape:cy="126.97299"
   inkscape:window-x="0"
   inkscape:window-y="0"
   inkscape:window-maximized="1"
   inkscape:current-layer="Calque_1" />
<style
   type="text/css"
   id="style2922">
	.st0{fill:#96CD5A;}
	.st1{fill:#FFFFFF;}
</style>
<path
   class="st0"
   d="m 217.8,114.3 c 0,24.5 -8.5,47 -22.6,64.8 -19.1,24 -81.7,80.9 -81.7,80.9 0,0 -62.6,-56.8 -81.7,-80.9 C 17.7,161.3 9.2,138.8 9.2,114.3 9.2,56.7 55.9,10 113.5,10 c 57.6,0 104.3,46.7 104.3,104.3 z"
   id="path2924"
   inkscape:connector-curvature="0"
   style="fill:#001300;filter:url(#filter3932);fill-opacity:1" /><path
   style="fill:#ffffff;filter:url(#filter3928)"
   inkscape:connector-curvature="0"
   id="path2926"
   d="m 39.9,113.4 c 0,-1.8 0,-4 -0.1,-6.4 0,-3.2 2,-6.1 4.9,-7.3 4.2,-1.6 8.1,-3.4 9.6,-4.1 L 59.5,73 h -3.4 l 0.7,-3 c 0.4,-1.8 2.1,-3.2 4,-3.2 h 1 26 96.5 c 0.6,0 1.2,0.5 1.2,1.2 v 45.5 h 1.7 c 0.8,0 1.5,0.7 1.5,1.5 v 6.8 c 0,0.8 -0.7,1.5 -1.5,1.5 h -3.7 c -0.1,0 -0.2,0 -0.3,0 -4.3,0 -12.8,0 -17.2,0 0,-0.1 0,-0.1 0,-0.2 0,-7.3 -5.9,-13.2 -13.2,-13.2 -7.3,0 -13.2,5.9 -13.2,13.2 0,0 0,0.1 0,0.1 -17.9,0 -37.6,0 -54.7,0 0,0 0,-0.1 0,-0.1 0,-7.3 -5.9,-13.2 -13.2,-13.2 -7.3,0 -13.2,5.9 -13.2,13.2 0,0 0,0.1 0,0.1 -2.1,0 -4.1,0 -5.9,0 -0.1,0 -0.3,0.1 -0.4,0.1 h -3.7 c -5.4,0 -9.7,-4.3 -9.7,-9.7 -0.3,-0.2 0.3,-0.2 1.1,-0.2 z"
   class="st1" /><path
   class="st0"
   d="m 81.4,77.1 c 0,-0.8 -0.7,-1.5 -1.5,-1.5 H 66 c -0.8,0 -1.6,0.7 -1.8,1.5 l -3.6,17.1 c -0.2,0.8 0.4,1.5 1.2,1.5 h 18.1 c 0.8,0 1.5,-0.7 1.5,-1.5 z"
   id="path2928"
   inkscape:connector-curvature="0"
   style="fill:#000000;filter:url(#filter3924);fill-opacity:1" /><g
   id="g2934"
   style="filter:url(#filter3920);fill:#000000;fill-opacity:1">
						<path
   style="fill:#000000;fill-opacity:1"
   inkscape:connector-curvature="0"
   id="path2932"
   d="m 87.8,75.6 c -0.8,0 -1.5,0.7 -1.5,1.5 v 17 c 0,0.8 0.7,1.5 1.5,1.5 h 16.5 c 0.8,0 1.5,-0.7 1.5,-1.5 v -17 c 0,-0.8 -0.7,-1.5 -1.5,-1.5 z"
   class="st0" />
					</g><g
   id="g2938"
   style="filter:url(#filter3916);fill:#000000;fill-opacity:1">
						<path
   style="fill:#000000;fill-opacity:1"
   inkscape:connector-curvature="0"
   id="path2936"
   d="m 112.1,75.6 c -0.8,0 -1.5,0.7 -1.5,1.5 v 17 c 0,0.8 0.7,1.5 1.5,1.5 h 16.5 c 0.8,0 1.5,-0.7 1.5,-1.5 v -17 c 0,-0.8 -0.7,-1.5 -1.5,-1.5 z"
   class="st0" />
					</g><g
   id="g2942"
   style="filter:url(#filter3912);fill:#000000;fill-opacity:1">
						<path
   style="fill:#000000;fill-opacity:1"
   inkscape:connector-curvature="0"
   id="path2940"
   d="m 136.5,75.6 c -0.8,0 -1.5,0.7 -1.5,1.5 v 17 c 0,0.8 0.7,1.5 1.5,1.5 H 153 c 0.8,0 1.5,-0.7 1.5,-1.5 v -17 c 0,-0.8 -0.7,-1.5 -1.5,-1.5 z"
   class="st0" />
					</g><path
   class="st0"
   d="m 160.9,75.6 c -0.8,0 -1.5,0.7 -1.5,1.5 v 17 c 0,0.8 0.7,1.5 1.5,1.5 h 16.5 c 0.8,0 1.5,-0.7 1.5,-1.5 v -17 c 0,-0.8 -0.7,-1.5 -1.5,-1.5 z"
   id="path2944"
   inkscape:connector-curvature="0"
   style="fill:#000000;filter:url(#filter3908);fill-opacity:1" /><circle
   class="st1"
   cx="71.5"
   cy="122.9"
   r="9"
   id="circle2952"
   style="fill:#ffffff;filter:url(#filter3904)" /><circle
   class="st1"
   cx="152.60001"
   cy="122.9"
   r="9"
   id="circle2956"
   style="fill:#ffffff;filter:url(#filter3900)" />

<path
   id="path1029"
   d="m 204.00244,228.86436 v -8.24092 a 12.36138,12.36138 0 0 0 -24.72276,0 v 8.24092 z m -37.08414,0 h 4.12046 v -8.24092 a 20.602302,20.602302 0 0 1 41.2046,0 v 8.24092 h 4.12046 v 28.84322 H 166.9183 Z"
   inkscape:connector-curvature="0"
   style="stroke-width:2.06023026" /></svg>