<?xml version="1.0" encoding="UTF-8" standalone="no"?>
<!-- Generator: Adobe Illustrator 22.1.0, SVG Export Plug-In . SVG Version: 6.00 Build 0)  -->

<svg
   xmlns:dc="http://purl.org/dc/elements/1.1/"
   xmlns:cc="http://creativecommons.org/ns#"
   xmlns:rdf="http://www.w3.org/1999/02/22-rdf-syntax-ns#"
   xmlns:svg="http://www.w3.org/2000/svg"
   xmlns="http://www.w3.org/2000/svg"
   xmlns:sodipodi="http://sodipodi.sourceforge.net/DTD/sodipodi-0.dtd"
   xmlns:inkscape="http://www.inkscape.org/namespaces/inkscape"
   version="1.1"
   id="Calque_1"
   x="0px"
   y="0px"
   viewBox="0 0 227 270"
   style="enable-background:new 0 0 227 270;"
   xml:space="preserve"
   sodipodi:docname="PointRelaisPrivé Parking --noir.svg"
   inkscape:version="0.92.4 5da689c313, 2019-01-14"><metadata
   id="metadata4055"><rdf:RDF><cc:Work
       rdf:about=""><dc:format>image/svg+xml</dc:format><dc:type
         rdf:resource="http://purl.org/dc/dcmitype/StillImage" /><dc:title /></cc:Work></rdf:RDF></metadata><defs
   id="defs4053">
	
	

		
	
			
			
		
				
			</defs><sodipodi:namedview
   pagecolor="#ffffff"
   bordercolor="#666666"
   borderopacity="1"
   objecttolerance="10"
   gridtolerance="10"
   guidetolerance="10"
   inkscape:pageopacity="0"
   inkscape:pageshadow="2"
   inkscape:window-width="1600"
   inkscape:window-height="834"
   id="namedview4051"
   showgrid="false"
   inkscape:zoom="1.1833334"
   inkscape:cx="-3.3093917"
   inkscape:cy="136.09417"
   inkscape:window-x="0"
   inkscape:window-y="0"
   inkscape:window-maximized="1"
   inkscape:current-layer="Calque_1" />
<style
   type="text/css"
   id="style4036">
	.st0{fill:#255799;}
	.st1{fill:#FFFFFF;}
</style>
<path
   style="fill:#000000;fill-opacity:1"
   inkscape:connector-curvature="0"
   id="path4038"
   d="m 217.8,116.8 c 0,24.5 -8.5,47 -22.6,64.8 -19.1,24 -81.7,80.9 -81.7,80.9 0,0 -62.6,-56.8 -81.7,-80.9 C 17.7,163.8 9.2,141.3 9.2,116.8 9.2,59.2 55.9,12.5 113.5,12.5 c 57.6,0 104.3,46.7 104.3,104.3 z"
   class="st0" /><path
   class="st1"
   d="m 80.9,154.1 v -100 h 32.4 c 12.3,0 20.3,0.5 24,1.5 5.7,1.5 10.5,4.8 14.4,9.8 3.9,5 5.8,11.5 5.8,19.5 0,6.1 -1.1,11.3 -3.3,15.5 -2.2,4.2 -5.1,7.5 -8.5,9.9 -3.4,2.4 -6.9,4 -10.5,4.7 -4.8,1 -11.8,1.4 -20.9,1.4 h -13.2 v 37.7 z M 101.1,71 v 28.4 h 11 c 8,0 13.3,-0.5 16,-1.6 2.7,-1 4.8,-2.7 6.3,-4.9 1.5,-2.2 2.3,-4.8 2.3,-7.8 0,-3.6 -1.1,-6.6 -3.2,-9 -2.1,-2.4 -4.8,-3.8 -8.1,-4.4 C 123,71.2 118.1,71 110.9,71 Z"
   id="path4040"
   inkscape:connector-curvature="0"
   style="fill:#ffffff" />

<path
   id="path1029"
   d="m 204.00244,228.86436 v -8.24092 a 12.36138,12.36138 0 0 0 -24.72276,0 v 8.24092 z m -37.08414,0 h 4.12046 v -8.24092 a 20.602302,20.602302 0 0 1 41.2046,0 v 8.24092 h 4.12046 v 28.84322 H 166.9183 Z"
   inkscape:connector-curvature="0"
   style="stroke-width:2.06023026" /></svg>