<?xml version="1.0" encoding="UTF-8" standalone="no"?>
<!-- Generator: Adobe Illustrator 22.1.0, SVG Export Plug-In . SVG Version: 6.00 Build 0)  -->

<svg
   xmlns:dc="http://purl.org/dc/elements/1.1/"
   xmlns:cc="http://creativecommons.org/ns#"
   xmlns:rdf="http://www.w3.org/1999/02/22-rdf-syntax-ns#"
   xmlns:svg="http://www.w3.org/2000/svg"
   xmlns="http://www.w3.org/2000/svg"
   xmlns:sodipodi="http://sodipodi.sourceforge.net/DTD/sodipodi-0.dtd"
   xmlns:inkscape="http://www.inkscape.org/namespaces/inkscape"
   version="1.1"
   id="Calque_1"
   x="0px"
   y="0px"
   viewBox="0 0 227 270"
   style="enable-background:new 0 0 227 270;"
   xml:space="preserve"
   sodipodi:docname="PointRelaisPrivé BatimentEntreprise --noir.svg"
   inkscape:version="0.92.4 5da689c313, 2019-01-14"><metadata
   id="metadata2505"><rdf:RDF><cc:Work
       rdf:about=""><dc:format>image/svg+xml</dc:format><dc:type
         rdf:resource="http://purl.org/dc/dcmitype/StillImage" /><dc:title></dc:title></cc:Work></rdf:RDF></metadata><defs
   id="defs2503">
	
	

		
		
	
			
			
			
			
		
				
				
				
				
				
			
				
				
				
				
				
				
				
			
					
					
				
					
					
				
					
				
						
					
						
					
					
					
				
					
				
						
					
							
						
						
					
							
						
							
						
				
				
			
					
					
				
				
				
			
					
					
				
					
					
				
					
					
				</defs><sodipodi:namedview
   pagecolor="#ffffff"
   bordercolor="#666666"
   borderopacity="1"
   objecttolerance="10"
   gridtolerance="10"
   guidetolerance="10"
   inkscape:pageopacity="0"
   inkscape:pageshadow="2"
   inkscape:window-width="1600"
   inkscape:window-height="834"
   id="namedview2501"
   showgrid="false"
   inkscape:zoom="2.3666667"
   inkscape:cx="11.24648"
   inkscape:cy="135"
   inkscape:window-x="0"
   inkscape:window-y="0"
   inkscape:window-maximized="1"
   inkscape:current-layer="Calque_1" />
<style
   type="text/css"
   id="style2362">
	.st0{fill:#F0A00A;}
	.st1{fill:#FFFFFF;}
</style>
<path
   class="st0"
   d="m 217.8,114.3 c 0,24.5 -8.5,47 -22.6,64.8 -19.1,24 -81.7,80.9 -81.7,80.9 0,0 -62.6,-56.8 -81.7,-80.9 C 17.7,161.3 9.2,138.8 9.2,114.3 9.2,56.7 55.9,10 113.5,10 c 57.6,0 104.3,46.7 104.3,104.3 z"
   id="path2364"
   inkscape:connector-curvature="0"
   style="fill:#000000;fill-opacity:1" /><rect
   style="fill:#ffffff"
   id="rect2366"
   height="97.400002"
   width="35.099998"
   class="st1"
   y="50.700001"
   x="63.200001" /><path
   style="fill:#000000;fill-opacity:1"
   inkscape:connector-curvature="0"
   id="path2368"
   d="M 98.3,149.3 H 63.2 c -0.7,0 -1.2,-0.6 -1.2,-1.2 V 50.7 c 0,-0.7 0.6,-1.2 1.2,-1.2 h 35.1 c 0.7,0 1.2,0.6 1.2,1.2 v 97.4 c 0,0.7 -0.5,1.2 -1.2,1.2 z M 64.5,146.8 H 97 V 52 H 64.5 Z"
   class="st0" /><g
   id="g2388">
					<g
   id="g2378">
						<g
   id="g2376">
							<rect
   x="83.800003"
   y="56.799999"
   class="st0"
   width="9.1000004"
   height="14.5"
   id="rect2372"
   style="fill:#f0a00a" />
							<path
   class="st1"
   d="m 92.8,72.5 h -9.1 c -0.7,0 -1.2,-0.6 -1.2,-1.2 V 56.8 c 0,-0.7 0.6,-1.2 1.2,-1.2 h 9.1 c 0.7,0 1.2,0.6 1.2,1.2 v 14.5 c 0.1,0.6 -0.5,1.2 -1.2,1.2 z M 85,70 h 6.6 V 58 H 85 Z"
   id="path2374"
   inkscape:connector-curvature="0"
   style="fill:#ffffff" />
						</g>
					</g>
					<g
   id="g2386">
						<g
   id="g2384">
							<rect
   x="68.699997"
   y="56.799999"
   class="st0"
   width="9.1000004"
   height="14.5"
   id="rect2380"
   style="fill:#f0a00a" />
							<path
   class="st1"
   d="m 77.7,72.5 h -9.1 c -0.7,0 -1.2,-0.6 -1.2,-1.2 V 56.8 c 0,-0.7 0.6,-1.2 1.2,-1.2 h 9.1 c 0.7,0 1.2,0.6 1.2,1.2 v 14.5 c 0.1,0.6 -0.5,1.2 -1.2,1.2 z M 69.9,70 h 6.6 V 58 h -6.6 z"
   id="path2382"
   inkscape:connector-curvature="0"
   style="fill:#ffffff" />
						</g>
					</g>
				</g><g
   id="g2392">
					<path
   class="st1"
   d="m 80.7,53.3 c -0.6,0 -1.1,-0.5 -1.1,-1.1 v -11 c 0,-0.6 0.5,-1.1 1.1,-1.1 0.6,0 1.1,0.5 1.1,1.1 v 11 c 0,0.6 -0.4,1.1 -1.1,1.1 z"
   id="path2390"
   inkscape:connector-curvature="0"
   style="fill:#ffffff" />
				</g><rect
   style="fill:#000000;fill-opacity:1"
   id="rect2394"
   height="14.5"
   width="9.1000004"
   class="st0"
   y="56.799999"
   x="83.800003" /><rect
   style="fill:#000000;fill-opacity:1"
   id="rect2400"
   height="14.5"
   width="9.1000004"
   class="st0"
   y="56.799999"
   x="68.699997" /><g
   id="g2410"
   style="fill:#000000;fill-opacity:1">
							<rect
   x="68.699997"
   y="76.5"
   class="st0"
   width="9.1000004"
   height="14.5"
   id="rect2408"
   style="fill:#000000;fill-opacity:1" />
						</g><g
   id="g2422"
   style="fill:#000000;fill-opacity:1">
					<g
   id="g2420"
   style="fill:#000000;fill-opacity:1">
						<g
   id="g2418"
   style="fill:#000000;fill-opacity:1">
							<rect
   x="83.800003"
   y="96.300003"
   class="st0"
   width="9.1000004"
   height="14.5"
   id="rect2416"
   style="fill:#000000;fill-opacity:1" />
						</g>
					</g>
				</g><rect
   style="fill:#000000;fill-opacity:1"
   id="rect2424"
   height="14.5"
   width="9.1000004"
   class="st0"
   y="116.1"
   x="68.699997" /><rect
   style="fill:#ffffff"
   id="rect2434"
   height="70.400002"
   width="44.599998"
   class="st1"
   y="77.699997"
   x="91.900002" /><path
   style="fill:#000006;fill-opacity:1"
   inkscape:connector-curvature="0"
   id="path2436"
   d="M 136.5,149.3 H 91.9 c -0.7,0 -1.2,-0.6 -1.2,-1.2 V 77.7 c 0,-0.7 0.6,-1.2 1.2,-1.2 h 44.6 c 0.7,0 1.2,0.6 1.2,1.2 v 70.4 c 0.1,0.7 -0.5,1.2 -1.2,1.2 z m -43.3,-2.5 h 42.1 V 78.9 H 93.2 Z"
   class="st0" /><g
   id="g2442">
					<path
   class="st1"
   d="m 124.6,80.3 c -0.6,0 -1.1,-0.5 -1.1,-1.1 v -11 c 0,-0.6 0.5,-1.1 1.1,-1.1 0.6,0 1.1,0.5 1.1,1.1 v 11 c 0,0.6 -0.5,1.1 -1.1,1.1 z"
   id="path2440"
   inkscape:connector-curvature="0"
   style="fill:#ffffff" />
				</g><g
   id="g2446">
					<path
   class="st1"
   d="m 131.1,80.3 c -0.6,0 -1.1,-0.5 -1.1,-1.1 v -11 c 0,-0.6 0.5,-1.1 1.1,-1.1 0.6,0 1.1,0.5 1.1,1.1 v 11 c 0,0.6 -0.5,1.1 -1.1,1.1 z"
   id="path2444"
   inkscape:connector-curvature="0"
   style="fill:#ffffff" />
				</g><g
   id="g2454"
   style="fill:#000000;fill-opacity:1">
					<g
   id="g2452"
   style="fill:#000000;fill-opacity:1">
						<g
   id="g2450"
   style="fill:#000000;fill-opacity:1">
							<rect
   x="117.8"
   y="83.800003"
   class="st0"
   width="12.8"
   height="20.5"
   id="rect2448"
   style="fill:#000000;fill-opacity:1" />
						</g>
					</g>
				</g><g
   id="g2462"
   style="fill:#000000;fill-opacity:1">
					<g
   id="g2460"
   style="fill:#000000;fill-opacity:1">
						<g
   id="g2458"
   style="fill:#000000;fill-opacity:1">
							<rect
   x="97.900002"
   y="111.3"
   class="st0"
   width="12.8"
   height="20.5"
   id="rect2456"
   style="fill:#000000;fill-opacity:1" />
						</g>
					</g>
				</g><circle
   style="fill:#ffffff"
   id="circle2466"
   r="13.7"
   cy="114.9"
   cx="153.8"
   class="st1" /><path
   style="fill:#000000;fill-opacity:1"
   inkscape:connector-curvature="0"
   id="path2468"
   d="m 153.8,129.8 c -8.2,0 -14.9,-6.7 -14.9,-14.9 0,-8.2 6.7,-14.9 14.9,-14.9 8.2,0 14.9,6.7 14.9,14.9 0,8.2 -6.7,14.9 -14.9,14.9 z m 0,-27.4 c -6.8,0 -12.4,5.6 -12.4,12.4 0,6.8 5.6,12.4 12.4,12.4 6.8,0 12.4,-5.6 12.4,-12.4 0,-6.8 -5.6,-12.4 -12.4,-12.4 z"
   class="st0" /><path
   style="fill:#ffffff"
   inkscape:connector-curvature="0"
   id="path2472"
   d="m 153.8,152.2 c 8,0 15.3,-3.3 20.5,-8.6 -2.8,-8.7 -10.9,-14.9 -20.5,-14.9 -9.6,0 -17.7,6.3 -20.5,14.9 5.2,5.3 12.5,8.6 20.5,8.6 z"
   class="st1" /><path
   style="fill:#000000;fill-opacity:1"
   inkscape:connector-curvature="0"
   id="path2474"
   d="m 153.8,153.4 c -8.1,0 -15.7,-3.2 -21.4,-9 -0.3,-0.3 -0.4,-0.8 -0.3,-1.3 3.1,-9.4 11.8,-15.8 21.7,-15.8 9.9,0 18.7,6.3 21.7,15.8 0.1,0.4 0,0.9 -0.3,1.3 -5.7,5.8 -13.3,9 -21.4,9 z m -19.1,-10.2 c 5.2,5 11.9,7.7 19.1,7.7 7.2,0 13.9,-2.7 19.1,-7.7 -2.9,-8 -10.5,-13.3 -19.1,-13.3 -8.6,0 -16.2,5.3 -19.1,13.3 z"
   class="st0" /><circle
   style="fill:#ffffff"
   id="circle2480"
   r="13.7"
   cy="123.9"
   cx="136.5"
   class="st1" /><path
   style="fill:#000000;fill-opacity:1"
   inkscape:connector-curvature="0"
   id="path2482"
   d="m 136.5,138.8 c -8.2,0 -14.9,-6.7 -14.9,-14.9 0,-8.2 6.7,-14.9 14.9,-14.9 8.2,0 14.9,6.7 14.9,14.9 0,8.2 -6.6,14.9 -14.9,14.9 z m 0,-27.3 c -6.8,0 -12.4,5.6 -12.4,12.4 0,6.8 5.6,12.4 12.4,12.4 6.8,0 12.4,-5.6 12.4,-12.4 0,-6.8 -5.5,-12.4 -12.4,-12.4 z"
   class="st0" /><path
   style="fill:#ffffff"
   inkscape:connector-curvature="0"
   id="path2486"
   d="m 136.5,161.2 c 8,0 15.3,-3.3 20.5,-8.6 -2.8,-8.7 -10.9,-14.9 -20.5,-14.9 -9.6,0 -17.7,6.3 -20.5,14.9 5.2,5.3 12.5,8.6 20.5,8.6 z"
   class="st1" /><path
   style="fill:#000000;fill-opacity:1"
   inkscape:connector-curvature="0"
   id="path2488"
   d="m 136.5,162.5 c -8.1,0 -15.7,-3.2 -21.4,-9 -0.3,-0.3 -0.4,-0.8 -0.3,-1.3 3.1,-9.4 11.8,-15.8 21.7,-15.8 9.9,0 18.7,6.3 21.7,15.8 0.1,0.4 0,0.9 -0.3,1.3 -5.6,5.8 -13.3,9 -21.4,9 z m -19.1,-10.2 c 5.2,5 11.9,7.7 19.1,7.7 7.2,0 13.9,-2.7 19.1,-7.7 -2.9,-8 -10.5,-13.3 -19.1,-13.3 -8.6,-0.1 -16.1,5.2 -19.1,13.3 z"
   class="st0" />

<path
   id="path1029"
   d="m 204.00244,228.86436 v -8.24092 a 12.36138,12.36138 0 0 0 -24.72276,0 v 8.24092 z m -37.08414,0 h 4.12046 v -8.24092 a 20.602302,20.602302 0 0 1 41.2046,0 v 8.24092 h 4.12046 v 28.84322 H 166.9183 Z"
   inkscape:connector-curvature="0"
   style="stroke-width:2.06023026" /></svg>