<?xml version="1.0" encoding="UTF-8" standalone="no"?>
<!-- Generator: Adobe Illustrator 22.1.0, SVG Export Plug-In . SVG Version: 6.00 Build 0)  -->

<svg
   xmlns:dc="http://purl.org/dc/elements/1.1/"
   xmlns:cc="http://creativecommons.org/ns#"
   xmlns:rdf="http://www.w3.org/1999/02/22-rdf-syntax-ns#"
   xmlns:svg="http://www.w3.org/2000/svg"
   xmlns="http://www.w3.org/2000/svg"
   xmlns:sodipodi="http://sodipodi.sourceforge.net/DTD/sodipodi-0.dtd"
   xmlns:inkscape="http://www.inkscape.org/namespaces/inkscape"
   version="1.1"
   id="Calque_1"
   x="0px"
   y="0px"
   viewBox="0 0 227 270"
   style="enable-background:new 0 0 227 270;"
   xml:space="preserve"
   sodipodi:docname="PointRelais privé ArretCovoiturage --noir.svg"
   inkscape:version="0.92.4 5da689c313, 2019-01-14"><metadata
   id="metadata1394"><rdf:RDF><cc:Work
       rdf:about=""><dc:format>image/svg+xml</dc:format><dc:type
         rdf:resource="http://purl.org/dc/dcmitype/StillImage" /><dc:title></dc:title></cc:Work></rdf:RDF></metadata><defs
   id="defs1392">
	
	

		
	
			
			
		
				
				
				
			
					
					
					
				
					
					
					
					
					
					
					
					
				
						
					
						
						
						
					
						
						
					
							
						</defs><sodipodi:namedview
   pagecolor="#ffffff"
   bordercolor="#666666"
   borderopacity="1"
   objecttolerance="10"
   gridtolerance="10"
   guidetolerance="10"
   inkscape:pageopacity="0"
   inkscape:pageshadow="2"
   inkscape:window-width="1600"
   inkscape:window-height="834"
   id="namedview1390"
   showgrid="false"
   inkscape:zoom="1.6734861"
   inkscape:cx="52.713116"
   inkscape:cy="109.86728"
   inkscape:window-x="0"
   inkscape:window-y="0"
   inkscape:window-maximized="1"
   inkscape:current-layer="Calque_1" />
<style
   type="text/css"
   id="style1317">
	.st0{fill:#96CD5A;}
	.st1{fill:#CAE6AC;}
	.st2{fill:#FFFFFF;}
	.st3{fill-rule:evenodd;clip-rule:evenodd;fill:none;}
	.st4{fill:none;stroke:#78AF1E;stroke-width:1.9007;stroke-miterlimit:10;}
	.st5{fill-rule:evenodd;clip-rule:evenodd;fill:#FFFFFF;}
	.st6{fill-rule:evenodd;clip-rule:evenodd;fill:#96CD5A;}
	.st7{fill:none;stroke:#FFFFFF;stroke-width:3.942;stroke-linecap:round;stroke-linejoin:round;stroke-miterlimit:10;}
</style>
<path
   style="fill:#000000;fill-opacity:1"
   inkscape:connector-curvature="0"
   id="path1319"
   d="m 217.8,114.3 c 0,24.5 -8.5,47 -22.6,64.8 -19.1,24 -81.7,80.9 -81.7,80.9 0,0 -62.6,-56.8 -81.7,-80.9 C 17.7,161.3 9.2,138.8 9.2,114.3 9.2,56.7 55.9,10 113.5,10 c 57.6,0 104.3,46.7 104.3,104.3 z"
   class="st0" /><g
   id="g1325"
   style="fill:#a5a5a5;fill-opacity:1">
						<circle
   style="fill:#a5a5a5;fill-opacity:1"
   id="circle1321"
   r="6"
   cy="95.300003"
   cx="115.4"
   class="st1" />
						<path
   style="fill:#a5a5a5;fill-opacity:1"
   inkscape:connector-curvature="0"
   id="path1323"
   d="m 115.4,111.7 c 3.5,0 6.7,-1.5 9,-3.8 -1.2,-3.8 -4.8,-6.6 -9,-6.6 -4.2,0 -7.8,2.8 -9,6.6 2.3,2.4 5.5,3.8 9,3.8 z"
   class="st1" />
					</g><g
   id="g1331"
   style="fill:#a5a5a5;fill-opacity:1">
						<circle
   style="fill:#a5a5a5;fill-opacity:1"
   id="circle1327"
   r="6"
   cy="95.300003"
   cx="137.39999"
   class="st1" />
						<path
   style="fill:#a5a5a5;fill-opacity:1"
   inkscape:connector-curvature="0"
   id="path1329"
   d="m 137.4,111.7 c 3.5,0 6.7,-1.5 9,-3.8 -1.2,-3.8 -4.8,-6.6 -9,-6.6 -4.2,0 -7.8,2.8 -9,6.6 2.3,2.4 5.5,3.8 9,3.8 z"
   class="st1" />
					</g><g
   id="g1337">
						<circle
   style="fill:#ffffff"
   id="circle1333"
   r="6.5999999"
   cy="94.800003"
   cx="107.3"
   class="st2" />
						<path
   style="fill:#ffffff"
   inkscape:connector-curvature="0"
   id="path1335"
   d="m 107.3,112.9 c 3.9,0 7.4,-1.6 10,-4.2 -1.4,-4.2 -5.3,-7.3 -10,-7.3 -4.7,0 -8.6,3 -10,7.3 2.5,2.6 6.1,4.2 10,4.2 z"
   class="st2" />
					</g><g
   id="g1343">
						<circle
   style="fill:#ffffff"
   id="circle1339"
   r="6.5999999"
   cy="94.800003"
   cx="145.8"
   class="st2" />
						<path
   style="fill:#ffffff"
   inkscape:connector-curvature="0"
   id="path1341"
   d="m 145.8,112.9 c 3.9,0 7.4,-1.6 10,-4.2 -1.4,-4.2 -5.3,-7.3 -10,-7.3 -4.7,0 -8.6,3 -10,7.3 2.5,2.6 6.1,4.2 10,4.2 z"
   class="st2" />
					</g><path
   style="clip-rule:evenodd;fill:none;fill-rule:evenodd"
   inkscape:connector-curvature="0"
   id="path1345"
   d="m 92.3,108.1 c -1.9,-0.2 -2.7,-2.7 -2,-5.9 0.8,-3.2 2.2,-8.9 3.2,-13.4 0.8,-3.4 1.8,-4.2 5.3,-4.2 18.5,0 37,0 55.6,0 2.7,0 3.9,0.9 4.6,3.6 1.2,4.8 2.4,9.7 3.6,14.5 0.8,3.5 -1.3,5.4 -5,5.3 H 92.3 Z"
   class="st3" /><circle
   style="fill:none;stroke:#000000;stroke-width:1.90069997;stroke-miterlimit:10;stroke-opacity:1"
   id="circle1347"
   r="6.5999999"
   cy="112.2"
   cx="145.8"
   class="st4" /><path
   style="clip-rule:evenodd;fill:#ffffff;fill-rule:evenodd"
   inkscape:connector-curvature="0"
   id="path1349"
   d="m 168.7,107.4 c -0.9,-0.2 -1.2,-0.6 -1.5,-1.5 -1.8,-7.2 -3.7,-14.4 -5.6,-21.6 -1.1,-4.1 -5,-7.1 -9.2,-7.1 -17.3,0 -34.6,0 -51.9,0 -4.4,0 -8.3,3 -9.4,7.3 -1.8,7.1 -3.7,14.2 -5.5,21.2 -0.2,0.9 -0.6,1.3 -1.6,1.6 -3.6,0.9 -5.3,3.3 -5.3,7.1 0,6.3 0,12.7 0,19 0,3.2 1.6,5.4 4.7,6.1 1.2,0.3 1.3,0.8 1.3,1.8 0,5.5 0,5.2 0,10.7 0,2.5 1.4,3.9 3.9,3.9 2.6,0 5.1,0 7.7,0 2.8,0 3.9,-1.1 3.9,-4 0,-5.3 0.1,-4.9 0,-10.2 0,-1.4 0.2,-1.9 1.8,-1.9 8.1,0.1 16.1,0 24.2,0 8.1,0 16.2,0 24.4,0 1.5,0 1.8,0.5 1.8,1.9 -0.1,5.4 0,5 0,10.4 0,2.6 1.2,3.8 3.8,3.8 2.5,0 5,0 7.5,0 2.9,0 4.3,-1.4 4.3,-4.3 0,-5.3 0,-4.9 0,-10.2 0,-1.1 0.2,-1.7 1.5,-2 2.9,-0.7 4.5,-3 4.5,-6 0,-6.4 0,-12.8 0,-19.2 0,-3.5 -1.7,-5.9 -5.3,-6.8 z m -11.1,0.8 H 92.3 c -1.9,-0.4 -2.7,-2.8 -2,-5.9 0.8,-3.1 2.2,-9 3.2,-13.4 0.8,-3.4 1.8,-4.2 5.3,-4.2 18.5,0 37,0 55.6,0 2.7,0 3.9,0.9 4.6,3.6 1.2,4.8 2.4,9.8 3.6,14.6 0.8,3.4 -1.3,5.3 -5,5.3 z"
   class="st5" /><path
   class="st6"
   d="m 163.8,118.6 c 2.8,0 5.2,2.4 5.1,5.2 -0.1,2.8 -2.6,5.2 -5.3,5.1 -2.8,-0.1 -5.2,-2.5 -5.1,-5.3 0.1,-2.8 2.4,-5.1 5.3,-5 z"
   id="path1353"
   inkscape:connector-curvature="0"
   style="clip-rule:evenodd;fill:#000000;fill-rule:evenodd;fill-opacity:1" /><path
   class="st6"
   d="m 83.5,123.7 c 0,-2.9 2.2,-5.2 5.1,-5.2 2.9,0 5.2,2.2 5.2,5.1 0,2.8 -2.3,5.2 -5.1,5.3 -2.8,0 -5.2,-2.3 -5.2,-5.2 z"
   id="path1355"
   inkscape:connector-curvature="0"
   style="clip-rule:evenodd;fill:#000000;fill-rule:evenodd;fill-opacity:1" /><path
   class="st0"
   d="m 124.6,131.6 c 0.3,0.3 0.4,0.7 0.4,1.1 0,0.4 -0.1,0.8 -0.4,1.1 -0.3,0.3 -0.7,0.4 -1.1,0.4 h -9.3 c -0.5,0 -0.8,-0.1 -1.1,-0.4 -0.3,-0.3 -0.4,-0.7 -0.4,-1.1 0,-0.4 0.2,-0.9 0.5,-1.2 l 6,-6.4 c 0.7,-0.7 1.2,-1.5 1.6,-2.2 0.4,-0.7 0.6,-1.4 0.6,-2 0,-0.8 -0.3,-1.5 -0.9,-2.1 -0.6,-0.6 -1.3,-0.9 -2,-0.9 -0.5,0 -1.1,0.2 -1.6,0.5 -0.5,0.4 -1,0.8 -1.5,1.4 -0.3,0.4 -0.7,0.7 -1.3,0.7 -0.4,0 -0.8,-0.2 -1.1,-0.5 -0.3,-0.3 -0.5,-0.7 -0.5,-1 0,-0.3 0.1,-0.6 0.3,-0.8 0.2,-0.3 0.5,-0.6 0.8,-1 0.7,-0.7 1.5,-1.2 2.4,-1.7 0.9,-0.4 1.8,-0.6 2.6,-0.6 1.2,0 2.3,0.3 3.2,0.8 0.9,0.5 1.6,1.2 2.1,2.1 0.5,0.9 0.7,1.9 0.7,3 0,1.1 -0.3,2.3 -0.9,3.4 -0.6,1.2 -1.4,2.3 -2.4,3.4 l -3.5,3.7 h 5.6 c 0.6,-0.1 0.9,0 1.2,0.3 z"
   id="path1359"
   inkscape:connector-curvature="0"
   style="fill:#000000;fill-opacity:1" /><path
   class="st0"
   d="m 140.7,125.1 c 0.3,0.3 0.4,0.6 0.4,1.1 0,0.4 -0.1,0.8 -0.4,1.1 -0.3,0.3 -0.7,0.4 -1.1,0.4 h -3.8 v 3.6 c 0,0.5 -0.2,0.9 -0.5,1.3 -0.3,0.3 -0.8,0.5 -1.3,0.5 -0.5,0 -0.9,-0.2 -1.3,-0.5 -0.3,-0.3 -0.5,-0.7 -0.5,-1.3 v -3.6 h -3.7 c -0.4,0 -0.8,-0.1 -1.1,-0.4 -0.3,-0.3 -0.4,-0.7 -0.4,-1.1 0,-0.4 0.1,-0.8 0.4,-1.1 0.3,-0.3 0.7,-0.4 1.1,-0.4 h 3.7 v -4.1 c 0,-0.5 0.2,-0.9 0.5,-1.3 0.3,-0.3 0.8,-0.5 1.3,-0.5 0.5,0 0.9,0.2 1.3,0.5 0.3,0.3 0.5,0.7 0.5,1.3 v 4.1 h 3.8 c 0.5,-0.1 0.8,0.1 1.1,0.4 z"
   id="path1361"
   inkscape:connector-curvature="0"
   style="fill:#000000;fill-opacity:1" /><polyline
   class="st7"
   points="45.9,150.3 71.3,150.3 71.3,158 182.6,158     "
   id="polyline1367"
   style="fill:none;stroke:#ffffff;stroke-width:3.94199991;stroke-linecap:round;stroke-linejoin:round;stroke-miterlimit:10" /><rect
   style="fill:#ffffff"
   id="rect1369"
   height="63.099998"
   width="5.3000002"
   class="st2"
   y="87.199997"
   x="55.599998" /><g
   id="g1373">
						<path
   style="fill:#ffffff"
   inkscape:connector-curvature="0"
   id="path1371"
   d="m 72,85.2 c 0,2.5 -2.1,4.6 -4.6,4.6 H 49 c -2.5,0 -4.6,-2.1 -4.6,-4.6 V 57.6 C 44.4,55.1 46.5,53 49,53 h 18.4 c 2.5,0 4.6,2.1 4.6,4.6 z"
   class="st2" />
					</g><path
   class="st0"
   d="m 66.1,79.4 c 0,0.3 -0.1,0.6 -0.4,0.9 -0.2,0.2 -0.5,0.3 -0.8,0.3 -0.2,0 -0.5,-0.1 -0.7,-0.2 C 64,80.3 63.8,80 63.7,79.8 L 62.2,76 h -8 l -1.6,3.9 c -0.1,0.3 -0.2,0.5 -0.4,0.6 -0.2,0.1 -0.4,0.2 -0.7,0.2 -0.4,0 -0.6,-0.1 -0.8,-0.3 -0.2,-0.2 -0.3,-0.4 -0.3,-0.8 0,-0.1 0,-0.2 0.1,-0.4 L 57,63.1 c 0.1,-0.3 0.3,-0.5 0.5,-0.6 0.2,-0.1 0.5,-0.2 0.7,-0.2 0.3,0 0.5,0.1 0.7,0.2 0.2,0.1 0.4,0.3 0.4,0.6 L 66,78.9 c 0.1,0.2 0.1,0.4 0.1,0.5 z m -11,-5.8 h 6.1 l -3,-7.3 z"
   id="path1375"
   inkscape:connector-curvature="0"
   style="fill:#000000;fill-opacity:1" />

<path
   id="path1029"
   d="m 204.00244,228.86436 v -8.24092 a 12.36138,12.36138 0 0 0 -24.72276,0 v 8.24092 z m -37.08414,0 h 4.12046 v -8.24092 a 20.602302,20.602302 0 0 1 41.2046,0 v 8.24092 h 4.12046 v 28.84322 H 166.9183 Z"
   inkscape:connector-curvature="0"
   style="stroke-width:2.06023026" /></svg>