<?xml version="1.0" encoding="UTF-8" standalone="no"?>
<!-- Generator: Adobe Illustrator 22.1.0, SVG Export Plug-In . SVG Version: 6.00 Build 0)  -->

<svg
   xmlns:dc="http://purl.org/dc/elements/1.1/"
   xmlns:cc="http://creativecommons.org/ns#"
   xmlns:rdf="http://www.w3.org/1999/02/22-rdf-syntax-ns#"
   xmlns:svg="http://www.w3.org/2000/svg"
   xmlns="http://www.w3.org/2000/svg"
   xmlns:sodipodi="http://sodipodi.sourceforge.net/DTD/sodipodi-0.dtd"
   xmlns:inkscape="http://www.inkscape.org/namespaces/inkscape"
   version="1.1"
   id="Calque_1"
   x="0px"
   y="0px"
   viewBox="0 0 227 270"
   style="enable-background:new 0 0 227 270;"
   xml:space="preserve"
   sodipodi:docname="PointRelaisPrivé Taxi --noir.svg"
   inkscape:version="0.92.4 5da689c313, 2019-01-14"><metadata
   id="metadata4344"><rdf:RDF><cc:Work
       rdf:about=""><dc:format>image/svg+xml</dc:format><dc:type
         rdf:resource="http://purl.org/dc/dcmitype/StillImage" /><dc:title></dc:title></cc:Work></rdf:RDF></metadata><defs
   id="defs4342">
	
	

		
	
			
			
		
				
				
			
					
					
					
					
				</defs><sodipodi:namedview
   pagecolor="#ffffff"
   bordercolor="#666666"
   borderopacity="1"
   objecttolerance="10"
   gridtolerance="10"
   guidetolerance="10"
   inkscape:pageopacity="0"
   inkscape:pageshadow="2"
   inkscape:window-width="1600"
   inkscape:window-height="834"
   id="namedview4340"
   showgrid="false"
   inkscape:zoom="2.3666667"
   inkscape:cx="11.24648"
   inkscape:cy="135"
   inkscape:window-x="0"
   inkscape:window-y="0"
   inkscape:window-maximized="1"
   inkscape:current-layer="Calque_1" />
<style
   type="text/css"
   id="style4315">
	.st0{fill:#F0D20A;}
	.st1{fill:#FFFFFF;}
</style>
<path
   style="fill:#000000;fill-opacity:1"
   inkscape:connector-curvature="0"
   id="path4317"
   d="m 217.8,114.3 c 0,24.5 -8.5,47 -22.6,64.8 -19.1,24 -81.7,80.9 -81.7,80.9 0,0 -62.6,-56.8 -81.7,-80.9 C 17.7,161.3 9.2,138.8 9.2,114.3 9.2,56.7 55.9,10 113.5,10 c 57.6,0 104.3,46.7 104.3,104.3 z"
   class="st0" /><path
   class="st1"
   d="m 182.7,89.1 c -1.9,-9.5 -7.6,-13 -16.6,-13 -9,0 -96.2,0 -105.2,0 -9,0 -14.7,3.5 -16.6,13 -1.4,7.5 -3.8,39 -3.8,39 h 146 c 0,0 -2.4,-31.5 -3.8,-39 z"
   id="path4319"
   inkscape:connector-curvature="0"
   style="fill:#ffffff" /><path
   style="fill:#020000;fill-opacity:1"
   inkscape:connector-curvature="0"
   id="path4321"
   d="M 72.6,118 V 91.6 h -9.4 v -5.4 h 25.3 v 5.4 H 79 V 118 Z"
   class="st0" /><path
   style="fill:#020000;fill-opacity:1"
   inkscape:connector-curvature="0"
   id="path4323"
   d="m 120.2,118 h -7 l -2.8,-7.2 H 97.7 l -2.6,7.2 h -6.8 l 12.4,-31.8 h 6.8 z M 108.3,105.4 104,93.7 99.7,105.5 h 8.6 z"
   class="st0" /><path
   style="fill:#020000;fill-opacity:1"
   inkscape:connector-curvature="0"
   id="path4325"
   d="m 122.5,118 10.9,-16.6 -9.8,-15.2 h 7.5 l 6.4,10.2 6.2,-10.2 h 7.4 l -9.9,15.4 10.9,16.3 h -7.7 l -7,-11 -7.1,11 h -7.8 z"
   class="st0" /><path
   style="fill:#020000;fill-opacity:1"
   inkscape:connector-curvature="0"
   id="path4327"
   d="M 157.4,118 V 86.2 h 6.4 V 118 Z"
   class="st0" />

<path
   id="path1029"
   d="m 204.00244,228.86436 v -8.24092 a 12.36138,12.36138 0 0 0 -24.72276,0 v 8.24092 z m -37.08414,0 h 4.12046 v -8.24092 a 20.602302,20.602302 0 0 1 41.2046,0 v 8.24092 h 4.12046 v 28.84322 H 166.9183 Z"
   inkscape:connector-curvature="0"
   style="stroke-width:2.06023026" /></svg>