<?xml version="1.0" encoding="UTF-8" standalone="no"?>
<!-- Generator: Adobe Illustrator 22.1.0, SVG Export Plug-In . SVG Version: 6.00 Build 0)  -->

<svg
   xmlns:dc="http://purl.org/dc/elements/1.1/"
   xmlns:cc="http://creativecommons.org/ns#"
   xmlns:rdf="http://www.w3.org/1999/02/22-rdf-syntax-ns#"
   xmlns:svg="http://www.w3.org/2000/svg"
   xmlns="http://www.w3.org/2000/svg"
   xmlns:sodipodi="http://sodipodi.sourceforge.net/DTD/sodipodi-0.dtd"
   xmlns:inkscape="http://www.inkscape.org/namespaces/inkscape"
   version="1.1"
   id="Calque_1"
   x="0px"
   y="0px"
   viewBox="0 0 227 270"
   style="enable-background:new 0 0 227 270;"
   xml:space="preserve"
   sodipodi:docname="PointRelais ParkingRelais --noir.svg"
   inkscape:version="0.92.4 5da689c313, 2019-01-14"><metadata
   id="metadata4188"><rdf:RDF><cc:Work
       rdf:about=""><dc:format>image/svg+xml</dc:format><dc:type
         rdf:resource="http://purl.org/dc/dcmitype/StillImage" /><dc:title></dc:title></cc:Work></rdf:RDF></metadata><defs
   id="defs4186">
	
	

		
	
			
			
		
				
				
			
					
					
				
					
				</defs><sodipodi:namedview
   pagecolor="#ffffff"
   bordercolor="#666666"
   borderopacity="1"
   objecttolerance="10"
   gridtolerance="10"
   guidetolerance="10"
   inkscape:pageopacity="0"
   inkscape:pageshadow="2"
   inkscape:window-width="1600"
   inkscape:window-height="834"
   id="namedview4184"
   showgrid="false"
   inkscape:zoom="2.3666667"
   inkscape:cx="113.5"
   inkscape:cy="135"
   inkscape:window-x="0"
   inkscape:window-y="0"
   inkscape:window-maximized="1"
   inkscape:current-layer="Calque_1" />
<style
   type="text/css"
   id="style4161">
	.st0{fill:#255799;}
	.st1{fill:#FFFFFF;}
</style>
<path
   style="fill:#000000;fill-opacity:1"
   inkscape:connector-curvature="0"
   id="path4163"
   d="m 217.8,114.3 c 0,24.5 -8.5,47 -22.6,64.8 -19.1,24 -81.7,80.9 -81.7,80.9 0,0 -62.6,-56.8 -81.7,-80.9 C 17.7,161.3 9.2,138.8 9.2,114.3 9.2,56.7 55.9,10 113.5,10 c 57.6,0 104.3,46.7 104.3,104.3 z"
   class="st0" /><path
   style="fill:#ffffff"
   inkscape:connector-curvature="0"
   id="path4165"
   d="m 64.8,151.6 v -100 h 32.4 c 12.3,0 20.3,0.5 24,1.5 5.7,1.5 10.5,4.8 14.4,9.8 3.9,5 5.8,11.5 5.8,19.5 0,6.1 -1.1,11.3 -3.3,15.5 -2.2,4.2 -5.1,7.5 -8.5,9.9 -3.4,2.4 -6.9,4 -10.5,4.7 -4.8,1 -11.8,1.4 -20.9,1.4 H 85 v 37.7 z M 85,68.5 v 28.4 h 11 c 8,0 13.3,-0.5 16,-1.6 2.7,-1 4.8,-2.7 6.3,-4.9 1.5,-2.2 2.3,-4.8 2.3,-7.8 0,-3.6 -1.1,-6.6 -3.2,-9 -2.1,-2.4 -4.8,-3.8 -8.1,-4.4 -2.4,-0.5 -7.3,-0.7 -14.5,-0.7 z"
   class="st1" /><path
   style="fill:#ffffff"
   inkscape:connector-curvature="0"
   id="path4169"
   d="m 131.9,133.2 v 6.4 h -11.4 v 11.9 h -6.1 v -11.9 h -11.3 v -6.4 h 11.3 v -11.9 h 6.1 v 11.9 z"
   class="st1" /><path
   style="fill:#ffffff"
   inkscape:connector-curvature="0"
   id="path4171"
   d="m 160.4,108.7 c 1.8,0 3.5,0.3 4.9,0.9 1.5,0.6 2.7,1.5 3.8,2.5 1,1.1 1.8,2.3 2.4,3.8 0.6,1.4 0.8,3 0.8,4.6 0,2.5 -0.5,4.7 -1.5,6.5 -1,1.8 -2.7,3.2 -4.9,4.2 v 0.1 c 1.1,0.3 2,0.8 2.7,1.5 0.7,0.7 1.3,1.4 1.8,2.3 0.5,0.9 0.8,1.9 1,3 0.2,1.1 0.4,2.2 0.4,3.2 0,0.7 0.1,1.5 0.1,2.4 0,0.9 0.1,1.9 0.2,2.8 0.1,1 0.2,1.9 0.5,2.7 0.3,0.8 0.5,1.6 0.9,2.2 h -9 c -0.5,-1.4 -0.8,-3 -0.9,-4.9 -0.1,-1.9 -0.3,-3.7 -0.5,-5.4 -0.3,-2.2 -1,-3.9 -1.9,-4.9 -1,-1 -2.6,-1.6 -4.8,-1.6 h -9 v 16.7 h -9 v -42.8 h 22 z m -3.1,19.4 c 2.1,0 3.6,-0.5 4.6,-1.4 1,-0.9 1.5,-2.5 1.5,-4.7 0,-2.1 -0.5,-3.6 -1.5,-4.5 -1,-0.9 -2.6,-1.4 -4.6,-1.4 h -9.8 v 12.1 h 9.8 z"
   class="st1" />

</svg>