<?xml version="1.0" encoding="utf-8"?>
<!-- Generator: Adobe Illustrator 26.5.0, SVG Export Plug-In . SVG Version: 6.00 Build 0)  -->
<svg version="1.1"
	 id="svg2" xmlns:cc="http://creativecommons.org/ns#" xmlns:dc="http://purl.org/dc/elements/1.1/" xmlns:rdf="http://www.w3.org/1999/02/22-rdf-syntax-ns#" xmlns:svg="http://www.w3.org/2000/svg"
	 xmlns="http://www.w3.org/2000/svg" xmlns:xlink="http://www.w3.org/1999/xlink" x="0px" y="0px" viewBox="0 0 217 270.4"
	 style="enable-background:new 0 0 217 270.4;" xml:space="preserve">
<style type="text/css">
	.st0{fill:#4AC2B6;}
	.st1{fill:#FFFFFF;}
</style>
<g>
	<g id="g16">
		<path id="path22" class="st0" d="M108.5,238.8c0,0,80.1-82,80.1-140.6c0-44.7-35.8-80.9-80.1-80.9c-44.2,0-79.6,36.2-80.1,80.9
			C27.9,156.8,108.5,238.8,108.5,238.8"/>
		<path id="path24" class="st1" d="M147.3,83.5c0,3.4-7.8,3.6-11.4,3.6l-57,0.3c-3.5,0-9.3,0.9-9.4-2.5l2.9-21.1
			c0-6.5,6.5-11.3,12.8-11.4l44.1-0.2c9.8-0.1,14.7,8.9,14.8,12.3C144.1,64.6,147.3,83.5,147.3,83.5z M163,71.4
			c-1.2-2.1-4.9-2-8.2,0.4c-1.2,0.9-2.2,1.9-3,2.9l-3-14.8c-0.7-9.1-13.2-13.5-16.6-13.5l-51,0.3c-10.2,0-14.5,11.6-14.5,14.8
			l-2.1,12.6c-0.7-0.8-1.5-1.6-2.5-2.3c-3.4-2.3-7-2.4-8.2-0.3c-1.2,2.1,0.6,5.7,3.9,8c0.8,0.5,1.6,0.9,2.3,1.2
			c-4.6,2-8.9,6.5-6.8,16.6l3.1,17.9c0,2.1,1,4,2.4,5.2l1.2,1.1l0,6.2c0,3.5,2.6,6.4,5.8,6.4l1.7,0c3.2,0,5.8-2.9,5.8-6.5l0-4.9
			l70.1-0.4l0,4.9c0,3.6,2.6,6.4,5.8,6.4h1.7c3.2,0,5.8-2.9,5.8-6.5l0-5.3l1.4-0.8c1-0.8,1.6-1.8,1.9-2.7l0-0.1l0.3-1l0.1-0.3
			l0.1-1.1l3.5-18.5c0-2.8,0.6-12.5-7.5-16.4c0.8-0.3,1.7-0.7,2.5-1.3C162.4,77.1,164.2,73.5,163,71.4"/>
	</g>
</g>
</svg>
