<?xml version="1.0" encoding="UTF-8" standalone="no"?>
<!-- Generator: Adobe Illustrator 22.1.0, SVG Export Plug-In . SVG Version: 6.00 Build 0)  -->

<svg
   xmlns:dc="http://purl.org/dc/elements/1.1/"
   xmlns:cc="http://creativecommons.org/ns#"
   xmlns:rdf="http://www.w3.org/1999/02/22-rdf-syntax-ns#"
   xmlns:svg="http://www.w3.org/2000/svg"
   xmlns="http://www.w3.org/2000/svg"
   xmlns:sodipodi="http://sodipodi.sourceforge.net/DTD/sodipodi-0.dtd"
   xmlns:inkscape="http://www.inkscape.org/namespaces/inkscape"
   version="1.1"
   id="Calque_1"
   x="0px"
   y="0px"
   viewBox="0 0 227 270"
   style="enable-background:new 0 0 227 270;"
   xml:space="preserve"
   sodipodi:docname="PointRelais Train --noir.svg"
   inkscape:version="0.92.4 5da689c313, 2019-01-14"><metadata
   id="metadata4553"><rdf:RDF><cc:Work
       rdf:about=""><dc:format>image/svg+xml</dc:format><dc:type
         rdf:resource="http://purl.org/dc/dcmitype/StillImage" /><dc:title></dc:title></cc:Work></rdf:RDF></metadata><defs
   id="defs4551">
	
	

		
		
	
			
			
			
			
			
			
		
				
				
			
				
			
				
				
			
				
			
					
				
					
				
					
				
					
				
					
				
						
					
						
					</defs><sodipodi:namedview
   pagecolor="#ffffff"
   bordercolor="#666666"
   borderopacity="1"
   objecttolerance="10"
   gridtolerance="10"
   guidetolerance="10"
   inkscape:pageopacity="0"
   inkscape:pageshadow="2"
   inkscape:window-width="1600"
   inkscape:window-height="834"
   id="namedview4549"
   showgrid="false"
   inkscape:zoom="2.3666667"
   inkscape:cx="113.5"
   inkscape:cy="135"
   inkscape:window-x="0"
   inkscape:window-y="0"
   inkscape:window-maximized="1"
   inkscape:current-layer="Calque_1" />
<style
   type="text/css"
   id="style4500">
	.st0{fill:#D83915;}
	.st1{fill:#FFFFFF;}
	.st2{fill-rule:evenodd;clip-rule:evenodd;fill:#D83915;}
</style>
<path
   class="st0"
   d="m 217.8,114.3 c 0,24.5 -8.5,47 -22.6,64.8 -19.1,24 -81.7,80.9 -81.7,80.9 0,0 -62.6,-56.8 -81.7,-80.9 C 17.7,161.3 9.2,138.8 9.2,114.3 9.2,56.7 55.9,10 113.5,10 c 57.6,0 104.3,46.7 104.3,104.3 z"
   id="path4502"
   inkscape:connector-curvature="0"
   style="fill:#000003;fill-opacity:1" /><path
   class="st1"
   d="m 150.4,143.4 c -1.2,5.4 -6.6,9.8 -12.1,9.8 H 88.7 c -5.5,0 -11,-4.4 -12.1,-9.8 l -1,-4.4 c -1.2,-5.4 -1.8,-14.3 -1.5,-19.7 l 3.9,-59 c 0.4,-5.5 5.2,-10 10.7,-10 h 49.5 c 5.5,0 10.3,4.5 10.7,10 l 3.9,59 c 0.4,5.5 -0.3,14.4 -1.5,19.7 z"
   id="path4504"
   inkscape:connector-curvature="0"
   style="fill:#ffffff" /><path
   style="clip-rule:evenodd;fill:#000000;fill-rule:evenodd;fill-opacity:1"
   inkscape:connector-curvature="0"
   id="path4508"
   d="m 136.1,131.4 c 2.7,0 5,2.3 4.9,5 0,2.7 -2.5,5 -5.1,5 -2.7,-0.1 -5,-2.4 -4.9,-5.1 0.1,-2.8 2.3,-4.9 5.1,-4.9 z"
   class="st2" /><path
   style="clip-rule:evenodd;fill:#000000;fill-rule:evenodd;fill-opacity:1"
   inkscape:connector-curvature="0"
   id="path4512"
   d="m 91.1,131.4 c 2.7,0 5,2.3 4.9,5 0,2.7 -2.5,5 -5.1,5 -2.7,-0.1 -5,-2.4 -4.9,-5.1 0.1,-2.8 2.3,-4.9 5.1,-4.9 z"
   class="st2" /><path
   style="fill:#000000;fill-opacity:1"
   inkscape:connector-curvature="0"
   id="path4518"
   d="m 122.2,60 c 0,1.4 -1.1,2.5 -2.5,2.5 h -12.5 c -1.4,0 -2.5,-1.1 -2.5,-2.5 v -2.5 c 0,-1.4 1.1,-2.5 2.5,-2.5 h 12.5 c 1.4,0 2.5,1.1 2.5,2.5 z"
   class="st0" /><path
   class="st0"
   d="M 111.2,102.3 H 84.7 c -2.8,0 -4.8,-2.2 -4.7,-5 l 1.7,-25 c 0.2,-2.7 2.6,-5 5.3,-5 h 24.1 v 35 z"
   id="path4524"
   inkscape:connector-curvature="0"
   style="fill:#000000;fill-opacity:1" /><path
   class="st0"
   d="m 115.8,102.3 h 26.5 c 2.8,0 4.8,-2.2 4.7,-5 l -1.7,-25 c -0.2,-2.7 -2.6,-5 -5.3,-5 h -24.1 v 35 z"
   id="path4530"
   inkscape:connector-curvature="0"
   style="fill:#000000;fill-opacity:1" /><path
   style="fill:#ffffff"
   inkscape:connector-curvature="0"
   id="path4538"
   d="m 121.9,36.9 c -0.9,-1 -2.2,-1.5 -3.5,-1.5 v 0 0 c -2.4,0 -4.4,1.6 -4.9,3.9 0,0 0,0 0,0 -0.2,-0.9 -0.6,-1.7 -1.3,-2.3 -0.9,-1 -2.2,-1.5 -3.5,-1.5 v 0 0 c -2.7,0 -4.9,2.1 -5,4.9 -0.1,2.7 2.2,5 4.9,5.1 h 0.1 c 1.3,0 2.5,-0.6 3.4,-1.4 v 6.3 c 0,0.7 0.6,1.3 1.2,1.3 0,0 0,0 0,0 0.7,0 1.2,-0.6 1.2,-1.2 v -6.6 c 0.9,1.1 2.2,1.8 3.7,1.8 h 0.1 c 2.7,0 4.9,-2.3 5,-4.9 0.1,-1.7 -0.4,-3 -1.4,-3.9 z"
   class="st1" /><path
   style="fill:#ffffff"
   inkscape:connector-curvature="0"
   id="path4540"
   d="m 153.1,178.8 -16,-26.4 c -0.4,-0.6 -1.1,-0.8 -1.7,-0.4 -0.6,0.4 -0.8,1.1 -0.4,1.7 l 2,3.3 H 90.1 l 2,-3.3 c 0.4,-0.6 0.2,-1.4 -0.4,-1.7 -0.6,-0.4 -1.4,-0.2 -1.7,0.4 l -16,26.4 c -0.4,0.6 -0.2,1.4 0.4,1.7 0.2,0.1 0.4,0.2 0.6,0.2 0.4,0 0.8,-0.2 1.1,-0.6 l 4.7,-7.7 h 65.5 l 4.7,7.7 c 0.2,0.4 0.6,0.6 1.1,0.6 0.2,0 0.4,-0.1 0.6,-0.2 0.5,-0.4 0.7,-1.1 0.4,-1.7 z M 83,168.6 l 4.8,-7.9 h 51.4 l 4.8,7.9 z"
   class="st1" />

</svg>