<?xml version="1.0" encoding="UTF-8" standalone="no"?>
<!-- Generator: Adobe Illustrator 26.0.2, SVG Export Plug-In . SVG Version: 6.00 Build 0)  -->

<svg
   version="1.1"
   id="Calque_1"
   x="0px"
   y="0px"
   viewBox="0 0 227 270"
   xml:space="preserve"
   sodipodi:docname="relaypoint-rezopouce.svg"
   width="227"
   height="270"
   inkscape:version="1.2.2 (1:1.2.2+202212051551+b0a8486541)"
   xmlns:inkscape="http://www.inkscape.org/namespaces/inkscape"
   xmlns:sodipodi="http://sodipodi.sourceforge.net/DTD/sodipodi-0.dtd"
   xmlns="http://www.w3.org/2000/svg"
   xmlns:svg="http://www.w3.org/2000/svg"
   xmlns:rdf="http://www.w3.org/1999/02/22-rdf-syntax-ns#"
   xmlns:cc="http://creativecommons.org/ns#"
   xmlns:dc="http://purl.org/dc/elements/1.1/"><metadata
   id="metadata21"><rdf:RDF><cc:Work
       rdf:about=""><dc:format>image/svg+xml</dc:format><dc:type
         rdf:resource="http://purl.org/dc/dcmitype/StillImage" /><dc:title /></cc:Work></rdf:RDF></metadata><defs
   id="defs19">
	
	
	

		
	</defs><sodipodi:namedview
   pagecolor="#ffffff"
   bordercolor="#666666"
   borderopacity="1"
   objecttolerance="10"
   gridtolerance="10"
   guidetolerance="10"
   inkscape:pageopacity="0"
   inkscape:pageshadow="2"
   inkscape:window-width="1920"
   inkscape:window-height="1023"
   id="namedview17"
   showgrid="false"
   inkscape:zoom="2"
   inkscape:cx="191.75"
   inkscape:cy="151.75"
   inkscape:window-x="0"
   inkscape:window-y="0"
   inkscape:window-maximized="1"
   inkscape:current-layer="Calque_1"
   inkscape:showpageshadow="2"
   inkscape:pagecheckerboard="0"
   inkscape:deskcolor="#d1d1d1" />
<style
   type="text/css"
   id="style2">
	.st0{fill:#FFFFFF;}
</style>
<path
   class="st0"
   d="m 540,-526 c -102.2,0 -185.4,83.2 -185.4,185.4 0,126.9 165.9,313.2 173,321 6.6,7.4 18.2,7.4 24.8,0 7.1,-7.9 173,-194.2 173,-321 C 725.4,-442.8 642.2,-526 540,-526 Z"
   id="path4"
   inkscape:connector-curvature="0"
   style="fill:#ffffff" />
<path
   d="m 115.5,12.924999 c -57.494394,0 -104.300003,40.628968 -104.300003,90.536181 0,61.96895 93.329933,152.94463 97.324163,156.75359 3.71295,3.61364 10.23873,3.61364 13.95167,0 C 126.47006,256.35698 219.8,165.38129 219.8,103.46118 219.8,53.553967 172.99439,12.924999 115.5,12.924999 Z"
   id="path6"
   inkscape:connector-curvature="0"
   style="stroke-width:0.524135;fill:#5fce91;fill-opacity:1" /><ellipse
   class="st0"
   cx="116.17509"
   cy="101.5567"
   id="circle10"
   style="fill:#ffffff;stroke-width:0.524135"
   rx="73.583817"
   ry="63.873428" /><path
   d="m 169.78775,113.71609 c 0,-6.59244 -6.52578,-11.62223 -14.00793,-15.528858 -6.18824,-3.076472 -9.50739,-2.588143 -12.71402,-4.980955 -0.56257,-4.199629 2.75658,-16.847349 -8.55102,-26.760426 -16.93328,-14.405704 -41.461223,-5.664616 -46.636844,2.246313 -2.644066,3.515968 -4.444282,5.371618 -6.019471,12.843051 -0.731338,3.564801 -2.475297,7.959762 -10.294984,8.789921 -5.400647,0.537162 -7.988457,4.492626 -8.944822,9.571247 0.05626,0 19.746117,-1.318488 22.333927,-3.271804 2.58781,-1.953315 2.92535,-2.246313 4.275512,-4.39496 1.181392,-1.904483 3.150378,-3.857799 5.288134,-5.615783 2.194013,-1.757984 5.963218,-5.029788 8.944818,-7.324934 3.60044,-2.295146 6.52579,-6.299443 7.08835,-6.641274 0.61883,-0.34183 4.10675,-4.687958 3.48792,-6.59244 0,0 1.74396,-1.269656 3.60043,-0.927825 0,0 3.31915,1.806817 2.98161,6.104111 -0.33754,4.248462 -1.6877,5.811115 -3.03786,7.666765 -1.35017,1.904483 -3.54418,3.271804 -4.27552,5.859947 0,0 3.88172,1.464987 5.17562,1.611486 1.1814,0.146498 5.06311,-0.976658 8.26975,-0.488329 3.20663,0.439496 6.13198,1.416154 5.62567,4.980955 -0.78759,1.904483 -1.91273,2.783475 -1.91273,2.783475 0,0 2.25027,2.050981 2.25027,4.101963 0,2.099814 -2.02524,3.711304 -3.03786,4.199624 0,0 1.6877,1.12316 0.9001,3.22298 -0.78759,2.09981 -2.19401,3.4183 -3.93797,4.19962 -1.85647,0.68367 2.0815,0.97666 -0.50631,3.76014 -3.20663,3.4183 -11.42012,5.51811 -16.2582,5.22512 -4.89433,-0.19533 -7.81968,-0.53716 -9.84493,-1.12316 -4.61305,-1.31849 -11.420116,0.34183 -11.420116,0.34183 0,0 -15.470604,2.53931 -24.077885,5.66462 v 0.0488 c 0.618824,2.58814 1.125134,4.24846 1.125134,4.24846 1.350162,3.90663 4.50054,4.19963 4.50054,4.19963 -0.05626,0 0.731337,-0.19533 2.081499,-0.53716 1.181392,2.92997 4.162999,5.22512 7.988458,5.81111 5.738187,0.92783 11.251348,-2.39281 12.320226,-7.32493 0.16877,-0.68366 0.16877,-1.31849 0.16877,-2.05098 10.126214,-1.17199 23.009004,-2.05098 37.354474,-1.26966 -0.22502,5.22512 3.93797,9.91308 10.06996,10.88974 6.52578,1.02549 12.82654,-2.58815 14.23296,-8.10626 0.9001,0.1465 1.74395,0.34183 2.64406,0.48833 1.85647,0.48832 2.75658,0.53716 4.10674,0.92782 0.61883,0.0488 1.06888,-0.34183 1.29391,-0.78133 5.4569,-9.03408 7.31338,-12.35472 7.36963,-16.06602"
   id="path12"
   inkscape:connector-curvature="0"
   style="stroke-width:0.524135;fill:#5fce91;fill-opacity:1" />
</svg>
