<?xml version="1.0" encoding="utf-8"?>
<!-- Generator: Adobe Illustrator 24.0.3, SVG Export Plug-In . SVG Version: 6.00 Build 0)  -->
<svg version="1.1" id="Calque_1" xmlns="http://www.w3.org/2000/svg" xmlns:xlink="http://www.w3.org/1999/xlink" x="0px" y="0px"
	 width="163px" height="52px" viewBox="0 0 163 52" style="enable-background:new 0 0 163 52;" xml:space="preserve">
<style type="text/css">
	.st0{fill:#A6A6A6;}
	.st1{fill:#FFFFFF;}
	.st2{fill:url(#SVGID_1_);}
	.st3{fill:url(#SVGID_2_);}
	.st4{fill:url(#SVGID_3_);}
	.st5{fill:url(#SVGID_4_);}
	.st6{opacity:0.2;enable-background:new    ;}
	.st7{opacity:0.12;enable-background:new    ;}
	.st8{opacity:0.25;fill:#FFFFFF;enable-background:new    ;}
	.st9{fill:#FFFFFF;stroke:#FFFFFF;stroke-width:0.235;stroke-miterlimit:10;}
</style>
<g>
	<g>
		<path d="M154.7,49H7.9C4.6,49,2,46.4,2,43.1V7.9C2,4.6,4.6,2,7.9,2h146.9c3.2,0,5.9,2.6,5.9,5.9v35.2C160.6,46.4,158,49,154.7,49z
			"/>
	</g>
	<g>
		<g>
			<path class="st0" d="M154.7,2.9c2.7,0,4.9,2.2,4.9,4.9v35.2c0,2.7-2.2,4.9-4.9,4.9H7.9c-2.7,0-4.9-2.2-4.9-4.9V7.9
				c0-2.7,2.2-4.9,4.9-4.9H154.7 M154.7,2H7.9C4.6,2,2,4.6,2,7.9v35.2C2,46.4,4.6,49,7.9,49h146.9c3.2,0,5.9-2.6,5.9-5.9V7.9
				C160.6,4.6,158,2,154.7,2L154.7,2z"/>
		</g>
	</g>
	<path class="st1" d="M82.1,27.6c-2.8,0-5,2.1-5,5c0,2.9,2.3,5,5,5c2.8,0,5-2.1,5-5C87.1,29.7,84.8,27.6,82.1,27.6z M82.1,35.6
		c-1.5,0-2.8-1.2-2.8-3c0-1.8,1.3-3,2.8-3c1.5,0,2.8,1.2,2.8,3C84.9,34.3,83.6,35.6,82.1,35.6z M71.1,27.6c-2.8,0-5,2.1-5,5
		c0,2.9,2.3,5,5,5c2.8,0,5-2.1,5-5C76.1,29.7,73.9,27.6,71.1,27.6z M71.1,35.6c-1.5,0-2.8-1.2-2.8-3c0-1.8,1.3-3,2.8-3
		c1.5,0,2.8,1.2,2.8,3C73.9,34.3,72.6,35.6,71.1,35.6z M58.1,29.1v2.1h5.1c-0.2,1.2-0.5,2.1-1.2,2.7c-0.7,0.7-1.9,1.6-3.9,1.6
		c-3.1,0-5.6-2.5-5.6-5.6s2.4-5.6,5.6-5.6c1.7,0,2.9,0.7,3.8,1.5l1.5-1.5c-1.3-1.2-3-2.1-5.3-2.1c-4.3,0-7.9,3.5-7.9,7.8
		c0,4.3,3.6,7.8,7.9,7.8c2.3,0,4.1-0.8,5.4-2.2c1.4-1.4,1.8-3.4,1.8-5c0-0.5,0-0.9-0.1-1.3H58.1z M111.3,30.7
		c-0.4-1.1-1.7-3.2-4.3-3.2c-2.6,0-4.7,2-4.7,5c0,2.8,2.1,5,5,5c2.3,0,3.6-1.4,4.2-2.2l-1.7-1.1c-0.6,0.8-1.3,1.4-2.5,1.4
		c-1.1,0-1.9-0.5-2.4-1.5l6.7-2.8L111.3,30.7z M104.5,32.4c-0.1-1.9,1.5-2.9,2.6-2.9c0.9,0,1.6,0.4,1.9,1.1L104.5,32.4z M99.1,37.3
		h2.2V22.6h-2.2V37.3z M95.5,28.7L95.5,28.7c-0.6-0.6-1.5-1.1-2.7-1.1c-2.5,0-4.8,2.2-4.8,5c0,2.8,2.3,5,4.8,5
		c1.2,0,2.1-0.5,2.6-1.1h0.1v0.7c0,1.9-1,2.9-2.7,2.9c-1.3,0-2.2-1-2.5-1.8l-1.9,0.8c0.5,1.3,2,3,4.4,3c2.6,0,4.8-1.5,4.8-5.2v-9
		h-2.1V28.7z M93,35.6c-1.5,0-2.8-1.3-2.8-3c0-1.8,1.3-3,2.8-3c1.5,0,2.7,1.3,2.7,3C95.6,34.3,94.5,35.6,93,35.6z M121.6,22.6h-5.3
		v14.7h2.2v-5.6h3.1c2.4,0,4.8-1.8,4.8-4.6S124.1,22.6,121.6,22.6z M121.7,29.6h-3.1v-5h3.1c1.6,0,2.6,1.4,2.6,2.5
		C124.2,28.3,123.3,29.6,121.7,29.6z M135.2,27.5c-1.6,0-3.2,0.7-3.9,2.2l1.9,0.8c0.4-0.8,1.2-1.1,2-1.1c1.1,0,2.3,0.7,2.3,1.9v0.2
		c-0.4-0.2-1.2-0.6-2.3-0.6c-2.1,0-4.2,1.2-4.2,3.3c0,2,1.7,3.2,3.6,3.2c1.5,0,2.3-0.7,2.8-1.4h0.1v1.1h2.1v-5.6
		C139.7,29,137.7,27.5,135.2,27.5z M135,35.6c-0.7,0-1.7-0.4-1.7-1.2c0-1.1,1.2-1.6,2.3-1.6c1,0,1.4,0.2,2,0.5
		C137.4,34.6,136.2,35.6,135,35.6z M147.4,27.9l-2.5,6.4h-0.1l-2.6-6.4h-2.4l3.9,8.9l-2.2,5h2.3l6-13.9H147.4z M127.6,37.3h2.2V22.6
		h-2.2V37.3z"/>
	<g>
		
			<linearGradient id="SVGID_1_" gradientUnits="userSpaceOnUse" x1="27.6144" y1="41.766" x2="7.8952" y2="22.0468" gradientTransform="matrix(1 0 0 -1 0 54)">
			<stop  offset="0" style="stop-color:#00A0FF"/>
			<stop  offset="6.574450e-03" style="stop-color:#00A1FF"/>
			<stop  offset="0.2601" style="stop-color:#00BEFF"/>
			<stop  offset="0.5122" style="stop-color:#00D2FF"/>
			<stop  offset="0.7604" style="stop-color:#00DFFF"/>
			<stop  offset="1" style="stop-color:#00E3FF"/>
		</linearGradient>
		<path class="st2" d="M14.3,10.9c-0.3,0.4-0.5,0.9-0.5,1.7v26c0,0.7,0.2,1.3,0.5,1.7l0.1,0.1l14.6-14.6v-0.2v-0.2L14.3,10.9
			L14.3,10.9z"/>
		
			<linearGradient id="SVGID_2_" gradientUnits="userSpaceOnUse" x1="41.7551" y1="28.4983" x2="13.3239" y2="28.4983" gradientTransform="matrix(1 0 0 -1 0 54)">
			<stop  offset="0" style="stop-color:#FFE000"/>
			<stop  offset="0.4087" style="stop-color:#FFBD00"/>
			<stop  offset="0.7754" style="stop-color:#FFA500"/>
			<stop  offset="1" style="stop-color:#FF9C00"/>
		</linearGradient>
		<path class="st3" d="M33.8,30.5l-4.9-4.9v-0.2v-0.2l4.9-4.9l0.1,0.1l5.7,3.3c1.6,0.9,1.6,2.5,0,3.4l-5.7,3.3L33.8,30.5z"/>
		
			<linearGradient id="SVGID_3_" gradientUnits="userSpaceOnUse" x1="31.1714" y1="25.8021" x2="4.4306" y2="-0.9387" gradientTransform="matrix(1 0 0 -1 0 54)">
			<stop  offset="0" style="stop-color:#FF3A44"/>
			<stop  offset="1" style="stop-color:#C31162"/>
		</linearGradient>
		<path class="st4" d="M33.9,30.5l-5-5L14.3,40.1c0.5,0.6,1.4,0.6,2.4,0.1L33.9,30.5"/>
		
			<linearGradient id="SVGID_4_" gradientUnits="userSpaceOnUse" x1="10.5742" y1="51.7929" x2="22.5151" y2="39.852" gradientTransform="matrix(1 0 0 -1 0 54)">
			<stop  offset="0" style="stop-color:#32A071"/>
			<stop  offset="6.850000e-02" style="stop-color:#2DA771"/>
			<stop  offset="0.4762" style="stop-color:#15CF74"/>
			<stop  offset="0.8009" style="stop-color:#06E775"/>
			<stop  offset="1" style="stop-color:#00F076"/>
		</linearGradient>
		<path class="st5" d="M33.9,20.5l-17.2-9.8c-1-0.6-1.9-0.5-2.4,0.1l14.6,14.6L33.9,20.5z"/>
		<g>
			<path class="st6" d="M33.8,30.4L16.7,40c-1,0.5-1.8,0.5-2.4,0l0,0l-0.1,0.1l0,0l0.1,0.1l0,0c0.5,0.5,1.4,0.5,2.4,0l17.2-9.8
				L33.8,30.4z"/>
			<path class="st7" d="M14.3,40c-0.3-0.4-0.5-0.9-0.5-1.7v0.2c0,0.7,0.2,1.3,0.5,1.7V40L14.3,40z"/>
		</g>
		<path class="st7" d="M39.6,27l-5.9,3.3l0.1,0.1l5.7-3.3c0.8-0.5,1.2-1.1,1.2-1.7l0,0C40.8,26.1,40.4,26.6,39.6,27z"/>
		<path class="st8" d="M16.7,11l22.9,13c0.7,0.4,1.2,1,1.2,1.5l0,0c0-0.6-0.4-1.2-1.2-1.7l-22.9-13c-1.6-0.9-3-0.2-3,1.7v0.2
			C13.7,10.8,15.1,10,16.7,11z"/>
	</g>
	<g>
		<path class="st9" d="M50.5,17.3v-7h2.2c1.1,0,1.9,0.3,2.6,1c0.6,0.7,1,1.5,1,2.5c0,1-0.3,1.9-1,2.5c-0.7,0.7-1.5,1-2.6,1H50.5z
			 M51.4,16.4h1.3c0.8,0,1.5-0.2,1.9-0.7c0.5-0.5,0.7-1.1,0.7-2c0-0.8-0.2-1.5-0.7-2c-0.5-0.5-1.1-0.7-1.9-0.7h-1.3V16.4z"/>
		<path class="st9" d="M57.5,17.3v-7h0.9v7H57.5z"/>
		<path class="st9" d="M62,17.4c-0.5,0-1-0.2-1.5-0.5c-0.5-0.3-0.8-0.8-1-1.4l0.8-0.3c0.1,0.4,0.3,0.7,0.6,1c0.3,0.3,0.6,0.4,1,0.4
			c0.4,0,0.7-0.1,1-0.3c0.3-0.2,0.4-0.5,0.4-0.8c0-0.4-0.1-0.7-0.4-0.9c-0.3-0.2-0.7-0.4-1.3-0.6c-0.6-0.2-1.1-0.5-1.4-0.8
			c-0.3-0.3-0.5-0.7-0.5-1.2c0-0.5,0.2-0.9,0.6-1.3c0.4-0.4,0.9-0.6,1.6-0.6c0.6,0,1.1,0.1,1.5,0.4c0.4,0.3,0.6,0.6,0.7,1l-0.8,0.3
			c-0.1-0.2-0.2-0.4-0.4-0.6c-0.2-0.2-0.5-0.3-0.9-0.3c-0.3,0-0.6,0.1-0.9,0.3c-0.2,0.2-0.4,0.4-0.4,0.7c0,0.3,0.1,0.5,0.3,0.7
			c0.2,0.2,0.6,0.3,1,0.5c0.3,0.1,0.6,0.2,0.9,0.3c0.2,0.1,0.5,0.2,0.7,0.4c0.2,0.2,0.4,0.4,0.5,0.7c0.1,0.3,0.2,0.6,0.2,0.9
			c0,0.3-0.1,0.6-0.2,0.9c-0.1,0.3-0.3,0.5-0.6,0.6c-0.2,0.2-0.5,0.3-0.8,0.4C62.6,17.4,62.3,17.4,62,17.4z"/>
		<path class="st9" d="M66.6,17.3h-0.9v-7h2.4c0.6,0,1.1,0.2,1.6,0.6c0.4,0.4,0.7,0.9,0.7,1.5c0,0.6-0.2,1.1-0.7,1.5
			c-0.4,0.4-1,0.6-1.6,0.6h-1.5V17.3z M66.6,13.6h1.5c0.4,0,0.7-0.1,0.9-0.4c0.2-0.3,0.3-0.5,0.3-0.8s-0.1-0.6-0.3-0.8
			c-0.2-0.3-0.5-0.4-0.9-0.4h-1.5V13.6z"/>
		<path class="st9" d="M77.2,16.4c-0.7,0.7-1.6,1.1-2.6,1.1c-1,0-1.9-0.4-2.6-1.1c-0.7-0.7-1-1.6-1-2.6s0.3-1.9,1-2.6
			c0.7-0.7,1.6-1.1,2.6-1.1c1,0,1.9,0.4,2.6,1.1c0.7,0.7,1,1.6,1,2.6C78.2,14.8,77.9,15.7,77.2,16.4z M72.7,15.8
			c0.5,0.5,1.2,0.8,1.9,0.8s1.4-0.3,1.9-0.8c0.5-0.5,0.8-1.2,0.8-2c0-0.8-0.3-1.5-0.8-2c-0.5-0.5-1.2-0.8-1.9-0.8s-1.4,0.3-1.9,0.8
			c-0.5,0.5-0.8,1.2-0.8,2C71.9,14.6,72.2,15.2,72.7,15.8z"/>
		<path class="st9" d="M79.5,17.3v-7h1.1l3.4,5.5h0l0-1.4v-4.1h0.9v7H84l-3.6-5.7h0l0,1.4v4.4H79.5z"/>
		<path class="st9" d="M86.5,17.3v-7h0.9v7H86.5z"/>
		<path class="st9" d="M89.1,17.3v-7h2.5c0.6,0,1,0.2,1.4,0.5c0.4,0.4,0.6,0.8,0.6,1.4c0,0.3-0.1,0.6-0.3,0.9
			c-0.2,0.3-0.4,0.4-0.7,0.6v0c0.3,0.1,0.6,0.3,0.9,0.6c0.2,0.3,0.3,0.6,0.3,1c0,0.6-0.2,1.1-0.6,1.4c-0.4,0.4-0.9,0.6-1.5,0.6H89.1
			z M90,13.2h1.6c0.3,0,0.6-0.1,0.8-0.3c0.2-0.2,0.3-0.5,0.3-0.7s-0.1-0.5-0.3-0.7c-0.2-0.2-0.5-0.3-0.8-0.3H90V13.2z M90,16.4h1.8
			c0.3,0,0.6-0.1,0.8-0.4c0.2-0.2,0.3-0.5,0.3-0.8c0-0.3-0.1-0.6-0.3-0.8c-0.2-0.2-0.5-0.4-0.9-0.4H90V16.4z"/>
		<path class="st9" d="M95.1,17.3v-7H96v6.2h3.1v0.9H95.1z"/>
		<path class="st9" d="M104.3,11.1h-3.2v2.2h2.9v0.8h-2.9v2.2h3.2v0.9h-4.1v-7h4.1V11.1z"/>
		<path class="st9" d="M109.8,17.4c-0.5,0-1-0.2-1.5-0.5c-0.5-0.3-0.8-0.8-1-1.4l0.8-0.3c0.1,0.4,0.3,0.7,0.6,1
			c0.3,0.3,0.6,0.4,1,0.4c0.4,0,0.7-0.1,1-0.3c0.3-0.2,0.4-0.5,0.4-0.8c0-0.4-0.1-0.7-0.4-0.9c-0.3-0.2-0.7-0.4-1.3-0.6
			c-0.6-0.2-1.1-0.5-1.4-0.8c-0.3-0.3-0.5-0.7-0.5-1.2c0-0.5,0.2-0.9,0.6-1.3c0.4-0.4,0.9-0.6,1.6-0.6c0.6,0,1.1,0.1,1.5,0.4
			c0.4,0.3,0.6,0.6,0.7,1l-0.8,0.3c-0.1-0.2-0.2-0.4-0.4-0.6c-0.2-0.2-0.5-0.3-0.9-0.3c-0.3,0-0.6,0.1-0.9,0.3
			c-0.2,0.2-0.4,0.4-0.4,0.7c0,0.3,0.1,0.5,0.3,0.7c0.2,0.2,0.6,0.3,1,0.5c0.3,0.1,0.6,0.2,0.9,0.3c0.2,0.1,0.5,0.2,0.7,0.4
			c0.2,0.2,0.4,0.4,0.5,0.7c0.1,0.3,0.2,0.6,0.2,0.9c0,0.3-0.1,0.6-0.2,0.9c-0.1,0.3-0.3,0.5-0.6,0.6c-0.2,0.2-0.5,0.3-0.8,0.4
			C110.4,17.4,110.1,17.4,109.8,17.4z"/>
		<path class="st9" d="M115.9,17.4c-0.8,0-1.4-0.3-1.9-0.8c-0.5-0.5-0.7-1.2-0.7-2v-4.4h0.9v4.5c0,0.6,0.1,1,0.4,1.4
			c0.3,0.3,0.7,0.5,1.3,0.5c0.6,0,1-0.2,1.3-0.5c0.3-0.3,0.4-0.8,0.4-1.4v-4.5h0.9v4.4c0,0.8-0.2,1.5-0.7,2
			C117.3,17.2,116.7,17.4,115.9,17.4z"/>
		<path class="st9" d="M120,17.3v-7h2.4c0.6,0,1.1,0.2,1.6,0.6c0.4,0.4,0.7,0.9,0.7,1.5c0,0.5-0.2,0.9-0.5,1.3
			c-0.3,0.4-0.7,0.6-1.2,0.7l0,0l2,2.9v0h-1.1l-1.9-2.9h-1v2.9H120z M120.9,13.6h1.5c0.4,0,0.7-0.1,0.9-0.4c0.3-0.2,0.4-0.5,0.4-0.9
			c0-0.3-0.1-0.6-0.3-0.8c-0.2-0.3-0.5-0.4-0.9-0.4h-1.5V13.6z"/>
	</g>
</g>
</svg>
