<?xml version="1.0" encoding="utf-8"?>
<!-- Generator: Adobe Illustrator 24.0.3, SVG Export Plug-In . SVG Version: 6.00 Build 0)  -->
<svg version="1.1" id="Calque_1" xmlns="http://www.w3.org/2000/svg" xmlns:xlink="http://www.w3.org/1999/xlink" x="0px" y="0px"
	 width="42px" height="42px" viewBox="0 0 42 42" style="enable-background:new 0 0 42 42;" xml:space="preserve">
<style type="text/css">
	.st0{fill:#1E327E;}
	.st1{fill:#FFFFFF;}
</style>
<circle class="st0" cx="21" cy="21" r="20"/>
<g>
	<path class="st1" d="M19.8,26.5c-0.4-0.9-0.9-1.9-1.3-2.9c-0.4-1-0.8-2-1.2-3c-0.4-1-0.7-1.9-1.1-2.8c-0.3-0.9-0.6-1.7-0.8-2.4h2.8
		c0.2,0.6,0.4,1.3,0.7,2.1s0.5,1.5,0.8,2.2c0.3,0.7,0.5,1.4,0.8,2.1c0.2,0.7,0.5,1.3,0.7,1.7c0.2-0.5,0.4-1.1,0.7-1.7
		s0.5-1.4,0.8-2.1c0.3-0.7,0.5-1.5,0.8-2.2c0.3-0.7,0.5-1.4,0.7-2.1h2.7c-0.2,0.7-0.5,1.5-0.9,2.4s-0.7,1.8-1.1,2.8
		c-0.4,1-0.8,2-1.2,3s-0.9,2-1.3,2.9H19.8z"/>
</g>
</svg>
