<?xml version="1.0" encoding="utf-8"?>
<!-- Generator: Adobe Illustrator 24.0.3, SVG Export Plug-In . SVG Version: 6.00 Build 0)  -->
<svg version="1.1" id="Calque_1" xmlns="http://www.w3.org/2000/svg" xmlns:xlink="http://www.w3.org/1999/xlink" x="0px" y="0px"
	 width="23px" height="19px" viewBox="0 0 23 19" style="enable-background:new 0 0 23 19;" xml:space="preserve">
<style type="text/css">
	.st0{fill:#13A569;}
</style>
<path class="st0" d="M19.6,3.7c0,0,1.6-1.3,1.7-2.4c0,0-1.1,0.8-2.7,1c0,0-1.5-1.9-4.3-1.2c-2.8,0.7-3.4,3.8-3.1,5
	c0,0-4.9,0.1-8.8-4.4c0,0-1.9,3.2,1.4,5.7c0,0-1.6-0.1-2-0.5c0,0-0.2,3.4,3.5,4.2c0,0-0.9,0.3-2,0.2c0,0,0.9,2.8,4,2.9
	c0,0-2.8,2.3-6.4,1.8c0,0,3.8,2.8,9,1.7c0.2-0.1,0.5-0.1,0.8-0.2c3.3-1,6.1-3.1,7.7-6.2c0.1-0.2,0.2-0.4,0.3-0.6
	c0.7-1.5,1.2-3.4,1.1-5.5c0,0,1.6-1.1,2.1-2.2C22,3,20.9,3.5,19.6,3.7z"/>
</svg>
