<?xml version="1.0" encoding="utf-8"?>
<!-- Generator: Adobe Illustrator 24.0.3, SVG Export Plug-In . SVG Version: 6.00 Build 0)  -->
<svg version="1.1" id="Calque_1" xmlns="http://www.w3.org/2000/svg" xmlns:xlink="http://www.w3.org/1999/xlink" x="0px" y="0px"
	 width="42px" height="42px" viewBox="0 0 42 42" style="enable-background:new 0 0 42 42;" xml:space="preserve">
<style type="text/css">
	.st0{fill:#1E327E;}
	.st1{fill:#FFFFFF;}
</style>
<circle class="st0" cx="21" cy="21" r="20"/>
<g>
	<path class="st1" d="M20.7,24.7c0.4,0,0.6,0,0.9-0.1c0.2-0.1,0.4-0.1,0.6-0.2c0.1-0.1,0.2-0.2,0.3-0.4c0.1-0.1,0.1-0.3,0.1-0.5
		c0-0.4-0.2-0.7-0.5-0.9c-0.3-0.2-0.9-0.5-1.8-0.8c-0.4-0.1-0.7-0.3-1.1-0.4c-0.4-0.2-0.7-0.4-1-0.6s-0.5-0.6-0.7-0.9
		s-0.3-0.8-0.3-1.3c0-0.5,0.1-1,0.3-1.4c0.2-0.4,0.5-0.8,0.8-1c0.4-0.3,0.8-0.5,1.3-0.7c0.5-0.2,1.1-0.2,1.7-0.2
		c0.7,0,1.4,0.1,1.9,0.2s1,0.3,1.3,0.5l-0.7,2c-0.3-0.2-0.7-0.3-1-0.4c-0.4-0.1-0.8-0.2-1.4-0.2c-0.6,0-1,0.1-1.3,0.2
		c-0.3,0.2-0.4,0.4-0.4,0.8c0,0.2,0,0.4,0.1,0.5c0.1,0.1,0.2,0.3,0.4,0.4c0.2,0.1,0.4,0.2,0.6,0.3c0.2,0.1,0.5,0.2,0.8,0.3
		c0.6,0.2,1.1,0.4,1.5,0.6s0.8,0.5,1.1,0.7c0.3,0.3,0.5,0.6,0.6,1S25,23,25,23.5c0,1-0.4,1.8-1.1,2.4s-1.8,0.9-3.3,0.9
		c-0.5,0-0.9,0-1.3-0.1c-0.4-0.1-0.7-0.1-1-0.2c-0.3-0.1-0.6-0.2-0.8-0.3S17.1,26,17,25.9l0.7-2c0.3,0.2,0.7,0.3,1.2,0.5
		S20,24.7,20.7,24.7z"/>
</g>
</svg>
