<?xml version="1.0" encoding="utf-8"?>
<!-- Generator: Adobe Illustrator 24.0.3, SVG Export Plug-In . SVG Version: 6.00 Build 0)  -->
<svg version="1.1" id="Calque_1" xmlns="http://www.w3.org/2000/svg" xmlns:xlink="http://www.w3.org/1999/xlink" x="0px" y="0px"
	 width="42px" height="42px" viewBox="0 0 42 42" style="enable-background:new 0 0 42 42;" xml:space="preserve">
<style type="text/css">
	.st0{fill:#1E327E;}
	.st1{fill:#FFFFFF;}
</style>
<circle class="st0" cx="21" cy="21" r="20"/>
<g>
	<path class="st1" d="M25.9,21c0,1-0.1,1.8-0.4,2.5c-0.3,0.7-0.7,1.3-1.3,1.8c-0.5,0.5-1.2,0.8-2,1.1c-0.8,0.2-1.7,0.4-2.7,0.4
		c-0.4,0-1,0-1.6-0.1s-1.2-0.1-1.8-0.2V15.6c0.6-0.1,1.2-0.2,1.8-0.2c0.6,0,1.2-0.1,1.6-0.1c0.9,0,1.8,0.1,2.6,0.3
		c0.8,0.2,1.4,0.5,2,1c0.6,0.5,1,1,1.3,1.8C25.7,19.1,25.9,20,25.9,21z M18.6,24.5c0.1,0,0.3,0,0.4,0c0.2,0,0.3,0,0.6,0
		c1.2,0,2.2-0.3,2.8-0.9s0.9-1.5,0.9-2.6c0-1.2-0.3-2-0.9-2.6s-1.5-0.9-2.7-0.9c-0.2,0-0.3,0-0.5,0s-0.4,0-0.5,0V24.5z"/>
</g>
</svg>
