<?xml version="1.0" encoding="utf-8"?>
<!-- Generator: Adobe Illustrator 24.0.3, SVG Export Plug-In . SVG Version: 6.00 Build 0)  -->
<svg version="1.1" id="Calque_1" xmlns="http://www.w3.org/2000/svg" xmlns:xlink="http://www.w3.org/1999/xlink" x="0px" y="0px"
	 width="42px" height="42px" viewBox="0 0 42 42" style="enable-background:new 0 0 42 42;" xml:space="preserve">
<style type="text/css">
	.st0{fill:#b9eeee;}
	.st1{fill:#FFFFFF;}
</style>
<circle class="st0" cx="21" cy="21" r="20"/>
<g>
	<path class="st1" d="M24.6,22.7c0,0.5-0.1,1.1-0.2,1.5c-0.1,0.5-0.3,0.9-0.6,1.3c-0.3,0.4-0.7,0.6-1.2,0.8s-1.2,0.3-2,0.3
		c-0.7,0-1.3-0.1-1.9-0.3c-0.5-0.2-1-0.4-1.3-0.6l0.8-1.9c0.3,0.2,0.6,0.3,1,0.5c0.4,0.1,0.7,0.2,1.2,0.2c0.6,0,1-0.1,1.3-0.4
		c0.3-0.3,0.4-0.8,0.4-1.5v-7.2h2.5V22.7z"/>
</g>
</svg>
