<?xml version="1.0" encoding="utf-8"?>
<!-- Generator: Adobe Illustrator 24.0.3, SVG Export Plug-In . SVG Version: 6.00 Build 0)  -->
<svg version="1.1" id="Calque_1" xmlns="http://www.w3.org/2000/svg" xmlns:xlink="http://www.w3.org/1999/xlink" x="0px" y="0px"
	 width="42px" height="42px" viewBox="0 0 42 42" style="enable-background:new 0 0 42 42;" xml:space="preserve">
<style type="text/css">
	.st0{fill:#C1C9E1;}
	.st1{fill:#FFFFFF;}
</style>
<circle class="st0" cx="21" cy="21" r="20"/>
<g>
	<path class="st1" d="M13.7,15.4c0.2,0.4,0.4,0.8,0.7,1.3c0.3,0.5,0.5,1.1,0.8,1.7s0.5,1.2,0.8,1.8c0.3,0.6,0.5,1.2,0.8,1.8
		c0.2-0.6,0.5-1.1,0.8-1.8s0.5-1.2,0.8-1.8c0.3-0.6,0.5-1.2,0.8-1.7c0.3-0.5,0.5-1,0.7-1.3H22c0.1,0.7,0.2,1.6,0.3,2.5
		c0.1,0.9,0.2,1.9,0.2,2.8c0.1,1,0.1,2,0.2,3c0.1,1,0.1,1.9,0.2,2.8h-2.4c0-1.1-0.1-2.3-0.1-3.5c-0.1-1.3-0.1-2.5-0.2-3.8
		c-0.2,0.4-0.4,0.9-0.6,1.5s-0.5,1.1-0.7,1.6c-0.2,0.5-0.5,1.1-0.7,1.6c-0.2,0.5-0.4,0.9-0.5,1.3h-1.7c-0.1-0.4-0.3-0.8-0.5-1.3
		c-0.2-0.5-0.4-1-0.7-1.6c-0.2-0.5-0.5-1.1-0.7-1.6c-0.2-0.5-0.5-1-0.6-1.5c-0.1,1.3-0.2,2.6-0.2,3.8c-0.1,1.3-0.1,2.4-0.1,3.5h-2.4
		c0-0.9,0.1-1.8,0.2-2.8c0.1-1,0.1-2,0.2-3c0.1-1,0.1-1.9,0.2-2.8c0.1-0.9,0.2-1.7,0.3-2.5H13.7z"/>
	<path class="st1" d="M27.9,17.8c0.7,0,1.3,0.1,1.8,0.2c0.5,0.2,0.8,0.4,1.1,0.7c0.3,0.3,0.5,0.7,0.6,1.1c0.1,0.4,0.2,0.9,0.2,1.4v5
		c-0.3,0.1-0.8,0.2-1.4,0.3c-0.6,0.1-1.3,0.2-2.2,0.2c-0.5,0-1,0-1.5-0.1c-0.4-0.1-0.8-0.3-1.1-0.5c-0.3-0.2-0.6-0.5-0.7-0.9
		c-0.2-0.4-0.3-0.8-0.3-1.3c0-0.5,0.1-0.9,0.3-1.2c0.2-0.3,0.5-0.6,0.8-0.8c0.3-0.2,0.7-0.3,1.1-0.4c0.4-0.1,0.9-0.1,1.3-0.1
		c0.3,0,0.6,0,0.8,0c0.2,0,0.4,0.1,0.6,0.1v-0.2c0-0.4-0.1-0.7-0.4-1c-0.2-0.2-0.7-0.4-1.3-0.4c-0.4,0-0.8,0-1.2,0.1s-0.7,0.1-1,0.2
		l-0.3-1.9c0.1,0,0.3-0.1,0.5-0.1s0.4-0.1,0.7-0.1c0.2,0,0.5-0.1,0.8-0.1C27.4,17.8,27.7,17.8,27.9,17.8z M28.1,24.8
		c0.2,0,0.5,0,0.7,0c0.2,0,0.4,0,0.5,0v-1.8c-0.1,0-0.2,0-0.4-0.1c-0.2,0-0.4,0-0.5,0c-0.2,0-0.4,0-0.6,0c-0.2,0-0.4,0.1-0.5,0.2
		s-0.3,0.2-0.4,0.3c-0.1,0.1-0.1,0.3-0.1,0.5c0,0.4,0.1,0.6,0.4,0.8C27.3,24.7,27.7,24.8,28.1,24.8z"/>
</g>
</svg>
