<?xml version="1.0" encoding="utf-8"?>
<!-- Generator: Adobe Illustrator 24.0.3, SVG Export Plug-In . SVG Version: 6.00 Build 0)  -->
<svg version="1.1" id="Calque_1" xmlns="http://www.w3.org/2000/svg" xmlns:xlink="http://www.w3.org/1999/xlink" x="0px" y="0px"
	 width="42px" height="42px" viewBox="0 0 42 42" style="enable-background:new 0 0 42 42;" xml:space="preserve">
<style type="text/css">
	.st0{fill:#1E327E;}
	.st1{fill:#FFFFFF;}
</style>
<circle class="st0" cx="21" cy="21" r="20"/>
<g>
	<path class="st1" d="M13.3,15.3c0.2,0.4,0.4,0.8,0.7,1.3c0.3,0.5,0.5,1.1,0.8,1.7s0.5,1.2,0.8,1.8c0.3,0.6,0.5,1.2,0.8,1.8
		c0.2-0.6,0.5-1.1,0.8-1.8s0.5-1.2,0.8-1.8c0.3-0.6,0.5-1.2,0.8-1.7c0.3-0.5,0.5-1,0.7-1.3h2.3c0.1,0.7,0.2,1.6,0.3,2.5
		c0.1,0.9,0.2,1.9,0.2,2.8c0.1,1,0.1,2,0.2,3c0.1,1,0.1,1.9,0.2,2.8H20c0-1.1-0.1-2.3-0.1-3.5c-0.1-1.3-0.1-2.5-0.2-3.8
		c-0.2,0.4-0.4,0.9-0.6,1.5s-0.5,1.1-0.7,1.6c-0.2,0.5-0.5,1.1-0.7,1.6c-0.2,0.5-0.4,0.9-0.5,1.3h-1.7c-0.1-0.4-0.3-0.8-0.5-1.3
		c-0.2-0.5-0.4-1-0.7-1.6c-0.2-0.5-0.5-1.1-0.7-1.6c-0.2-0.5-0.5-1-0.6-1.5c-0.1,1.3-0.2,2.6-0.2,3.8c-0.1,1.3-0.1,2.4-0.1,3.5H10
		c0-0.9,0.1-1.8,0.2-2.8c0.1-1,0.1-2,0.2-3c0.1-1,0.1-1.9,0.2-2.8c0.1-0.9,0.2-1.7,0.3-2.5H13.3z"/>
	<path class="st1" d="M24.1,22.3c0-0.7,0.1-1.4,0.3-2c0.2-0.6,0.5-1,0.9-1.4s0.8-0.7,1.3-0.8s1-0.3,1.5-0.3c1.2,0,2.1,0.4,2.8,1.1
		s1,1.8,1,3.2c0,0.1,0,0.3,0,0.5c0,0.2,0,0.3,0,0.4h-5.4c0.1,0.5,0.3,0.9,0.7,1.2c0.4,0.3,0.9,0.4,1.6,0.4c0.4,0,0.9,0,1.3-0.1
		c0.4-0.1,0.8-0.2,1-0.3l0.3,1.9c-0.1,0.1-0.3,0.1-0.5,0.2c-0.2,0.1-0.5,0.1-0.7,0.2c-0.3,0-0.5,0.1-0.8,0.1c-0.3,0-0.6,0-0.9,0
		c-0.8,0-1.4-0.1-2-0.3c-0.6-0.2-1-0.5-1.4-0.9c-0.4-0.4-0.6-0.9-0.8-1.4C24.2,23.5,24.1,22.9,24.1,22.3z M29.7,21.4
		c0-0.2,0-0.4-0.1-0.6s-0.1-0.4-0.3-0.5c-0.1-0.1-0.3-0.3-0.5-0.4c-0.2-0.1-0.4-0.1-0.7-0.1c-0.3,0-0.5,0-0.7,0.1
		c-0.2,0.1-0.4,0.2-0.5,0.4s-0.2,0.3-0.3,0.5s-0.1,0.4-0.2,0.6H29.7z"/>
</g>
</svg>
