<?xml version="1.0" encoding="utf-8"?>
<!-- Generator: Adobe Illustrator 22.1.0, SVG Export Plug-In . SVG Version: 6.00 Build 0)  -->
<svg version="1.1" id="Calque_1" xmlns="http://www.w3.org/2000/svg" xmlns:xlink="http://www.w3.org/1999/xlink" x="0px" y="0px"
	 viewBox="0 0 30 30" style="enable-background:new 0 0 30 30;" xml:space="preserve">
<style type="text/css">
	.st0{fill:#FFFFFF;}
	.st1{fill:#6A5686;}
	.st2{fill:#6A5687;}
	.st3{fill:#EA723A;}
	.st4{fill:#EA7239;}
	.st5{fill:#EC8351;}
	.st6{fill:#FDFDFD;}
	.st7{fill:#FBFBFB;}
	.st8{fill:#C6C6C6;}
</style>
<g>
	<path class="st0" d="M25.1,15c0,5.5-4.5,10-10,10s-10-4.5-10-10s4.5-10,10-10C20.7,5,25.1,9.4,25.1,15z"/>
	<g>
		<path d="M19.5,11.9c-0.5-0.1-1-0.2-1.4-0.3s-0.7,0.1-0.9,0.4c-0.5,0.5-0.8,1.1-0.8,1.8c-0.2,2.5,0.6,4.6,2.4,6.3
			c0.4,0.4,0.8,0.5,1.3,0.7c0.2,0.1,0.3,0.1,0.5,0.2c0.1,0.1,0.2,0.1,0.2,0.3l0,0c-0.1,0.1-0.2,0.1-0.3,0.1c-1.1-0.1-2.2-0.4-3.3-1
			c-1-0.6-1.7-1.4-2.3-2.3c-0.5-0.8-0.8-1.6-1.1-2.5c-0.1-0.5-0.1-1-0.2-1.5c-0.5-1.9-1.3-3.4-2.8-4.5c-0.5-0.3-1-0.5-1.5-0.8H9.2
			C9.1,8.8,8.9,8.7,9,8.6c0-0.1,0.2-0.1,0.3-0.1c0.4,0.1,0.9,0.2,1.3,0.4c0.7,0.2,1.5,0.4,2.2,0.8c0.6,0.3,1.1,0.7,1.5,1.3l0.1,0.1
			c0.3-0.5,0.7-0.9,1.2-1.2c0.8-0.5,1.7-0.4,2.6-0.1c0.1,0,0.2,0,0.4,0c0.9-0.2,1.7-0.3,2.6-0.4c0.1,0,0.2,0,0.3,0
			c0.1,0,0.2,0,0.2,0.1c0,0.1-0.1,0.1-0.1,0.1c-0.4,0.1-0.8,0.2-1.2,0.4c-0.4,0-0.7,0.2-1,0.3c-0.1,0.1-0.1,0.1,0,0.2
			c0.2,0.2,0.4,0.4,0.5,0.7s0.1,0.5,0,0.8C19.8,12,19.6,12,19.5,11.9z"/>
		<path class="st1" d="M10.1,11.2c0.7,0,1.3,0.6,1.3,1.3c0,0.8-0.6,1.4-1.4,1.3c-0.7,0-1.3-0.6-1.3-1.4C8.7,11.7,9.3,11.2,10.1,11.2
			z"/>
		<path class="st2" d="M11.5,16.8c-0.6,0-1-0.4-1-1c0-0.5,0.5-1,1-1s1,0.4,1,1C12.6,16.4,12.2,16.8,11.5,16.8z"/>
		<path class="st2" d="M12.8,19.3c-0.4,0-0.7-0.3-0.7-0.7s0.3-0.7,0.8-0.7c0.4,0,0.7,0.3,0.7,0.8C13.6,19,13.2,19.3,12.8,19.3z"/>
		<path class="st3" d="M19.5,11.9c0.2,0,0.3,0,0.5,0c0.3,0.5,0.5,1.1,0.6,1.7v0.1c0,0,0,0.1,0,0.2c-0.1-0.2-0.2-0.3-0.3-0.4
			c-0.4-0.5-0.8-0.9-1.4-1.3c0-0.1,0-0.1,0.1,0c0.1,0,0.2,0.1,0.3,0.1c0.1,0,0.2,0.1,0.3,0s0-0.2,0-0.3C19.5,12,19.5,12,19.5,11.9z"
			/>
		<path class="st4" d="M21.3,18.1c0,0.3-0.2,0.6-0.6,0.6c-0.3,0-0.6-0.2-0.6-0.6c0-0.3,0.3-0.6,0.6-0.6S21.3,17.7,21.3,18.1z"/>
		<path class="st3" d="M20.7,19.8c0,0.3-0.2,0.5-0.5,0.5s-0.5-0.2-0.5-0.5s0.2-0.5,0.5-0.5S20.7,19.5,20.7,19.8z"/>
		<path class="st5" d="M19,12.2C18.9,12.2,18.9,12.2,19,12.2c-0.1,0-0.2,0-0.3-0.1C18.8,12.1,18.9,12.2,19,12.2z"/>
		<path class="st6" d="M14.4,11.8c0.2-1.1,1.3-2.1,2.4-2.1c0.1,0,0.1,0,0.2,0c0.1,0,0.2,0,0.2,0.1S17.1,10,17,10
			c-0.2,0.1-0.4,0.2-0.6,0.3c-0.9,0.3-1.6,0.9-2.1,1.7l0,0c-0.1,0-0.1,0-0.1-0.1C14.3,11.9,14.3,11.9,14.4,11.8z"/>
		<path class="st7" d="M14.4,11.8c0,0.1-0.1,0.2,0,0.3v0.1c0,0-0.1,0-0.1-0.1C14.3,12,14.3,11.9,14.4,11.8z"/>
		<path class="st8" d="M14.3,12.1L14.3,12.1c0,0.1,0,0.2-0.1,0.2C14.2,12.2,14.2,12.2,14.3,12.1z"/>
	</g>
</g>
</svg>