<?xml version="1.0" encoding="utf-8"?>
<!-- Generator: Adobe Illustrator 24.0.3, SVG Export Plug-In . SVG Version: 6.00 Build 0)  -->
<svg version="1.1" id="Calque_1" xmlns="http://www.w3.org/2000/svg" xmlns:xlink="http://www.w3.org/1999/xlink" x="0px" y="0px"
	 width="153px" height="52px" viewBox="0 0 153 52" style="enable-background:new 0 0 153 52;" xml:space="preserve">
<style type="text/css">
	.st0{fill:#A6A6A6;}
	.st1{fill:#FFFFFF;}
</style>
<g>
	<g>
		<path class="st0" d="M139.4,2H13.2c-0.4,0-0.9,0-1.3,0c-0.4,0-0.7,0-1.1,0C10,2,9.3,2.1,8.5,2.2C7.7,2.4,7,2.6,6.2,3
			C5.5,3.3,4.9,3.8,4.3,4.3C3.8,4.9,3.3,5.5,3,6.3C2.6,7,2.4,7.7,2.2,8.5C2.1,9.3,2,10.1,2,10.8c0,0.4,0,0.7,0,1.1v27.2
			c0,0.4,0,0.7,0,1.1c0,0.8,0.1,1.6,0.2,2.4c0.1,0.8,0.4,1.5,0.7,2.2c0.4,0.7,0.8,1.3,1.4,1.9c0.6,0.6,1.2,1,1.9,1.4
			c0.7,0.4,1.5,0.6,2.2,0.7C9.3,48.9,10,49,10.8,49c0.4,0,0.7,0,1.1,0c0.4,0,0.9,0,1.3,0h126.2c0.4,0,0.9,0,1.3,0c0.4,0,0.7,0,1.1,0
			c0.8,0,1.6-0.1,2.3-0.2c0.8-0.1,1.5-0.4,2.2-0.7c0.7-0.4,1.3-0.8,1.9-1.4c0.6-0.6,1-1.2,1.4-1.9c0.4-0.7,0.6-1.5,0.7-2.2
			c0.1-0.8,0.2-1.6,0.2-2.4c0-0.4,0-0.7,0-1.1c0-0.4,0-0.9,0-1.3V13.2c0-0.4,0-0.9,0-1.3c0-0.4,0-0.7,0-1.1c0-0.8-0.1-1.6-0.2-2.4
			c-0.1-0.8-0.4-1.5-0.7-2.2c-0.7-1.4-1.9-2.6-3.3-3.3c-0.7-0.4-1.5-0.6-2.2-0.7c-0.8-0.1-1.6-0.2-2.3-0.2c-0.4,0-0.7,0-1.1,0
			C140.3,2,139.9,2,139.4,2L139.4,2z"/>
		<path d="M11.9,48c-0.4,0-0.7,0-1.1,0c-0.7,0-1.5-0.1-2.2-0.2c-0.7-0.1-1.3-0.3-1.9-0.6c-0.6-0.3-1.2-0.7-1.6-1.2
			c-0.5-0.5-0.9-1-1.2-1.6c-0.3-0.6-0.5-1.3-0.6-1.9c-0.1-0.7-0.2-1.5-0.2-2.2c0-0.2,0-1.1,0-1.1V11.9c0,0,0-0.8,0-1.1
			c0-0.7,0.1-1.5,0.2-2.2c0.1-0.7,0.3-1.3,0.6-2c0.3-0.6,0.7-1.2,1.2-1.6c0.5-0.5,1-0.9,1.6-1.2C7.3,3.6,8,3.3,8.7,3.2
			c0.7-0.1,1.5-0.2,2.2-0.2l1.1,0h128.8l1.1,0c0.7,0,1.5,0.1,2.2,0.2c0.7,0.1,1.3,0.3,2,0.6c1.2,0.6,2.2,1.6,2.8,2.8
			c0.3,0.6,0.5,1.3,0.6,1.9c0.1,0.7,0.2,1.5,0.2,2.2c0,0.3,0,0.7,0,1c0,0.4,0,0.9,0,1.3v24.6c0,0.4,0,0.8,0,1.3c0,0.4,0,0.7,0,1.1
			c0,0.7-0.1,1.5-0.2,2.2c-0.1,0.7-0.3,1.3-0.6,2c-0.3,0.6-0.7,1.2-1.2,1.6c-0.5,0.5-1,0.9-1.6,1.2c-0.6,0.3-1.3,0.5-2,0.6
			c-0.7,0.1-1.5,0.2-2.2,0.2c-0.3,0-0.7,0-1.1,0l-1.3,0L11.9,48z"/>
	</g>
	<g>
		<g id="_Group__2_">
			<g id="_Group_2_2_">
				<g id="_Group_3_2_">
					<path id="_Path__2_" class="st1" d="M31.1,25.9c0-2,1.1-3.8,2.8-4.9c-1.1-1.5-2.8-2.5-4.7-2.5c-2-0.2-3.9,1.2-4.9,1.2
						c-1,0-2.6-1.2-4.2-1.1c-2.2,0.1-4.2,1.3-5.3,3.2c-2.3,3.9-0.6,9.7,1.6,12.9c1.1,1.6,2.4,3.3,4,3.2c1.6-0.1,2.2-1,4.2-1
						c1.9,0,2.5,1,4.2,1c1.7,0,2.9-1.6,3.9-3.1c0.8-1.1,1.4-2.3,1.8-3.6C32.5,30.1,31.1,28.1,31.1,25.9z"/>
					<path id="_Path_2_2_" class="st1" d="M27.9,16.3c1-1.1,1.4-2.6,1.3-4.1c-1.5,0.2-2.8,0.8-3.8,2c-1,1.1-1.4,2.5-1.3,3.9
						C25.6,18.2,27,17.5,27.9,16.3z"/>
				</g>
			</g>
		</g>
		<g id="_Group_4_2_">
			<g>
				<path class="st1" d="M43.9,19.3v-6h-2.2v-1h5.5v1H45v6H43.9z"/>
				<path class="st1" d="M52.2,17.8c-0.3,1-1.3,1.6-2.3,1.5c-1.3,0-2.4-1-2.5-2.3c0-0.1,0-0.3,0-0.4c-0.2-1.3,0.8-2.6,2.1-2.7
					c0.1,0,0.2,0,0.3,0c1.5,0,2.4,1,2.4,2.7v0.4h-3.7V17c-0.1,0.8,0.5,1.4,1.3,1.5c0,0,0.1,0,0.1,0c0.5,0.1,1-0.2,1.3-0.6L52.2,17.8
					z M48.6,16.1h2.7c0.1-0.7-0.5-1.3-1.2-1.4c0,0-0.1,0-0.1,0C49.2,14.8,48.6,15.4,48.6,16.1C48.6,16.1,48.6,16.1,48.6,16.1
					L48.6,16.1z M49.3,13.1l1.2-1.7h1.2l-1.4,1.7H49.3z"/>
				<path class="st1" d="M53.8,11.9h1v7.4h-1V11.9z"/>
				<path class="st1" d="M61,17.8c-0.3,1-1.3,1.6-2.3,1.5c-1.3,0-2.4-1-2.5-2.3c0-0.1,0-0.3,0-0.4c-0.2-1.3,0.8-2.6,2.1-2.7
					c0.1,0,0.2,0,0.3,0c1.5,0,2.4,1,2.4,2.7v0.4h-3.7V17c-0.1,0.8,0.5,1.4,1.3,1.5c0,0,0.1,0,0.1,0c0.5,0.1,1-0.2,1.3-0.6L61,17.8z
					 M57.3,16.1H60c0.1-0.7-0.5-1.3-1.2-1.4c0,0-0.1,0-0.1,0C57.9,14.8,57.3,15.4,57.3,16.1C57.3,16.1,57.3,16.1,57.3,16.1z
					 M58.1,13.1l1.2-1.7h1.2l-1.4,1.7H58.1z"/>
				<path class="st1" d="M65.9,15.7c-0.1-0.6-0.7-0.9-1.2-0.9c-0.9,0-1.4,0.7-1.4,1.8c0,1.1,0.5,1.8,1.4,1.8
					c0.6,0.1,1.1-0.3,1.2-0.9h1c-0.1,1.1-1.1,1.9-2.3,1.8c-1.3,0-2.5-1-2.5-2.4c0-0.1,0-0.3,0-0.4c-0.2-1.3,0.8-2.5,2.1-2.7
					c0.1,0,0.3,0,0.4,0c1.1-0.1,2.1,0.7,2.3,1.8L65.9,15.7z"/>
				<path class="st1" d="M68.3,11.9h1v2.9h0.1c0.3-0.6,0.9-1,1.6-0.9c1-0.1,1.8,0.7,1.8,1.6c0,0.1,0,0.2,0,0.3v3.4h-1v-3.2
					c0-0.8-0.4-1.3-1.1-1.3c-0.7-0.1-1.3,0.5-1.3,1.1c0,0.1,0,0.1,0,0.2v3.1h-1L68.3,11.9z"/>
				<path class="st1" d="M74.2,17.8c0-1,0.7-1.5,2-1.6l1.4-0.1v-0.5c0-0.6-0.4-0.9-1.1-0.9c-0.6,0-1,0.2-1.1,0.6h-1
					c0.1-0.9,1-1.5,2.2-1.5c1.3,0,2.1,0.7,2.1,1.8v3.6h-1v-0.7h-0.1c-0.3,0.5-0.9,0.9-1.6,0.8c-0.9,0.1-1.7-0.5-1.8-1.4
					C74.2,17.9,74.2,17.8,74.2,17.8z M77.6,17.3v-0.4L76.3,17c-0.7,0-1.1,0.3-1.1,0.8c0,0.5,0.4,0.8,1,0.8
					C76.9,18.6,77.5,18.1,77.6,17.3C77.6,17.4,77.6,17.3,77.6,17.3L77.6,17.3z"/>
				<path class="st1" d="M80.3,14h1v0.8h0.1c0.2-0.6,0.8-0.9,1.4-0.9c0.2,0,0.3,0,0.5,0v1c-0.2,0-0.4-0.1-0.6-0.1
					c-0.7-0.1-1.3,0.4-1.3,1.1c0,0,0,0.1,0,0.1v3.1h-1L80.3,14z"/>
				<path class="st1" d="M84.2,19.8h1.1c0.1,0.4,0.5,0.6,1.2,0.6c0.9,0,1.4-0.4,1.4-1.1v-1h-0.1c-0.3,0.6-1,0.9-1.6,0.9
					c-1.4,0-2.2-1-2.2-2.6c0-1.6,0.8-2.7,2.2-2.7c0.7,0,1.3,0.3,1.7,0.9h0.1V14h1v5.3c0,1.2-0.9,2-2.4,2
					C85.2,21.3,84.3,20.7,84.2,19.8z M87.9,16.6c0-1.1-0.5-1.7-1.4-1.7c-0.9,0-1.4,0.7-1.4,1.7c0,1.1,0.5,1.7,1.4,1.7
					C87.4,18.3,87.9,17.6,87.9,16.6L87.9,16.6z"/>
				<path class="st1" d="M95.1,17.8c-0.3,1-1.3,1.6-2.3,1.5c-1.3,0-2.4-1-2.5-2.3c0-0.1,0-0.3,0-0.4c-0.2-1.3,0.8-2.6,2.1-2.7
					c0.1,0,0.2,0,0.3,0c1.5,0,2.4,1,2.4,2.7v0.4h-3.7V17c-0.1,0.8,0.5,1.4,1.3,1.5c0,0,0.1,0,0.1,0c0.5,0.1,1-0.2,1.3-0.6L95.1,17.8
					z M91.4,16.1h2.7c0.1-0.7-0.5-1.3-1.2-1.4c0,0-0.1,0-0.1,0C92,14.8,91.4,15.4,91.4,16.1C91.4,16.1,91.4,16.1,91.4,16.1
					L91.4,16.1z"/>
				<path class="st1" d="M96.5,14h1v0.8h0.1c0.2-0.6,0.8-0.9,1.4-0.9c0.2,0,0.3,0,0.5,0v1c-0.2,0-0.4-0.1-0.6-0.1
					c-0.7-0.1-1.3,0.4-1.3,1.1c0,0,0,0.1,0,0.1v3.1h-1V14z"/>
				<path class="st1" d="M103.3,16.6c0-1.7,0.9-2.7,2.2-2.7c0.7,0,1.3,0.3,1.6,0.9h0.1v-2.9h1v7.4h-1v-0.8h-0.1
					c-0.3,0.6-1,0.9-1.7,0.9C104.1,19.4,103.3,18.3,103.3,16.6z M104.4,16.6c0,1.1,0.5,1.8,1.4,1.8c0.9,0,1.4-0.7,1.4-1.8
					c0-1.1-0.5-1.8-1.4-1.8C104.9,14.8,104.4,15.5,104.4,16.6L104.4,16.6z"/>
				<path class="st1" d="M109.6,17.8c0-1,0.7-1.5,2-1.6l1.4-0.1v-0.5c0-0.6-0.4-0.9-1.1-0.9c-0.6,0-1,0.2-1.1,0.6h-1
					c0.1-0.9,1-1.5,2.2-1.5c1.3,0,2.1,0.7,2.1,1.8v3.6h-1v-0.7H113c-0.3,0.5-0.9,0.9-1.6,0.8c-0.9,0.1-1.7-0.5-1.8-1.4
					C109.6,17.9,109.6,17.8,109.6,17.8z M113,17.3v-0.4l-1.3,0.1c-0.7,0-1.1,0.3-1.1,0.8c0,0.5,0.4,0.8,1,0.8
					C112.3,18.6,113,18.1,113,17.3C113,17.4,113,17.3,113,17.3L113,17.3z"/>
				<path class="st1" d="M115.7,14h1v0.8h0.1c0.3-0.6,0.9-1,1.6-0.9c0.9-0.1,1.8,0.6,1.8,1.6c0,0.1,0,0.3,0,0.4v3.4h-1v-3.2
					c0-0.9-0.4-1.3-1.1-1.3c-0.7,0-1.2,0.5-1.3,1.2c0,0.1,0,0.1,0,0.2v3.1h-1V14z"/>
				<path class="st1" d="M123.8,13.9c1.2,0,2,0.6,2.1,1.5h-1c-0.1-0.4-0.5-0.6-1.1-0.6c-0.6,0-1,0.3-1,0.7c0,0.3,0.3,0.5,0.8,0.6
					l0.9,0.2c1,0.2,1.5,0.7,1.5,1.4c0,1-0.9,1.7-2.2,1.7c-1.3,0-2.1-0.6-2.2-1.5h1c0.2,0.5,0.7,0.7,1.2,0.7c0.7,0,1.1-0.3,1.1-0.7
					c0-0.3-0.2-0.5-0.8-0.6l-0.9-0.2c-1-0.2-1.5-0.7-1.5-1.5C121.7,14.5,122.6,13.9,123.8,13.9z"/>
			</g>
		</g>
	</g>
	<g>
		<path class="st1" d="M43.4,23.2h2.2v14.6h-2.2V23.2z"/>
		<path class="st1" d="M48.2,28.6l1.2-5.3h2.1L50,28.6H48.2z"/>
		<path class="st1" d="M59.7,33.9h-5.6l-1.3,3.9h-2.4l5.3-14.6h2.4l5.3,14.6h-2.4L59.7,33.9z M54.8,32.1h4.4L57,25.7h-0.1L54.8,32.1
			z"/>
		<path class="st1" d="M74.9,32.5c0,3.3-1.8,5.4-4.4,5.4c-1.4,0.1-2.7-0.7-3.3-1.9H67v5.3h-2.2V27.2h2.1V29h0c0.7-1.2,2-1.9,3.4-1.9
			C73.1,27.1,74.9,29.2,74.9,32.5z M72.6,32.5c0-2.2-1.1-3.6-2.8-3.6c-1.7,0-2.8,1.4-2.8,3.6c0,2.1,1.1,3.6,2.8,3.6
			C71.5,36.1,72.6,34.7,72.6,32.5z"/>
		<path class="st1" d="M86.6,32.5c0,3.3-1.8,5.4-4.4,5.4c-1.4,0.1-2.7-0.7-3.3-1.9h-0.1v5.3h-2.2V27.2h2.1V29h0
			c0.7-1.2,2-1.9,3.4-1.9C84.8,27.1,86.6,29.2,86.6,32.5z M84.3,32.5c0-2.2-1.1-3.6-2.8-3.6c-1.7,0-2.8,1.4-2.8,3.6
			c0,2.1,1.1,3.6,2.8,3.6C83.2,36.1,84.3,34.7,84.3,32.5z"/>
		<path class="st1" d="M94.3,33.8c0.2,1.4,1.6,2.4,3.5,2.4c1.8,0,3.2-1,3.2-2.3c0-1.1-0.8-1.8-2.7-2.3l-1.9-0.5
			c-2.7-0.6-3.9-1.9-3.9-3.9c0-2.5,2.2-4.2,5.3-4.2c3.1,0,5.2,1.7,5.3,4.2h-2.2c-0.1-1.5-1.3-2.3-3.1-2.3c-1.8,0-3,0.9-3,2.2
			c0,1,0.8,1.6,2.6,2.1l1.6,0.4c3,0.7,4.2,1.9,4.2,4c0,2.7-2.2,4.4-5.6,4.4c-3.2,0-5.4-1.7-5.6-4.3L94.3,33.8z"/>
		<path class="st1" d="M108,24.7v2.5h2v1.7h-2v5.9c0,0.9,0.4,1.3,1.3,1.3c0.2,0,0.5,0,0.7-0.1v1.7c-0.4,0.1-0.8,0.1-1.2,0.1
			c-2.2,0-3-0.8-3-2.9v-6.1h-1.5v-1.7h1.5v-2.5H108z"/>
		<path class="st1" d="M111.2,32.5c0-3.3,2-5.5,5-5.5c3.1,0,5,2.1,5,5.5c0,3.4-2,5.5-5,5.5C113.1,38,111.2,35.9,111.2,32.5z
			 M119,32.5c0-2.3-1.1-3.7-2.8-3.7s-2.8,1.4-2.8,3.7c0,2.3,1.1,3.7,2.8,3.7S119,34.8,119,32.5L119,32.5z"/>
		<path class="st1" d="M123.1,27.2h2.1V29h0.1c0.3-1.2,1.4-2,2.6-1.9c0.3,0,0.5,0,0.7,0.1v2c-0.3-0.1-0.6-0.1-1-0.1
			c-1.2,0-2.2,0.9-2.3,2.1c0,0.1,0,0.2,0,0.3v6.3h-2.2L123.1,27.2z"/>
		<path class="st1" d="M138.6,34.7c-0.3,1.9-2.2,3.3-4.6,3.3c-3.1,0-5-2.1-5-5.4c0-3.3,1.9-5.5,4.9-5.5c2.9,0,4.8,2,4.8,5.2V33h-7.5
			v0.1c-0.1,1.5,1,2.9,2.5,3c0.1,0,0.2,0,0.3,0c1.1,0.1,2.1-0.5,2.5-1.5L138.6,34.7z M131.2,31.5h5.3c0.1-1.4-1-2.6-2.4-2.7
			c-0.1,0-0.1,0-0.2,0C132.4,28.8,131.2,30,131.2,31.5C131.2,31.5,131.2,31.5,131.2,31.5z"/>
	</g>
</g>
</svg>
