<?xml version="1.0" encoding="utf-8"?>
<!-- Generator: Adobe Illustrator 22.1.0, SVG Export Plug-In . SVG Version: 6.00 Build 0)  -->
<svg version="1.1" id="Calque_1" xmlns="http://www.w3.org/2000/svg" xmlns:xlink="http://www.w3.org/1999/xlink" x="0px" y="0px"
	 width="125px" height="125px" viewBox="0 0 125 125" style="enable-background:new 0 0 125 125;" xml:space="preserve">
<style type="text/css">
	.st0{fill:#f045ab;}
</style>
<g>
	<path class="st0" d="M38.4,41.7c-6,0-10.9,4.9-10.9,10.9c0,6,4.9,10.9,10.9,10.9s10.9-4.9,10.9-10.9C49.3,46.6,44.4,41.7,38.4,41.7
		z"/>
	<path class="st0" d="M82.7,41.7c-6,0-10.9,4.9-10.9,10.9c0,6,4.9,10.9,10.9,10.9c6,0,10.9-4.9,10.9-10.9
		C93.6,46.6,88.7,41.7,82.7,41.7z"/>
	<path class="st0" d="M61.8,2C28.5,2,1.5,29,1.5,62.2c0,33.3,27,60.2,60.2,60.2c33.3,0,60.2-27,60.2-60.2C122,29,95,2,61.8,2z
		 M38.4,71.3c-10.3,0-18.6-8.4-18.6-18.6c0-10.3,8.4-18.6,18.6-18.6C48.6,34,57,42.4,57,52.6C57,62.9,48.6,71.3,38.4,71.3z
		 M82.7,96.6c-10.3,0-18.6-8.4-18.6-18.6h7.7c0,6,4.9,10.9,10.9,10.9c6,0,10.9-4.9,10.9-10.9h7.7C101.3,88.2,93,96.6,82.7,96.6z
		 M82.7,71.3c-10.3,0-18.6-8.4-18.6-18.6c0-10.3,8.4-18.6,18.6-18.6c10.3,0,18.6,8.4,18.6,18.6C101.3,62.9,93,71.3,82.7,71.3z"/>
</g>
</svg>
