<?xml version="1.0" encoding="utf-8"?>
<!-- Generator: Adobe Illustrator 25.1.0, SVG Export Plug-In . SVG Version: 6.00 Build 0)  -->
<svg version="1.1" xmlns="http://www.w3.org/2000/svg" xmlns:xlink="http://www.w3.org/1999/xlink" x="0px" y="0px" width="1920px"
	 height="1080px" viewBox="0 0 1920 1080" style="enable-background:new 0 0 1920 1080;" xml:space="preserve">
<style type="text/css">
	.st0{fill:#F046AA;}
	.st1{font-family:'Poppins-Bold';}
	.st2{font-size:24px;}
	.st3{fill:none;}
	.st4{font-size:32px;}
	.st5{font-family:'Poppins-Regular';}
	.st6{fill:none;stroke:#FFFFFF;stroke-width:7.2083;stroke-linecap:round;stroke-linejoin:round;stroke-miterlimit:10;}
	.st7{fill:#FFFFFF;stroke:#F045AB;stroke-width:2.5425;stroke-miterlimit:10;}
	.st8{fill:#FFFFFF;}
	.st9{fill:#F045AB;}
	.st10{fill:#F045AB;stroke:#F045AB;stroke-width:2.5425;stroke-miterlimit:10;}
	.st11{fill:none;stroke:#F045AB;stroke-width:1.3012;stroke-linecap:round;stroke-linejoin:round;stroke-miterlimit:10;}
	.st12{fill:none;stroke:#F045AB;stroke-width:0.239;stroke-miterlimit:10;}
	.st13{fill:#FFFFFF;stroke:#F045AB;stroke-width:0.4248;stroke-linecap:round;stroke-linejoin:round;stroke-miterlimit:10;}
	.st14{fill:#FFFFFF;stroke:#F045AB;stroke-width:0.3607;stroke-linecap:round;stroke-linejoin:round;stroke-miterlimit:10;}
	.st15{fill:none;stroke:#F045AB;stroke-width:1.9765;stroke-linecap:round;stroke-linejoin:round;stroke-miterlimit:10;}
	.st16{fill:#FFDC14;}
	.st17{fill:#F03C0D;}
	.st18{fill:#00D28C;}
	.st19{fill:#003A5D;}
	.st20{fill:#00B50B;}
	.st21{fill:#003107;}
</style>
<g id="Calque_2">
</g>
<g id="Calque_1">
	<g>
		<text transform="matrix(1 0 0 1 874.6458 556.3171)"><tspan x="0" y="0" class="st0 st1 st2">À très bientôt,</tspan><tspan x="-29.3" y="57.6" class="st0 st1 st2">L&apos;équipe Mobicoop</tspan></text>
		<rect x="540.2" y="379.9" class="st3" width="839.6" height="116.5"/>
		<text transform="matrix(1 0 0 1 552.9972 403.5894)"><tspan x="0" y="0" class="st0 st1 st4">Le service Mobicoop est en cours de maintenance </tspan><tspan x="-4.3" y="28.8" class="st0 st5 st2">pour vous offrir la toute dernière version de l&apos;interface en logiciel libre </tspan><tspan x="-8.4" y="57.6" class="st0 st5 st2">avec de nouvelles fonctionnalités. Encore un peu de patience pour un </tspan><tspan x="108.6" y="86.4" class="st0 st5 st2">covoiturage libre, sans commission et coopératif !</tspan></text>
	</g>
	<g>
		<g>
			<path class="st6" d="M13.6-304.7c-9.5,1.3-16.1,10.1-14.8,19.5c1.3,9.5,10.1,16.1,19.5,14.8c9.5-1.3,16.1-10.1,14.8-19.5
				C31.8-299.4,23.1-306,13.6-304.7z"/>
			<path class="st6" d="M62.6-301.2c-0.1-1.1-0.2-2.8-0.4-4.9c0-0.4-0.1-0.7-0.1-1.1c-1-11.5-4.1-32.5-11.7-43.3
				c-0.4-0.5-0.9-1.3-1.6-2.1l0,0c-1.9-2.5-14.7-16.8-15.5-17.5l-0.1,0c-1-1.1-1.7-1.9-2.1-2.4l2.5-0.3c-1.3-3.8-12.5-6.3-22.1-5.6
				c-35.4,2.8-110.4,13.7-148.5,19.9c-11.4,1.8-16.7,6.2-18.7,11.7l-0.1,0c-1.1,3.3-1.1,7.3-0.5,11.6l0.9,6.7
				c-2.6,1.8-2.3,4.6-2.1,6.3c0.1,0.8,0.2,1.8,0.4,2.8c0,0,0,0,0.1,0c1,7.2,2.7,19.3,4.2,29.8c0,0,0,0.1,0,0.1
				c0.1,0.6,0.2,1.2,0.2,1.7c-1,0.1-1.8,0.5-1.8,1.1c0.1,1,1.2,8.6,1.8,9c0.2,0.1,0.8,0.1,1.4,0c0.4,2.7,0.7,4.8,0.8,6.1
				c-1.5,0.6-2.5,2.2-2.3,3.9l0.1,0.8c0.3,2,2.1,3.4,4.1,3.1l11-1.5c2-0.3,3.4-2.1,3.1-4.1l-0.1-0.8c-0.1-1-0.7-1.9-1.5-2.5
				c1.5-3.6,3.5-7.5,5.6-7.6l5.2-0.8c-3.1,3.6-4.7,8.5-4,13.6c1.3,9.5,10.1,16.1,19.5,14.8c9.5-1.3,16.1-10.1,14.8-19.5
				c-0.7-5.1-3.6-9.4-7.5-12l6.2-0.8c2.1-0.5,5.9,4.6,8.4,7.7l83.4-11.6c2.8-10.8,6.9-15.4,12.8-16.2l4.4-0.6l4.4-0.6
				c6-0.8,10.2,1,15.8,10.7l1.2-0.2c-0.4,0.6-0.5,1.4-0.4,2.2c0.3,2.2,2.5,4.1,4.8,3.8l26.6-3.7l-0.6-4.4l-0.5-3.7L62.6-301.2z"/>
		</g>
		<path class="st7" d="M-137-358.5c38.2-6.2,113.1-17.1,148.5-19.9c9.6-0.8,20.7,1.8,22.1,5.6l-189.2,26
			C-153.7-352.3-148.4-356.6-137-358.5z"/>
		<path class="st7" d="M-129-267.5c1.3,9.5,10.1,16.1,19.5,14.8c9.5-1.3,16.1-10.1,14.8-19.5c-1.3-9.5-10.1-16.1-19.5-14.8
			C-123.7-285.7-130.3-276.9-129-267.5z"/>
		<path class="st7" d="M-1.2-285.2c1.3,9.5,10.1,16.1,19.5,14.8c9.5-1.3,16.1-10.1,14.8-19.5c-1.3-9.5-10.1-16.1-19.5-14.8
			C4.1-303.4-2.5-294.7-1.2-285.2z"/>
		<path class="st7" d="M24.3-342.9c-47.7,2.5-181.2,23.6-181.3,23.6c1,7.2,2.7,19.3,4.2,29.8c0,0,0,0.1,0,0.1
			c1.5,10.6,2.7,19.3,2.7,19.3l14.1-1.9c1.5-3.7,3.6-8,5.8-8.2l17-2.6L-96-285c2.1-0.5,5.9,4.6,8.4,7.7l83.4-11.6
			c2.8-10.8,6.9-15.4,12.8-16.2l4.4-0.6l4.4-0.6c6-0.8,10.2,1,15.8,10.7l28.4-3.9l1-0.1c0,0-0.1-2.5-0.5-6.4
			C60.6-318.5,53.8-344.4,24.3-342.9z"/>
		<path class="st7" d="M24.2-342.9c29.5-1.5,36.3,24.4,37.9,36.8c-0.9-11.2-4-33.3-11.8-44.4c-3.2-4.5-17-19.3-19.3-21.9
			l-186.8,25.7c-1.1,3.3-1.1,7.3-0.5,11.6l0.9,6.7c-2.6,1.8-2.3,4.6-2.1,6.3c0.1,0.8,0.2,1.8,0.4,2.8
			C-157.1-319.3-23.5-340.5,24.2-342.9z"/>
		<g>
			<g>
				<g>
					<path class="st8" d="M51-318.4c-1.9,0-2.6-3.9-2.9-5.6c-0.2-1.8-0.6-6,1.4-6.2c0.2,0,0.3,0,0.5,0c2.4,0,4.5,2.3,4.9,5.3
						c0.2,1.5,0,3-0.7,4.3c-0.7,1.3-1.8,2.1-3.1,2.3l-0.1,0L51-318.4z"/>
					<path class="st9" d="M50-329.3c1.9,0,3.6,1.9,3.9,4.4c0.4,2.7-0.9,5.1-2.9,5.4c0,0,0,0,0,0c-0.7,0-1.5-2.1-1.8-4.8
						c-0.4-2.7-0.1-5,0.5-5.1C49.8-329.2,49.9-329.3,50-329.3 M50-331.3c-0.2,0-0.4,0-0.7,0c-1,0.1-2.1,0.8-2.4,3.4
						c-0.1,1.1-0.1,2.5,0.1,4c0.6,4.3,1.9,6.5,3.9,6.5h0.1l0.2,0c3.2-0.4,5.2-3.8,4.7-7.7C55.5-328.6,52.9-331.3,50-331.3L50-331.3z
						"/>
				</g>
			</g>
			<g>
				<g>
					<path class="st8" d="M44.3-329.9c-1,0-1.7-1.1-2-3.4c-0.1-0.8-0.1-1.5-0.1-2.1c0.1-1.3,0.7-1.7,1.2-1.7c0.1,0,0.2,0,0.3,0
						c1.5,0,2.8,1.4,3.1,3.2c0.1,0.9,0,1.8-0.4,2.5c-0.4,0.8-1.2,1.3-2,1.5L44.3-329.9L44.3-329.9z"/>
					<path class="st9" d="M43.8-336.1c1,0,1.9,1,2.1,2.3c0.2,1.4-0.5,2.7-1.5,2.8c0,0,0,0,0,0c-0.3,0-0.8-1.1-1-2.5
						c-0.2-1.4-0.1-2.6,0.3-2.7C43.7-336.1,43.8-336.1,43.8-336.1 M43.8-338.1c-0.2,0-0.3,0-0.5,0c-1,0.1-2.6,1-2,5
						c0.4,2.8,1.4,4.2,3,4.2h0.1l0.2,0c2.2-0.3,3.6-2.6,3.3-5.1C47.6-336.4,45.9-338.1,43.8-338.1L43.8-338.1z"/>
				</g>
			</g>
		</g>
		<g>
			<g>
				<g>
					<path class="st10" d="M-134.3-269.4c0.3,2-1.1,3.8-3.1,4.1l-11,1.5c-2,0.3-3.8-1.1-4.1-3.1l-0.1-0.8c-0.3-2,1.1-3.8,3.1-4.1
						l11-1.5c2-0.3,3.8,1.1,4.1,3.1L-134.3-269.4z"/>
				</g>
				<path class="st10" d="M37.7-297.7c-2.3,0.3-4,2-3.7,4.2c0.3,2.2,2.5,4.1,4.8,3.8l26.6-3.7l-0.6-4.4l-0.5-3.7L37.7-297.7z"/>
			</g>
		</g>
		<g>
			<g>
				<path class="st11" d="M-51.4-361.2l-2.3,0.3l-29,4l10.1,72.6l29-4l2.3-0.3l29-4l-10.1-72.6L-51.4-361.2z"/>
			</g>
		</g>
		<g>
			<g>
				<path class="st7" d="M-154.4-286.6c-0.1-1.1,3.4-1.6,4.1-0.6c0.7,1,1.7,6.6,1.4,8c-0.2,1.4-3.2,1.9-3.7,1.5
					C-153.1-278-154.3-285.6-154.4-286.6z"/>
			</g>
		</g>
		<path class="st9" d="M-124.4-268.1c1,7,7.4,11.8,14.3,10.8c7-1,11.8-7.4,10.8-14.3c-1-7-7.4-11.8-14.3-10.8
			C-120.5-281.5-125.4-275-124.4-268.1z"/>
		<path class="st9" d="M3.4-285.8c1,7,7.4,11.8,14.3,10.8c7-1,11.8-7.4,10.8-14.3c-1-7-7.4-11.8-14.3-10.8
			C7.3-299.2,2.4-292.8,3.4-285.8z"/>
		<g>
			<g>
				<path class="st8" d="M14-349.9c-3.5,0-6.4-1.6-7.8-4.3c-1.1-2-1.1-4.5-0.2-6.8c0.9-2.3,2.8-4.3,5.2-5.5c1.6-0.8,3.4-1.3,5.2-1.3
					c3.5,0,6.4,1.6,7.8,4.3c2.2,4.2-0.1,9.8-5,12.3C17.6-350.4,15.8-349.9,14-349.9z"/>
				<path class="st9" d="M16.5-367.6c3.3,0,6.1,1.6,7.5,4.2c2.1,4.1-0.1,9.4-4.9,11.9c-1.6,0.8-3.3,1.3-5,1.3
					c-3.3,0-6.1-1.6-7.5-4.2c-2.1-4.1,0.1-9.4,4.9-11.9C13-367.2,14.8-367.6,16.5-367.6 M16.5-368.2c-1.8,0-3.6,0.4-5.3,1.3
					c-5.1,2.6-7.4,8.3-5.2,12.7c1.5,2.9,4.6,4.5,8,4.5c1.8,0,3.6-0.4,5.3-1.3c5.1-2.6,7.4-8.3,5.2-12.7
					C23-366.6,19.9-368.2,16.5-368.2L16.5-368.2z"/>
			</g>
			<g>
				<path class="st8" d="M10.3-352c-1.6,0-3.1-0.9-3.9-2.4c-1.1-2.1-0.3-4.8,1.9-5.8c0.6-0.3,1.3-0.5,2-0.5c1.6,0,3.1,0.9,3.9,2.4
					c0.5,1,0.6,2.2,0.3,3.3s-1.1,2-2.1,2.5C11.7-352.2,11-352,10.3-352z"/>
				<path class="st9" d="M10.3-360.6L10.3-360.6c1.6,0,3,0.9,3.7,2.3c1.1,2,0.2,4.6-1.8,5.6c-0.6,0.3-1.2,0.5-1.9,0.5
					c-1.6,0-3-0.9-3.7-2.3c-0.5-1-0.6-2.1-0.3-3.2c0.3-1.1,1.1-1.9,2.1-2.4C9-360.4,9.6-360.6,10.3-360.6 M10.3-360.9
					c-0.7,0-1.4,0.2-2.1,0.5c-2.2,1.1-3.1,3.9-1.9,6.1c0.8,1.6,2.4,2.4,4,2.4c0.7,0,1.4-0.2,2.1-0.5c2.2-1.1,3.1-3.9,1.9-6.1
					C13.5-360,11.9-360.9,10.3-360.9L10.3-360.9z"/>
			</g>
			<g>
				<path class="st8" d="M20.2-357.1c-1.6,0-3.1-0.9-3.9-2.4c-0.5-1-0.6-2.2-0.3-3.3c0.4-1.1,1.1-2,2.1-2.5c0.6-0.3,1.3-0.5,2-0.5
					c1.6,0,3.1,0.9,3.9,2.4c1.1,2.1,0.3,4.8-1.9,5.8C21.5-357.3,20.9-357.1,20.2-357.1z"/>
				<path class="st9" d="M20.2-365.6L20.2-365.6c1.6,0,3,0.9,3.7,2.3c1.1,2,0.2,4.6-1.8,5.6c-0.6,0.3-1.2,0.5-1.9,0.5
					c-1.6,0-3-0.9-3.7-2.3c-1.1-2-0.2-4.6,1.8-5.6C18.9-365.5,19.5-365.6,20.2-365.6 M20.2-366c-0.7,0-1.4,0.2-2.1,0.5
					c-2.2,1.1-3.1,3.9-1.9,6.1c0.8,1.6,2.4,2.4,4,2.4c0.7,0,1.4-0.2,2.1-0.5c2.2-1.1,3.1-3.9,1.9-6.1C23.4-365.1,21.8-366,20.2-366
					L20.2-366z"/>
			</g>
			<g>
				<path class="st8" d="M16.5-354.8c-0.6,0-1.1-0.3-1.4-0.8l2.9-1.5c0.3,0.8,0,1.7-0.7,2.1C17-354.9,16.8-354.8,16.5-354.8z"/>
				<path class="st9" d="M18-357c0.1,0.3,0.1,0.7,0,1c-0.1,0.4-0.4,0.7-0.8,0.9c-0.2,0.1-0.5,0.2-0.7,0.2c-0.5,0-1-0.2-1.3-0.7
					L18-357 M18.1-357.3l-3.1,1.6c0.3,0.6,0.9,0.9,1.5,0.9c0.3,0,0.5-0.1,0.8-0.2C18.2-355.4,18.5-356.4,18.1-357.3L18.1-357.3z"/>
			</g>
			<g>
				<circle class="st9" cx="10.3" cy="-356.4" r="0.7"/>
			</g>
			<g>
				<circle class="st9" cx="20.2" cy="-361.5" r="0.7"/>
			</g>
		</g>
		<g>
			<g>
				<path class="st8" d="M-10.9-343.8c-3.1-1.6-5.1-4.3-5.5-7.5c-0.7-5.7,4.1-11,10.8-11.9c0.6-0.1,1.2-0.1,1.8-0.1
					c6,0,11,3.8,11.6,8.9c0.4,3-0.8,6-3.1,8.3L-10.9-343.8z"/>
				<path class="st9" d="M-3.8-363.7v0.8c5.8,0,10.6,3.7,11.2,8.6c0.4,2.8-0.7,5.7-2.9,7.9l-15.3,2.2c-2.9-1.6-4.8-4.2-5.2-7.1
					c-0.7-5.5,4-10.6,10.5-11.5c0.6-0.1,1.2-0.1,1.7-0.1L-3.8-363.7 M-3.8-363.7c-0.6,0-1.2,0-1.8,0.1c-6.9,0.9-11.9,6.4-11.1,12.3
					c0.4,3.4,2.7,6.2,5.8,7.8l15.8-2.3c2.4-2.3,3.7-5.4,3.3-8.7C7.5-359.8,2.3-363.7-3.8-363.7L-3.8-363.7z"/>
			</g>
			<g>
				<path class="st8" d="M-11.2-346.5c-2.5,0-4.6-1.9-4.9-4.4c-0.3-2.7,1.6-5.2,4.3-5.6c0.2,0,0.4,0,0.6,0c2.5,0,4.6,1.9,4.9,4.4
					c0.3,2.7-1.6,5.2-4.3,5.6C-10.8-346.6-11-346.5-11.2-346.5z"/>
				<path class="st9" d="M-11.2-356.3L-11.2-356.3c2.4,0,4.4,1.8,4.7,4.2c0.2,1.3-0.2,2.5-1,3.5c-0.8,1-1.9,1.7-3.2,1.8
					c-0.2,0-0.4,0-0.6,0c-2.4,0-4.4-1.8-4.7-4.2c-0.2-1.3,0.2-2.5,1-3.5c0.8-1,1.9-1.7,3.2-1.8C-11.6-356.3-11.4-356.3-11.2-356.3
					 M-11.2-356.7c-0.2,0-0.4,0-0.7,0c-2.8,0.4-4.8,2.9-4.5,5.8c0.3,2.6,2.6,4.5,5.1,4.5c0.2,0,0.4,0,0.7,0c2.8-0.4,4.8-2.9,4.5-5.8
					C-6.4-354.8-8.6-356.7-11.2-356.7L-11.2-356.7z"/>
			</g>
			<g>
				<path class="st8" d="M1.4-348.1c-2.5,0-4.6-1.9-4.9-4.4c-0.3-2.7,1.6-5.2,4.3-5.6c0.2,0,0.4,0,0.6,0c2.5,0,4.6,1.9,4.9,4.4
					c0.2,1.3-0.2,2.6-1,3.7c-0.8,1.1-2,1.7-3.3,1.9C1.9-348.1,1.6-348.1,1.4-348.1z"/>
				<path class="st9" d="M1.5-357.9L1.5-357.9c2.4,0,4.4,1.8,4.7,4.2c0.2,1.3-0.2,2.5-1,3.5c-0.8,1-1.9,1.7-3.2,1.8
					c-0.2,0-0.4,0-0.6,0c-2.4,0-4.4-1.8-4.7-4.2c-0.3-2.6,1.5-5,4.1-5.3C1.1-357.9,1.3-357.9,1.5-357.9 M1.5-358.3
					c-0.2,0-0.4,0-0.7,0c-2.8,0.4-4.8,2.9-4.5,5.8c0.3,2.6,2.6,4.5,5.1,4.5c0.2,0,0.4,0,0.7,0c2.8-0.4,4.8-2.9,4.5-5.8
					C6.3-356.4,4-358.3,1.5-358.3L1.5-358.3z"/>
			</g>
			<g>
				<path class="st8" d="M-4.5-347.3c-0.9,0-1.7-0.6-1.8-1.5l3.7-0.5c0,0.5-0.1,0.9-0.4,1.3c-0.3,0.4-0.7,0.6-1.2,0.7
					C-4.3-347.3-4.4-347.3-4.5-347.3z"/>
				<path class="st9" d="M-2.7-349.1c0,0.9-0.7,1.6-1.5,1.7c-0.1,0-0.1,0-0.2,0c-0.8,0-1.5-0.5-1.7-1.3L-2.7-349.1 M-2.5-349.4
					l-4,0.5c0.1,1,1,1.7,2,1.7c0.1,0,0.2,0,0.3,0C-3.1-347.3-2.4-348.3-2.5-349.4L-2.5-349.4z"/>
			</g>
			<g>
				<circle class="st9" cx="-11.2" cy="-351.5" r="0.8"/>
			</g>
			<g>
				<circle class="st9" cx="1.4" cy="-353.1" r="0.8"/>
			</g>
			<path class="st12" d="M-16.2-352.9c0,0,1.8-1.7,4.5-2.1s4.8,0.9,4.8,0.9"/>
			<path class="st12" d="M-3.5-354.5c0,0,1.8-1.7,4.5-2.1c2.8-0.3,4.8,0.9,4.8,0.9"/>
		</g>
		<g>
			<g>
				<path class="st8" d="M-41-342.5c-2.4-0.1-4.7-1-6.3-2.5c-1.6-1.5-2.5-3.5-2.4-5.6c0.2-4.1,4.1-7.4,8.9-7.4c0.1,0,0.3,0,0.4,0
					c2.4,0.1,4.7,1,6.3,2.5c1.6,1.5,2.5,3.5,2.4,5.6c-0.2,4.1-4.1,7.4-8.9,7.4C-40.7-342.5-40.8-342.5-41-342.5z"/>
				<path class="st9" d="M-40.8-357.7L-40.8-357.7c0.1,0,0.3,0,0.4,0c4.8,0.2,8.6,3.7,8.4,7.8c-0.2,4-4,7.1-8.6,7.1
					c-0.1,0-0.3,0-0.4,0c-4.8-0.2-8.6-3.7-8.4-7.8C-49.2-354.5-45.5-357.7-40.8-357.7 M-40.8-358.2c-4.9,0-9,3.3-9.2,7.6
					c-0.2,4.4,3.8,8.2,9,8.4c0.2,0,0.3,0,0.5,0c4.9,0,9-3.3,9.2-7.6c0.2-4.4-3.8-8.2-9-8.4C-40.5-358.2-40.6-358.2-40.8-358.2
					L-40.8-358.2z"/>
			</g>
			<g>
				<path class="st8" d="M-45.8-346.5c-1,0-2-0.5-2.7-1.2c-0.7-0.8-1.1-1.8-1-2.8c0.1-2.1,1.8-3.7,3.9-3.7l0.2,0
					c2.1,0.1,3.8,1.9,3.7,4c-0.1,2.1-1.8,3.7-3.9,3.7L-45.8-346.5z"/>
				<path class="st9" d="M-45.6-354.1L-45.6-354.1c0.1,0,0.1,0,0.2,0c2.1,0.1,3.7,1.8,3.6,3.9c-0.1,2-1.7,3.6-3.7,3.6
					c-0.1,0-0.1,0-0.2,0c-1,0-1.9-0.5-2.6-1.2c-0.7-0.7-1-1.7-1-2.7C-49.3-352.6-47.6-354.1-45.6-354.1 M-45.6-354.4
					c-2.2,0-3.9,1.7-4,3.9c-0.1,2.2,1.6,4.1,3.9,4.2c0.1,0,0.1,0,0.2,0c2.2,0,3.9-1.7,4-3.9c0.1-2.2-1.6-4.1-3.9-4.2
					C-45.5-354.4-45.6-354.4-45.6-354.4L-45.6-354.4z"/>
			</g>
			<g>
				<path class="st8" d="M-35.8-346.1c-1,0-2-0.5-2.7-1.2s-1.1-1.8-1-2.8c0.1-2.1,1.8-3.7,3.9-3.7l0.2,0c2.1,0.1,3.8,1.9,3.7,4
					c-0.1,2.1-1.8,3.7-3.9,3.7L-35.8-346.1z"/>
				<path class="st9" d="M-35.7-353.7L-35.7-353.7c0.1,0,0.1,0,0.2,0c2.1,0.1,3.7,1.8,3.6,3.9c-0.1,2-1.7,3.6-3.7,3.6
					c-0.1,0-0.1,0-0.2,0c-1,0-1.9-0.5-2.6-1.2c-0.7-0.7-1-1.7-1-2.7C-39.3-352.1-37.7-353.7-35.7-353.7 M-35.7-354
					c-2.2,0-3.9,1.7-4,3.9c-0.1,2.2,1.6,4.1,3.9,4.2c0.1,0,0.1,0,0.2,0c2.2,0,3.9-1.7,4-3.9c0.1-2.2-1.6-4.1-3.9-4.2
					C-35.6-354-35.6-354-35.7-354L-35.7-354z"/>
			</g>
			<path class="st13" d="M-39.6-347.3c0,0.7-0.6,1.2-1.2,1.1c-0.7,0-1.2-0.6-1.1-1.2"/>
			<g>
				<circle class="st9" cx="-45.6" cy="-350.4" r="0.7"/>
			</g>
			<g>
				<circle class="st9" cx="-35.7" cy="-350" r="0.7"/>
			</g>
		</g>
		<g>
			<g>
				<path class="st8" d="M-62.2-336.5c-4.6,0-8.5-2.7-9.4-6.6c-1.2-4.8,2.4-9.8,8.1-11.2c1-0.2,1.9-0.4,2.9-0.4
					c4.6,0,8.5,2.7,9.4,6.6c0.6,2.3,0.1,4.8-1.5,6.9c-1.5,2.1-3.9,3.7-6.6,4.3C-60.2-336.6-61.2-336.5-62.2-336.5z"/>
				<path class="st9" d="M-60.7-354.3L-60.7-354.3c4.5,0,8.2,2.6,9.1,6.3c0.5,2.2,0,4.6-1.4,6.6c-1.5,2.1-3.8,3.6-6.4,4.2
					c-0.9,0.2-1.9,0.3-2.8,0.3c-4.5,0-8.2-2.6-9.1-6.3c-1.1-4.6,2.4-9.5,7.8-10.8C-62.6-354.2-61.6-354.3-60.7-354.3 M-60.7-355
					c-1,0-2,0.1-3,0.4c-5.8,1.4-9.5,6.6-8.3,11.6c1,4.1,5.1,6.8,9.8,6.8c1,0,2-0.1,3-0.4c5.8-1.4,9.5-6.6,8.3-11.6
					C-51.9-352.3-56-355-60.7-355L-60.7-355z"/>
			</g>
			<path class="st14" d="M-71-348.4c0.7-0.7,1.6-1.2,2.6-1.4c0.9-0.2,1.9-0.2,2.7,0"/>
			<g>
				<path class="st8" d="M-67-339.7c-2.1,0-3.9-1.4-4.4-3.4c-0.3-1.2-0.1-2.4,0.5-3.4c0.6-1,1.6-1.8,2.8-2c0.4-0.1,0.7-0.1,1.1-0.1
					c2.1,0,3.9,1.4,4.4,3.4c0.3,1.2,0.1,2.4-0.5,3.4c-0.6,1-1.6,1.8-2.8,2C-66.3-339.7-66.7-339.7-67-339.7z"/>
				<path class="st9" d="M-67-348.5c2,0,3.7,1.4,4.2,3.3c0.6,2.3-0.9,4.7-3.2,5.2c-0.3,0.1-0.7,0.1-1,0.1c-2,0-3.7-1.4-4.2-3.3
					c-0.3-1.1-0.1-2.3,0.5-3.3s1.5-1.7,2.7-2C-67.7-348.5-67.4-348.5-67-348.5 M-67-348.9c-0.4,0-0.7,0-1.1,0.1
					c-2.5,0.6-4.1,3.2-3.4,5.7c0.5,2.1,2.4,3.6,4.5,3.6c0.4,0,0.7,0,1.1-0.1c2.5-0.6,4.1-3.2,3.4-5.7C-63-347.5-64.9-348.9-67-348.9
					L-67-348.9z"/>
			</g>
			<g>
				<circle class="st9" cx="-67.4" cy="-345.5" r="0.7"/>
			</g>
			<path class="st14" d="M-54.2-352.5c-0.9-0.3-1.9-0.3-2.9-0.1c-0.9,0.2-1.8,0.7-2.4,1.3"/>
			<g>
				<path class="st8" d="M-55.8-342.4c-2.1,0-3.9-1.4-4.4-3.4c-0.3-1.2-0.1-2.4,0.5-3.4c0.6-1,1.6-1.8,2.8-2
					c0.4-0.1,0.7-0.1,1.1-0.1c2.1,0,3.9,1.4,4.4,3.4c0.6,2.4-0.9,4.9-3.3,5.5C-55.1-342.5-55.5-342.4-55.8-342.4
					C-55.8-342.4-55.8-342.4-55.8-342.4z"/>
				<path class="st9" d="M-55.8-351.3c2,0,3.7,1.4,4.2,3.3c0.3,1.1,0.1,2.3-0.5,3.3s-1.5,1.7-2.7,2c-0.3,0.1-0.7,0.1-1,0.1
					c-2,0-3.7-1.4-4.2-3.3c-0.3-1.1-0.1-2.3,0.5-3.3s1.5-1.7,2.7-2C-56.5-351.2-56.2-351.3-55.8-351.3 M-55.8-351.6
					c-0.4,0-0.7,0-1.1,0.1c-2.5,0.6-4.1,3.2-3.4,5.7c0.5,2.1,2.4,3.6,4.5,3.6c0.4,0,0.7,0,1.1-0.1c2.5-0.6,4.1-3.2,3.4-5.7
					C-51.8-350.2-53.7-351.6-55.8-351.6L-55.8-351.6z"/>
			</g>
			<g>
				<circle class="st9" cx="-56.1" cy="-348.3" r="0.7"/>
			</g>
			<g>
				<path class="st8" d="M-60.3-340.3c-0.5,0-0.9-0.5-1.1-1.2c-0.1-0.4-0.1-0.8,0-1.1c0.1-0.3,0.3-0.5,0.5-0.5c0,0,0.1,0,0.1,0
					c0.5,0,0.9,0.5,1.1,1.2c0.1,0.4,0.1,0.8,0,1.1c-0.1,0.3-0.3,0.5-0.5,0.5C-60.2-340.3-60.2-340.3-60.3-340.3z"/>
				<path class="st9" d="M-60.7-343L-60.7-343c0.4,0,0.8,0.5,1,1.1c0.2,0.7,0,1.4-0.5,1.5c0,0-0.1,0-0.1,0c-0.4,0-0.8-0.5-1-1.1
					c-0.1-0.4-0.1-0.7,0-1c0.1-0.3,0.3-0.4,0.4-0.5C-60.7-343-60.7-343-60.7-343 M-60.7-343.2c-0.1,0-0.1,0-0.2,0
					c-0.6,0.1-0.8,0.9-0.6,1.8c0.2,0.7,0.7,1.3,1.2,1.3c0.1,0,0.1,0,0.2,0c0.6-0.1,0.8-0.9,0.6-1.8
					C-59.6-342.7-60.2-343.2-60.7-343.2L-60.7-343.2z"/>
			</g>
		</g>
		<g>
			<path class="st15" d="M38.3-352.8c0.5,0.8,1.3,1.4,2.7,1.2l7.7-1c-1.9-2.5-14.7-16.8-15.5-17.5l-6,0.8c-0.6,0.1-1.4,0.5-0.7,1.6
				L38.3-352.8z"/>
			<g>
				<path class="st15" d="M-16.2-344.2c0.2,1.1,1.6,0.9,2.3,0.8l49.1-6.8c0.7-0.1,1.5-0.9,0.4-2.2l-11.4-14.4
					c-0.8-1.2-2.2-1.7-2.9-1.6l-37.9,5.2c-0.7,0.1-2.1,0.6-2,1.3L-16.2-344.2z"/>
			</g>
		</g>
		
			<rect x="-77.7" y="-357.5" transform="matrix(0.9905 -0.1373 0.1373 0.9905 47.2986 -10.3128)" class="st15" width="53.1" height="19.1"/>
		<g>
			<g>
				<path class="st8" d="M-102.8-331c-5.7,0-10.3-3.5-11-8.4c-0.8-5.4,3.8-10.6,10.1-11.4c0.6-0.1,1.3-0.1,1.9-0.1
					c5.7,0,10.3,3.5,11,8.4c0.4,2.6-0.5,5.2-2.4,7.4c-1.9,2.2-4.7,3.6-7.8,4C-101.6-331.1-102.2-331-102.8-331z"/>
				<path class="st9" d="M-101.8-350.6L-101.8-350.6c5.5,0,10,3.4,10.6,8.1c0.3,2.5-0.5,5-2.3,7.1c-1.9,2.1-4.5,3.5-7.5,3.9
					c-0.6,0.1-1.2,0.1-1.8,0.1c-5.5,0-10-3.4-10.6-8.1c-0.7-5.2,3.7-10.2,9.8-11C-103-350.6-102.4-350.6-101.8-350.6 M-101.8-351.3
					c-0.6,0-1.3,0-1.9,0.1c-6.5,0.9-11.2,6.2-10.4,11.8c0.7,5.1,5.6,8.7,11.4,8.7c0.6,0,1.3,0,1.9-0.1c6.6-0.9,11.2-6.2,10.4-11.8
					C-91.2-347.7-96.1-351.3-101.8-351.3L-101.8-351.3z"/>
			</g>
			<g>
				<path class="st8" d="M-108.9-335.3c-2.4,0-4.4-1.8-4.8-4.2c-0.2-1.3,0.2-2.5,0.9-3.6c0.8-1,1.9-1.7,3.2-1.9c0.2,0,0.4,0,0.7,0
					c2.4,0,4.4,1.8,4.8,4.2c0.2,1.3-0.2,2.5-0.9,3.6c-0.8,1-1.9,1.7-3.2,1.9C-108.4-335.3-108.6-335.3-108.9-335.3z"/>
				<path class="st9" d="M-108.8-344.7L-108.8-344.7c2.3,0,4.3,1.7,4.6,4c0.2,1.2-0.1,2.4-0.9,3.4s-1.8,1.6-3.1,1.8
					c-0.2,0-0.4,0-0.6,0c-2.3,0-4.3-1.7-4.6-4c-0.2-1.2,0.1-2.4,0.9-3.4c0.7-1,1.8-1.6,3.1-1.8
					C-109.3-344.7-109.1-344.7-108.8-344.7 M-108.8-345.1c-0.2,0-0.5,0-0.7,0c-2.7,0.4-4.7,2.9-4.3,5.6c0.3,2.5,2.5,4.3,5,4.3
					c0.2,0,0.5,0,0.7,0c2.7-0.4,4.7-2.9,4.3-5.6C-104.2-343.3-106.4-345.1-108.8-345.1L-108.8-345.1z"/>
			</g>
			<g>
				<path class="st8" d="M-96.6-337c-2.4,0-4.4-1.8-4.8-4.2c-0.2-1.3,0.2-2.5,0.9-3.6c0.8-1,1.9-1.7,3.2-1.9c0.2,0,0.4,0,0.7,0
					c2.4,0,4.4,1.8,4.8,4.2c0.2,1.3-0.2,2.5-0.9,3.6c-0.8,1-1.9,1.7-3.2,1.9C-96.2-337-96.4-337-96.6-337z"/>
				<path class="st9" d="M-96.6-346.4L-96.6-346.4c2.3,0,4.3,1.7,4.6,4c0.2,1.2-0.1,2.4-0.9,3.4s-1.8,1.6-3.1,1.8
					c-0.2,0-0.4,0-0.6,0c-2.3,0-4.3-1.7-4.6-4c-0.4-2.5,1.4-4.9,3.9-5.2C-97.1-346.4-96.8-346.4-96.6-346.4 M-96.6-346.8
					c-0.2,0-0.5,0-0.7,0c-2.7,0.4-4.7,2.9-4.3,5.6c0.3,2.5,2.5,4.3,5,4.3c0.2,0,0.5,0,0.7,0c2.7-0.4,4.7-2.9,4.3-5.6
					C-92-345-94.2-346.8-96.6-346.8L-96.6-346.8z"/>
			</g>
			<g>
				<path class="st8" d="M-102.3-336.1c-0.9,0-1.6-0.6-1.8-1.4l3.6-0.5c0,0.4-0.1,0.9-0.4,1.2c-0.3,0.4-0.7,0.6-1.2,0.7
					C-102.2-336.1-102.2-336.1-102.3-336.1z"/>
				<path class="st9" d="M-100.6-337.9c0,0.8-0.6,1.6-1.5,1.7c-0.1,0-0.2,0-0.2,0c-0.8,0-1.4-0.5-1.6-1.2L-100.6-337.9
					 M-100.4-338.2l-3.8,0.5c0.1,1,1,1.7,1.9,1.7c0.1,0,0.2,0,0.3,0C-101-336.1-100.3-337.1-100.4-338.2L-100.4-338.2z"/>
			</g>
			<g>
				<circle class="st9" cx="-110.8" cy="-339.8" r="0.8"/>
			</g>
			<g>
				<circle class="st9" cx="-98.6" cy="-341.5" r="0.8"/>
			</g>
		</g>
		
			<rect x="-137.5" y="-349.2" transform="matrix(0.9905 -0.1373 0.1373 0.9905 45.5936 -18.4469)" class="st15" width="53.1" height="19.1"/>
		<ellipse transform="matrix(0.9915 -0.1302 0.1302 0.9915 42.8794 -6.322)" class="st9" cx="-26.9" cy="-331" rx="4.4" ry="1.4"/>
		
			<ellipse transform="matrix(0.9915 -0.1302 0.1302 0.9915 43.3429 -3.9869)" class="st9" cx="-8.8" cy="-333.3" rx="4.4" ry="1.4"/>
	</g>
	<g>
		<path class="st0" d="M1200,1056.4c-1.8,0-3.5,0.2-5.2,0.7c-2.4,0.7-4.6,1.8-6.5,3.3l-13.3,10.5c-9.4,7.4-20,12.8-31.5,16.1l0,0
			l0,0l-154,43.6l0,0l0,0l-272.6,77.1c1.3,0,2.6,0,3.8,0c21.3,0,42.5-2.8,63.3-8.4l0,0l0,0c4.8-1.3,9.8-2,14.8-2
			c2.5,0,5,0.2,7.5,0.5h0l270.5,35.4h0c5.4,0.7,10.8,1.1,16.2,1.1c10.8,0,21.5-1.4,32-4.2l0,0c15.8-4.3,30.4-11.5,43.4-21.5
			c13-10,23.7-22.2,31.9-36.4l0,0c8.2-14.1,13.4-29.6,15.5-45.8l0,0l4.1-31.1v0c1-7.5,2.9-14.8,5.7-21.7c-4.2-2.8-7.9-6.2-11.1-10.2
			c-1.5-1.9-3.4-3.5-5.5-4.7c-2.1-1.2-4.4-1.9-6.9-2.2C1201.4,1056.4,1200.7,1056.4,1200,1056.4 M1039.4,1036
			c-1.6,1.4-3.1,2.9-4.6,4.4l0,0l-59.1,60.9l0,0c-2.5,2.6-5.5,4.6-8.8,6.1h0l0,0c-3.3,1.4-6.8,2.2-10.5,2.2l0,0c-0.1,0-0.3,0-0.4,0
			c-3.5,0-6.9-0.7-10.1-1.9l0,0c-3.3-1.3-6.4-3.3-9-5.8l0,0c-2-1.9-4.3-3.4-6.9-4.5c-2.5-1-5.1-1.5-7.8-1.5c-0.1,0-0.2,0-0.3,0h0
			c-2.8,0-5.5,0.6-8,1.7l0,0c-6.3,2.7-12.9,4.1-19.7,4.2h0l-9,0.1c-11.3,6.2-23.2,11-35.8,14.4l0,0c-13.7,3.7-27.6,5.5-41.7,5.5
			c-7,0-14-0.5-21.1-1.4l0,0c-9.6-1.3-19.1-3.4-28.2-6.3c-0.7,1.1-1.3,2.4-1.8,3.6l0,0c-1.1,2.8-1.6,5.7-1.6,8.7l0,0v0l0.3,17.8l0,0
			c0,3.8-0.6,7.6-2,11.1l0,0l0,0c-1.4,3.6-3.5,6.8-6.1,9.5l0,0c-2.7,2.8-5.8,4.9-9.3,6.4l0,0c-3.5,1.5-7.2,2.3-11,2.4l0,0l-17.1,0.3
			h0c-2,0-4,0-6,0c-49.8,0-98.5-9.2-145-27.5c12.2,10.7,25.4,20.2,39.6,28.4l0,0c27.9,16.1,58.4,26.5,90.5,30.7l0,0
			c2.8,0.4,5.7,0.7,8.5,1l3.4-0.9l0,0l287.2-81.3l0,0l0,0c9.4-2.7,18-7,25.6-13.1l0,0c7.6-6,13.9-13.4,18.7-21.9
			c4.8-8.5,7.7-17.7,8.9-27.4C1042,1053.3,1041.5,1044.5,1039.4,1036 M1475.6,919.4c-1.7,0.4-3.3,0.8-5,1.2l-0.2,0.1
			c-10.7,3-20.5,8-29.2,15l0,0l-91.2,72.1c-4.2,3.3-7.6,7.4-10.2,12l-2.8,5c4.6,1.7,9,3.8,13.2,6.2l0,0c7.3,4.2,15.2,6.9,23.5,8h0
			c2.8,0.4,5.6,0.5,8.3,0.5c5.5,0,11-0.7,16.5-2.2l0,0c8.1-2.2,15.6-5.9,22.2-11c6.7-5.1,12.2-11.4,16.4-18.7l0,0
			c4.2-7.3,6.9-15.2,8-23.5v0c1.1-8.4,0.5-16.7-1.6-24.8l0,0c-0.9-3.4-1.1-7-0.7-10.5v0c0.5-3.5,1.6-6.9,3.4-10l0,0
			c1.8-3.1,4.1-5.7,6.9-7.9c2.9-2.2,6-3.8,9.5-4.7h0c2.3-0.6,4.6-0.9,6.9-0.9c1.2,0,2.4,0.1,3.5,0.2h0c11.4,1.5,22.8,2.2,34.1,2.2
			c4.6,0,9.2-0.1,13.7-0.4l-15.3-6.1C1495.6,921.3,1485.6,920.7,1475.6,919.4 M2068.7,474.1c-17.6,4.8-33.9,12.8-48.3,23.9l-0.1,0.1
			l-45.6,35l-0.1,0.1c-9,6.9-19.2,12-30.3,15c-7.5,2-15,3-22.6,3c-3.7,0-7.5-0.2-11.2-0.7c-11.4-1.5-22.2-5.2-32.1-10.9
			c-5.5-3.2-11.5-5.2-17.8-6c-2.1-0.3-4.2-0.4-6.3-0.4c-4.2,0-8.4,0.6-12.5,1.7c-6.1,1.6-11.8,4.4-16.8,8.3l0,0
			c-5.1,3.9-9.2,8.7-12.4,14.2l0,0c-5.7,9.9-13.2,18.5-22.3,25.5l0,0c-14.5,11.1-26.4,24.8-35.6,40.6c-3.2,5.5-5.2,11.5-6.1,17.8
			c-0.2,1.5-0.3,3-0.4,4.4c8.2,1.9,16.1,5,23.6,9.1c10.5,5.9,19.5,13.6,26.9,22.9c7.4,9.4,12.8,20,16.1,31.5
			c3.3,11.6,4.2,23.4,2.8,35.2c-1.4,11.9-5.1,23.2-10.9,33.6c-0.5,1-1.1,1.9-1.6,2.8c0.6,0.8,1.3,1.6,2,2.3c1.8,1.7,3.8,3,6.1,3.9
			l0,0c2.2,0.9,4.5,1.3,6.9,1.3c0.1,0,0.2,0,0.3,0l0,0c8.2-0.1,16.2-1.8,23.8-5.1l0,0c16.3-7,33.5-10.7,51.2-11l0,0
			c0.7,0,1.4,0,2.1,0c17,0,33.6,3.2,49.4,9.4l0,0c5.7,2.3,10.9,5.6,15.4,9.9l0,0c0.6,0.6,1.2,1.2,1.8,1.8c1.7-1.2,3.6-2.1,5.6-2.7
			l0,0l0,0c1.4-0.4,2.9-0.6,4.3-0.6c0.7,0,1.5,0,2.2,0.1h0l0,0c2.2,0.3,4.3,1,6.2,2.1l0,0v0c0.5,0.3,1.1,0.4,1.6,0.4
			c0.7,0,1.4-0.2,2-0.7c0.3-0.3,0.6-0.6,0.8-0.9c0.9-1.5,0.4-3.5-1.2-4.4c-0.2-0.1-0.5-0.2-0.7-0.4l84-305.8
			c0.6-0.2,1.2-0.4,1.8-0.5L2068.7,474.1"/>
		<path class="st16" d="M472.2,1071l-1.9,15.5l0,0c-0.5,3.7-0.7,7.5-0.6,11.2c27,19.7,56.3,35.9,87.8,48.4l0,0
			c0.4,0.1,0.8,0.3,1.1,0.4c-11.8-10.4-22.6-21.9-32.3-34.6l0,0c-10.3-13.4-23-24.5-37.6-33l0,0C483.4,1076,477.8,1073.3,472.2,1071
			 M1531.5,926.7c-3.5,0.3-7.1,0.6-10.6,0.8l28.2,11.2c-4.5-4-9.4-7.5-14.7-10.4C1533.5,927.7,1532.5,927.2,1531.5,926.7
			 M1496.1,917.6l9.6,3.8c0.5,0,1,0,1.6,0c3.6,0,7.1-0.1,10.6-0.2c-4.7-1.4-9.6-2.4-14.6-3C1500.8,917.9,1498.4,917.7,1496.1,917.6
			 M1640.2,860.8l-3.6,3.7l-0.1,0.1c-12,12.4-26.3,22.2-42.2,29.2c-19,8.2-39,13-59.5,14.3l8.5,10.8c10.1-1.5,20.2-3.5,30.2-6.2l0,0
			c31.1-8.3,59.9-22.3,85.7-41.4c-1.3-0.6-2.6-1.2-3.8-1.9L1640.2,860.8 M1963.7,793.6c-0.1,0.1-0.2,0.1-0.3,0.2l0,0v0l0,0l0,0
			c-25.5,19.6-54.2,33.7-85.3,42.1l0,0c-20.8,5.6-41.9,8.4-63.2,8.4c-10.6,0-21.2-0.7-31.8-2.1l0,0c-6.9-0.9-13.8-1.4-20.6-1.4
			c-9.2,0-18.5,0.8-27.6,2.5l-27.6,21.8c-4.9,3.8-10.3,6.6-16.3,8.3l0,0c-4.2,1.2-8.5,1.8-12.7,1.8c-1.8,0-3.6-0.1-5.5-0.3
			c-2.1-0.2-4.2-0.6-6.3-1.2c-27.4,21-58.1,36.1-91.4,45.1l0,0c-9,2.4-18.1,4.4-27.3,5.8l15.6,19.8l579.8,230
			c0.1,0.1,0.3,0.1,0.4,0.2l0.1,0l0,0l29.1,11.5l0,0l0.1,0l0,0l22,8.8h0l96.1,38.3l0,0c8.1,3.2,16.7,4.9,25.4,4.9c0.3,0,0.7,0,1,0
			c9.1-0.1,17.9-2,26.2-5.6c3.4-1.5,6.7-3.2,9.8-5.2c4.5-2.9,8.6-6.2,12.2-10c6.3-6.5,11.2-14,14.6-22.5l0,0
			c3.1-7.7,7.5-14.5,13.2-20.4c5.7-5.9,12.5-10.5,20-13.8c7.6-3.2,15.6-5,23.8-5.1c0.3,0,0.6,0,0.8,0c7.9,0,15.7,1.5,23.1,4.4
			c5.6,2.2,11.4,3.3,17.4,3.3c0.2,0,0.4,0,0.5,0c6.2-0.1,12.2-1.4,17.9-3.8c5.7-2.4,10.8-5.9,15.1-10.4l0,0
			c4.3-4.4,7.6-9.6,9.9-15.3c3-7.6,7.5-14.5,13.2-20.4l0-0.1c1.7-1.8,3.7-3.1,6-4.1c2.2-1,4.6-1.5,7.1-1.5c0.1,0,0.2,0,0.2,0
			c2.4,0,4.7,0.4,6.9,1.3c2.3,0.9,4.4,2.3,6.1,4c1.8,1.7,3.2,3.8,4.1,6c1,2.3,1.5,4.6,1.5,7.1c0,2.5-0.4,4.9-1.3,7.2
			c-0.9,2.3-2.2,4.3-4,6.1l0,0c-4.3,4.4-7.7,9.6-9.9,15.3c-2.3,5.8-3.4,11.8-3.3,18c0.1,6.2,1.4,12.2,3.8,17.9l11,25.6
			c3.3,7.5,5,15.5,5.1,23.8c0.2,11.1-1.8,22-5.9,32.3c-4.1,10.3-10.1,19.6-17.9,27.6l0,0l-40.5,41.6c-1.7,1.7-3.7,3.1-6,4.1l-15,6.5
			c-3,1.3-5.7,3.2-8.1,5.5l0,0c-2.3,2.4-4.1,5.1-5.3,8.2l-6.1,15.2c-1.2,3.1-1.8,6.3-1.8,9.6c0,3.3,0.7,6.5,2,9.6
			c1.3,3,3.2,5.7,5.5,8c0.7,0.7,1.3,1.6,1.7,2.5c0.4,0.9,0.6,1.9,0.6,2.9c0,1-0.2,2-0.6,3c-0.4,0.9-0.9,1.8-1.6,2.5l-5.9,6.1l0,0
			c-4.3,4.5-7.7,9.6-9.9,15.3l-31,77.7c-1.8,4.4-2.6,9.1-2.6,13.8c0.1,4.8,1.1,9.4,2.9,13.7l33,76.8c3.3,7.5,5,15.5,5.1,23.8
			l0.3,21.8l0,0l0,0v0c0,1.8,1.5,3.2,3.2,3.2c0,0,0,0,0,0l0.2,18.9c-0.6,1-1.2,2.1-1.6,3.2c-0.9,2.4-1.4,4.9-1.4,7.5
			c0,1.8,1.5,3.2,3.2,3.2c0,0,0,0,0,0c1.8,0,3.2-1.5,3.2-3.2c0-1.8,0.3-3.5,0.9-5.1c0.6-1.6,1.6-3.1,2.8-4.3
			c1.2-1.3,2.7-2.2,4.2-2.9c1.6-0.7,3.3-1.1,5-1.1l0,0l0,0c2.6-0.1,5.1-0.6,7.4-1.6c2.4-1,4.5-2.5,6.3-4.3c1.8-1.9,3.2-4,4.1-6.4
			c1-2.4,1.4-4.9,1.4-7.5l-0.1-4.3c0-1,0.2-2,0.5-2.9c0.4-1,1-1.8,1.7-2.6c0.7-0.7,1.5-1.3,2.5-1.7c0.9-0.4,1.9-0.6,2.9-0.6
			c4.2-0.1,8.2-0.9,12.1-2.6c3.8-1.7,7.3-4,10.2-7c2.9-3,5.2-6.5,6.7-10.3c1.6-3.9,2.3-8,2.3-12.1c-0.1-4.2-0.9-8.2-2.6-12.1
			c-1.7-3.8-4-7.3-7-10.2c-3-2.9-6.5-5.2-10.4-6.7c-4.6-1.8-8.1-5.3-10-9.8c-1.9-4.5-1.9-9.6,0-14.2l0,0c2-5,4.9-9.4,8.5-13.2l0,0
			c3.7-3.8,8.1-6.8,13-9l0,0c4.9-2.1,10.1-3.2,15.4-3.3c0.2,0,0.4,0,0.5,0c5.1,0,10.2,1,15,2.9c8.1,3.2,16.7,4.9,25.4,4.9
			c0.3,0,0.6,0,0.9,0c9.1-0.1,17.9-2,26.2-5.6c8.3-3.6,15.8-8.7,22.1-15.2l0,0l78.9-81.1l0,0l0,0c3.7-3.8,7.8-6.8,11.6-8.4l0,0
			c4.4-1.9,8.9-2.2,13.2-2.3h0c0.2,0,0.3,0,0.5,0c4.5,0,8.8,0.8,13,2.5l0,0l15.1,6l0,0c5,2,10.2,2.4,14.8,2.4c0.5,0,1,0,1.4,0
			c4.7-0.1,10.2-0.5,15.6-2.8l0,0c5.1-2.2,9.6-5.3,13.4-9.2l0,0l0,0l0,0l0,0c3.8-3.9,6.8-8.5,8.9-13.7v0l103.1-258.9l0,0
			c4.6-11.6,4.3-24.4-0.9-36.1c-5.2-11.6-14.4-20.5-26.1-25.1l0,0l-93.1-37.1l0,0l-99.7-39.7l0,0c-21.1-8.4-43.2-12.7-65.9-12.7
			c-0.8,0-1.6,0-2.3,0l0,0l0,0c-0.2,0-0.5,0-0.7,0c-5,0-10-1-14.8-2.9l0,0c-5-2-9.4-4.9-13.3-8.6l0,0l-23.5-22.9l0,0l0,0
			c-8.5-8.3-18.5-14.8-29.7-19.2l-6.6-2.6l0,0c-31.5-12.5-64.4-18.9-98.1-18.9c-1.2,0-2.4,0-3.7,0l0,0c-9.1,0.1-17.9,2-26.2,5.6l0,0
			c-17.8,7.7-34.2,18.1-48.5,31c-3,2.6-5.9,5.4-8.7,8.3l0,0v0l0,0l0,0l-0.1,0.2c-16.3,16.8-28.9,36.3-37.6,58.1l0,0
			c-8.7,21.9-13,44.8-12.6,68.3v0c0.3,23.4,5.2,46.3,14.5,67.9l0,0l18.5,43.1c-2.1,1.2-4.3,2.3-6.6,3.3c-7.5,3.3-15.5,5-23.8,5.1
			c-0.3,0-0.6,0-0.9,0c-7.9,0-15.6-1.5-23-4.4l0,0l-96.1-38.3h0l-22-8.7l0,0l-0.7-0.3l-28.9-11.5c-2.1-0.9-4.1-2.2-5.7-3.8l0,0
			c-1.8-1.7-3.1-3.7-4.1-6c-1-2.3-1.5-4.7-1.5-7.1l0,0v0l-0.6-42.9l0,0l-0.5-31.5v0c0-2.5,0.4-4.9,1.3-7.1l0,0
			c0.9-2.3,2.2-4.3,3.9-6.1l0,0c1.7-1.8,3.7-3.2,6-4.1l0,0c2.3-1,4.6-1.5,7.1-1.5l0,0c0.1,0,0.2,0,0.3,0c2.3,0,4.7,0.5,6.9,1.3h0
			l0,0c2.2,0.9,4.3,2.2,6,3.9l0.1,0.1l12.1,11.8l0,0c2.6,2.6,5.7,4.5,9.1,5.9l0,0c3.3,1.3,6.7,1.9,10.3,1.9c0.1,0,0.2,0,0.3,0h0l0,0
			c3.7-0.1,7.2-0.8,10.6-2.3l0,0l0,0l0,0c3.4-1.4,6.4-3.5,8.9-6.2l0,0c3.3-3.4,5.9-7.4,7.6-11.8l0,0c1.7-4.4,2.6-9,2.5-13.7l0,0
			c-0.1-4.7-1.1-9.4-2.9-13.7l0,0c-1.9-4.3-4.5-8.2-8-11.5l-29.3-28.4l0,0c-3.4-3.3-7.4-5.9-11.8-7.6l0,0c-4.2-1.7-8.7-2.5-13.3-2.5
			c-0.2,0-0.4,0-0.5,0h0h0l-40.7,0.6h0c-0.2,0-0.4,0-0.6,0c-5.1,0-10.1-1-14.9-2.9l0,0c-1.5-0.6-3.1-0.9-4.8-0.9c-0.1,0-0.1,0-0.2,0
			l0,0c-1.7,0-3.3,0.4-4.9,1l0,0c-1.5,0.7-2.9,1.6-4.1,2.8l0,0l0,0l0,0l0,0l0,0c-1.2,1.2-2.1,2.6-2.7,4.2l0,0l-1.5,3.8l0,0
			c-0.3,0.8-0.8,1.5-1.4,2.1l0,0c-0.6,0.6-1.3,1.1-2,1.4l0,0l0,0c-0.8,0.3-1.6,0.5-2.4,0.5c0,0-0.1,0-0.1,0c-0.8,0-1.6-0.2-2.4-0.5
			c-0.8-0.3-1.5-0.8-2.1-1.4c-0.7-0.7-1.3-1.5-1.5-2.1l0,0l0,0c-0.2-0.6-0.4-1.2-0.4-2.4v0c0-0.9,0.1-1.7,0.4-2.5l0,0l1.5-3.8l0,0
			l0,0c0.7-1.8,0.8-3.5,0.7-5l0,0c0-1.4-0.1-3.1-0.9-4.8l0,0c-0.7-1.5-1.6-2.9-2.8-4.1l0,0l0,0c-1.2-1.2-2.6-2.1-4.2-2.7l0,0
			l-46.5-18.5l0,0c-2.3-0.9-4.4-2.3-6.1-3.9l0,0c-1.7-1.7-3.2-3.8-4.1-6l0,0c-1-2.3-1.5-4.6-1.5-7.1v0c-0.3-17.7-4-34.9-11-51.2l0,0
			c-0.4-0.9-0.6-1.9-0.6-2.9l0,0c0-1,0.2-2,0.5-3l0,0c0.7-1.7,1-3.5,1-5.4l0,0l0,0v0l0,0c0-1.8-0.4-3.6-1.1-5.4l0,0l0,0
			c-0.8-1.7-1.8-3.2-3.1-4.5l0,0c-1.3-1.3-2.9-2.3-4.6-3l0,0h0c-1.7-0.7-3.4-1-5.1-1c-0.1,0-0.2,0-0.3,0l0,0c-1.8,0-3.6,0.4-5.3,1.1
			l0,0l0,0l0,0l0,0c-1.7,0.7-3.2,1.8-4.5,3.1c-1.3,1.3-2.3,2.9-3,4.6l0,0l-22,55.5l0,0c-0.7,1.6-1.6,3.1-2.8,4.3l0,0
			c-1.2,1.2-2.6,2.2-4.2,2.9c-1.6,0.7-3.3,1.1-5,1.1c-0.1,0-0.1,0-0.2,0c-1.7,0-3.3-0.3-4.9-0.9c-1.6-0.6-3.1-1.6-4.3-2.8l0,0
			c-1.2-1.2-2.2-2.6-2.9-4.2l0,0c-2.1-4.9-3.2-10.1-3.3-15.4l0,0c-0.1-5.3,0.9-10.6,2.8-15.5l0,0c2-5,4.9-9.4,8.6-13.3
			c3.7-3.8,8.1-6.8,13-9l0,0c5.7-2.5,10.8-6,15.1-10.4l0,0c4.3-4.4,7.6-9.6,9.9-15.4l0,0c2.3-5.8,3.4-11.8,3.3-18l0,0
			c-0.1-6.2-1.4-12.2-3.8-17.9l0,0C1970.2,801.9,1967.3,797.5,1963.7,793.6 M39.7,631.1c-0.3,0-0.7,0-1,0l0,0
			c-9.1,0.1-17.9,2-26.2,5.6l0,0c-8.3,3.6-15.8,8.7-22.1,15.2c-6.3,6.5-11.2,14.1-14.6,22.5l0,0c-3.3,8.4-5,17.3-4.8,26.4l0,0
			c0.1,9,2,17.8,5.6,26.2l0,0l40.7,94.1l0.1,0.2c1,2.4,1.5,4.8,1.6,7.3l0,0c0,2.5-0.4,5-1.4,7.4v0c-0.9,2.3-2.3,4.5-4.1,6.3l0,0
			c-2.3,2.4-4.2,5.2-5.4,8.4l0,0c-1.2,3.1-1.9,6.4-1.8,9.8l0,0c0.1,3.4,0.8,6.7,2.1,9.8l0,0c1.3,3.1,3.2,5.9,5.7,8.2l0,0
			c2.4,2.3,5.2,4.2,8.4,5.4l0,0l0.7,0.3c2.9,1.2,6.1,1.8,9.2,1.8c0.1,0,0.3,0,0.4,0h0l0,0c3.3-0.1,6.5-0.7,9.5-2l0,0
			c2.3-1,4.7-1.5,7.1-1.5h0l0,0c0.1,0,0.2,0,0.3,0c2.4,0,4.7,0.4,6.9,1.3h0c2.3,0.9,4.3,2.3,6.1,3.9l0,0c1.8,1.7,3.2,3.7,4.1,6l0,0
			c1,2.3,1.5,4.7,1.5,7.1l0,0v0c0,2.4-0.4,4.8-1.3,7.1l0,0c-6.2,15.7-15.3,29.8-27,41.8L40,950l0,0c-11.8,12.1-25.6,21.7-41,28.3
			l0,0h0l-66.7,28.8c-0.4,0.2-0.7,0.4-1,0.7c-0.9,0.9-1.2,2.3-0.6,3.5c0.5,1.2,1.7,1.9,2.9,1.9c0.4,0,0.9-0.1,1.3-0.3l66.7-28.8l0,0
			l0,0c41.9-18.1,86-28.6,131.1-31.3l1.5-12.8c0.7-6.2,2.7-12,5.7-17.4c3-5.4,7.1-10.1,11.9-13.9c4.9-3.8,10.3-6.6,16.3-8.3
			c21.7-6.1,41.8-16.3,59.7-30.3c17.8-14,32.4-31.1,43.5-50.8l0-0.1c0.2-0.3,0.5-0.6,0.8-0.9l0.1-0.1c0.1-0.1,0.2-0.2,0.4-0.2
			l0.1-0.1c0.2-0.1,0.3-0.1,0.5-0.2l0,0c0.2-0.1,0.4-0.1,0.6-0.1l0.2,0c0.1,0,0.1,0,0.2,0c0.1,0,0.2,0,0.3,0h0l0.2,0.1
			c0.1,0,0.2,0,0.4,0.1c0.2,0,0.3,0.1,0.4,0.2l0.2,0.1l0,0c0.2,0.1,0.4,0.2,0.5,0.4c0.1,0.1,0.2,0.2,0.3,0.3l0.1,0.1
			c0.1,0.1,0.2,0.2,0.2,0.4l0.1,0.2c0.1,0.1,0.1,0.2,0.1,0.4l0.1,0.2c0.1,0.2,0.1,0.4,0.1,0.6l0,0c0,0.2,0,0.4,0,0.7
			c-1.3,11-0.5,22,2.5,32.7l0,0c3,10.7,8,20.6,14.9,29.3l0,0c6.8,8.7,15.2,15.9,24.9,21.3l0,0c9.7,5.4,20.2,8.9,31.2,10.2l0,0
			l48.1,5.8l0,0h0c11.9,1.4,23.2,5.1,33.6,11l0,0c10.4,5.8,19.5,13.6,26.9,23l0,0c7.4,9.4,12.7,19.9,16,31.5l0,0
			c3.2,11.5,4.2,23.4,2.7,35.2l0,0l-4.7,39.3l105,13.7l0,0c5.8,0.8,11.3,2.6,16.4,5.5l0,0c5.1,2.9,9.4,6.8,13,11.4l0,0
			c3.1,4,6.8,7.3,11.1,9.7l0,0l0,0c4.3,2.5,9,4.1,14,4.7h0c3.5,0.5,6.9,0.7,10.4,0.7c6.9,0,13.7-0.9,20.4-2.7l0,0l29.8-8l0,0
			c3.8-1,7.6-1.5,11.5-1.5c1.9,0,3.8,0.1,5.8,0.4l0,0c5.8,0.8,11.3,2.6,16.3,5.5l0,0c10,5.8,20.5,10.4,31.4,13.9
			c0.8-1.4,1.8-2.6,3-3.8l0,0l0,0c2.1-2.1,4.5-3.8,7.3-5l0,0c2.7-1.2,5.6-1.8,8.6-1.8l0,0l107.9-1.6c7.1-3.9,14-8.4,20.5-13.4
			l0.1-0.1l0,0h0l0,0l0.1-0.1c16.9-13,30.8-28.9,41.4-47.2l0,0c5.1-8.8,11.8-16.5,19.9-22.7l0,0c8-6.1,16.8-10.5,26.4-13.2
			c0.1,0,0.3-0.1,0.4-0.1l0.1,0l0.1,0l20.9-5.6l0,0l13-3.5l-8.1-28.6c-0.9-3.2-1.2-6.5-0.8-9.8c0.4-3.3,1.4-6.4,3-9.3
			c1.6-2.9,3.7-5.4,6.3-7.5c2.6-2,5.5-3.5,8.7-4.4l0,0l22-6.2c5.2-1.5,9.9-3.9,14.1-7.2c4.2-3.3,7.6-7.4,10.2-12
			c2.6-4.7,4.2-9.7,4.9-15c0.6-5.3,0.2-10.6-1.3-15.7c-1.7-6.1-3.1-12.3-4.2-18.6c-6.7-1.4-13.5-2.1-20.4-2.1c-0.5,0-1,0-1.5,0l0,0
			c-13.2,0.2-26.1,3-38.2,8.2l0,0c-12.2,5.3-23,12.7-32.2,22.2c-9.2,9.5-16.3,20.5-21.2,32.8l0,0l-19.8,50l0,0
			c-4.5,11.5-11.2,21.8-19.9,30.7l0,0c-8.6,8.9-18.7,15.9-30,20.8l0,0c-11.3,4.9-23.4,7.5-35.8,7.7l0,0c-0.5,0-0.9,0-1.4,0
			c-11.9,0-23.5-2.2-34.6-6.6l0,0l-50-19.8l0,0l-67.5-26.8l0,0l0,0c-11.4-4.5-21.8-11.2-30.7-19.9l0,0c-8.9-8.6-15.9-18.8-20.8-30.1
			l0,0l-28.8-66.7l-0.1-0.1c-5.2-12-12.7-22.8-22.1-32l0,0c-9.5-9.2-20.5-16.3-32.8-21.2l0,0c-11.8-4.7-24.2-7.1-36.9-7.1
			c-0.5,0-1,0-1.5,0l0,0c-13.2,0.2-26.1,3-38.2,8.2l0,0l-49.4,21.3l0,0c-11.3,4.9-23.3,7.5-35.7,7.7l0,0c-0.5,0-0.9,0-1.4,0
			c-11.9,0-23.5-2.2-34.5-6.6l0,0c-11.5-4.6-21.8-11.2-30.7-19.9l0,0c-8.9-8.6-15.9-18.7-20.8-30.1l0,0L304.9,733l0,0
			c-2.5-5.7-6-10.8-10.4-15.1l0,0l0,0l0,0l0,0c-4.4-4.3-9.6-7.6-15.3-9.9l0,0c-5.5-2.2-11.3-3.3-17.3-3.3c-0.2,0-0.5,0-0.7,0l0,0
			c-6.2,0.1-12.2,1.4-17.9,3.8l0,0c-5.7,2.4-10.8,5.9-15.1,10.4l0,0c-4.3,4.4-7.6,9.6-9.9,15.4l0,0l0,0c-2.3,5.8-3.4,11.8-3.3,18
			l0,0c0.2,11.1-1.8,21.9-6,32.3l0,0c-4.1,10.3-10.1,19.6-17.8,27.6l0,0l0,0c-1.7,1.7-3.7,3.1-6,4.1l0,0c-2.2,1-4.6,1.5-7.1,1.5l0,0
			c-0.1,0-0.2,0-0.2,0c-2.4,0-4.7-0.4-6.9-1.3l0,0c-2.3-0.9-4.3-2.2-6.1-3.9c-1.8-1.7-3.1-3.7-4.1-6l0,0l-57.9-134l0,0
			c-3.6-8.3-8.7-15.8-15.2-22.1l0,0c-6.5-6.3-14.1-11.2-22.5-14.6l0,0C57,632.8,48.5,631.1,39.7,631.1"/>
		<path class="st17" d="M473.4,1060.8l-1.2,10.3c5.7,2.3,11.2,4.9,16.6,8l0,0c14.7,8.4,27.3,19.5,37.6,33l0,0
			c9.7,12.6,20.5,24.2,32.3,34.6c46.4,18.3,95.2,27.5,145,27.5c2,0,4,0,6,0h0l17.1-0.3l0,0c3.8-0.1,7.5-0.9,11-2.4l0,0
			c3.5-1.5,6.6-3.7,9.3-6.4l0,0c2.6-2.7,4.7-5.9,6.1-9.5l0,0l0,0c1.4-3.6,2.1-7.3,2-11.1l0,0l-0.3-17.8v0l0,0
			c-0.1-3,0.5-5.9,1.6-8.7l0,0c0.5-1.3,1.1-2.5,1.8-3.6c-10.9-3.5-21.4-8.1-31.4-13.9l0,0c-5-2.9-10.5-4.8-16.3-5.5l0,0
			c-1.9-0.3-3.8-0.4-5.8-0.4c-3.8,0-7.7,0.5-11.5,1.5l0,0l-29.8,8l0,0c-6.7,1.8-13.5,2.7-20.4,2.7c-3.5,0-6.9-0.2-10.4-0.7h0
			c-5-0.7-9.7-2.3-14-4.7l0,0l0,0c-4.3-2.5-8.1-5.8-11.1-9.7l0,0c-3.6-4.6-7.9-8.5-13-11.4l0,0c-5.1-2.9-10.6-4.8-16.4-5.5l0,0
			L473.4,1060.8 M1028.1,996l-13,3.5l0,0l-20.9,5.6l-0.1,0l-0.1,0c-0.1,0-0.3,0.1-0.4,0.1c-9.6,2.6-18.4,7.1-26.4,13.2l0,0
			c-8.1,6.2-14.8,13.8-19.9,22.7l0,0c-10.6,18.4-24.5,34.3-41.4,47.2l-0.1,0.1l0,0h0l0,0l-0.1,0.1c-6.5,5-13.4,9.5-20.5,13.4l9-0.1
			h0c6.8-0.1,13.4-1.5,19.7-4.2l0,0c2.6-1.1,5.3-1.7,8-1.7h0c0.1,0,0.2,0,0.3,0c2.7,0,5.3,0.5,7.8,1.5c2.6,1,4.9,2.5,6.9,4.5l0,0
			c2.6,2.5,5.6,4.5,9,5.8l0,0c3.2,1.3,6.7,1.9,10.1,1.9c0.1,0,0.3,0,0.4,0l0,0c3.6-0.1,7.2-0.8,10.5-2.2l0,0h0
			c3.3-1.4,6.3-3.5,8.8-6.1l0,0l59.1-60.9l0,0c1.5-1.5,3-3,4.6-4.4c-0.2-0.9-0.4-1.7-0.7-2.6l0,0L1028.1,996 M1517.8,921.2
			c-3.5,0.1-7.1,0.2-10.6,0.2c-0.5,0-1,0-1.6,0l15.3,6.1c3.5-0.2,7.1-0.4,10.6-0.8C1527.1,924.4,1522.6,922.6,1517.8,921.2
			 M1659.3,871.2c-25.9,19.2-54.7,33.1-85.7,41.4l0,0c-10,2.7-20,4.8-30.2,6.2l4.6,5.8c9.1-1.5,18.2-3.4,27.3-5.8l0,0
			c33.2-8.9,64-24.1,91.4-45.1C1664,873.1,1661.6,872.2,1659.3,871.2 M1897.1,772.4c-0.7,0-1.4,0-2.1,0l0,0c-17.7,0.3-35,4-51.2,11
			l0,0c-7.5,3.2-15.5,5-23.8,5.1l0,0c-0.1,0-0.2,0-0.3,0c-2.4,0-4.7-0.4-6.9-1.3l0,0c-2.3-0.9-4.3-2.2-6.1-3.9
			c-0.7-0.7-1.4-1.5-2-2.3c-5.6,9.3-12.8,17.4-21.3,24.1l-48.5,38.3c9.1-1.6,18.3-2.5,27.6-2.5c6.9,0,13.7,0.5,20.6,1.4l0,0
			c10.6,1.4,21.2,2.1,31.8,2.1c21.2,0,42.4-2.8,63.2-8.4l0,0c31.1-8.4,59.8-22.5,85.3-42.1l0,0l0,0v0l0,0c0.1-0.1,0.2-0.1,0.3-0.2
			c-0.6-0.6-1.2-1.2-1.8-1.8l0,0c-4.5-4.3-9.6-7.7-15.4-9.9l0,0C1930.7,775.6,1914.1,772.4,1897.1,772.4"/>
		<path class="st18" d="M1306.5,1019.3c-7.6,0-15.1,1-22.5,3l0,0c-11.1,3-21.4,8.1-30.6,15.1l0,0c-9.2,7-16.7,15.7-22.5,25.7l0,0
			c-2,3.4-3.7,7-5.2,10.6c0.9,0.6,1.8,1.2,2.8,1.7c5.4,3,11.3,4.9,17.4,5.6c1.8,0.2,3.7,0.3,5.5,0.3c4.2,0,8.5-0.6,12.6-1.7l0.1,0
			l31.5-8.9c5.9-1.7,11.4-4.5,16.3-8.3c4.9-3.8,8.9-8.5,11.9-13.9l13.2-23.6c-6.1-2.3-12.5-3.8-19.1-4.7h0
			C1314.1,1019.6,1310.3,1019.3,1306.5,1019.3 M156.1,952.2c-2,0-3.9,0-5.9,0l0,0c-5.9,0.1-11.7,0.3-17.6,0.6l-20.4,170.2
			c-2.8,23.4-1,46.7,5.4,69.2c6.3,22.6,16.9,43.4,31.4,61.9c14.5,18.5,32.2,33.7,52.7,45.2c9.7,5.4,18,12.6,24.9,21.4
			c6.8,8.7,11.8,18.5,14.9,29.3c3,10.7,3.8,21.7,2.5,32.7c-1.3,11.1-4.8,21.6-10.2,31.2c-3,5.4-4.9,11.2-5.7,17.4
			c-0.7,6.2-0.3,12.3,1.4,18.2c1.7,5.9,4.5,11.4,8.3,16.3c3.9,4.9,8.5,8.9,13.9,11.9c5.4,3,11.2,4.9,17.4,5.7
			c1.9,0.2,3.8,0.3,5.6,0.3c4.3,0,8.5-0.6,12.6-1.7c6-1.7,11.5-4.5,16.3-8.3l120.3-94.5c17.6-13.8,37.4-23.9,58.8-29.9l0.2-0.1
			c14.8-4.2,30-6.2,45.3-6.2c6.7,0,13.5,0.4,20.3,1.2l0,0l11,1.3h0c2.3,0.3,4.5,0.4,6.7,0.4c5.1,0,10.1-0.7,15-2.1l0,0l0,0
			c7.1-2,13.7-5.3,19.4-9.9l0,0c5.8-4.5,10.6-10.1,14.2-16.5l0,0l37.3-66.4l0,0c5.4-9.6,12.5-17.8,21-24.6l0,0
			c8.6-6.8,18.3-11.7,28.9-14.6l0,0l0,0l14.6-4.1c-6.6-0.1-13.1-0.5-19.7-1.1l-80.1,22.5c-7.4,2.1-15,3.1-22.6,3.1
			c-3.4,0-6.7-0.2-10.1-0.6h0c-11-1.3-21.5-4.8-31.2-10.2l0,0c-9.7-5.4-18.1-12.6-24.9-21.4l0,0l-40.5-51.5l0,0
			c-6.8-8.7-11.8-18.5-14.8-29.3l0,0c-2-7.1-3-14.3-3.1-21.5c-14.8-10.8-28.8-22.6-42.1-35.5l0,0c-0.4-0.4-0.8-0.8-1.2-1.2
			l-34.3-4.5l0,0c-5.1-0.7-10.3-1-15.4-1c-10.2,0-20.4,1.3-30.4,4l0,0l-136.4,36.6l0,0l0,0l0,0c-0.3,0.1-0.6,0.1-0.8,0.1
			c-1.4,0-2.7-0.9-3.1-2.4c-0.5-1.7,0.5-3.5,2.3-3.9h0l0,0h0l136.4-36.6l0,0c10.5-2.8,21.3-4.2,32.1-4.2c5.4,0,10.8,0.4,16.2,1.1h0
			l25.4,3.3c-34.8-31.6-74.6-56.4-118.5-73.8l0,0C253.9,961.4,205.5,952.2,156.1,952.2 M1549.1,938.7c3.7,3.3,7.1,6.9,10.3,10.9l0,0
			c0.6,0.8,1.6,1.2,2.5,1.2c0.1,0,0.2,0,0.2,0c0.6,0,1.2-0.3,1.8-0.7c0.5-0.4,0.8-0.8,1-1.3l0.1-0.2l0-0.1c0.3-0.9,0.1-2-0.6-2.8
			l-0.9-1.2L1549.1,938.7 M1341.6,862.6c-0.4,0-0.9,0-1.3,0c-11.1,0.2-21.9,2.5-32.1,6.9l0,0l-66.7,28.8l0,0
			c-11.3,4.9-21.4,11.9-30,20.7l-0.1,0.1l0,0l-0.1,0.1c-8.6,8.9-15.2,19.2-19.8,30.6l0,0c-0.4,1-0.8,1.9-1.2,2.9
			c6.1-1.4,12.3-2,18.5-2c3.7,0,7.5,0.2,11.2,0.7h0l15.8,2.1l0,0c0.8,0.1,1.5,0.2,2.3,0.2c1.5,0,3-0.2,4.5-0.6h0h0
			c2.2-0.6,4.3-1.6,6.1-3c1.8-1.4,3.3-3.1,4.4-5.1l0,0c1.1-2,1.9-4.2,2.2-6.4v0c0.8-5.8,2.6-11.3,5.5-16.4l0,0
			c2.9-5.1,6.8-9.5,11.4-13l0,0c4.6-3.5,9.8-6.1,15.5-7.6l0,0c3.8-1,7.6-1.5,11.4-1.5c1.9,0,3.8,0.1,5.7,0.4l0,0
			c5.8,0.7,11.3,2.6,16.4,5.6l0,0l26.7,15.4l0,0c4.3,2.5,9,4.1,14,4.7l0,0c1.7,0.2,3.3,0.3,5,0.3c3.3,0,6.6-0.4,9.8-1.3l0,0l29.8-8
			l0,0c7.2-2,14.6-2.9,22-2.9c3.7,0,7.5,0.2,11.2,0.7h0l34,4.4h0c0.6,0.1,1.2,0.2,1.7,0.2c5.8-1.3,11.7-1.9,17.6-1.9
			c0.9,0,1.8,0,2.8,0l-39.6-15.7l-0.1,0l-83.8-33.3C1362.5,864.6,1352.2,862.6,1341.6,862.6 M1727.3,643.3c-8.2,0-16.4,1.1-24.4,3.4
			l-0.3,0.1c-5.7,1.6-11.2,3.8-16.5,6.5c-5.2,2.7-10.3,5.9-15,9.6l-18,14.2l-0.2,0.1l-0.3,0.2c-7.7,6-16.4,10.4-25.8,13.1l-0.2,0.1
			c-6.7,1.9-13.5,2.8-20.4,2.8c-2.9,0-5.9-0.2-8.8-0.5l-318.3-37.7c-6.9-0.8-13.9-1.2-20.8-1.2c-16.2,0-32.3,2.2-48,6.6
			c-0.1,0-0.2,0.1-0.4,0.1c-22.7,6.4-43.5,17-61.8,31.6c-18.4,14.5-33.6,32.3-45,52.8c-11.5,20.5-18.7,42.7-21.4,66.1
			c-2,17-1.6,33.9,1.3,50.6c5.6,1.2,11.1,2.8,16.5,5l0,0l67.5,26.8l0,0c11,4.4,22.6,6.6,34.5,6.6c0.5,0,1,0,1.5,0h0
			c12.4-0.2,24.4-2.8,35.7-7.6l0,0l66.7-28.8l0,0c11-4.7,22.6-7.2,34.6-7.4c0.5,0,1,0,1.5,0c11.4,0,22.6,2.1,33.3,6.4l0,0l0,0
			l83.7,33.3l0.1,0l0.1,0c20.9,8.2,42.7,12.4,65.1,12.4c0.9,0,1.9,0,2.8,0c2.7,0,5.4-0.1,8.1-0.3l-26.5-33.6
			c-1.5-1.9-2.6-4.1-3.3-6.5c-0.7-2.4-0.9-4.8-0.6-7.2c0.3-2.4,1-4.7,2.2-6.9c1.2-2.1,2.8-4,4.7-5.5c8.7-6.9,18.6-11.9,29.3-14.9
			l0.1,0c7.5-2.1,15.1-3.1,22.8-3.1c3.3,0,6.6,0.2,9.8,0.6c11,1.3,21.5,4.7,31.2,10.1l35.7,20l36.5-37.6l0,0l84.3-86.9l0,0
			c2.3-2.4,5-4.2,8-5.5l0,0c2.1-0.9,4.4-1.5,6.7-1.8c-0.1-7.2-1.1-14.4-3-21.5c-3-11.1-8-21.3-15-30.4l0,0
			c-3.9-5.1-6.7-10.7-8.3-16.9c-1.3-4.7-1.8-9.6-1.6-14.4c-3.3-0.8-6.6-1.4-10-1.7C1734.4,643.6,1730.8,643.3,1727.3,643.3"/>
		<path class="st19" d="M376.7,1049.2c-10.8,0-21.5,1.4-32.1,4.2l0,0l-136.4,36.6h0l0,0h0c-1.7,0.5-2.7,2.2-2.3,3.9
			c0.4,1.4,1.7,2.4,3.1,2.4c0.3,0,0.6,0,0.8-0.1l0,0l0,0l0,0l136.4-36.6l0,0c10-2.7,20.2-4,30.4-4c5.1,0,10.2,0.3,15.4,1l0,0
			l34.3,4.5c-2.7-2.6-5.3-5.1-8.1-7.5l-25.4-3.3h0C387.5,1049.5,382.1,1049.2,376.7,1049.2 M1299.3,899.9c-3.9,0-7.7,0.5-11.4,1.5
			l0,0c-5.7,1.5-10.9,4.1-15.5,7.6l0,0c-4.6,3.5-8.5,7.9-11.4,13l0,0c-2.9,5.1-4.8,10.6-5.5,16.4v0c-0.3,2.3-1,4.4-2.2,6.4l0,0
			c-1.1,2-2.6,3.7-4.4,5.1c-1.8,1.4-3.9,2.4-6.1,3h0h0c-1.5,0.4-3,0.6-4.5,0.6c-0.8,0-1.5-0.1-2.3-0.2l0,0l-15.8-2.1h0
			c-3.7-0.5-7.5-0.7-11.2-0.7c-6.2,0-12.4,0.7-18.5,2c-4.8,11.1-11.5,21.2-20,29.9l-0.1,0.1l0,0l0,0c-9.2,9.4-20.1,16.8-32.3,21.9h0
			h0l0,0h0c-12.2,5.1-25,7.8-38.2,7.9c-12.2,0.2-24.1,2.7-35.2,7.6l0,0c-9.2,4-17.6,9.4-25.1,16.1c2.1,8.6,2.6,17.3,1.6,26.1
			c-1.1,9.7-4.1,18.9-8.9,27.4c-4.8,8.5-11.1,15.9-18.7,21.9l0,0c-7.6,6-16.3,10.4-25.6,13.1l0,0l0,0l-287.2,81.3l0,0l-3.4,0.9
			c6.6,0.6,13.2,1,19.7,1.1l272.6-77.1l0,0l0,0l154-43.6l0,0l0,0c11.5-3.2,22-8.6,31.5-16.1l13.3-10.5c1.9-1.5,4.1-2.6,6.5-3.3
			c1.7-0.5,3.4-0.7,5.2-0.7c0.7,0,1.4,0,2.1,0.1c2.4,0.3,4.8,1.1,6.9,2.2c2.2,1.2,4,2.8,5.5,4.7c3.2,4,6.9,7.4,11.1,10.2
			c1.5-3.6,3.2-7.2,5.2-10.6l0,0c5.8-10,13.3-18.6,22.5-25.7l0,0c9.2-7,19.4-12.1,30.6-15.1l0,0c7.4-2,14.9-3,22.5-3
			c3.8,0,7.6,0.3,11.5,0.8h0c6.6,0.9,12.9,2.4,19.1,4.7l2.8-5c2.6-4.7,6-8.7,10.2-12l91.2-72.1l0,0c8.7-6.9,18.6-11.9,29.2-15
			l0.2-0.1c1.6-0.5,3.3-0.9,5-1.2c-0.6-0.1-1.2-0.1-1.7-0.2h0l-34-4.4h0c-3.7-0.5-7.5-0.7-11.2-0.7c-7.4,0-14.8,1-22,2.9l0,0
			l-29.8,8l0,0c-3.2,0.9-6.5,1.3-9.8,1.3c-1.6,0-3.3-0.1-5-0.3l0,0c-5-0.7-9.7-2.2-14-4.7l0,0l-26.7-15.4l0,0
			c-5.1-2.9-10.6-4.8-16.4-5.6l0,0C1303.1,900,1301.2,899.9,1299.3,899.9 M1747.9,645.7c-0.2,4.8,0.4,9.6,1.6,14.4
			c1.6,6.1,4.4,11.8,8.3,16.9l0,0c7,9.1,12,19.3,15,30.4c1.9,7.1,2.9,14.3,3,21.5c0.9-0.1,1.9-0.2,2.8-0.2l0,0c0.1,0,0.3,0,0.4,0
			c3.2,0,6.2,0.6,9.2,1.7l0.1,0c3.1,1.2,5.9,3,8.2,5.3l0,0c2.4,2.3,4.2,5,5.5,8l0,0c1.3,3,2,6.2,2,9.6v0c0.1,3.3-0.5,6.5-1.7,9.6
			l0,0c-0.9,2.3-1.3,4.7-1.3,7.1c0,2.5,0.5,4.9,1.5,7.1c0.6,1.3,1.3,2.6,2.1,3.7c0.6-0.9,1.1-1.9,1.6-2.8
			c5.8-10.4,9.5-21.7,10.9-33.6c1.4-11.8,0.4-23.7-2.8-35.2c-3.3-11.5-8.7-22.1-16.1-31.5c-7.4-9.4-16.4-17.1-26.9-22.9
			C1764.1,650.7,1756.2,647.6,1747.9,645.7"/>
		<path class="st20" d="M426.4,1061.1c0.4,0.4,0.8,0.8,1.2,1.2l0,0c13.3,12.9,27.3,24.7,42.1,35.5c-0.1-3.7,0.1-7.5,0.6-11.2l0,0
			l1.9-15.5c-9.7-3.9-19.8-6.5-30.3-7.9l0,0l0,0l0,0l-0.1,0c-0.1,0-0.2,0-0.3,0h0L426.4,1061.1 M1547.9,924.6
			c-5.4,0.9-10.9,1.6-16.4,2.1c1,0.5,1.9,1,2.9,1.5c5.3,3,10.2,6.4,14.7,10.4l14.4,5.7L1547.9,924.6 M1341.6,856.2c-0.5,0-1,0-1.5,0
			c-12,0.2-23.6,2.7-34.6,7.4l0,0l-66.7,28.8l0,0c-11.3,4.9-23.3,7.5-35.7,7.6h0c-0.5,0-1,0-1.5,0c-11.9,0-23.5-2.2-34.5-6.6l0,0
			l-67.5-26.8l0,0c-5.4-2.1-10.9-3.8-16.5-5c1.1,6.2,2.5,12.4,4.2,18.6c1.5,5.2,1.9,10.5,1.3,15.7c-0.6,5.3-2.3,10.4-4.9,15
			c-2.6,4.6-6,8.7-10.2,12c-4.2,3.3-8.9,5.7-14.1,7.2l-22,6.2l0,0c-3.1,0.9-6.1,2.4-8.7,4.4c-2.6,2.1-4.8,4.6-6.3,7.5
			c-1.6,2.9-2.6,6-3,9.3c-0.4,3.3-0.1,6.6,0.8,9.8l8.1,28.6l158.6-42.5l0,0c1.2-0.3,2.4-0.6,3.6-0.9c0.4-0.9,0.8-1.9,1.2-2.9l0,0
			c4.5-11.5,11.2-21.8,19.8-30.6l0.1-0.1l0,0l0.1-0.1c8.6-8.8,18.7-15.8,30-20.7l0,0l66.7-28.8l0,0c10.2-4.4,21-6.7,32.1-6.9
			c0.4,0,0.9,0,1.3,0c10.6,0,21,2,30.9,5.9l83.8,33.3l0.1,0l39.6,15.7c2.4,0.1,4.8,0.3,7.2,0.5c5,0.6,9.9,1.6,14.6,3
			c8.5-0.4,17-1.1,25.5-2.4l-8.5-10.8c-2.7,0.2-5.4,0.3-8.1,0.3c-0.9,0-1.9,0-2.8,0c-22.4,0-44.3-4.2-65.1-12.4l-0.1,0l-0.1,0
			l-83.7-33.3l0,0l0,0C1364.2,858.3,1353,856.2,1341.6,856.2 M1735,843.3c-4.4,0.8-8.7,1.8-13,2.9l0,0c-20,5.4-38.5,14.5-55,27.2
			l0,0l-0.1,0.1c-0.1,0.1-0.2,0.2-0.3,0.2c2.1,0.5,4.1,0.9,6.3,1.2c1.8,0.2,3.6,0.3,5.5,0.3c4.3,0,8.5-0.6,12.7-1.8l0,0
			c6-1.7,11.4-4.5,16.3-8.3L1735,843.3 M274.2,817.8c-0.1,0-0.1,0-0.2,0l-0.2,0c-0.2,0-0.4,0.1-0.6,0.1l0,0
			c-0.2,0.1-0.3,0.1-0.5,0.2l-0.1,0.1c-0.1,0.1-0.2,0.1-0.4,0.2l-0.1,0.1c-0.3,0.2-0.6,0.5-0.8,0.9l0,0.1
			c-11.1,19.7-25.8,36.8-43.5,50.8c-17.9,14-37.9,24.2-59.7,30.3c-6,1.7-11.4,4.5-16.3,8.3c-4.8,3.8-8.9,8.5-11.9,13.9
			c-3,5.4-4.9,11.2-5.7,17.4l-1.5,12.8c5.8-0.3,11.7-0.6,17.6-0.6l0,0c2,0,3.9,0,5.9,0c49.4,0,97.7,9.2,143.7,27.5l0,0
			c43.9,17.4,83.7,42.2,118.5,73.8l23.9,3.1l0,0c0.2,0,0.3,0,0.5,0.1l30.7,4l4.7-39.3l0,0c1.4-11.8,0.5-23.7-2.7-35.2l0,0
			c-3.2-11.5-8.6-22.1-16-31.5l0,0c-7.4-9.4-16.5-17.2-26.9-23l0,0c-10.4-5.9-21.7-9.5-33.6-11h0l0,0l-48.1-5.8l0,0
			c-11-1.3-21.5-4.8-31.2-10.2l0,0c-9.7-5.5-18.1-12.6-24.9-21.3l0,0c-6.9-8.7-11.9-18.6-14.9-29.3l0,0c-3-10.7-3.9-21.7-2.5-32.7
			c0-0.2,0-0.4,0-0.7l0,0c0-0.2-0.1-0.4-0.1-0.6l-0.1-0.2c0-0.1-0.1-0.3-0.1-0.4l-0.1-0.2c-0.1-0.1-0.1-0.2-0.2-0.4l-0.1-0.1
			c-0.1-0.1-0.2-0.2-0.3-0.3c-0.2-0.1-0.3-0.3-0.5-0.4l0,0l-0.2-0.1c-0.1-0.1-0.3-0.1-0.4-0.2c-0.1,0-0.2-0.1-0.4-0.1l-0.2-0.1h0
			C274.4,817.8,274.3,817.8,274.2,817.8 M1775.9,728.9c-2.3,0.3-4.6,0.9-6.7,1.8l0,0c-3,1.3-5.7,3.2-8,5.5l0,0l-84.3,86.9l0,0
			l-36.5,37.6l15.2,8.5c1.3,0.7,2.5,1.3,3.8,1.9c1.2-0.9,2.5-1.8,3.7-2.8l0.1-0.1l0,0v0l0.1-0.1l55.3-42.6c0.1-0.1,0.2-0.2,0.3-0.3
			c18.5-14.3,33.9-31.8,45.5-52.1l0,0c5.7-9.9,9.4-20.7,10.9-32.1C1775.7,737.1,1775.9,733,1775.9,728.9"/>
		<path class="st21" d="M418.3,1053.5c2.7,2.5,5.4,5,8.1,7.5l15,2h0c0.1,0,0.2,0,0.3,0l0.1,0l0,0l0,0l0,0
			c10.5,1.4,20.6,4.1,30.3,7.9l1.2-10.3l-30.7-4c-0.2,0-0.3-0.1-0.5-0.1l0,0L418.3,1053.5 M1190.3,952.6c-1.2,0.3-2.4,0.6-3.6,0.9
			l0,0L1028.1,996l10.6,37.3l0,0c0.2,0.9,0.5,1.7,0.7,2.6c7.4-6.7,15.8-12.1,25.1-16.1l0,0c11.2-4.8,23-7.4,35.2-7.6
			c13.2-0.1,26.1-2.7,38.2-7.9h0l0,0h0h0c12.2-5.1,23.1-12.5,32.3-21.9l0,0l0,0l0.1-0.1C1178.8,973.8,1185.5,963.7,1190.3,952.6
			 M1543.3,918.8c-8.5,1.2-17,2-25.5,2.4c4.7,1.4,9.3,3.3,13.7,5.5c5.5-0.5,10.9-1.2,16.4-2.1L1543.3,918.8 M1779.1,728.7
			c-0.1,0-0.3,0-0.4,0l0,0c-0.9,0-1.9,0.1-2.8,0.2c0.1,4.1-0.2,8.2-0.7,12.4c-1.5,11.4-5.2,22.2-10.9,32.1l0,0
			c-11.7,20.3-27,37.8-45.5,52.1c-0.1,0.1-0.2,0.2-0.3,0.3l-55.3,42.6l-0.1,0.1v0l0,0l-0.1,0.1c-1.2,0.9-2.4,1.9-3.7,2.8
			c2.4,1.1,4.8,1.9,7.3,2.5c0.1-0.1,0.2-0.2,0.3-0.2l0.1-0.1l0,0c16.5-12.6,35-21.8,55-27.2l0,0c4.3-1.2,8.7-2.1,13-2.9l48.5-38.3
			c8.5-6.7,15.6-14.8,21.3-24.1c-0.9-1.1-1.6-2.4-2.1-3.7c-1-2.2-1.5-4.6-1.5-7.1c0-2.5,0.4-4.9,1.3-7.1l0,0
			c1.2-3.1,1.8-6.3,1.7-9.6v0c0-3.3-0.7-6.5-2-9.6l0,0c-1.3-3-3.2-5.7-5.5-8l0,0c-2.4-2.3-5.1-4.1-8.2-5.3l-0.1,0
			C1785.4,729.3,1782.3,728.7,1779.1,728.7"/>
	</g>
	<g>
		<g>
			<g>
				<path class="st8" d="M1509.5,704.5c-0.3,0-0.7,0-1,0c-8-0.4-15.4-4-20.8-10c-5.4-6-8.1-13.7-7.7-21.7
					c0.9-16.6,15.1-29.3,31.7-28.4l0,0c8,0.4,15.4,4,20.8,10c5.4,6,8.1,13.7,7.7,21.7C1539.3,692.2,1525.7,704.8,1509.5,704.5z
					 M1510.5,654.6c-10.6-0.2-19.5,8-20.1,18.7c-0.3,5.3,1.5,10.3,5,14.2c3.5,3.9,8.4,6.2,13.6,6.5c10.9,0.6,20.2-7.8,20.8-18.6
					c0.3-5.3-1.5-10.3-5-14.2c-3.5-3.9-8.4-6.2-13.6-6.5l0,0C1511,654.6,1510.8,654.6,1510.5,654.6z"/>
			</g>
			<g>
				<path class="st8" d="M1324.1,694.4c-0.3,0-0.7,0-1,0c-15.4-0.8-27.5-13.2-28.4-28.2c-2,1.8-4.7,2.8-7.6,2.7l-16-0.9
					c-2.8-0.2-5.3-1.4-7.2-3.5c-1.9-2.1-2.8-4.8-2.7-7.5l0.1-1.1c0.2-3.3,1.9-6.2,4.5-8l0.1-1.9c-0.1-0.1-0.1-0.1-0.2-0.2
					c-1.9-1.8-2.1-4.1-2-10.1c0.1-3,0.2-6.3,0.3-7.3c0.2-1.8,1.2-3.6,3-4.6c0.8-14.5,1.6-30.9,2.2-41.1c0-0.3-0.1-0.6,0-1l0.2-4.1
					c0.1-2,0.4-7.4,4.8-11l0.4-7c0.5-8,1.9-13.9,4.6-18.5c0.2-0.4,0.4-0.7,0.7-1c5.9-9.2,17.3-13.7,33.7-13.1
					c59.7,1.9,166,7,215.7,12.7c12.9,1.5,32.7,8.3,34.2,18.3c0.2,1.3-0.1,2.5-0.8,3.6c4.3,6.7,14.8,24.7,16.2,27.6
					c0.1,0.1,0.1,0.2,0.2,0.4c0.7,1.3,1.2,2.3,1.6,3.2c9.1,20.4,6.2,56.2,5.1,67c0,0.5-0.1,1-0.1,1.5c0,0.1,0,0.1,0,0.2
					c-0.1,0.9-0.2,1.8-0.3,2.6c0.2,0.2,0.4,0.4,0.6,0.6c0.9,1,1.4,2.4,1.3,3.7l-0.6,11.7c-0.1,1.4-0.7,2.7-1.7,3.6
					c-1,0.9-2.4,1.4-3.7,1.3l-38.6-2.1c-3-0.2-5.9-1.6-7.9-4.1c-1.9-2.3-2.9-5.2-2.8-8.1c0-0.2,0-0.4,0-0.5
					c-0.1-0.2-0.2-0.4-0.2-0.5c-5.1-14.4-9.3-15.7-14.8-16l-12.7-0.7c-4.7-0.3-10.4,1.5-17.6,16.4c-0.9,1.9-2.9,3-5,2.9l-121-6.6
					c-1.8-0.1-3.5-1.2-4.3-2.8l-0.6-1.1c-0.4-0.8-0.9-1.8-1.5-2.9c0.4,2.3,0.6,4.7,0.5,7.1C1353.9,682.2,1340.3,694.8,1324.1,694.4z
					 M1301.9,639.4l7.5,0.3c2.2,0.1,4,1.5,4.7,3.6c0.7,2.1,0,4.3-1.7,5.7c-4.4,3.5-7.1,8.7-7.4,14.4c-0.6,10.9,7.8,20.2,18.6,20.8
					c0.2,0,0.4,0,0.7,0c10.6,0.2,19.5-8,20.1-18.7c0.3-5.6-1.8-11.1-5.8-15.1c-1.5-1.5-2-3.8-1.1-5.8c0.9-2,2.9-3.2,5.1-3l8.8,0.6
					c5.6,0.1,9.3,6.6,12.8,13.4l114.6,6.2c5.2-9.9,12.8-19.9,26-19.2l12.7,0.7c11.1,0.6,17.5,6.1,23,20c1.2,0.5,2.1,1.5,2.7,2.7
					c0.8,1.8,0.4,3.9-0.8,5.3c0,0.2,0.1,0.5,0.4,0.8c0.2,0.2,0.4,0.4,0.5,0.4l33.4,1.8l0.1-2.1c-0.4-0.3-0.7-0.6-1-0.9
					c-0.9-1.1-1.3-2.5-1.2-4c0.2-1.4,0.5-3.8,0.8-6.8c0-0.5,0.1-0.9,0.1-1.4c0-0.1,0-0.2,0-0.3c2.2-20.4,2.2-47.4-4.2-61.8
					c-0.3-0.7-0.8-1.7-1.5-3c-0.1-0.2-0.2-0.4-0.3-0.6c-2.4-4.6-13.9-23.9-16.1-27.2c-0.2-0.3-0.5-0.5-0.6-0.8c-1.1-1.8-2-3.3-2.4-4
					c-0.8-1.3-0.9-2.9-0.4-4.3c-4.5-2.7-12.7-5.8-21.6-6.8c-49.4-5.6-155.3-10.8-214.8-12.6c-0.3,0-0.5,0-0.8,0
					c-12.6-0.3-20.5,2.6-24.2,8.9c-0.1,0.2-0.3,0.5-0.5,0.7c-1.6,3.1-2.5,7.3-2.8,13.2l-0.5,9.7c-0.1,1.9-1.3,3.7-3.1,4.4
					c-1,0.5-1.5,1.1-1.6,3.9l-0.2,3.1c0,0.3,0,0.7,0,1c-0.6,10.4-1.5,28-2.3,43.2c0,0,0,0.1,0,0.2l-0.1,2.5
					c-0.1,1.4-0.7,2.7-1.7,3.6c-0.4,0.3-0.8,0.6-1.3,0.8c-0.1,1.8-0.1,3.9-0.1,5.5c0.3,0.2,0.7,0.5,1,0.8c1,1,1.5,2.4,1.4,3.8
					l-0.5,8.8c-0.1,2.4-1.9,4.4-4.2,4.8l-0.1,1.2l16,0.9l0.1-1.2c-1.6-1.7-1.9-4.4-0.6-6.4C1292.7,642.5,1297.3,638.9,1301.9,639.4z
					"/>
			</g>
		</g>
		<g>
			<g>
				<path class="st8" d="M1313.5,532.2c55.6,1.7,164.5,6.9,215.3,12.7c13.7,1.6,28.8,8.2,29.6,13.9l-274.5-15.1
					C1288.1,536.4,1296.9,531.7,1313.5,532.2z"/>
			</g>
			<g>
				<path class="st9" d="M1560.5,560.8l-279.7-15.4l1.5-2.6c5.2-8.8,15.4-12.8,31.2-12.3l0,0c59.6,1.9,165.8,7,215.4,12.7
					c13.9,1.6,30.2,8.3,31.2,15.5L1560.5,560.8z M1287.3,542l267.9,14.8c-3.8-4-15-8.8-26.7-10.1c-49.5-5.6-155.6-10.8-215.1-12.6
					C1300.8,533.6,1292.2,536.3,1287.3,542z"/>
			</g>
		</g>
		<g>
			<g>
				<g>
					<path class="st8" d="M1299.9,663c-0.7,13.7,9.8,25.5,23.5,26.2c13.7,0.7,25.5-9.8,26.2-23.5c0.7-13.7-9.8-25.5-23.5-26.2
						C1312.4,638.7,1300.6,649.2,1299.9,663z"/>
				</g>
			</g>
			<g>
				<g>
					<path class="st9" d="M1324.2,691.1c-0.3,0-0.6,0-0.9,0c-7.1-0.4-13.7-3.5-18.5-8.8c-4.8-5.3-7.2-12.2-6.8-19.3
						c0.8-14.7,13.4-26.1,28.2-25.3c14.7,0.8,26.1,13.4,25.3,28.2c-0.4,7.1-3.5,13.7-8.8,18.5C1337.5,688.8,1331,691.2,1324.2,691.1
						z M1325.2,641.2c-12.4-0.3-22.9,9.4-23.5,21.8l0,0c-0.3,6.2,1.8,12.1,5.9,16.7c4.1,4.6,9.8,7.3,15.9,7.6
						c6.2,0.3,12.1-1.8,16.7-5.9c4.6-4.1,7.3-9.8,7.6-15.9c0.7-12.7-9.1-23.6-21.8-24.3C1325.7,641.2,1325.5,641.2,1325.2,641.2z"/>
				</g>
			</g>
		</g>
		<g>
			<g>
				<g>
					<path class="st8" d="M1485.3,673c-0.7,13.7,9.8,25.5,23.5,26.2c13.7,0.7,25.5-9.8,26.2-23.5c0.7-13.7-9.8-25.5-23.5-26.2
						C1497.7,648.7,1486,659.3,1485.3,673z"/>
				</g>
			</g>
			<g>
				<g>
					<path class="st9" d="M1509.6,701.1c-0.3,0-0.6,0-0.9,0c-7.1-0.4-13.7-3.5-18.5-8.8c-4.8-5.3-7.2-12.2-6.8-19.3l0,0
						c0.8-14.7,13.5-26,28.2-25.3c7.1,0.4,13.7,3.5,18.5,8.8c4.8,5.3,7.2,12.2,6.8,19.3C1536.1,690.2,1523.9,701.4,1509.6,701.1z
						 M1487.1,673.1c-0.3,6.2,1.8,12.1,5.9,16.7c4.1,4.6,9.8,7.3,15.9,7.6c12.7,0.7,23.6-9.1,24.3-21.8c0.3-6.2-1.8-12.1-5.9-16.7
						c-4.1-4.6-9.8-7.3-15.9-7.6C1498.7,650.6,1487.8,660.4,1487.1,673.1L1487.1,673.1z"/>
				</g>
			</g>
		</g>
		<g>
			<g>
				<path class="st8" d="M1537,598.4c-68.1-9.6-262.5-16.4-262.5-16.4c-0.6,10.4-1.5,28-2.3,43.2c0,0,0,0.1,0,0.1
					c-0.8,15.3-1.5,28-1.5,28l20.4,1.1c3.1-4.9,7.4-10.3,10.5-9.9l24.7,1l25.1,1.7c3.2,0,7.1,8.1,9.8,13.2l121,6.6
					c7-14.5,13.9-19.8,22.6-19.4l6.3,0.3l6.3,0.3c8.6,0.5,14.1,4.3,19.4,19.4l41.3,2.2l1.4,0.1c0,0,0.5-3.6,1.1-9.2
					C1581.6,642.9,1579.1,604.4,1537,598.4z"/>
			</g>
			<g>
				<path class="st9" d="M1580.9,672l-45.6-2.5l-0.4-1.1c-5.2-14.8-10.3-17.8-17.8-18.2l-12.7-0.7c-8.1-0.4-14.4,5-20.8,18.3
					l-0.5,1.1l-123.3-6.7l-1-2c-1.4-2.8-5.7-11.1-7.5-11.2c0,0,0,0,0,0l-0.1,0l-0.1,0l-25.1-1.7l-24.8-1c-1-0.1-4,1.6-8.7,9.1
					l-0.6,0.9l-23.3-1.3l1.6-29.8c0.8-15.4,1.8-33,2.3-43.4l0.1-1.8l1.8,0c1.7,0,195,6.8,262.7,16.4v0c44,6.2,46.2,47.1,45,64.4
					c-0.6,5.7-1.1,9.2-1.1,9.4L1580.9,672z M1538,666l39.8,2.2c0.2-1.6,0.5-4.2,0.9-7.5c3.1-47-24.9-58.1-41.9-60.4l0,0
					c-64.5-9.1-240.8-15.6-260.5-16.3c-0.6,10.5-1.4,27-2.2,41.4l-1.4,26.3l17.5,0.9c6.7-10.2,10.3-10,11.6-9.9l24.6,1l25,1.7
					c0,0,0,0,0.1,0c3.7,0.1,6.8,5.5,10.7,13.2l0.1,0.1l118.7,6.4c6.9-13.9,14.3-19.9,23.8-19.3l12.7,0.7
					C1527.5,647.1,1532.9,652.2,1538,666z"/>
			</g>
		</g>
		<g>
			<g>
				<path class="st8" d="M1536.9,598.4c42.1,5.9,44.6,44.5,43.5,62.4c1.8-16,3.5-48.1-4.5-66c-3.2-7.2-18.8-31.9-21.2-36.3
					l-270.9-14.9c-2.5,4.4-3.5,10.1-3.9,16.2l-0.5,9.7c-4.2,1.9-4.6,5.8-4.7,8.4c-0.1,1.2-0.1,2.6-0.2,4.1
					C1274.4,582,1468.8,588.8,1536.9,598.4z"/>
			</g>
			<g>
				<path class="st9" d="M1582.2,661.1l-3.6-0.3c3.1-47.1-24.9-58.1-41.9-60.5c-67.2-9.5-260.4-16.3-262.3-16.4l-1.9-0.1l0.3-6
					c0.1-2.1,0.4-6.8,4.8-9.4l0.5-8.6c0.4-7.5,1.8-12.9,4.1-17l0.6-1l273,15l0.5,0.9c0.7,1.2,2.4,4,4.6,7.6
					c5.7,9.3,14.3,23.5,16.7,28.8C1586.7,614.4,1583.4,650.5,1582.2,661.1z M1537.2,596.6c27.6,3.9,38.7,21.4,42.9,38.2
					c0-14.8-1.5-29.5-5.9-39.2c-2.3-5.1-10.8-19.1-16.5-28.3c-1.8-3-3.3-5.4-4.2-6.9l-268.8-14.8c-1.8,3.5-2.8,8.1-3.1,14.4
					l-0.6,10.8l-1,0.5c-3.1,1.4-3.5,4.2-3.6,6.8l-0.1,2.3C1296.5,581,1473.3,587.6,1537.2,596.6z"/>
			</g>
		</g>
		<g>
			<g>
				<g>
					<g>
						<path class="st8" d="M1568.2,640.5c-2.9-0.2-2.9-6.2-2.7-8.8c0.1-2.6,0.8-8.5,3.6-8.4c3.8,0.2,6.6,4.2,6.3,9
							c-0.3,4.7-3.3,8.3-7,8.2L1568.2,640.5z"/>
					</g>
					<g>
						<path class="st9" d="M1569.1,624.7C1569.1,624.7,1569.1,624.7,1569.1,624.7c2.9,0.2,5.1,3.5,4.9,7.4c-0.2,3.9-2.7,6.9-5.5,6.9
							c0,0-0.1,0-0.1,0c-1-0.1-1.6-3.3-1.4-7.2C1567.2,627.9,1568.1,624.7,1569.1,624.7 M1569.1,621.8c-3.8-0.1-4.9,5.3-5.1,9.8
							c-0.1,2.1,0,4.2,0.3,5.8c0.7,3.6,2.5,4.5,3.8,4.5c0.1,0,0.2,0,0.2,0c4.5,0.1,8.2-4.1,8.5-9.6c0.3-5.6-3.1-10.3-7.6-10.5
							L1569.1,621.8L1569.1,621.8L1569.1,621.8z"/>
					</g>
				</g>
			</g>
			<g>
				<g>
					<g>
						<path class="st8" d="M1562,622.3c-2-0.1-2.2-3-2.1-5.3c0.1-2.3,0.7-5.1,2.6-5.1c1,0.1,2,0.5,2.7,1.3c0.9,1,1.4,2.5,1.3,4.1
							c-0.2,2.8-2.1,5-4.4,5L1562,622.3z"/>
					</g>
					<g>
						<path class="st9" d="M1562.5,613.4C1562.5,613.4,1562.5,613.4,1562.5,613.4c1.5,0.1,2.7,1.8,2.6,3.9c-0.1,2-1.4,3.6-2.9,3.6
							c0,0,0,0-0.1,0c-0.5,0-0.8-1.7-0.7-3.8C1561.5,615,1562,613.4,1562.5,613.4 M1562.6,610.5c-1.7,0-3.8,1.1-4.1,6.5
							c-0.3,5.8,2,6.8,3.5,6.9l0,0l0.1,0c3.1,0.1,5.7-2.7,5.9-6.4c0.2-3.7-2.1-6.8-5.3-7L1562.6,610.5L1562.6,610.5L1562.6,610.5z"
							/>
					</g>
				</g>
			</g>
		</g>
		<g>
			<g>
				<g>
					<path class="st9" d="M1292.9,658.8c-0.2,2.9-2.6,5.1-5.5,5l-16-0.9c-2.9-0.2-5.1-2.6-5-5.5l0.1-1.1c0.2-2.9,2.6-5.1,5.5-5
						l16,0.9c2.9,0.2,5.1,2.6,5,5.5L1292.9,658.8z"/>
					<path class="st9" d="M1287.5,665.6c-0.1,0-0.2,0-0.2,0l-16-0.9c-1.9-0.1-3.6-0.9-4.9-2.3c-1.3-1.4-1.9-3.2-1.8-5.1l0.1-1.1
						c0.1-1.9,0.9-3.6,2.3-4.9c1.4-1.3,3.2-1.9,5.1-1.8l16,0.9c3.9,0.2,6.9,3.6,6.7,7.5l-0.1,1.1
						C1294.5,662.7,1291.3,665.7,1287.5,665.6z M1271.8,653c-0.9,0-1.7,0.3-2.4,0.9c-0.7,0.6-1.1,1.5-1.1,2.4l-0.1,1.1
						c0,0.9,0.3,1.8,0.9,2.5c0.6,0.7,1.5,1.1,2.4,1.1l16,0.9c1.9,0.1,3.5-1.4,3.6-3.2l0.1-1.1c0.1-1.9-1.4-3.5-3.2-3.6l-16-0.9
						C1271.9,653,1271.9,653,1271.8,653z"/>
				</g>
			</g>
			<g>
				<path class="st9" d="M1543.6,665.9c-3.4-0.2-6.2,1.8-6.4,5s2.4,6.5,5.8,6.7l38.6,2.1l0.3-6.4l0.3-5.3L1543.6,665.9z"/>
				<path class="st9" d="M1583.2,681.6l-40.4-2.2c-2.1-0.1-4.1-1.1-5.5-2.9c-1.4-1.6-2.1-3.7-2-5.7c0.2-4.1,3.8-7,8.3-6.7l40.4,2.2
					L1583.2,681.6z M1543.3,667.8c-2,0-4.2,0.9-4.3,3.2c-0.1,1.1,0.4,2.3,1.1,3.2c0.8,1,1.8,1.5,2.9,1.6l36.7,2l0.4-8l-36.7-2
					C1543.4,667.8,1543.4,667.8,1543.3,667.8z"/>
			</g>
		</g>
		<g>
			<g>
				<path class="st9" d="M1471.4,660.5C1471.3,660.5,1471.3,660.5,1471.4,660.5l-87.3-4.7c-0.5,0-0.9-0.5-0.9-1l5.7-105.4
					c0-0.2,0.1-0.5,0.3-0.6c0.2-0.2,0.4-0.2,0.7-0.2l45.3,2.5l0,0l42,2.3c0.2,0,0.5,0.1,0.6,0.3c0.2,0.2,0.3,0.4,0.2,0.7l-5.7,105.4
					C1472.3,660.1,1471.9,660.5,1471.4,660.5z M1385,653.9l85.4,4.6l5.6-103.5l-85.4-4.6L1385,653.9z"/>
			</g>
		</g>
		<g>
			<g>
				<path class="st8" d="M1269.2,629c0.2-1.6,5.2-1.3,5.9,0.3c0.7,1.6,0.6,9.7-0.2,11.7c-0.7,2-5,1.7-5.7,1.1
					C1268.6,641.5,1269.1,630.5,1269.2,629z"/>
				<path class="st9" d="M1271.1,644.3c-1.2,0-2.5-0.3-3.1-0.9c-1.7-1.6-0.6-14.5-0.6-14.7l0,0c0.1-0.5,0.4-2.2,3.1-2.6
					c2.1-0.3,5.4,0.2,6.3,2.4c0.9,2.2,0.7,10.8-0.1,13c-0.3,0.9-1.2,2-3.2,2.5C1272.8,644.3,1272,644.4,1271.1,644.3z M1270.9,641.4
					L1270.9,641.4L1270.9,641.4z M1270.8,640.7c0.9,0.1,2.2-0.1,2.5-0.4c0.6-1.5,0.6-8.6,0.2-10.2c-0.5-0.3-1.8-0.5-2.5-0.3
					C1270.8,632.2,1270.6,638.4,1270.8,640.7z M1270.2,640.6 M1273.5,630.2L1273.5,630.2L1273.5,630.2z M1271,629.1
					C1271,629.1,1271,629.1,1271,629.1C1271,629.1,1271,629.1,1271,629.1L1271,629.1z"/>
			</g>
		</g>
		<g>
			<g>
				<path class="st9" d="M1306.5,663.3c-0.5,10.1,7.2,18.7,17.3,19.3c10.1,0.5,18.7-7.2,19.3-17.3c0.5-10.1-7.2-18.7-17.3-19.3
					C1315.7,645.5,1307,653.2,1306.5,663.3z"/>
			</g>
		</g>
		<g>
			<g>
				<path class="st9" d="M1491.9,673.4c-0.5,10.1,7.2,18.7,17.3,19.3c10.1,0.5,18.7-7.2,19.3-17.3c0.5-10.1-7.2-18.7-17.3-19.3
					C1501,655.6,1492.4,663.3,1491.9,673.4z"/>
			</g>
		</g>
		<g>
			<g>
				<g>
					<path class="st8" d="M1527.1,586c-6-0.1-11-3.6-12.4-8.6c-0.9-3.2-0.4-6.6,1.6-9.6c2-3,5.1-5.3,8.9-6.4c1.7-0.5,3.4-0.7,5-0.7
						c6,0.1,11,3.6,12.4,8.6c1.9,6.6-2.8,13.8-10.5,16C1530.5,585.8,1528.8,586,1527.1,586z"/>
				</g>
				<g>
					<path class="st9" d="M1530.2,561.2L1530.2,561.2c5.8,0.1,10.6,3.4,12,8.2c1.9,6.4-2.7,13.3-10.2,15.5c-1.6,0.5-3.3,0.7-4.9,0.7
						c-5.8-0.1-10.6-3.4-12-8.2c-0.9-3.1-0.3-6.3,1.6-9.2c1.9-3,5-5.2,8.6-6.2C1526.9,561.4,1528.6,561.1,1530.2,561.2
						 M1530.2,560.3c-1.7,0-3.4,0.2-5.2,0.7c-8,2.3-12.8,9.7-10.8,16.6c1.6,5.3,6.8,8.7,12.8,8.9c1.7,0,3.4-0.2,5.2-0.7
						c8-2.3,12.8-9.7,10.8-16.6C1541.5,563.8,1536.2,560.4,1530.2,560.3L1530.2,560.3z"/>
				</g>
			</g>
			<g>
				<g>
					<path class="st8" d="M1520.8,581.8c-2.7-0.1-5.1-1.9-5.9-4.5c-0.5-1.6-0.3-3.3,0.5-4.8c0.8-1.5,2.1-2.5,3.7-3
						c0.6-0.2,1.2-0.3,1.9-0.3c2.7,0.1,5.1,1.9,5.9,4.5c0.5,1.6,0.3,3.3-0.5,4.8c-0.8,1.5-2.1,2.5-3.7,3
						C1522.1,581.8,1521.5,581.8,1520.8,581.8z"/>
				</g>
				<g>
					<path class="st9" d="M1521.1,569.6L1521.1,569.6c2.6,0.1,4.9,1.8,5.6,4.3c0.9,3.2-0.9,6.5-4.1,7.4c-0.6,0.2-1.2,0.3-1.8,0.2
						c-2.6-0.1-4.9-1.8-5.6-4.3c-0.4-1.5-0.3-3.2,0.5-4.6c0.8-1.4,2-2.4,3.6-2.9C1519.9,569.7,1520.5,569.6,1521.1,569.6
						 M1521.1,569.1c-0.6,0-1.3,0.1-2,0.3c-3.4,1-5.4,4.6-4.4,8.1c0.8,2.8,3.3,4.6,6.1,4.7c0.6,0,1.3-0.1,2-0.3
						c3.4-1,5.4-4.6,4.4-8.1C1526.4,571,1523.9,569.1,1521.1,569.1L1521.1,569.1z"/>
				</g>
			</g>
			<g>
				<g>
					<path class="st8" d="M1536.2,577.4c-2.7-0.1-5.1-1.9-5.9-4.5c-0.5-1.6-0.3-3.3,0.5-4.8c0.8-1.5,2.1-2.5,3.7-3
						c0.6-0.2,1.2-0.3,1.9-0.3c2.7,0.1,5.1,1.9,5.9,4.5c0.5,1.6,0.3,3.3-0.5,4.8c-0.8,1.5-2.1,2.5-3.7,3
						C1537.5,577.3,1536.8,577.4,1536.2,577.4z"/>
				</g>
				<g>
					<path class="st9" d="M1536.5,565.1L1536.5,565.1c2.6,0.1,4.9,1.8,5.6,4.3c0.9,3.2-0.9,6.5-4.1,7.4c-0.6,0.2-1.2,0.3-1.8,0.2
						c-2.6-0.1-4.9-1.8-5.6-4.3c-0.9-3.2,0.9-6.5,4.1-7.4C1535.3,565.2,1535.9,565.1,1536.5,565.1 M1536.5,564.6
						c-0.6,0-1.3,0.1-2,0.3c-3.4,1-5.4,4.6-4.4,8.1c0.8,2.8,3.3,4.6,6.1,4.7c0.6,0,1.3-0.1,2-0.3c3.4-1,5.4-4.6,4.4-8.1
						C1541.8,566.5,1539.2,564.7,1536.5,564.6L1536.5,564.6z"/>
				</g>
			</g>
			<g>
				<g>
					<path class="st8" d="M1529.7,579.5c-1,0-1.8-0.6-2.2-1.5l4.5-1.3c0.3,1.2-0.4,2.4-1.6,2.8
						C1530.2,579.5,1530,579.5,1529.7,579.5z"/>
				</g>
				<g>
					<path class="st9" d="M1532,576.9c0.1,0.5,0,1-0.2,1.4c-0.3,0.5-0.7,0.9-1.3,1.1c-0.2,0.1-0.4,0.1-0.7,0.1c-0.9,0-1.6-0.5-2-1.3
						L1532,576.9 M1532.2,576.5l-4.8,1.4c0.3,1.1,1.3,1.8,2.3,1.8c0.2,0,0.5,0,0.8-0.1C1531.8,579.2,1532.6,577.8,1532.2,576.5
						L1532.2,576.5z"/>
				</g>
			</g>
			<g>
				<circle class="st9" cx="1521" cy="575.6" r="1"/>
			</g>
			<g>
				<circle class="st9" cx="1536.3" cy="571.1" r="1"/>
			</g>
		</g>
		<g>
			<g>
				<g>
					<path class="st8" d="M1487.6,587.5c-3.9-3.1-6-7.5-5.7-12.1c0.5-8,8.3-14.1,17.6-13.9c0.3,0,0.6,0,0.9,0
						c9.7,0.6,17.1,7.9,16.5,16.2c-0.3,4.3-2.7,8.2-6.7,10.8L1487.6,587.5z"/>
				</g>
				<g>
					<path class="st9" d="M1499.4,562.1L1499.4,562.1c0.3,0,0.6,0,0.9,0c4.6,0.3,8.7,2.1,11.8,5.1c3,2.9,4.5,6.7,4.2,10.5
						c-0.3,4.1-2.6,7.8-6.3,10.3l-22.3-1.1c-3.7-3-5.7-7.2-5.4-11.5C1482.9,567.8,1490.4,561.9,1499.4,562.1 M1499.5,561
						c-9.6-0.2-17.6,6.1-18.1,14.4c-0.3,4.9,2.1,9.5,6.1,12.7l23,1.1c4-2.6,6.8-6.6,7.1-11.4c0.6-8.6-7-16.1-17-16.7
						C1500.1,561.1,1499.8,561,1499.5,561L1499.5,561z"/>
				</g>
			</g>
			<g>
				<g>
					<path class="st8" d="M1488.8,583.7c-1.9-0.1-3.7-1-4.9-2.4c-1.3-1.4-1.9-3.3-1.8-5.2c0.3-3.8,3.5-6.8,7.3-6.7
						c0.1,0,0.2,0,0.3,0c3.9,0.3,6.9,3.7,6.7,7.6c-0.3,3.8-3.5,6.8-7.3,6.7C1489,583.7,1488.9,583.7,1488.8,583.7z"/>
				</g>
				<g>
					<path class="st9" d="M1489.4,569.7L1489.4,569.7c0.1,0,0.2,0,0.3,0c1.8,0.1,3.5,1,4.7,2.3s1.8,3.2,1.7,5
						c-0.2,3.7-3.3,6.5-7,6.4c-0.1,0-0.2,0-0.3,0c-1.8-0.1-3.5-1-4.7-2.3s-1.8-3.2-1.7-5C1482.7,572.4,1485.8,569.6,1489.4,569.7
						 M1489.4,569.1c-4-0.1-7.3,3-7.6,7c-0.3,4.1,2.8,7.7,6.9,7.9c0.1,0,0.2,0,0.3,0c4,0.1,7.3-3,7.6-7c0.3-4.1-2.8-7.7-6.9-7.9
						C1489.7,569.1,1489.6,569.1,1489.4,569.1L1489.4,569.1z"/>
				</g>
			</g>
			<g>
				<g>
					<path class="st8" d="M1507.1,584.9c-1.9-0.1-3.7-1-4.9-2.4c-1.3-1.4-1.9-3.3-1.8-5.2c0.3-3.8,3.5-6.8,7.3-6.7
						c0.1,0,0.2,0,0.3,0c3.9,0.3,6.9,3.7,6.7,7.6c-0.3,3.8-3.5,6.8-7.3,6.7C1507.3,584.9,1507.2,584.9,1507.1,584.9z"/>
				</g>
				<g>
					<path class="st9" d="M1507.7,570.9L1507.7,570.9c0.1,0,0.2,0,0.3,0c3.8,0.3,6.7,3.5,6.4,7.3c-0.2,3.7-3.3,6.5-7,6.4
						c-0.1,0-0.2,0-0.3,0c-3.8-0.3-6.7-3.5-6.4-7.3C1501,573.6,1504.1,570.8,1507.7,570.9 M1507.7,570.3c-4-0.1-7.3,3-7.6,7
						c-0.3,4.1,2.8,7.7,6.9,7.9c0.1,0,0.2,0,0.3,0c4,0.1,7.3-3,7.6-7c0.3-4.1-2.8-7.7-6.9-7.9C1508,570.3,1507.9,570.3,1507.7,570.3
						L1507.7,570.3z"/>
				</g>
			</g>
			<g>
				<g>
					<path class="st8" d="M1498,584.4c-0.7,0-1.4-0.4-1.8-0.9c-0.4-0.5-0.7-1.1-0.7-1.8l5.4,0.4c-0.2,1.4-1.3,2.4-2.7,2.3
						L1498,584.4z"/>
				</g>
				<g>
					<path class="st9" d="M1495.6,581.9l5,0.3c-0.2,1.2-1.3,2-2.5,2l-0.1,0c-0.7,0-1.3-0.3-1.7-0.9
						C1495.9,583,1495.7,582.5,1495.6,581.9 M1495.3,581.5c-0.1,1.6,1.1,2.9,2.7,3.1c0,0,0.1,0,0.1,0c1.5,0,2.8-1.1,2.9-2.7
						L1495.3,581.5L1495.3,581.5z"/>
				</g>
			</g>
			<g>
				<circle class="st9" cx="1489.3" cy="576.5" r="1.1"/>
			</g>
			<g>
				<circle class="st9" cx="1507.6" cy="577.8" r="1.1"/>
			</g>
			<g>
				<path class="st9" d="M1496,574.3c0,0-2.5-2.3-6.4-2.6c-0.2,0-0.3,0-0.5,0c-3.6-0.1-6.3,1.6-6.4,1.7l-0.2-0.3c0,0,3.1-2,7.1-1.7
					c4,0.3,6.5,2.6,6.6,2.7L1496,574.3z"/>
			</g>
			<g>
				<path class="st9" d="M1514.4,575.5c0,0-2.5-2.3-6.4-2.6c-3.9-0.2-6.9,1.6-6.9,1.6l-0.2-0.3c0,0,3.1-2,7.1-1.7
					c4,0.3,6.5,2.6,6.6,2.7L1514.4,575.5z"/>
			</g>
		</g>
		<g>
			<g>
				<g>
					<path class="st8" d="M1447.9,581.6c-1.1,0-2.1-0.2-3.2-0.4c-3.4-0.8-6.3-2.7-8.2-5.3c-1.9-2.6-2.6-5.6-1.9-8.5
						c1.2-5,6.1-8.4,12.1-8.2c1.1,0,2.1,0.2,3.2,0.4c7,1.7,11.5,7.9,10.1,13.8C1458.8,578.3,1453.8,581.7,1447.9,581.6z"/>
				</g>
				<g>
					<path class="st9" d="M1446.7,559.5L1446.7,559.5c1,0,2.1,0.2,3.1,0.4c3.3,0.8,6.1,2.6,8,5.2c1.8,2.5,2.5,5.4,1.8,8.2
						c-1.1,4.8-5.9,8-11.7,7.9c-1,0-2.1-0.2-3.1-0.4c-3.3-0.8-6.1-2.6-8-5.2c-1.8-2.5-2.5-5.4-1.8-8.2
						C1436.2,562.6,1441,559.4,1446.7,559.5 M1446.7,558.7c-6-0.1-11.2,3.3-12.5,8.5c-1.5,6.2,3.2,12.6,10.4,14.3
						c1.1,0.3,2.2,0.4,3.3,0.4c6,0.1,11.2-3.3,12.5-8.5c1.5-6.2-3.2-12.6-10.4-14.3C1448.9,558.9,1447.8,558.7,1446.7,558.7
						L1446.7,558.7z"/>
				</g>
			</g>
			<g>
				<g>
					<path class="st8" d="M1440.2,574.3c-0.4,0-0.8-0.1-1.2-0.2c-3-0.7-4.9-3.7-4.1-6.7c0.6-2.5,2.9-4.4,5.5-4.3
						c0.4,0,0.8,0.1,1.2,0.2c3,0.7,4.9,3.7,4.1,6.7C1445.2,572.5,1442.9,574.3,1440.2,574.3z"/>
				</g>
				<g>
					<path class="st9" d="M1440.5,562.9l0,0.4c0.4,0,0.8,0.1,1.1,0.1c2.9,0.7,4.7,3.6,4,6.5c-0.6,2.4-2.8,4.2-5.3,4.1
						c-0.4,0-0.8-0.1-1.1-0.1c-1.4-0.3-2.6-1.2-3.3-2.4c-0.8-1.2-1-2.7-0.7-4.1c0.6-2.4,2.8-4.2,5.3-4.1L1440.5,562.9 M1440.5,562.9
						c-2.7-0.1-5.1,1.8-5.8,4.5c-0.7,3.1,1.2,6.3,4.3,7c0.4,0.1,0.8,0.1,1.2,0.2c2.7,0.1,5.1-1.8,5.8-4.5c0.7-3.1-1.2-6.3-4.3-7
						C1441.3,562.9,1440.9,562.9,1440.5,562.9L1440.5,562.9z"/>
				</g>
			</g>
			<g>
				<g>
					<path class="st8" d="M1454.2,577.6c-0.4,0-0.8-0.1-1.2-0.2c-1.5-0.3-2.7-1.2-3.5-2.5c-0.8-1.3-1-2.8-0.7-4.2
						c0.6-2.5,2.9-4.4,5.5-4.3c0.4,0,0.8,0.1,1.2,0.2c1.5,0.3,2.7,1.2,3.5,2.5c0.8,1.3,1,2.8,0.7,4.2
						C1459.1,575.8,1456.8,577.6,1454.2,577.6z"/>
				</g>
				<g>
					<path class="st9" d="M1454.4,566.2l0,0.4c0.4,0,0.8,0.1,1.1,0.1c2.9,0.7,4.7,3.6,4,6.5c-0.6,2.4-2.8,4.2-5.3,4.1
						c-0.4,0-0.8-0.1-1.1-0.1c-2.9-0.7-4.7-3.6-4-6.5c0.6-2.4,2.8-4.2,5.3-4.1L1454.4,566.2 M1454.4,566.2c-2.7-0.1-5.1,1.8-5.8,4.5
						c-0.7,3.1,1.2,6.3,4.3,7c0.4,0.1,0.8,0.1,1.2,0.2c2.7,0.1,5.1-1.8,5.8-4.5c0.7-3.1-1.2-6.3-4.3-7
						C1455.2,566.2,1454.8,566.2,1454.4,566.2L1454.4,566.2z"/>
				</g>
			</g>
			<g>
				<path class="st8" d="M1448,574.7c-0.2,0.9-1.1,1.5-2,1.3c-0.9-0.2-1.5-1.1-1.3-2"/>
				<path class="st9" d="M1446.3,576.3c-0.1,0-0.3,0-0.4-0.1c-1.1-0.3-1.7-1.3-1.5-2.4c0-0.2,0.2-0.3,0.4-0.2c0.2,0,0.3,0.2,0.2,0.4
					c-0.1,0.4,0,0.7,0.2,1.1c0.2,0.3,0.5,0.5,0.9,0.6c0.4,0.1,0.7,0,1.1-0.2c0.3-0.2,0.5-0.5,0.6-0.9c0-0.2,0.2-0.3,0.4-0.2
					c0.2,0,0.3,0.2,0.2,0.4c-0.1,0.5-0.4,1-0.9,1.2C1447.1,576.3,1446.7,576.4,1446.3,576.3z"/>
			</g>
			<g>
				<circle class="st9" cx="1440.4" cy="568.7" r="1"/>
			</g>
			<g>
				<circle class="st9" cx="1454.3" cy="572" r="1"/>
			</g>
		</g>
		<g>
			<g>
				<g>
					<path class="st8" d="M1416.1,584.1c-7.8-0.2-14.1-5.5-14.5-12.2c-0.2-3.4,1.2-6.7,3.9-9.3c2.7-2.6,6.5-4.1,10.5-4.3
						c0.4,0,0.8,0,1.3,0c7.8,0.2,14.1,5.5,14.5,12.2c0.3,7.1-6.1,13.2-14.5,13.6C1416.9,584.1,1416.5,584.1,1416.1,584.1z"/>
				</g>
				<g>
					<path class="st9" d="M1417.3,558.7L1417.3,558.7c7.5,0.2,13.7,5.3,14,11.7c0.2,3.3-1.2,6.5-3.8,9c-2.7,2.5-6.3,4-10.2,4.2
						c-0.4,0-0.8,0-1.2,0c-7.5-0.2-13.7-5.3-14-11.7c-0.3-6.9,5.9-12.8,14-13.2C1416.5,558.7,1416.9,558.7,1417.3,558.7
						 M1417.3,557.8c-0.4,0-0.9,0-1.3,0c-8.6,0.4-15.3,6.7-14.9,14.1c0.3,7,6.9,12.5,14.9,12.6c0.4,0,0.9,0,1.3,0
						c8.6-0.4,15.3-6.7,14.9-14.1C1431.9,563.4,1425.4,557.9,1417.3,557.8L1417.3,557.8z"/>
				</g>
			</g>
			<g>
				<path class="st8" d="M1404,564.6c1.2-0.7,2.6-1.2,4-1.3c1.4-0.1,2.7,0.2,3.9,0.7"/>
				<path class="st9" d="M1404,564.8c-0.1,0-0.2,0-0.2-0.1c-0.1-0.1,0-0.3,0.1-0.4c1.2-0.8,2.7-1.3,4.2-1.3c1.4-0.1,2.8,0.2,4,0.8
					c0.1,0.1,0.2,0.2,0.1,0.3c-0.1,0.1-0.2,0.2-0.3,0.1c-1.2-0.5-2.5-0.8-3.8-0.7c-1.4,0.1-2.7,0.5-3.9,1.2
					C1404.1,564.8,1404,564.8,1404,564.8z"/>
			</g>
			<g>
				<g>
					<path class="st8" d="M1408.3,578.1c-3.4-0.1-6.2-2.8-6.3-6.2c-0.1-1.7,0.5-3.4,1.7-4.7c1.2-1.3,2.8-2,4.5-2.1
						c0.2,0,0.3,0,0.5,0c3.4,0.1,6.2,2.8,6.3,6.2c0.1,1.7-0.5,3.4-1.7,4.7c-1.2,1.3-2.8,2-4.5,2.1
						C1408.6,578.1,1408.4,578.1,1408.3,578.1z"/>
				</g>
				<g>
					<path class="st9" d="M1408.6,565.3L1408.6,565.3c3.3,0.1,5.9,2.7,6.1,5.9c0.1,1.7-0.5,3.3-1.6,4.5c-1.1,1.2-2.6,2-4.3,2
						c-0.1,0-0.3,0-0.4,0c-3.3-0.1-5.9-2.7-6.1-5.9c-0.2-3.4,2.5-6.4,5.9-6.5C1408.3,565.3,1408.4,565.3,1408.6,565.3 M1408.6,564.8
						c-0.2,0-0.3,0-0.5,0c-3.7,0.2-6.6,3.3-6.4,7.1c0.2,3.6,3.1,6.3,6.6,6.4c0.2,0,0.3,0,0.5,0c3.7-0.2,6.6-3.3,6.4-7.1
						C1415,567.7,1412.1,564.9,1408.6,564.8L1408.6,564.8z"/>
				</g>
			</g>
			<g>
				<circle class="st9" cx="1408.3" cy="569.6" r="1"/>
			</g>
			<g>
				<path class="st8" d="M1428.8,563.4c-1.2-0.6-2.7-1-4.2-0.9c-1.4,0.1-2.7,0.5-3.8,1.1"/>
				<path class="st9" d="M1420.8,563.9c-0.1,0-0.2,0-0.2-0.1c-0.1-0.1,0-0.3,0.1-0.4c1.2-0.7,2.5-1.1,3.9-1.2c1.5-0.1,3,0.2,4.3,0.9
					c0.1,0.1,0.2,0.2,0.1,0.3c-0.1,0.1-0.2,0.2-0.3,0.1c-1.2-0.6-2.6-0.9-4-0.9c-1.3,0.1-2.6,0.4-3.7,1.1
					C1420.9,563.8,1420.9,563.9,1420.8,563.9z"/>
			</g>
			<g>
				<g>
					<path class="st8" d="M1424.9,577.2c-3.4-0.1-6.2-2.8-6.3-6.2c-0.1-1.7,0.5-3.4,1.7-4.7c1.2-1.3,2.8-2,4.5-2.1
						c0.2,0,0.3,0,0.5,0c3.4,0.1,6.2,2.8,6.3,6.2c0.1,1.7-0.5,3.4-1.7,4.7c-1.2,1.3-2.8,2-4.5,2.1
						C1425.2,577.3,1425,577.3,1424.9,577.2C1424.9,577.2,1424.9,577.2,1424.9,577.2z"/>
				</g>
				<g>
					<path class="st9" d="M1425.2,564.5c3.3,0.1,5.9,2.7,6.1,5.9c0.2,3.4-2.5,6.4-5.9,6.5c-0.1,0-0.3,0-0.4,0
						c-3.3-0.1-5.9-2.7-6.1-5.9c-0.2-3.4,2.5-6.4,5.9-6.5C1424.9,564.5,1425,564.5,1425.2,564.5 M1425.2,564c-0.2,0-0.3,0-0.5,0
						c-3.7,0.2-6.6,3.3-6.4,7.1c0.2,3.6,3.1,6.3,6.6,6.4c0.2,0,0.3,0,0.5,0c3.7-0.2,6.6-3.3,6.4-7.1
						C1431.6,566.9,1428.7,564.1,1425.2,564L1425.2,564z"/>
				</g>
			</g>
			<g>
				<circle class="st9" cx="1424.9" cy="568.8" r="1"/>
			</g>
			<g>
				<g>
					<path class="st8" d="M1417,579c-0.7,0-1.3-0.9-1.4-2c0-0.6,0.1-1.1,0.3-1.5c0.2-0.4,0.5-0.6,0.9-0.6c0,0,0,0,0,0
						c0.8,0,1.4,0.9,1.4,2C1418.4,578,1417.8,579,1417,579L1417,579z"/>
				</g>
				<g>
					<path class="st9" d="M1417,574.7l0,0.3c0.6,0,1.2,0.8,1.2,1.9c0.1,1-0.4,1.9-1.1,2c-0.6,0-1.2-0.8-1.2-1.9
						c-0.1-1,0.4-1.9,1.1-2L1417,574.7 M1417,574.7C1416.9,574.7,1416.9,574.7,1417,574.7c-0.9,0-1.5,1.1-1.4,2.3
						c0.1,1.2,0.7,2.1,1.5,2.2c0,0,0,0,0.1,0c0.8,0,1.4-1.1,1.4-2.3C1418.4,575.7,1417.8,574.7,1417,574.7L1417,574.7z"/>
				</g>
			</g>
		</g>
		<g>
			<g>
				<path class="st9" d="M1574.2,592.9C1574.2,592.9,1574.2,592.9,1574.2,592.9l-11.2-0.7c0,0,0,0,0,0c-2.1,0-3.7-1.1-4.6-3.2
					l-12.7-24.2c-0.7-1.4-0.4-2.4,0-2.9c0.5-0.8,1.6-1.2,2.7-1.2l8.8,0.5c0.4,0,0.8,0.2,1,0.5c1.2,1.4,15.6,25.7,17.3,29.2
					c0.2,0.5,0.2,1-0.1,1.4C1575.2,592.7,1574.7,592.9,1574.2,592.9z M1563.1,589.3l8.7,0.6c-3.7-6.6-13.4-22.8-15.4-26l-8.1-0.4
					c0,0,0,0,0,0l12.6,24.2c0,0,0,0,0,0.1C1561.4,588.9,1562,589.4,1563.1,589.3z"/>
			</g>
			<g>
				<g>
					<path class="st9" d="M1554.5,592.5c0,0-0.1,0-0.1,0l-71.2-3.9c-3-0.2-4.5-1.3-4.4-3.2l0,0l1.4-25.5c0-0.6,0.4-1.7,2.2-2.3
						c0.9-0.3,1.9-0.4,2.5-0.3l54.9,3c1.6,0.1,3.9,1.5,4.9,3.9l12.2,23.3c1,1.9,0.5,3.2,0.2,3.8
						C1556.6,592,1555.6,592.5,1554.5,592.5z M1481.7,585.6L1481.7,585.6c0.1,0.1,0.7,0.2,1.7,0.2l71.2,3.9c0.1,0,0.2,0,0.2,0l0,0
						c0,0,0.1-0.3-0.3-0.9l-12.2-23.4c-0.7-1.6-2-2.2-2.5-2.3l-54.9-3c-0.6,0-1.4,0.1-1.7,0.3L1481.7,585.6z"/>
				</g>
			</g>
		</g>
		<g>
			<path class="st9" d="M1469.4,587.8C1469.3,587.8,1469.3,587.8,1469.4,587.8l-76.4-4.1c-0.4,0-0.7-0.2-1-0.5
				c-0.3-0.3-0.4-0.7-0.4-1l1.5-27.4c0-0.8,0.7-1.4,1.4-1.3c0,0,0,0,0,0l76.4,4.1c0.4,0,0.7,0.2,1,0.5c0.3,0.3,0.4,0.7,0.4,1
				l-1.5,27.4C1470.8,587.2,1470.1,587.8,1469.4,587.8z M1394.5,580.9l73.5,4l1.3-24.6l-73.5-4L1394.5,580.9z"/>
		</g>
		<g>
			<g>
				<g>
					<path class="st8" d="M1357.5,580.7c-0.2,0-0.4,0-0.7,0c-4.5-0.2-8.6-2-11.6-4.8c-3-2.9-4.5-6.5-4.3-10.3
						c0.4-7.7,7.8-13.6,16.8-13.4c0.2,0,0.4,0,0.7,0c4.5,0.2,8.6,2,11.6,4.8c3,2.9,4.5,6.5,4.3,10.3
						C1373.9,575,1366.6,580.9,1357.5,580.7z"/>
				</g>
				<g>
					<path class="st9" d="M1357.8,552.6L1357.8,552.6c0.2,0,0.4,0,0.6,0c4.3,0.2,8.4,1.9,11.3,4.7c2.9,2.8,4.4,6.3,4.2,9.9
						c-0.4,7.4-7.6,13.1-16.3,12.9c-0.2,0-0.4,0-0.6,0c-4.3-0.2-8.4-1.9-11.3-4.7c-2.9-2.8-4.4-6.3-4.2-9.9
						C1341.9,558.1,1349,552.4,1357.8,552.6 M1357.8,551.6c-9.2-0.2-16.9,5.9-17.3,13.9c-0.4,8.2,6.9,15.2,16.4,15.7
						c0.2,0,0.4,0,0.7,0c9.2,0.2,16.9-5.9,17.3-13.9c0.4-8.2-6.9-15.2-16.4-15.7C1358.2,551.6,1358,551.6,1357.8,551.6L1357.8,551.6
						z"/>
				</g>
			</g>
			<g>
				<g>
					<path class="st8" d="M1347.8,572.8c-1.8-0.1-3.5-0.9-4.8-2.3c-1.2-1.4-1.9-3.2-1.8-5c0.2-3.8,3.3-6.6,7.1-6.6l0.2,0
						c1.8,0.1,3.5,0.9,4.8,2.3c1.2,1.4,1.9,3.2,1.8,5c-0.2,3.8-3.3,6.6-7.1,6.6L1347.8,572.8z"/>
				</g>
				<g>
					<path class="st9" d="M1348.3,559.2L1348.3,559.2c0.1,0,0.1,0,0.2,0c1.8,0.1,3.4,0.9,4.6,2.2s1.8,3,1.7,4.8
						c-0.2,3.6-3.2,6.4-6.8,6.3c-0.1,0-0.1,0-0.2,0c-3.7-0.2-6.5-3.3-6.3-7C1341.8,561.9,1344.7,559.1,1348.3,559.2 M1348.4,558.7
						c-3.9-0.1-7.1,2.9-7.3,6.8c-0.2,4,2.8,7.4,6.8,7.6c0.1,0,0.2,0,0.2,0c3.9,0.1,7.1-2.9,7.3-6.8c0.2-4-2.8-7.4-6.8-7.6
						C1348.5,558.7,1348.4,558.7,1348.4,558.7L1348.4,558.7z"/>
				</g>
			</g>
			<g>
				<g>
					<path class="st8" d="M1365.5,573.7c-3.8-0.2-6.8-3.5-6.5-7.3c0.2-3.8,3.3-6.6,7.1-6.6l0.2,0c3.8,0.2,6.8,3.5,6.5,7.3
						c-0.2,3.8-3.3,6.6-7.1,6.6L1365.5,573.7z"/>
				</g>
				<g>
					<path class="st9" d="M1366.1,560.2L1366.1,560.2c0.1,0,0.1,0,0.2,0c3.7,0.2,6.5,3.3,6.3,7c-0.2,3.6-3.2,6.4-6.8,6.3
						c-0.1,0-0.1,0-0.2,0c-1.8-0.1-3.4-0.9-4.6-2.2c-1.2-1.3-1.8-3-1.7-4.8C1359.5,562.9,1362.5,560.1,1366.1,560.2 M1366.1,559.6
						c-3.9-0.1-7.1,2.9-7.3,6.8c-0.2,4,2.8,7.4,6.8,7.6c0.1,0,0.2,0,0.2,0c3.9,0.1,7.1-2.9,7.3-6.8c0.2-4-2.8-7.4-6.8-7.6
						C1366.2,559.6,1366.2,559.6,1366.1,559.6L1366.1,559.6z"/>
				</g>
			</g>
			<g>
				<g>
					<path class="st8" d="M1356.7,573.4c-1.4-0.1-2.5-1.2-2.5-2.6l5.2,0.3C1359.3,572.4,1358.1,573.4,1356.7,573.4L1356.7,573.4z"/>
				</g>
				<g>
					<path class="st9" d="M1354.4,571l4.8,0.3c-0.2,1.2-1.2,2-2.4,2l-0.1,0c-0.7,0-1.2-0.3-1.7-0.8
						C1354.7,572,1354.4,571.5,1354.4,571 M1354.1,570.6c-0.1,1.5,1.1,2.8,2.6,2.9c0,0,0.1,0,0.1,0c1.5,0,2.7-1.1,2.8-2.6
						L1354.1,570.6L1354.1,570.6z"/>
				</g>
			</g>
			<g>
				<circle class="st9" cx="1345.4" cy="565.7" r="1.1"/>
			</g>
			<g>
				<circle class="st9" cx="1363.1" cy="566.7" r="1.1"/>
			</g>
		</g>
		<g>
			<path class="st9" d="M1382.6,583.1C1382.6,583.1,1382.6,583.1,1382.6,583.1l-76.4-4.1c-0.8,0-1.4-0.7-1.3-1.5l1.5-27.4
				c0-0.4,0.2-0.7,0.5-1c0.3-0.3,0.6-0.4,1-0.4l76.4,4.1c0.4,0,0.7,0.2,1,0.5c0.3,0.3,0.4,0.7,0.4,1l-1.5,27.4
				C1384,582.5,1383.4,583.1,1382.6,583.1z M1307.8,576.2l73.5,4l1.3-24.6l-73.5-4L1307.8,576.2z"/>
		</g>
		<g>
			
				<ellipse transform="matrix(6.122671e-02 -0.9981 0.9981 6.122671e-02 771.8513 2023.1996)" class="st9" cx="1461.5" cy="601.3" rx="1.9" ry="6.4"/>
		</g>
		<g>
			
				<ellipse transform="matrix(6.122671e-02 -0.9981 0.9981 6.122671e-02 794.8394 2050.8547)" class="st9" cx="1487.7" cy="602.9" rx="1.9" ry="6.4"/>
		</g>
	</g>
	<g>
		<path class="st18" d="M1182.2,273.8c8.8,0,16.3,6.3,16.3,16.5c0,9.4-7.5,15.7-16.3,15.7c-8.9,0-16.8-6.1-16.8-16.3
			C1165.4,280,1172.9,273.8,1182.2,273.8 M1182.6,264c-9.3,0-20.1,5.5-23.4,15.5c-0.1,0.3-0.4,0.4-0.9,0.4s-0.7-0.2-0.7-0.6V265
			h-11.2v65h11.4l-0.2-28.8c0-0.4,0.2-0.6,0.7-0.6s0.8,0.1,0.9,0.4c2.2,5.5,9.5,14.8,23.4,14.8c14.4,0,26.7-9.6,26.7-25.5
			C1209.3,271.7,1195.2,264,1182.6,264 M1112,306c-11.7,0-16.4-7.5-16.4-15.7c0-9.3,5.7-16.5,16.4-16.5c10.3,0,16.7,7.2,16.7,16.5
			C1128.7,298.5,1123.8,306,1112,306 M1112,315.8c16.1,0,27.9-10.8,27.9-25.6c0-15.3-12.2-26.2-27.9-26.2
			c-16.1,0-27.6,10.9-27.6,26.2C1084.4,305,1094.9,315.8,1112,315.8 M1052.1,306c-11.7,0-16.4-7.5-16.4-15.7
			c0-9.3,5.7-16.5,16.4-16.5c10.3,0,16.7,7.2,16.7,16.5C1068.8,298.5,1063.9,306,1052.1,306 M1052.1,315.8
			c16.1,0,27.9-10.8,27.9-25.6c0-15.3-12.2-26.2-27.9-26.2c-16.1,0-27.6,10.9-27.6,26.2C1024.5,305,1035,315.8,1052.1,315.8
			 M992.3,315.8c16.1,0,25.3-8.6,26.9-21.2H1008c-1,6.8-6.6,11.4-15.1,11.4c-11,0-15.9-7.5-15.9-15.7c0-9.3,5.7-16.5,16.1-16.5
			c8.3,0,13.3,4.8,14.9,11.8h11.2c-1.3-13.9-12.1-21.6-26.3-21.6c-15.3,0-26.9,10.9-26.9,26.2C966,305,976.5,315.8,992.3,315.8
			 M946.2,315h11.4v-50h-11.4V315z M911,306c-9.3,0-16.8-6-16.8-15.7c0-10.2,7.9-16.5,16.8-16.5c8.8,0,16.3,6.5,16.3,15.9
			C927.3,299.9,919.8,306,911,306 M911.4,315.8c12.6,0,26.7-7.5,26.7-26.1c0-15.9-12.3-25.7-26.7-25.7c-13.9,0-21.2,9.5-23.4,15
			c-0.1,0.3-0.4,0.4-0.9,0.4c-0.5,0-0.7-0.2-0.7-0.6l0.2-28.8h-11.4v65h11.2v-14.3c0-0.4,0.2-0.6,0.7-0.6c0.5,0,0.8,0.1,0.9,0.4
			C891.3,310.5,902.1,315.8,911.4,315.8 M841.8,306c-11.7,0-16.4-7.5-16.4-15.7c0-9.3,5.7-16.5,16.4-16.5c10.3,0,16.7,7.2,16.7,16.5
			C858.5,298.5,853.6,306,841.8,306 M841.8,315.8c16.1,0,27.9-10.8,27.9-25.6c0-15.3-12.2-26.2-27.9-26.2
			c-16.1,0-27.6,10.9-27.6,26.2C814.2,305,824.7,315.8,841.8,315.8 M710.7,315h11.5v-19.2c0-11.4,6.6-22,17.4-22
			c8.7,0,13,6.2,13,16.8V315h12.8v-20.9c0-10.9,7.5-20.3,17.7-20.3c9,0,12.7,6.2,12.7,15.9V315h12.8v-27.2
			c0-14.5-10.2-23.8-23.8-23.8c-11,0-18.1,5.5-20.3,12.2c-0.1,0.3-0.3,0.4-0.8,0.4c-0.5,0-0.6-0.2-0.8-0.6c-3.8-7.6-10.9-12-19.7-12
			c-11,0-17.5,5.5-19.7,12.2c-0.1,0.3-0.3,0.4-0.8,0.4c-0.5,0-0.8-0.2-0.8-0.6v-11h-11.2V315z"/>
	</g>
</g>
</svg>
