<?xml version="1.0" encoding="utf-8"?>
<!-- Generator: Adobe Illustrator 22.1.0, SVG Export Plug-In . SVG Version: 6.00 Build 0)  -->
<svg version="1.1" id="Calque_1" xmlns="http://www.w3.org/2000/svg" xmlns:xlink="http://www.w3.org/1999/xlink" x="0px" y="0px"
	 width="50px" height="50px" viewBox="0 0 50 50" style="enable-background:new 0 0 50 50;" xml:space="preserve">
<style type="text/css">
	.st0{fill:#213970;}
	.st1{fill:#FFFFFF;}
</style>
<g>
	<circle class="st0" cx="25" cy="25" r="24.5"/>
	<g>
		<g>
			<path class="st1" d="M30.9,15.8c0.3,0.6,0.5,1.2,0.5,1.9c0,0.7-0.2,1.4-0.5,2c2.8,0.2,5,2.5,5,5.3c0,2.9-2.4,5.3-5.3,5.3h-2.7
				l1.5-1.5c0.8-0.8,0.8-2,0-2.7c-0.8-0.8-2-0.8-2.7,0l-4.9,4.9c-0.8,0.8-0.8,2,0,2.7l4.9,4.9c0.4,0.4,0.9,0.6,1.4,0.6
				c0.5,0,1-0.2,1.4-0.6c0.8-0.8,0.8-2,0-2.7l-1.5-1.5h2.7c5.1,0,9.2-4.1,9.2-9.2C39.7,20,35.8,16,30.9,15.8z"/>
			<path class="st1" d="M28.3,16.3l-4.9-4.9c-0.8-0.8-2-0.8-2.7,0c-0.8,0.8-0.8,2,0,2.7l1.5,1.5h-2.7c-5.1,0-9.2,4.1-9.2,9.2
				c0,5,3.9,9,8.9,9.2c-0.3-0.6-0.5-1.2-0.5-1.9c0-0.7,0.2-1.4,0.5-2c-2.8-0.2-5-2.5-5-5.3c0-2.9,2.4-5.3,5.3-5.3h2.7l-1.5,1.5
				c-0.8,0.8-0.8,2,0,2.7c0.4,0.4,0.9,0.6,1.4,0.6c0.5,0,1-0.2,1.4-0.6l4.9-4.9C29.1,18.3,29.1,17.1,28.3,16.3z"/>
		</g>
	</g>
</g>
</svg>
